<?xml version="1.0" encoding="UTF-8" standalone="no"?>
<!-- Created with Inkscape (http://www.inkscape.org/) -->

<svg
   xmlns:dc="http://purl.org/dc/elements/1.1/"
   xmlns:cc="http://creativecommons.org/ns#"
   xmlns:rdf="http://www.w3.org/1999/02/22-rdf-syntax-ns#"
   xmlns:svg="http://www.w3.org/2000/svg"
   xmlns="http://www.w3.org/2000/svg"
   xmlns:sodipodi="http://sodipodi.sourceforge.net/DTD/sodipodi-0.dtd"
   xmlns:inkscape="http://www.inkscape.org/namespaces/inkscape"
   width="256"
   height="42"
   viewBox="0 0 256 41.999999"
   id="svg2"
   version="1.1"
   inkscape:version="0.92.4 (5da689c313, 2019-01-14)"
   sodipodi:docname="aipainting.svg"
   inkscape:export-filename="D:\Development\Games\My Colony\Web\0.91.0\html5\images\aipainting.png"
   inkscape:export-xdpi="96"
   inkscape:export-ydpi="96">
  <defs
     id="defs4">
    <clipPath
       id="clipPath882"
       clipPathUnits="userSpaceOnUse">
      <rect
         y="1003.2817"
         x="7.0022092"
         height="40.903172"
         width="35.58049"
         id="rect884"
         style="opacity:1;fill:#6abae9;fill-opacity:1;stroke:none;stroke-width:1.80880702;stroke-linecap:round;stroke-linejoin:round;stroke-miterlimit:4;stroke-dasharray:none;stroke-opacity:1" />
    </clipPath>
  </defs>
  <sodipodi:namedview
     id="base"
     pagecolor="#ffffff"
     bordercolor="#666666"
     borderopacity="1.0"
     inkscape:pageopacity="0.0"
     inkscape:pageshadow="2"
     inkscape:zoom="2.84"
     inkscape:cx="158.59264"
     inkscape:cy="21.793093"
     inkscape:document-units="px"
     inkscape:current-layer="layer1"
     showgrid="false"
     units="px"
     inkscape:window-width="2260"
     inkscape:window-height="1082"
     inkscape:window-x="2149"
     inkscape:window-y="107"
     inkscape:window-maximized="0"
     inkscape:snap-global="false"
     showguides="false">
    <inkscape:grid
       type="xygrid"
       id="grid4136"
       empspacing="16" />
  </sodipodi:namedview>
  <metadata
     id="metadata7">
    <rdf:RDF>
      <cc:Work
         rdf:about="">
        <dc:format>image/svg+xml</dc:format>
        <dc:type
           rdf:resource="http://purl.org/dc/dcmitype/StillImage" />
        <dc:title></dc:title>
      </cc:Work>
    </rdf:RDF>
  </metadata>
  <g
     inkscape:label="Layer 1"
     inkscape:groupmode="layer"
     id="layer1"
     transform="translate(0,-1010.3622)">
    <path
       style="fill:#ac9d93;fill-rule:evenodd;stroke:none;stroke-width:1px;stroke-linecap:butt;stroke-linejoin:miter;stroke-opacity:1"
       d="m 0,1036.3622 32,16 32,-16 -32,-16 z"
       id="path4138"
       inkscape:connector-curvature="0" />
    <path
       inkscape:connector-curvature="0"
       id="path4147"
       d="m 0,1036.3622 32,16 0.01505,-5.3054 -31.89088289,-11.2902 z"
       style="fill:#b7a79c;fill-opacity:1;fill-rule:evenodd;stroke:none;stroke-width:1px;stroke-linecap:butt;stroke-linejoin:miter;stroke-opacity:1"
       sodipodi:nodetypes="ccccc" />
    <path
       sodipodi:nodetypes="ccccc"
       style="fill:#8a7e76;fill-opacity:1;fill-rule:evenodd;stroke:none;stroke-width:1px;stroke-linecap:butt;stroke-linejoin:miter;stroke-opacity:1"
       d="m 64.01505,1036.3622 -32,16 L 32,1047.0568 63.759618,1035.7009 Z"
       id="path4149"
       inkscape:connector-curvature="0" />
    <path
       inkscape:connector-curvature="0"
       id="path4145"
       d="m 0,1035.8622 32,16 32,-16 -32,-16 z"
       style="fill:#d7cac2;fill-opacity:1;fill-rule:evenodd;stroke:none;stroke-width:1px;stroke-linecap:butt;stroke-linejoin:miter;stroke-opacity:1" />
    <path
       inkscape:connector-curvature="0"
       id="path1571"
       d="m 32.264638,1023.8958 -23.7616451,12.2653 23.8082741,12.2075 23.626925,-12.6488 z"
       style="fill:#ff00ff;stroke:#c9a22b;stroke-width:0.99994719px;stroke-linecap:butt;stroke-linejoin:miter;stroke-opacity:1"
       sodipodi:nodetypes="ccccc" />
    <g
       transform="matrix(1.0267533,0,0,1.0268624,80.790435,-120.35385)"
       id="g1607" />
    <path
       inkscape:connector-curvature="0"
       id="path1667"
       d="m 19.979613,1031.1349 3.975535,1.7329 10.49949,-6.6259 -2.446483,-2.1407 z"
       style="fill:#5b2ca0;fill-opacity:1;stroke:#4c208d;stroke-width:1px;stroke-linecap:round;stroke-linejoin:round;stroke-opacity:1" />
    <path
       style="fill:#4f2d80;fill-opacity:1;stroke:#4c208d;stroke-width:1px;stroke-linecap:round;stroke-linejoin:round;stroke-opacity:1"
       d="m 34.454638,1026.2419 v 4 l -10.49949,6.6259 v -4 z"
       id="path1669"
       inkscape:connector-curvature="0" />
    <path
       style="fill:#463164;fill-opacity:1;stroke:#4c208d;stroke-width:1px;stroke-linecap:round;stroke-linejoin:round;stroke-opacity:1"
       d="m 23.955148,1036.8678 -3.975535,-1.7329 v -4 l 3.975535,1.7329 z"
       id="path1671"
       inkscape:connector-curvature="0" />
    <rect
       style="opacity:1;fill:#404041;fill-opacity:1;stroke:#ceb45f;stroke-width:0.48135152;stroke-linecap:round;stroke-linejoin:round;stroke-miterlimit:4;stroke-dasharray:none;stroke-opacity:1"
       id="rect825"
       width="6.7809787"
       height="15.199064"
       x="-99.612961"
       y="971.20453"
       transform="matrix(0.863382,-0.50455081,0.1120777,0.99369945,0,0)" />
    <rect
       y="971.43866"
       x="-99.453606"
       height="14.640771"
       width="6.4394989"
       id="rect827"
       style="opacity:1;fill:#6abae9;fill-opacity:1;stroke:none;stroke-width:0.4603793;stroke-linecap:round;stroke-linejoin:round;stroke-miterlimit:4;stroke-dasharray:none;stroke-opacity:1"
       transform="matrix(0.863382,-0.50455081,0.1120777,0.99369945,0,0)" />
    <g
       id="layer1-2"
       inkscape:label="Layer 1"
       transform="matrix(0.15625832,-0.09131562,0.04011679,0.35568211,-18.332437,659.28753)"
       clip-path="url(#clipPath882)">
      <g
         transform="matrix(1.8851813,0,0,1.8851813,146.91393,-1021.8412)"
         id="g8338">
        <path
           style="fill:#1a1a1a;fill-rule:evenodd;stroke:none;stroke-width:1px;stroke-linecap:butt;stroke-linejoin:miter;stroke-opacity:1"
           d="m -62.535859,1087.7805 c -0.958724,0.6978 -2.158394,1.2064 -1.664765,3.0453 0.29705,1.623 0.609202,3.2356 2.598658,3.695 0.919316,0.418 1.326776,0.068 1.380536,-0.8121 -2.402868,-0.9721 -2.710292,-3.2338 -2.314429,-5.9282 z"
           id="path8201"
           inkscape:connector-curvature="0"
           sodipodi:nodetypes="ccccc" />
        <path
           sodipodi:nodetypes="ccscc"
           inkscape:connector-curvature="0"
           id="path8203"
           d="m -63.323861,1086.3179 h -3.196687 c 0,0 -3.728519,11.588 0,11.588 h 3.196687 c 4.035761,0 0,-11.588 0,-11.588 z"
           style="opacity:1;fill:#333333;fill-opacity:1;stroke:none;stroke-width:4;stroke-linecap:round;stroke-linejoin:round;stroke-miterlimit:4;stroke-dasharray:none;stroke-opacity:1" />
        <path
           sodipodi:nodetypes="ccccc"
           inkscape:connector-curvature="0"
           id="path8205"
           d="m -66.921095,1087.9023 c -0.958724,0.6979 -2.158394,1.2064 -1.664765,3.0453 0.29705,1.623 0.609202,3.2356 2.598658,3.695 0.919314,0.418 1.326775,0.068 1.380537,-0.8121 -2.402869,-0.9721 -2.710293,-3.2337 -2.31443,-5.9282 z"
           style="fill:#1a1a1a;fill-rule:evenodd;stroke:none;stroke-width:1px;stroke-linecap:butt;stroke-linejoin:miter;stroke-opacity:1" />
        <g
           id="g8170"
           transform="matrix(-1,0,0,1,-32.30727,55.877687)">
          <path
             style="fill:#f9f9f9;fill-rule:evenodd;stroke:none;stroke-width:1px;stroke-linecap:butt;stroke-linejoin:miter;stroke-opacity:1"
             d="m 30.22924,1032.7668 0.214391,4.1163 0.771811,2.4012 c 0,0 1.114837,-2.4012 1.114837,-2.6156 0,-0.2143 0.986202,-4.8023 0.986202,-4.8023 z"
             id="path8172"
             inkscape:connector-curvature="0" />
          <path
             style="fill:#2c5aa0;fill-rule:evenodd;stroke:none;stroke-width:1px;stroke-linecap:butt;stroke-linejoin:miter;stroke-opacity:1"
             d="m 30.872415,1032.681 -0.214392,0.9434 0.557419,3.7304 0.900445,-3.7304 -0.600297,-1.2006 z"
             id="path8174"
             inkscape:connector-curvature="0" />
        </g>
        <circle
           r="5.4943056"
           cy="1083.1552"
           cx="64.890144"
           id="circle8207"
           style="opacity:1;fill:#f4e3d7;fill-opacity:1;stroke:none;stroke-width:4;stroke-linecap:round;stroke-linejoin:round;stroke-miterlimit:4;stroke-dasharray:none;stroke-opacity:1"
           transform="scale(-1,1)" />
      </g>
    </g>
    <g
       id="g1753">
      <path
         inkscape:connector-curvature="0"
         id="path1747"
         d="m 29.14804,1017.6599 -2.231201,1.7565 0.474723,0.5222 1.99384,-1.8989 z"
         style="fill:#666666;stroke:none;stroke-width:1px;stroke-linecap:butt;stroke-linejoin:miter;stroke-opacity:1" />
      <path
         inkscape:connector-curvature="0"
         id="path1749"
         d="m 26.964311,1019.274 0.617141,0.712 -0.901975,0.5697 z"
         style="fill:#a0892c;stroke:none;stroke-width:1px;stroke-linecap:butt;stroke-linejoin:miter;stroke-opacity:1" />
    </g>
    <path
       inkscape:connector-curvature="0"
       id="path1745"
       d="m 27.540643,1018.7043 9.07651,-0.7431 -0.858687,4.9114 -8.07541,-3.3614 z"
       style="fill:#c9a22b;fill-opacity:1;stroke:#4c208d;stroke-width:1;stroke-linecap:round;stroke-linejoin:round;stroke-miterlimit:4;stroke-dasharray:none;stroke-opacity:1"
       sodipodi:nodetypes="ccccc" />
    <path
       style="fill:#c9a22b;fill-opacity:1;stroke:#4c208d;stroke-width:1;stroke-linecap:round;stroke-linejoin:round;stroke-miterlimit:4;stroke-dasharray:none;stroke-opacity:1"
       d="m 44.525147,1037.0647 -8.06636,-19.12 -1.392253,4.0053 5.536742,17.412 z"
       id="path1743"
       inkscape:connector-curvature="0"
       sodipodi:nodetypes="ccccc" />
    <path
       inkscape:connector-curvature="0"
       id="path1737"
       d="m 39.799476,1036.7902 4.903564,-2.7205 -3.089917,-1.9816 -4.836392,3.2915 z"
       style="fill:#5b2ca0;fill-opacity:1;stroke:#4c208d;stroke-width:1px;stroke-linecap:round;stroke-linejoin:round;stroke-opacity:1" />
    <path
       style="fill:#4f2d80;fill-opacity:1;stroke:#4c208d;stroke-width:1px;stroke-linecap:round;stroke-linejoin:round;stroke-opacity:1"
       d="m 44.70304,1034.0697 v 6 l -4.903564,2.7205 v -6 z"
       id="path1739"
       inkscape:connector-curvature="0" />
    <path
       style="fill:#463164;fill-opacity:1;stroke:#4c208d;stroke-width:1px;stroke-linecap:round;stroke-linejoin:round;stroke-opacity:1"
       d="m 39.799476,1036.7902 -3.022745,-1.4106 v 6 l 3.022745,1.4106 z"
       id="path1741"
       inkscape:connector-curvature="0" />
    <path
       inkscape:connector-curvature="0"
       id="path1755"
       d="m 64,1036.3622 32,16 32,-16 -32,-16 z"
       style="fill:#ac9d93;fill-rule:evenodd;stroke:none;stroke-width:1px;stroke-linecap:butt;stroke-linejoin:miter;stroke-opacity:1" />
    <path
       sodipodi:nodetypes="ccccc"
       style="fill:#b7a79c;fill-opacity:1;fill-rule:evenodd;stroke:none;stroke-width:1px;stroke-linecap:butt;stroke-linejoin:miter;stroke-opacity:1"
       d="m 64,1036.3622 32,16 0.01505,-5.3054 -31.890883,-11.2902 z"
       id="path1757"
       inkscape:connector-curvature="0" />
    <path
       inkscape:connector-curvature="0"
       id="path1759"
       d="m 128.01505,1036.3622 -32,16 -0.01505,-5.3054 31.75962,-11.3559 z"
       style="fill:#8a7e76;fill-opacity:1;fill-rule:evenodd;stroke:none;stroke-width:1px;stroke-linecap:butt;stroke-linejoin:miter;stroke-opacity:1"
       sodipodi:nodetypes="ccccc" />
    <path
       style="fill:#d7cac2;fill-opacity:1;fill-rule:evenodd;stroke:none;stroke-width:1px;stroke-linecap:butt;stroke-linejoin:miter;stroke-opacity:1"
       d="m 64,1035.8622 32,16 32,-16 -32,-16 z"
       id="path1761"
       inkscape:connector-curvature="0" />
    <path
       sodipodi:nodetypes="ccccc"
       style="fill:#ff00ff;stroke:#c9a22b;stroke-width:0.99994719px;stroke-linecap:butt;stroke-linejoin:miter;stroke-opacity:1"
       d="m 96.264638,1023.8958 -23.761645,12.2653 23.808274,12.2075 23.626923,-12.6488 z"
       id="path1763"
       inkscape:connector-curvature="0" />
    <path
       style="fill:#5b2ca0;fill-opacity:1;stroke:#4c208d;stroke-width:1px;stroke-linecap:round;stroke-linejoin:round;stroke-opacity:1"
       d="m 83.979613,1031.1349 3.975535,1.7329 10.49949,-6.6259 -2.446483,-2.1407 z"
       id="path1765"
       inkscape:connector-curvature="0" />
    <path
       inkscape:connector-curvature="0"
       id="path1767"
       d="m 98.454638,1026.2419 v 4 l -10.49949,6.6259 v -4 z"
       style="fill:#4f2d80;fill-opacity:1;stroke:#4c208d;stroke-width:1px;stroke-linecap:round;stroke-linejoin:round;stroke-opacity:1" />
    <path
       inkscape:connector-curvature="0"
       id="path1769"
       d="m 87.955148,1036.8678 -3.975535,-1.7329 v -4 l 3.975535,1.7329 z"
       style="fill:#463164;fill-opacity:1;stroke:#4c208d;stroke-width:1px;stroke-linecap:round;stroke-linejoin:round;stroke-opacity:1" />
    <rect
       transform="matrix(0.863382,-0.50455081,0.1120777,0.99369945,0,0)"
       y="1006.5151"
       x="-30.069622"
       height="15.199064"
       width="6.7809787"
       id="rect1771"
       style="opacity:1;fill:#404041;fill-opacity:1;stroke:#ceb45f;stroke-width:0.48135152;stroke-linecap:round;stroke-linejoin:round;stroke-miterlimit:4;stroke-dasharray:none;stroke-opacity:1" />
    <rect
       transform="matrix(0.863382,-0.50455081,0.1120777,0.99369945,0,0)"
       style="opacity:1;fill:#6abae9;fill-opacity:1;stroke:none;stroke-width:0.4603793;stroke-linecap:round;stroke-linejoin:round;stroke-miterlimit:4;stroke-dasharray:none;stroke-opacity:1"
       id="rect1773"
       width="6.4394989"
       height="14.640771"
       x="-29.910267"
       y="1006.7493" />
    <g
       clip-path="url(#clipPath882)"
       transform="matrix(0.15625832,-0.09131562,0.04011679,0.35568211,45.667563,659.28753)"
       inkscape:label="Layer 1"
       id="g1791">
      <g
         id="g1789"
         transform="matrix(1.8851813,0,0,1.8851813,146.91393,-1021.8412)">
        <path
           sodipodi:nodetypes="ccccc"
           inkscape:connector-curvature="0"
           id="path1775"
           d="m -62.535859,1087.7805 c -0.958724,0.6978 -2.158394,1.2064 -1.664765,3.0453 0.29705,1.623 0.609202,3.2356 2.598658,3.695 0.919316,0.418 1.326776,0.068 1.380536,-0.8121 -2.402868,-0.9721 -2.710292,-3.2338 -2.314429,-5.9282 z"
           style="fill:#1a1a1a;fill-rule:evenodd;stroke:none;stroke-width:1px;stroke-linecap:butt;stroke-linejoin:miter;stroke-opacity:1" />
        <path
           style="opacity:1;fill:#333333;fill-opacity:1;stroke:none;stroke-width:4;stroke-linecap:round;stroke-linejoin:round;stroke-miterlimit:4;stroke-dasharray:none;stroke-opacity:1"
           d="m -63.323861,1086.3179 h -3.196687 c 0,0 -3.728519,11.588 0,11.588 h 3.196687 c 4.035761,0 0,-11.588 0,-11.588 z"
           id="path1777"
           inkscape:connector-curvature="0"
           sodipodi:nodetypes="ccscc" />
        <path
           style="fill:#1a1a1a;fill-rule:evenodd;stroke:none;stroke-width:1px;stroke-linecap:butt;stroke-linejoin:miter;stroke-opacity:1"
           d="m -66.921095,1087.9023 c -0.958724,0.6979 -2.158394,1.2064 -1.664765,3.0453 0.29705,1.623 0.609202,3.2356 2.598658,3.695 0.919314,0.418 1.326775,0.068 1.380537,-0.8121 -2.402869,-0.9721 -2.710293,-3.2337 -2.31443,-5.9282 z"
           id="path1779"
           inkscape:connector-curvature="0"
           sodipodi:nodetypes="ccccc" />
        <g
           transform="matrix(-1,0,0,1,-32.30727,55.877687)"
           id="g1785">
          <path
             inkscape:connector-curvature="0"
             id="path1781"
             d="m 30.22924,1032.7668 0.214391,4.1163 0.771811,2.4012 c 0,0 1.114837,-2.4012 1.114837,-2.6156 0,-0.2143 0.986202,-4.8023 0.986202,-4.8023 z"
             style="fill:#f9f9f9;fill-rule:evenodd;stroke:none;stroke-width:1px;stroke-linecap:butt;stroke-linejoin:miter;stroke-opacity:1" />
          <path
             inkscape:connector-curvature="0"
             id="path1783"
             d="m 30.872415,1032.681 -0.214392,0.9434 0.557419,3.7304 0.900445,-3.7304 -0.600297,-1.2006 z"
             style="fill:#2c5aa0;fill-rule:evenodd;stroke:none;stroke-width:1px;stroke-linecap:butt;stroke-linejoin:miter;stroke-opacity:1" />
        </g>
        <circle
           transform="scale(-1,1)"
           style="opacity:1;fill:#f4e3d7;fill-opacity:1;stroke:none;stroke-width:4;stroke-linecap:round;stroke-linejoin:round;stroke-miterlimit:4;stroke-dasharray:none;stroke-opacity:1"
           id="circle1787"
           cx="64.890144"
           cy="1083.1552"
           r="5.4943056" />
      </g>
    </g>
    <g
       id="g1797"
       transform="rotate(-11.200012,67.636286,693.75291)"
       inkscape:transform-center-x="7.6175474"
       inkscape:transform-center-y="0.51312772">
      <path
         style="fill:#666666;stroke:none;stroke-width:1px;stroke-linecap:butt;stroke-linejoin:miter;stroke-opacity:1"
         d="m 29.14804,1017.6599 -2.231201,1.7565 0.474723,0.5222 1.99384,-1.8989 z"
         id="path1793"
         inkscape:connector-curvature="0" />
      <path
         style="fill:#a0892c;stroke:none;stroke-width:1px;stroke-linecap:butt;stroke-linejoin:miter;stroke-opacity:1"
         d="m 26.964311,1019.274 0.617141,0.712 -0.901975,0.5697 z"
         id="path1795"
         inkscape:connector-curvature="0" />
    </g>
    <path
       sodipodi:nodetypes="ccccc"
       style="fill:#c9a22b;fill-opacity:1;stroke:#4c208d;stroke-width:1;stroke-linecap:round;stroke-linejoin:round;stroke-miterlimit:4;stroke-dasharray:none;stroke-opacity:1"
       d="m 91.421047,1020.3036 8.759313,-2.4919 0.11163,4.9846 -8.574514,-1.7288 z"
       id="path1799"
       inkscape:connector-curvature="0"
       inkscape:transform-center-x="3.7797672"
       inkscape:transform-center-y="0.19018679" />
    <path
       sodipodi:nodetypes="ccccc"
       inkscape:connector-curvature="0"
       id="path1801"
       d="m 108.52515,1037.0647 -8.06636,-19.12 -1.392256,4.0053 5.536746,17.412 z"
       style="fill:#c9a22b;fill-opacity:1;stroke:#4c208d;stroke-width:1;stroke-linecap:round;stroke-linejoin:round;stroke-miterlimit:4;stroke-dasharray:none;stroke-opacity:1" />
    <path
       style="fill:#5b2ca0;fill-opacity:1;stroke:#4c208d;stroke-width:1px;stroke-linecap:round;stroke-linejoin:round;stroke-opacity:1"
       d="m 103.79948,1036.7902 4.90356,-2.7205 -3.08992,-1.9816 -4.83639,3.2915 z"
       id="path1803"
       inkscape:connector-curvature="0" />
    <path
       inkscape:connector-curvature="0"
       id="path1805"
       d="m 108.70304,1034.0697 v 6 l -4.90356,2.7205 v -6 z"
       style="fill:#4f2d80;fill-opacity:1;stroke:#4c208d;stroke-width:1px;stroke-linecap:round;stroke-linejoin:round;stroke-opacity:1" />
    <path
       inkscape:connector-curvature="0"
       id="path1807"
       d="m 103.79948,1036.7902 -3.02275,-1.4106 v 6 l 3.02275,1.4106 z"
       style="fill:#463164;fill-opacity:1;stroke:#4c208d;stroke-width:1px;stroke-linecap:round;stroke-linejoin:round;stroke-opacity:1" />
    <path
       style="fill:#ac9d93;fill-rule:evenodd;stroke:none;stroke-width:1px;stroke-linecap:butt;stroke-linejoin:miter;stroke-opacity:1"
       d="m 128,1036.3622 32,16 32,-16 -32,-16 z"
       id="path1809"
       inkscape:connector-curvature="0" />
    <path
       inkscape:connector-curvature="0"
       id="path1811"
       d="m 128,1036.3622 32,16 0.0151,-5.3054 -31.89088,-11.2902 z"
       style="fill:#b7a79c;fill-opacity:1;fill-rule:evenodd;stroke:none;stroke-width:1px;stroke-linecap:butt;stroke-linejoin:miter;stroke-opacity:1"
       sodipodi:nodetypes="ccccc" />
    <path
       sodipodi:nodetypes="ccccc"
       style="fill:#8a7e76;fill-opacity:1;fill-rule:evenodd;stroke:none;stroke-width:1px;stroke-linecap:butt;stroke-linejoin:miter;stroke-opacity:1"
       d="m 192.01505,1036.3622 -32,16 -0.0151,-5.3054 31.75962,-11.3559 z"
       id="path1813"
       inkscape:connector-curvature="0" />
    <path
       inkscape:connector-curvature="0"
       id="path1815"
       d="m 128,1035.8622 32,16 32,-16 -32,-16 z"
       style="fill:#d7cac2;fill-opacity:1;fill-rule:evenodd;stroke:none;stroke-width:1px;stroke-linecap:butt;stroke-linejoin:miter;stroke-opacity:1" />
    <path
       inkscape:connector-curvature="0"
       id="path1817"
       d="m 160.26464,1023.8958 -23.76165,12.2653 23.80828,12.2075 23.62692,-12.6488 z"
       style="fill:#ff00ff;stroke:#c9a22b;stroke-width:0.99994719px;stroke-linecap:butt;stroke-linejoin:miter;stroke-opacity:1"
       sodipodi:nodetypes="ccccc" />
    <path
       inkscape:connector-curvature="0"
       id="path1819"
       d="m 147.97961,1031.1349 3.97554,1.7329 10.49949,-6.6259 -2.44649,-2.1407 z"
       style="fill:#5b2ca0;fill-opacity:1;stroke:#4c208d;stroke-width:1px;stroke-linecap:round;stroke-linejoin:round;stroke-opacity:1" />
    <path
       style="fill:#4f2d80;fill-opacity:1;stroke:#4c208d;stroke-width:1px;stroke-linecap:round;stroke-linejoin:round;stroke-opacity:1"
       d="m 162.45464,1026.2419 v 4 l -10.49949,6.6259 v -4 z"
       id="path1821"
       inkscape:connector-curvature="0" />
    <path
       style="fill:#463164;fill-opacity:1;stroke:#4c208d;stroke-width:1px;stroke-linecap:round;stroke-linejoin:round;stroke-opacity:1"
       d="m 151.95515,1036.8678 -3.97554,-1.7329 v -4 l 3.97554,1.7329 z"
       id="path1823"
       inkscape:connector-curvature="0" />
    <rect
       style="opacity:1;fill:#404041;fill-opacity:1;stroke:#ceb45f;stroke-width:0.48135152;stroke-linecap:round;stroke-linejoin:round;stroke-miterlimit:4;stroke-dasharray:none;stroke-opacity:1"
       id="rect1825"
       width="6.7809787"
       height="15.199064"
       x="39.473717"
       y="1041.8257"
       transform="matrix(0.863382,-0.50455081,0.1120777,0.99369945,0,0)" />
    <rect
       y="1042.0599"
       x="39.633072"
       height="14.640771"
       width="6.4394989"
       id="rect1827"
       style="opacity:1;fill:#6abae9;fill-opacity:1;stroke:none;stroke-width:0.4603793;stroke-linecap:round;stroke-linejoin:round;stroke-miterlimit:4;stroke-dasharray:none;stroke-opacity:1"
       transform="matrix(0.863382,-0.50455081,0.1120777,0.99369945,0,0)" />
    <g
       id="g1845"
       inkscape:label="Layer 1"
       transform="matrix(0.15625832,-0.09131562,0.04011679,0.35568211,109.66756,659.28753)"
       clip-path="url(#clipPath882)">
      <g
         transform="matrix(1.8851813,0,0,1.8851813,146.91393,-1021.8412)"
         id="g1843">
        <path
           style="fill:#1a1a1a;fill-rule:evenodd;stroke:none;stroke-width:1px;stroke-linecap:butt;stroke-linejoin:miter;stroke-opacity:1"
           d="m -62.535859,1087.7805 c -0.958724,0.6978 -2.158394,1.2064 -1.664765,3.0453 0.29705,1.623 0.609202,3.2356 2.598658,3.695 0.919316,0.418 1.326776,0.068 1.380536,-0.8121 -2.402868,-0.9721 -2.710292,-3.2338 -2.314429,-5.9282 z"
           id="path1829"
           inkscape:connector-curvature="0"
           sodipodi:nodetypes="ccccc" />
        <path
           sodipodi:nodetypes="ccscc"
           inkscape:connector-curvature="0"
           id="path1831"
           d="m -63.323861,1086.3179 h -3.196687 c 0,0 -3.728519,11.588 0,11.588 h 3.196687 c 4.035761,0 0,-11.588 0,-11.588 z"
           style="opacity:1;fill:#333333;fill-opacity:1;stroke:none;stroke-width:4;stroke-linecap:round;stroke-linejoin:round;stroke-miterlimit:4;stroke-dasharray:none;stroke-opacity:1" />
        <path
           sodipodi:nodetypes="ccccc"
           inkscape:connector-curvature="0"
           id="path1833"
           d="m -66.921095,1087.9023 c -0.958724,0.6979 -2.158394,1.2064 -1.664765,3.0453 0.29705,1.623 0.609202,3.2356 2.598658,3.695 0.919314,0.418 1.326775,0.068 1.380537,-0.8121 -2.402869,-0.9721 -2.710293,-3.2337 -2.31443,-5.9282 z"
           style="fill:#1a1a1a;fill-rule:evenodd;stroke:none;stroke-width:1px;stroke-linecap:butt;stroke-linejoin:miter;stroke-opacity:1" />
        <g
           id="g1839"
           transform="matrix(-1,0,0,1,-32.30727,55.877687)">
          <path
             style="fill:#f9f9f9;fill-rule:evenodd;stroke:none;stroke-width:1px;stroke-linecap:butt;stroke-linejoin:miter;stroke-opacity:1"
             d="m 30.22924,1032.7668 0.214391,4.1163 0.771811,2.4012 c 0,0 1.114837,-2.4012 1.114837,-2.6156 0,-0.2143 0.986202,-4.8023 0.986202,-4.8023 z"
             id="path1835"
             inkscape:connector-curvature="0" />
          <path
             style="fill:#2c5aa0;fill-rule:evenodd;stroke:none;stroke-width:1px;stroke-linecap:butt;stroke-linejoin:miter;stroke-opacity:1"
             d="m 30.872415,1032.681 -0.214392,0.9434 0.557419,3.7304 0.900445,-3.7304 -0.600297,-1.2006 z"
             id="path1837"
             inkscape:connector-curvature="0" />
        </g>
        <circle
           r="5.4943056"
           cy="1083.1552"
           cx="64.890144"
           id="circle1841"
           style="opacity:1;fill:#f4e3d7;fill-opacity:1;stroke:none;stroke-width:4;stroke-linecap:round;stroke-linejoin:round;stroke-miterlimit:4;stroke-dasharray:none;stroke-opacity:1"
           transform="scale(-1,1)" />
      </g>
    </g>
    <g
       inkscape:transform-center-y="2.1517561"
       inkscape:transform-center-x="7.4246391"
       transform="rotate(-23.46157,99.636285,711.90355)"
       id="g1851">
      <path
         inkscape:connector-curvature="0"
         id="path1847"
         d="m 29.14804,1017.6599 -2.231201,1.7565 0.474723,0.5222 1.99384,-1.8989 z"
         style="fill:#666666;stroke:none;stroke-width:1px;stroke-linecap:butt;stroke-linejoin:miter;stroke-opacity:1" />
      <path
         inkscape:connector-curvature="0"
         id="path1849"
         d="m 26.964311,1019.274 0.617141,0.712 -0.901975,0.5697 z"
         style="fill:#a0892c;stroke:none;stroke-width:1px;stroke-linecap:butt;stroke-linejoin:miter;stroke-opacity:1" />
    </g>
    <path
       inkscape:transform-center-y="0.12428731"
       inkscape:transform-center-x="3.3885471"
       inkscape:connector-curvature="0"
       id="path1853"
       d="m 155.64876,1022.044 8.03028,-4.2953 1.16768,4.8472 -8.74606,0.1316 z"
       style="fill:#c9a22b;fill-opacity:1;stroke:#4c208d;stroke-width:1;stroke-linecap:round;stroke-linejoin:round;stroke-miterlimit:4;stroke-dasharray:none;stroke-opacity:1"
       sodipodi:nodetypes="ccccc" />
    <path
       style="fill:#c9a22b;fill-opacity:1;stroke:#4c208d;stroke-width:1;stroke-linecap:round;stroke-linejoin:round;stroke-miterlimit:4;stroke-dasharray:none;stroke-opacity:1"
       d="m 172.52515,1037.0647 -8.06636,-19.12 -1.39226,4.0053 5.53675,17.412 z"
       id="path1855"
       inkscape:connector-curvature="0"
       sodipodi:nodetypes="ccccc" />
    <path
       inkscape:connector-curvature="0"
       id="path1857"
       d="m 167.79948,1036.7902 4.90356,-2.7205 -3.08992,-1.9816 -4.83639,3.2915 z"
       style="fill:#5b2ca0;fill-opacity:1;stroke:#4c208d;stroke-width:1px;stroke-linecap:round;stroke-linejoin:round;stroke-opacity:1" />
    <path
       style="fill:#4f2d80;fill-opacity:1;stroke:#4c208d;stroke-width:1px;stroke-linecap:round;stroke-linejoin:round;stroke-opacity:1"
       d="m 172.70304,1034.0697 v 6 l -4.90356,2.7205 v -6 z"
       id="path1859"
       inkscape:connector-curvature="0" />
    <path
       style="fill:#463164;fill-opacity:1;stroke:#4c208d;stroke-width:1px;stroke-linecap:round;stroke-linejoin:round;stroke-opacity:1"
       d="m 167.79948,1036.7902 -3.02275,-1.4106 v 6 l 3.02275,1.4106 z"
       id="path1861"
       inkscape:connector-curvature="0" />
    <path
       style="fill:#ac9d93;fill-rule:evenodd;stroke:none;stroke-width:1px;stroke-linecap:butt;stroke-linejoin:miter;stroke-opacity:1"
       d="m 192,1036.3622 32,16 32,-16 -32,-16 z"
       id="path1863"
       inkscape:connector-curvature="0" />
    <path
       inkscape:connector-curvature="0"
       id="path1865"
       d="m 192,1036.3622 32,16 0.0151,-5.3054 -31.89088,-11.2902 z"
       style="fill:#b7a79c;fill-opacity:1;fill-rule:evenodd;stroke:none;stroke-width:1px;stroke-linecap:butt;stroke-linejoin:miter;stroke-opacity:1"
       sodipodi:nodetypes="ccccc" />
    <path
       sodipodi:nodetypes="ccccc"
       style="fill:#8a7e76;fill-opacity:1;fill-rule:evenodd;stroke:none;stroke-width:1px;stroke-linecap:butt;stroke-linejoin:miter;stroke-opacity:1"
       d="m 256.01505,1036.3622 -32,16 -0.0151,-5.3054 31.75962,-11.3559 z"
       id="path1867"
       inkscape:connector-curvature="0" />
    <path
       inkscape:connector-curvature="0"
       id="path1869"
       d="m 192,1035.8622 32,16 32,-16 -32,-16 z"
       style="fill:#d7cac2;fill-opacity:1;fill-rule:evenodd;stroke:none;stroke-width:1px;stroke-linecap:butt;stroke-linejoin:miter;stroke-opacity:1" />
    <path
       inkscape:connector-curvature="0"
       id="path1871"
       d="m 224.26464,1023.8958 -23.76165,12.2653 23.80828,12.2075 23.62692,-12.6488 z"
       style="fill:#ff00ff;stroke:#c9a22b;stroke-width:0.99994719px;stroke-linecap:butt;stroke-linejoin:miter;stroke-opacity:1"
       sodipodi:nodetypes="ccccc" />
    <path
       inkscape:connector-curvature="0"
       id="path1873"
       d="m 211.97961,1031.1349 3.97554,1.7329 10.49949,-6.6259 -2.44649,-2.1407 z"
       style="fill:#5b2ca0;fill-opacity:1;stroke:#4c208d;stroke-width:1px;stroke-linecap:round;stroke-linejoin:round;stroke-opacity:1" />
    <path
       style="fill:#4f2d80;fill-opacity:1;stroke:#4c208d;stroke-width:1px;stroke-linecap:round;stroke-linejoin:round;stroke-opacity:1"
       d="m 226.45464,1026.2419 v 4 l -10.49949,6.6259 v -4 z"
       id="path1875"
       inkscape:connector-curvature="0" />
    <path
       style="fill:#463164;fill-opacity:1;stroke:#4c208d;stroke-width:1px;stroke-linecap:round;stroke-linejoin:round;stroke-opacity:1"
       d="m 215.95515,1036.8678 -3.97554,-1.7329 v -4 l 3.97554,1.7329 z"
       id="path1877"
       inkscape:connector-curvature="0" />
    <rect
       style="opacity:1;fill:#404041;fill-opacity:1;stroke:#ceb45f;stroke-width:0.48135152;stroke-linecap:round;stroke-linejoin:round;stroke-miterlimit:4;stroke-dasharray:none;stroke-opacity:1"
       id="rect1879"
       width="6.7809787"
       height="15.199064"
       x="109.01705"
       y="1077.1364"
       transform="matrix(0.863382,-0.50455081,0.1120777,0.99369945,0,0)" />
    <rect
       y="1077.3706"
       x="109.17641"
       height="14.640771"
       width="6.4394989"
       id="rect1881"
       style="opacity:1;fill:#6abae9;fill-opacity:1;stroke:none;stroke-width:0.4603793;stroke-linecap:round;stroke-linejoin:round;stroke-miterlimit:4;stroke-dasharray:none;stroke-opacity:1"
       transform="matrix(0.863382,-0.50455081,0.1120777,0.99369945,0,0)" />
    <g
       id="g1899"
       inkscape:label="Layer 1"
       transform="matrix(0.15625832,-0.09131562,0.04011679,0.35568211,173.66756,659.28753)"
       clip-path="url(#clipPath882)">
      <g
         transform="matrix(1.8851813,0,0,1.8851813,146.91393,-1021.8412)"
         id="g1897">
        <path
           style="fill:#1a1a1a;fill-rule:evenodd;stroke:none;stroke-width:1px;stroke-linecap:butt;stroke-linejoin:miter;stroke-opacity:1"
           d="m -62.535859,1087.7805 c -0.958724,0.6978 -2.158394,1.2064 -1.664765,3.0453 0.29705,1.623 0.609202,3.2356 2.598658,3.695 0.919316,0.418 1.326776,0.068 1.380536,-0.8121 -2.402868,-0.9721 -2.710292,-3.2338 -2.314429,-5.9282 z"
           id="path1883"
           inkscape:connector-curvature="0"
           sodipodi:nodetypes="ccccc" />
        <path
           sodipodi:nodetypes="ccscc"
           inkscape:connector-curvature="0"
           id="path1885"
           d="m -63.323861,1086.3179 h -3.196687 c 0,0 -3.728519,11.588 0,11.588 h 3.196687 c 4.035761,0 0,-11.588 0,-11.588 z"
           style="opacity:1;fill:#333333;fill-opacity:1;stroke:none;stroke-width:4;stroke-linecap:round;stroke-linejoin:round;stroke-miterlimit:4;stroke-dasharray:none;stroke-opacity:1" />
        <path
           sodipodi:nodetypes="ccccc"
           inkscape:connector-curvature="0"
           id="path1887"
           d="m -66.921095,1087.9023 c -0.958724,0.6979 -2.158394,1.2064 -1.664765,3.0453 0.29705,1.623 0.609202,3.2356 2.598658,3.695 0.919314,0.418 1.326775,0.068 1.380537,-0.8121 -2.402869,-0.9721 -2.710293,-3.2337 -2.31443,-5.9282 z"
           style="fill:#1a1a1a;fill-rule:evenodd;stroke:none;stroke-width:1px;stroke-linecap:butt;stroke-linejoin:miter;stroke-opacity:1" />
        <g
           id="g1893"
           transform="matrix(-1,0,0,1,-32.30727,55.877687)">
          <path
             style="fill:#f9f9f9;fill-rule:evenodd;stroke:none;stroke-width:1px;stroke-linecap:butt;stroke-linejoin:miter;stroke-opacity:1"
             d="m 30.22924,1032.7668 0.214391,4.1163 0.771811,2.4012 c 0,0 1.114837,-2.4012 1.114837,-2.6156 0,-0.2143 0.986202,-4.8023 0.986202,-4.8023 z"
             id="path1889"
             inkscape:connector-curvature="0" />
          <path
             style="fill:#2c5aa0;fill-rule:evenodd;stroke:none;stroke-width:1px;stroke-linecap:butt;stroke-linejoin:miter;stroke-opacity:1"
             d="m 30.872415,1032.681 -0.214392,0.9434 0.557419,3.7304 0.900445,-3.7304 -0.600297,-1.2006 z"
             id="path1891"
             inkscape:connector-curvature="0" />
        </g>
        <circle
           r="5.4943056"
           cy="1083.1552"
           cx="64.890144"
           id="circle1895"
           style="opacity:1;fill:#f4e3d7;fill-opacity:1;stroke:none;stroke-width:4;stroke-linecap:round;stroke-linejoin:round;stroke-miterlimit:4;stroke-dasharray:none;stroke-opacity:1"
           transform="scale(-1,1)" />
      </g>
    </g>
    <g
       inkscape:transform-center-y="0.51312772"
       inkscape:transform-center-x="7.6175474"
       transform="rotate(-11.200012,131.63629,41.031121)"
       id="g1905">
      <path
         inkscape:connector-curvature="0"
         id="path1901"
         d="m 29.14804,1017.6599 -2.231201,1.7565 0.474723,0.5222 1.99384,-1.8989 z"
         style="fill:#666666;stroke:none;stroke-width:1px;stroke-linecap:butt;stroke-linejoin:miter;stroke-opacity:1" />
      <path
         inkscape:connector-curvature="0"
         id="path1903"
         d="m 26.964311,1019.274 0.617141,0.712 -0.901975,0.5697 z"
         style="fill:#a0892c;stroke:none;stroke-width:1px;stroke-linecap:butt;stroke-linejoin:miter;stroke-opacity:1" />
    </g>
    <path
       inkscape:transform-center-y="0.19018679"
       inkscape:transform-center-x="3.7797672"
       inkscape:connector-curvature="0"
       id="path1907"
       d="m 219.42105,1020.3036 8.75931,-2.4919 0.11163,4.9846 -8.57451,-1.7288 z"
       style="fill:#c9a22b;fill-opacity:1;stroke:#4c208d;stroke-width:1;stroke-linecap:round;stroke-linejoin:round;stroke-miterlimit:4;stroke-dasharray:none;stroke-opacity:1"
       sodipodi:nodetypes="ccccc" />
    <path
       style="fill:#c9a22b;fill-opacity:1;stroke:#4c208d;stroke-width:1;stroke-linecap:round;stroke-linejoin:round;stroke-miterlimit:4;stroke-dasharray:none;stroke-opacity:1"
       d="m 236.52515,1037.0647 -8.06636,-19.12 -1.39226,4.0053 5.53675,17.412 z"
       id="path1909"
       inkscape:connector-curvature="0"
       sodipodi:nodetypes="ccccc" />
    <path
       inkscape:connector-curvature="0"
       id="path1911"
       d="m 231.79948,1036.7902 4.90356,-2.7205 -3.08992,-1.9816 -4.83639,3.2915 z"
       style="fill:#5b2ca0;fill-opacity:1;stroke:#4c208d;stroke-width:1px;stroke-linecap:round;stroke-linejoin:round;stroke-opacity:1" />
    <path
       style="fill:#4f2d80;fill-opacity:1;stroke:#4c208d;stroke-width:1px;stroke-linecap:round;stroke-linejoin:round;stroke-opacity:1"
       d="m 236.70304,1034.0697 v 6 l -4.90356,2.7205 v -6 z"
       id="path1913"
       inkscape:connector-curvature="0" />
    <path
       style="fill:#463164;fill-opacity:1;stroke:#4c208d;stroke-width:1px;stroke-linecap:round;stroke-linejoin:round;stroke-opacity:1"
       d="m 231.79948,1036.7902 -3.02275,-1.4106 v 6 l 3.02275,1.4106 z"
       id="path1915"
       inkscape:connector-curvature="0" />
  </g>
</svg>
