<?xml version="1.0" encoding="UTF-8" standalone="no"?>
<!-- Created with Inkscape (http://www.inkscape.org/) -->

<svg
   xmlns:dc="http://purl.org/dc/elements/1.1/"
   xmlns:cc="http://creativecommons.org/ns#"
   xmlns:rdf="http://www.w3.org/1999/02/22-rdf-syntax-ns#"
   xmlns:svg="http://www.w3.org/2000/svg"
   xmlns="http://www.w3.org/2000/svg"
   xmlns:sodipodi="http://sodipodi.sourceforge.net/DTD/sodipodi-0.dtd"
   xmlns:inkscape="http://www.inkscape.org/namespaces/inkscape"
   width="128"
   height="76"
   viewBox="0 0 128 76"
   id="svg2"
   version="1.1"
   inkscape:version="0.92.2 (5c3e80d, 2017-08-06)"
   sodipodi:docname="arbsquare2.svg"
   inkscape:export-filename="D:\Development\Games\My Colony\Web\0.55.0\html5\images\arbsquare2.png"
   inkscape:export-xdpi="96"
   inkscape:export-ydpi="96">
  <defs
     id="defs4" />
  <sodipodi:namedview
     id="base"
     pagecolor="#ffffff"
     bordercolor="#666666"
     borderopacity="1.0"
     inkscape:pageopacity="0.0"
     inkscape:pageshadow="2"
     inkscape:zoom="3.4835009"
     inkscape:cx="134.05151"
     inkscape:cy="41.708023"
     inkscape:document-units="px"
     inkscape:current-layer="layer1"
     showgrid="false"
     units="px"
     inkscape:window-width="2293"
     inkscape:window-height="1098"
     inkscape:window-x="148"
     inkscape:window-y="125"
     inkscape:window-maximized="0"
     inkscape:snap-global="false">
    <inkscape:grid
       type="xygrid"
       id="grid4136"
       empspacing="16" />
  </sodipodi:namedview>
  <metadata
     id="metadata7">
    <rdf:RDF>
      <cc:Work
         rdf:about="">
        <dc:format>image/svg+xml</dc:format>
        <dc:type
           rdf:resource="http://purl.org/dc/dcmitype/StillImage" />
        <dc:title />
      </cc:Work>
    </rdf:RDF>
  </metadata>
  <g
     inkscape:label="Layer 1"
     inkscape:groupmode="layer"
     id="layer1"
     transform="translate(0,-976.3622)">
    <path
       style="fill:#ac9d93;fill-rule:evenodd;stroke:none;stroke-width:0.99994719px;stroke-linecap:butt;stroke-linejoin:miter;stroke-opacity:1"
       d="m 32.010173,1036.3622 31.99661,16 31.996611,-16 -31.996611,-16 z"
       id="path4138"
       inkscape:connector-curvature="0" />
    <path
       inkscape:connector-curvature="0"
       id="path4147"
       d="m 0,1020.3554 64.006783,32.0068 0.01505,-5.3054 -64.00826944,-27.1946 z"
       style="fill:#b7a79c;fill-opacity:1;fill-rule:evenodd;stroke:none;stroke-width:0.99994719px;stroke-linecap:butt;stroke-linejoin:miter;stroke-opacity:1"
       sodipodi:nodetypes="ccccc" />
    <path
       sodipodi:nodetypes="ccccc"
       style="fill:#8a7e76;fill-opacity:1;fill-rule:evenodd;stroke:none;stroke-width:0.99994719px;stroke-linecap:butt;stroke-linejoin:miter;stroke-opacity:1"
       d="m 127.92436,1020.4292 -63.902528,31.933 -0.01505,-5.3054 L 128,1019.8622 Z"
       id="path4149"
       inkscape:connector-curvature="0" />
    <path
       inkscape:connector-curvature="0"
       style="fill:#d7cac2;fill-opacity:1;fill-rule:evenodd;stroke:none;stroke-width:0.99994719px;stroke-linecap:butt;stroke-linejoin:miter;stroke-opacity:1"
       d="m 64.006783,987.86218 -31.99661,16.00002 -31.99661044,16 31.99661044,16 31.99661,16 31.996611,-16 31.996606,-16 -31.996606,-16 z"
       id="path4145" />
    <path
       inkscape:connector-curvature="0"
       style="fill:#5b2ca0;fill-opacity:1;fill-rule:evenodd;stroke:#4c208d;stroke-width:0.99994719;stroke-linecap:round;stroke-linejoin:round;stroke-miterlimit:4;stroke-dasharray:none;stroke-opacity:1"
       d="m 83.456647,987.82159 -11.159502,5.58039 -11.159503,5.58031 11.159503,5.58031 11.159502,5.5804 11.159502,-5.5804 11.159491,-5.58031 -11.159491,-5.58031 z"
       id="path875" />
    <path
       style="fill:#4f2d80;fill-opacity:1;stroke:#4c208d;stroke-width:0.99994719px;stroke-linecap:round;stroke-linejoin:round;stroke-opacity:1"
       d="m 83.456647,1010.143 v 10 l 22.318993,-11.1607 v -10.00001 z"
       id="path877"
       inkscape:connector-curvature="0" />
    <path
       style="fill:#463164;fill-opacity:1;stroke:#4c208d;stroke-width:0.99994719px;stroke-linecap:round;stroke-linejoin:round;stroke-opacity:1"
       d="M 83.456647,1010.143 61.137642,998.98229 v 10.00001 l 22.319005,11.1607 z"
       id="path879"
       inkscape:connector-curvature="0" />
    <path
       style="fill:#ff00ff;stroke:#c9a22b;stroke-width:0.99994719px;stroke-linecap:butt;stroke-linejoin:miter;stroke-opacity:1"
       d="m 60.785013,1009.4336 -39.323007,20.8881 22.326249,11.6685 39.323006,-21.6083 z"
       id="path1248"
       inkscape:connector-curvature="0" />
    <path
       id="path1250"
       d="m 83.456646,991.26856 -7.712904,3.85689 -7.712904,3.85684 7.712904,3.85681 7.712904,3.8569 7.712904,-3.8569 7.712899,-3.85681 -7.712899,-3.85684 z"
       style="opacity:1;fill:#d4aa00;fill-opacity:1;fill-rule:evenodd;stroke:#4c208d;stroke-width:0.99994719;stroke-linecap:round;stroke-linejoin:round;stroke-miterlimit:4;stroke-dasharray:none;stroke-opacity:1"
       inkscape:connector-curvature="0" />
    <path
       inkscape:connector-curvature="0"
       style="opacity:1;fill:#5b2ca0;fill-opacity:1;fill-rule:evenodd;stroke:#4c208d;stroke-width:0.99994719;stroke-linecap:round;stroke-linejoin:round;stroke-miterlimit:4;stroke-dasharray:none;stroke-opacity:1"
       d="m 83.456645,994.83419 -4.147651,2.07406 -4.14765,2.07404 4.14765,2.07401 4.147651,2.0741 4.14765,-2.0741 4.147648,-2.07401 -4.147648,-2.07404 z"
       id="path1252" />
    <path
       sodipodi:nodetypes="cccccc"
       inkscape:connector-curvature="0"
       id="path6554"
       d="m 59.285633,992.04081 0.08919,-8.04 9.856819,0.037 v 8 c 0.532431,1.7789 -9.715609,2.3494 -9.94601,0 z"
       style="fill:#463164;fill-opacity:1;stroke:#4c208d;stroke-width:0.99994719px;stroke-linecap:butt;stroke-linejoin:miter;stroke-opacity:1" />
    <path
       inkscape:connector-curvature="0"
       id="path6556"
       d="m 69.23164,984.03771 a 4.9207205,2.4606216 0 0 1 -4.920721,2.4606 4.9207205,2.4606216 0 0 1 -4.920721,-2.4606 4.9207205,2.4606216 0 0 1 4.920721,-2.4607 4.9207205,2.4606216 0 0 1 4.920721,2.4607 z"
       style="opacity:1;fill:#5b2ca0;fill-opacity:1;stroke:#4c208d;stroke-width:0.99994719;stroke-linecap:round;stroke-linejoin:round;stroke-miterlimit:4;stroke-dasharray:none;stroke-opacity:1" />
    <path
       style="fill:#463164;fill-opacity:1;stroke:#4c208d;stroke-width:0.99994719px;stroke-linecap:butt;stroke-linejoin:miter;stroke-opacity:1"
       d="m 1.5994369,1019.1178 0.08919,-8.04 9.8568191,0.037 v 8 c 0.532431,1.7789 -9.715609,2.3494 -9.9460096,0 z"
       id="path1537"
       inkscape:connector-curvature="0"
       sodipodi:nodetypes="cccccc" />
    <path
       style="opacity:1;fill:#5b2ca0;fill-opacity:1;stroke:#4c208d;stroke-width:0.99994719;stroke-linecap:round;stroke-linejoin:round;stroke-miterlimit:4;stroke-dasharray:none;stroke-opacity:1"
       d="m 11.545443,1011.1147 a 4.9207205,2.4606216 0 0 1 -4.9207205,2.4606 4.9207205,2.4606216 0 0 1 -4.9207207,-2.4606 4.9207205,2.4606216 0 0 1 4.9207207,-2.4607 4.9207205,2.4606216 0 0 1 4.9207205,2.4607 z"
       id="path1539"
       inkscape:connector-curvature="0" />
    <path
       sodipodi:nodetypes="cccccc"
       inkscape:connector-curvature="0"
       id="path1541"
       d="m 115.66428,1019.2716 0.0892,-8.04 9.85681,0.037 v 8 c 0.53244,1.7789 -9.71561,2.3494 -9.946,0 z"
       style="fill:#463164;fill-opacity:1;stroke:#4c208d;stroke-width:0.99994719px;stroke-linecap:butt;stroke-linejoin:miter;stroke-opacity:1" />
    <path
       inkscape:connector-curvature="0"
       id="path1543"
       d="m 125.61028,1011.2685 a 4.9207205,2.4606216 0 0 1 -4.92072,2.4606 4.9207205,2.4606216 0 0 1 -4.92071,-2.4606 4.9207205,2.4606216 0 0 1 4.92071,-2.4607 4.9207205,2.4606216 0 0 1 4.92072,2.4607 z"
       style="opacity:1;fill:#5b2ca0;fill-opacity:1;stroke:#4c208d;stroke-width:0.99994719;stroke-linecap:round;stroke-linejoin:round;stroke-miterlimit:4;stroke-dasharray:none;stroke-opacity:1" />
    <path
       style="fill:#463164;fill-opacity:1;stroke:#4c208d;stroke-width:0.99994719px;stroke-linecap:butt;stroke-linejoin:miter;stroke-opacity:1"
       d="m 58.901059,1047.9639 0.08919,-8.04 9.856816,0.037 v 8 c 0.532433,1.7789 -9.715611,2.3494 -9.946007,0 z"
       id="path1545"
       inkscape:connector-curvature="0"
       sodipodi:nodetypes="cccccc" />
    <path
       style="opacity:1;fill:#5b2ca0;fill-opacity:1;stroke:#4c208d;stroke-width:0.99994719;stroke-linecap:round;stroke-linejoin:round;stroke-miterlimit:4;stroke-dasharray:none;stroke-opacity:1"
       d="m 68.847066,1039.9608 a 4.9207205,2.4606216 0 0 1 -4.920719,2.4606 4.9207205,2.4606216 0 0 1 -4.920719,-2.4606 4.9207205,2.4606216 0 0 1 4.920719,-2.4607 4.9207205,2.4606216 0 0 1 4.920719,2.4607 z"
       id="path1547"
       inkscape:connector-curvature="0" />
    <path
       sodipodi:nodetypes="cccccc"
       inkscape:connector-curvature="0"
       id="path1549"
       d="m 86.975008,1034.0408 0.08919,-8.04 9.856815,0.037 v 8 c 0.532434,1.7789 -9.71561,2.3494 -9.946006,0 z"
       style="fill:#463164;fill-opacity:1;stroke:#4c208d;stroke-width:0.99994719px;stroke-linecap:butt;stroke-linejoin:miter;stroke-opacity:1" />
    <path
       inkscape:connector-curvature="0"
       id="path1551"
       d="m 96.921014,1026.0377 a 4.9207205,2.4606216 0 0 1 -4.920718,2.4606 4.9207205,2.4606216 0 0 1 -4.920719,-2.4606 4.9207205,2.4606216 0 0 1 4.920719,-2.4607 4.9207205,2.4606216 0 0 1 4.920718,2.4607 z"
       style="opacity:1;fill:#5b2ca0;fill-opacity:1;stroke:#4c208d;stroke-width:0.99994719;stroke-linecap:round;stroke-linejoin:round;stroke-miterlimit:4;stroke-dasharray:none;stroke-opacity:1" />
    <path
       style="fill:#463164;fill-opacity:1;stroke:#4c208d;stroke-width:0.99994719px;stroke-linecap:butt;stroke-linejoin:miter;stroke-opacity:1"
       d="m 31.750089,1004.3485 0.08919,-8.04003 9.856816,0.037 v 8.00003 c 0.532433,1.7789 -9.715611,2.3494 -9.946007,0 z"
       id="path1553"
       inkscape:connector-curvature="0"
       sodipodi:nodetypes="cccccc" />
    <path
       style="opacity:1;fill:#5b2ca0;fill-opacity:1;stroke:#4c208d;stroke-width:0.99994719;stroke-linecap:round;stroke-linejoin:round;stroke-miterlimit:4;stroke-dasharray:none;stroke-opacity:1"
       d="m 41.696096,996.34537 a 4.9207205,2.4606216 0 0 1 -4.920719,2.46061 4.9207205,2.4606216 0 0 1 -4.920719,-2.46061 4.9207205,2.4606216 0 0 1 4.920719,-2.4607 4.9207205,2.4606216 0 0 1 4.920719,2.4607 z"
       id="path1555"
       inkscape:connector-curvature="0" />
    <g
       transform="matrix(1.0267533,0,0,1.0268624,173.95504,-69.836742)"
       id="g1607" />
  </g>
</svg>
