<?xml version="1.0" encoding="UTF-8" standalone="no"?>
<!-- Created with Inkscape (http://www.inkscape.org/) -->

<svg
   xmlns:dc="http://purl.org/dc/elements/1.1/"
   xmlns:cc="http://creativecommons.org/ns#"
   xmlns:rdf="http://www.w3.org/1999/02/22-rdf-syntax-ns#"
   xmlns:svg="http://www.w3.org/2000/svg"
   xmlns="http://www.w3.org/2000/svg"
   xmlns:sodipodi="http://sodipodi.sourceforge.net/DTD/sodipodi-0.dtd"
   xmlns:inkscape="http://www.inkscape.org/namespaces/inkscape"
   width="128"
   height="119"
   viewBox="0 0 128 119"
   id="svg2"
   version="1.1"
   inkscape:version="0.92.2 (5c3e80d, 2017-08-06)"
   sodipodi:docname="councilarb.svg"
   inkscape:export-filename="D:\Development\Games\My Colony\Web\0.57.0\html5\images\councilarb.png"
   inkscape:export-xdpi="96"
   inkscape:export-ydpi="96">
  <defs
     id="defs4" />
  <sodipodi:namedview
     id="base"
     pagecolor="#ffffff"
     bordercolor="#666666"
     borderopacity="1.0"
     inkscape:pageopacity="0.0"
     inkscape:pageshadow="2"
     inkscape:zoom="1.9981409"
     inkscape:cx="87.403036"
     inkscape:cy="143.61432"
     inkscape:document-units="px"
     inkscape:current-layer="layer1"
     showgrid="false"
     units="px"
     inkscape:window-width="2293"
     inkscape:window-height="1098"
     inkscape:window-x="148"
     inkscape:window-y="125"
     inkscape:window-maximized="0"
     inkscape:snap-global="false">
    <inkscape:grid
       type="xygrid"
       id="grid4136"
       empspacing="16" />
  </sodipodi:namedview>
  <metadata
     id="metadata7">
    <rdf:RDF>
      <cc:Work
         rdf:about="">
        <dc:format>image/svg+xml</dc:format>
        <dc:type
           rdf:resource="http://purl.org/dc/dcmitype/StillImage" />
        <dc:title></dc:title>
      </cc:Work>
    </rdf:RDF>
  </metadata>
  <g
     inkscape:label="Layer 1"
     inkscape:groupmode="layer"
     id="layer1"
     transform="translate(0,-933.3622)">
    <path
       style="fill:#ac9d93;fill-rule:evenodd;stroke:none;stroke-width:0.99994719px;stroke-linecap:butt;stroke-linejoin:miter;stroke-opacity:1"
       d="m 32.010173,1036.3622 31.99661,16 31.996611,-16 -31.996611,-16 z"
       id="path4138"
       inkscape:connector-curvature="0" />
    <path
       inkscape:connector-curvature="0"
       id="path4147"
       d="m 0,1020.3554 64.006783,32.0068 0.01505,-5.3054 -64.00826944,-27.1946 z"
       style="fill:#b7a79c;fill-opacity:1;fill-rule:evenodd;stroke:none;stroke-width:0.99994719px;stroke-linecap:butt;stroke-linejoin:miter;stroke-opacity:1"
       sodipodi:nodetypes="ccccc" />
    <path
       sodipodi:nodetypes="ccccc"
       style="fill:#8a7e76;fill-opacity:1;fill-rule:evenodd;stroke:none;stroke-width:0.99994719px;stroke-linecap:butt;stroke-linejoin:miter;stroke-opacity:1"
       d="m 127.92436,1020.4292 -63.902528,31.933 -0.01505,-5.3054 L 128,1019.8622 Z"
       id="path4149"
       inkscape:connector-curvature="0" />
    <path
       inkscape:connector-curvature="0"
       style="fill:#d7cac2;fill-opacity:1;fill-rule:evenodd;stroke:none;stroke-width:0.99994719px;stroke-linecap:butt;stroke-linejoin:miter;stroke-opacity:1"
       d="m 64.006783,987.86218 -31.99661,16.00002 -31.99661044,16 31.99661044,16 31.99661,16 31.996611,-16 31.996606,-16 -31.996606,-16 z"
       id="path4145" />
    <path
       id="path865"
       d="m 64.006783,995.61383 -24.245787,12.12417 -24.245787,12.1242 24.245787,12.1242 24.245787,12.1242 24.245787,-12.1242 24.24578,-12.1242 -24.24578,-12.1242 z"
       style="fill:#ff00ff;fill-opacity:1;fill-rule:evenodd;stroke:#c9a22b;stroke-width:1;stroke-linecap:round;stroke-linejoin:round;stroke-miterlimit:4;stroke-dasharray:none;stroke-opacity:1"
       inkscape:connector-curvature="0" />
    <g
       id="g854">
      <path
         sodipodi:nodetypes="cccccc"
         inkscape:connector-curvature="0"
         id="path1537"
         d="m 1.5994369,1019.1178 0.08919,-8.04 9.8568191,0.037 v 8 c 0.532431,1.7789 -9.715609,2.3494 -9.9460096,0 z"
         style="fill:#463164;fill-opacity:1;stroke:#4c208d;stroke-width:0.99994719px;stroke-linecap:butt;stroke-linejoin:miter;stroke-opacity:1" />
      <path
         inkscape:connector-curvature="0"
         id="path1539"
         d="m 11.545443,1011.1147 a 4.9207205,2.4606216 0 0 1 -4.9207205,2.4606 4.9207205,2.4606216 0 0 1 -4.9207207,-2.4606 4.9207205,2.4606216 0 0 1 4.9207207,-2.4607 4.9207205,2.4606216 0 0 1 4.9207205,2.4607 z"
         style="opacity:1;fill:#5b2ca0;fill-opacity:1;stroke:#4c208d;stroke-width:0.99994719;stroke-linecap:round;stroke-linejoin:round;stroke-miterlimit:4;stroke-dasharray:none;stroke-opacity:1" />
    </g>
    <g
       id="g842">
      <path
         style="fill:#463164;fill-opacity:1;stroke:#4c208d;stroke-width:0.99994719px;stroke-linecap:butt;stroke-linejoin:miter;stroke-opacity:1"
         d="m 115.66428,1019.2716 0.0892,-8.04 9.85681,0.037 v 8 c 0.53244,1.7789 -9.71561,2.3494 -9.946,0 z"
         id="path1541"
         inkscape:connector-curvature="0"
         sodipodi:nodetypes="cccccc" />
      <path
         style="opacity:1;fill:#5b2ca0;fill-opacity:1;stroke:#4c208d;stroke-width:0.99994719;stroke-linecap:round;stroke-linejoin:round;stroke-miterlimit:4;stroke-dasharray:none;stroke-opacity:1"
         d="m 125.61028,1011.2685 a 4.9207205,2.4606216 0 0 1 -4.92072,2.4606 4.9207205,2.4606216 0 0 1 -4.92071,-2.4606 4.9207205,2.4606216 0 0 1 4.92071,-2.4607 4.9207205,2.4606216 0 0 1 4.92072,2.4607 z"
         id="path1543"
         inkscape:connector-curvature="0" />
    </g>
    <g
       id="g850">
      <path
         sodipodi:nodetypes="cccccc"
         inkscape:connector-curvature="0"
         id="path1545"
         d="m 58.901059,1047.9639 0.08919,-8.04 9.856816,0.037 v 8 c 0.532433,1.7789 -9.715611,2.3494 -9.946007,0 z"
         style="fill:#463164;fill-opacity:1;stroke:#4c208d;stroke-width:0.99994719px;stroke-linecap:butt;stroke-linejoin:miter;stroke-opacity:1" />
      <path
         inkscape:connector-curvature="0"
         id="path1547"
         d="m 68.847066,1039.9608 a 4.9207205,2.4606216 0 0 1 -4.920719,2.4606 4.9207205,2.4606216 0 0 1 -4.920719,-2.4606 4.9207205,2.4606216 0 0 1 4.920719,-2.4607 4.9207205,2.4606216 0 0 1 4.920719,2.4607 z"
         style="opacity:1;fill:#5b2ca0;fill-opacity:1;stroke:#4c208d;stroke-width:0.99994719;stroke-linecap:round;stroke-linejoin:round;stroke-miterlimit:4;stroke-dasharray:none;stroke-opacity:1" />
    </g>
    <g
       id="g858">
      <path
         sodipodi:nodetypes="cccccc"
         inkscape:connector-curvature="0"
         id="path1553"
         d="m 31.750089,1004.3485 0.08919,-8.04003 9.856816,0.037 v 8.00003 c 0.532433,1.7789 -9.715611,2.3494 -9.946007,0 z"
         style="fill:#463164;fill-opacity:1;stroke:#4c208d;stroke-width:0.99994719px;stroke-linecap:butt;stroke-linejoin:miter;stroke-opacity:1" />
      <path
         inkscape:connector-curvature="0"
         id="path1555"
         d="m 41.696096,996.34537 a 4.9207205,2.4606216 0 0 1 -4.920719,2.46061 4.9207205,2.4606216 0 0 1 -4.920719,-2.46061 4.9207205,2.4606216 0 0 1 4.920719,-2.4607 4.9207205,2.4606216 0 0 1 4.920719,2.4607 z"
         style="opacity:1;fill:#5b2ca0;fill-opacity:1;stroke:#4c208d;stroke-width:0.99994719;stroke-linecap:round;stroke-linejoin:round;stroke-miterlimit:4;stroke-dasharray:none;stroke-opacity:1" />
    </g>
    <g
       transform="matrix(1.0267533,0,0,1.0268624,173.95504,-69.836742)"
       id="g1607" />
    <g
       transform="translate(28.132618,-42.773062)"
       id="g878">
      <path
         sodipodi:nodetypes="cccccc"
         inkscape:connector-curvature="0"
         id="path873"
         d="m 58.901059,1047.9639 0.08919,-8.04 9.856816,0.037 v 8 c 0.532433,1.7789 -9.715611,2.3494 -9.946007,0 z"
         style="fill:#463164;fill-opacity:1;stroke:#4c208d;stroke-width:0.99994719px;stroke-linecap:butt;stroke-linejoin:miter;stroke-opacity:1" />
      <path
         inkscape:connector-curvature="0"
         id="path876"
         d="m 68.847066,1039.9608 a 4.9207205,2.4606216 0 0 1 -4.920719,2.4606 4.9207205,2.4606216 0 0 1 -4.920719,-2.4606 4.9207205,2.4606216 0 0 1 4.920719,-2.4607 4.9207205,2.4606216 0 0 1 4.920719,2.4607 z"
         style="opacity:1;fill:#5b2ca0;fill-opacity:1;stroke:#4c208d;stroke-width:0.99994719;stroke-linecap:round;stroke-linejoin:round;stroke-miterlimit:4;stroke-dasharray:none;stroke-opacity:1" />
    </g>
    <path
       id="path882"
       d="m 64.006781,936.07437 -9.786801,4.89391 -9.786801,4.89392 9.786801,4.89392 9.786801,4.89391 9.786801,-4.89391 9.786798,-4.89392 -9.786798,-4.89392 z"
       style="fill:#5b2ca0;fill-opacity:1;fill-rule:evenodd;stroke:#4c208d;stroke-width:1;stroke-linecap:round;stroke-linejoin:round;stroke-miterlimit:4;stroke-dasharray:none;stroke-opacity:1"
       inkscape:connector-curvature="0" />
    <path
       style="fill:#4f2d80;fill-opacity:1;stroke:#4c208d;stroke-width:1px;stroke-linecap:round;stroke-linejoin:round;stroke-opacity:1"
       d="m 83.58038,945.8622 13.574511,74 -33.148109,16.5758 -10e-7,-80.78797 z"
       id="path884"
       inkscape:connector-curvature="0" />
    <path
       style="fill:#463164;fill-opacity:1;stroke:#4c208d;stroke-width:1px;stroke-linecap:round;stroke-linejoin:round;stroke-opacity:1"
       d="m 44.433179,945.8622 -13.574511,74 33.148114,16.5758 -10e-7,-80.78797 z"
       id="path886"
       inkscape:connector-curvature="0" />
    <g
       id="g846">
      <path
         style="fill:#463164;fill-opacity:1;stroke:#4c208d;stroke-width:0.99994719px;stroke-linecap:butt;stroke-linejoin:miter;stroke-opacity:1"
         d="m 86.975008,1034.0408 0.08919,-8.04 9.856815,0.037 v 8 c 0.532434,1.7789 -9.71561,2.3494 -9.946006,0 z"
         id="path1549"
         inkscape:connector-curvature="0"
         sodipodi:nodetypes="cccccc" />
      <path
         style="opacity:1;fill:#5b2ca0;fill-opacity:1;stroke:#4c208d;stroke-width:0.99994719;stroke-linecap:round;stroke-linejoin:round;stroke-miterlimit:4;stroke-dasharray:none;stroke-opacity:1"
         d="m 96.921014,1026.0377 a 4.9207205,2.4606216 0 0 1 -4.920718,2.4606 4.9207205,2.4606216 0 0 1 -4.920719,-2.4606 4.9207205,2.4606216 0 0 1 4.920719,-2.4607 4.9207205,2.4606216 0 0 1 4.920718,2.4607 z"
         id="path1551"
         inkscape:connector-curvature="0" />
    </g>
    <path
       id="path1250"
       d="m 64.006781,938.02279 -7.712902,3.85689 -7.71291,3.85684 7.71291,3.85681 7.712902,3.8569 7.7129,-3.8569 7.7129,-3.85681 -7.7129,-3.85684 z"
       style="opacity:1;fill:#d4aa00;fill-opacity:1;fill-rule:evenodd;stroke:#4c208d;stroke-width:0.99994719;stroke-linecap:round;stroke-linejoin:round;stroke-miterlimit:4;stroke-dasharray:none;stroke-opacity:1"
       inkscape:connector-curvature="0" />
    <path
       inkscape:connector-curvature="0"
       style="opacity:1;fill:#5b2ca0;fill-opacity:1;fill-rule:evenodd;stroke:#4c208d;stroke-width:0.99994719;stroke-linecap:round;stroke-linejoin:round;stroke-miterlimit:4;stroke-dasharray:none;stroke-opacity:1"
       d="m 64.006781,941.58842 -4.147652,2.07406 -4.14765,2.07404 4.14765,2.07401 4.147652,2.0741 4.14765,-2.0741 4.14765,-2.07401 -4.14765,-2.07404 z"
       id="path1252" />
    <path
       style="fill:#ff00ff;fill-opacity:1;stroke:#c9a22b;stroke-width:1px;stroke-linecap:round;stroke-linejoin:round;stroke-opacity:1"
       d="m 65.743414,955.82562 16.936243,-8.16019 8.776052,50.5008 -8.006223,-15.55055 -1.847591,26.94402 -9.545881,-24.3266 -5.850702,15.0886 z"
       id="path888"
       inkscape:connector-curvature="0"
       sodipodi:nodetypes="cccccccc" />
    <path
       sodipodi:nodetypes="cccccccc"
       inkscape:connector-curvature="0"
       id="path890"
       d="m 65.743414,955.82562 16.936243,-8.16019 8.776052,50.5008 -8.006223,-15.55055 -1.847591,26.94402 -9.545881,-24.3266 -5.850702,15.0886 z"
       style="opacity:0.047;fill:#000000;fill-opacity:1;stroke:none;stroke-width:1px;stroke-linecap:round;stroke-linejoin:round;stroke-opacity:1" />
    <path
       style="fill:#150925;fill-opacity:1;stroke:#4c208d;stroke-width:1px;stroke-linecap:round;stroke-linejoin:round;stroke-opacity:1"
       d="m 53.939198,1031.4513 v -20.9925 c -0.0757,-6.3723 -12.21399,-9.4933 -13.25331,-6.7724 v 21.1913 z"
       id="path2053"
       inkscape:connector-curvature="0"
       sodipodi:nodetypes="ccccc" />
    <path
       sodipodi:nodetypes="cccccccccc"
       inkscape:connector-curvature="0"
       id="path892"
       d="m 62.202144,955.82562 -16.936243,-8.16019 -8.776052,50.5008 8.006223,-15.55055 1.445732,21.08362 1.555998,5.8604 0.979478,-5.4373 7.412264,-18.8893 5.850702,15.0886 z"
       style="fill:#ff00ff;fill-opacity:1;stroke:#c9a22b;stroke-width:1px;stroke-linecap:round;stroke-linejoin:round;stroke-opacity:1" />
    <path
       style="opacity:0.19100001;fill:#000000;fill-opacity:1;stroke:none;stroke-width:1px;stroke-linecap:round;stroke-linejoin:round;stroke-opacity:1"
       d="m 62.202144,955.82562 -16.936243,-8.16019 -8.776052,50.5008 8.006223,-15.55055 1.417599,20.67332 1.419254,6.2707 1.150387,-5.4527 7.406232,-18.8739 5.850702,15.0886 z"
       id="path894"
       inkscape:connector-curvature="0"
       sodipodi:nodetypes="cccccccccc" />
    <g
       transform="matrix(0.32033957,0,0,0.32033957,68.98684,639.0257)"
       id="layer1-0"
       inkscape:label="Layer 1"
       style="fill:#7a5f0e;fill-opacity:0.39779005;stroke:#c9a22b;stroke-opacity:1">
      <g
         transform="matrix(3.0105747,0,0,3.0105747,-52.319836,-2050.8073)"
         id="g841"
         style="fill:#7a5f0e;fill-opacity:0.39779005;stroke:#c9a22b;stroke-opacity:1">
        <path
           style="fill:#7a5f0e;fill-opacity:0.39779005;stroke:#c9a22b;stroke-width:1.06419671px;stroke-linecap:butt;stroke-linejoin:miter;stroke-opacity:1"
           d="m 20.99364,1019.9283 c 0.524221,-1.9344 2.491495,-2.8881 4.364693,-2.8767 1.670493,-0.3808 3.735972,-0.076 4.573455,1.6146 0.583613,1.4862 0.682713,3.1368 0.963677,4.7103 -0.542367,1.3979 -0.323067,2.7621 -0.325902,4.1834 -1.211028,0.374 -2.952752,1.9255 -4.047415,0.5388 -1.29425,-0.9786 -2.928935,-1.1847 -4.336609,-1.8592 -1.838194,-1.1711 -3.090072,-3.7543 -1.983479,-5.8016 0.193543,-0.2566 0.48302,-0.4294 0.79158,-0.5096 z"
           id="path842"
           inkscape:connector-curvature="0" />
        <path
           style="fill:#7a5f0e;fill-opacity:0.39779005;stroke:#c9a22b;stroke-width:0.5;stroke-linecap:butt;stroke-linejoin:miter;stroke-miterlimit:4;stroke-dasharray:none;stroke-opacity:1"
           d="m 22.927265,1021.2271 c 0.322874,-0.099 0.671998,-0.073 0.987909,0.034 0.259981,0.036 0.535502,0 0.772175,0.1441 0.20652,0.1313 0.379635,0.3125 0.568424,0.47 0.126516,0.2287 0.147116,0.5885 -0.09852,0.7553 -0.416649,0.2681 -0.936191,0.1632 -1.403909,0.1879 -0.330266,0.091 -0.592042,-0.114 -0.728532,-0.3979 -0.174984,-0.1767 -0.168725,-0.4446 -0.266738,-0.6551 8.6e-4,-0.1998 0.260859,-0.3244 0.169187,-0.5382 z"
           id="path849"
           inkscape:connector-curvature="0" />
        <path
           inkscape:connector-curvature="0"
           id="path854"
           d="m 28.156616,1019.514 c -0.301261,0.1526 -0.534738,0.4135 -0.68811,0.7097 -0.162323,0.2062 -0.385776,0.3714 -0.456334,0.6393 -0.05771,0.2378 -0.05675,0.4884 -0.08352,0.7328 0.06747,0.2526 0.302176,0.526 0.594818,0.4758 0.486097,-0.096 0.787622,-0.5317 1.141697,-0.8383 0.301038,-0.1635 0.347443,-0.4927 0.248869,-0.7919 0.0035,-0.2487 -0.186805,-0.4373 -0.262191,-0.6569 -0.139192,-0.1434 -0.412913,-0.053 -0.495155,-0.2704 z"
           style="fill:#7a5f0e;fill-opacity:0.39779005;stroke:#c9a22b;stroke-width:0.5;stroke-linecap:butt;stroke-linejoin:miter;stroke-miterlimit:4;stroke-dasharray:none;stroke-opacity:1" />
        <path
           style="fill:none;fill-opacity:0.39779005;stroke:#c9a22b;stroke-width:0.40000001;stroke-linecap:round;stroke-linejoin:round;stroke-miterlimit:4;stroke-dasharray:none;stroke-opacity:1"
           d="m 27.031191,1019.2025 c -1.123576,1.0387 -1.032383,3.0309 -0.110191,4.1624 0.51778,0.5414 1.200976,0.8755 1.861221,1.2074"
           id="path856"
           inkscape:connector-curvature="0" />
        <path
           style="fill:none;fill-opacity:0.39779005;stroke:#c9a22b;stroke-width:0.40000001;stroke-linecap:round;stroke-linejoin:round;stroke-miterlimit:4;stroke-dasharray:none;stroke-opacity:1"
           d="m 24.240521,1020.2422 c 1.055404,0.6239 2.129433,1.5663 1.979455,2.9182 0.04648,0.6494 -0.03961,1.3886 -0.556777,1.8456"
           id="path858"
           inkscape:connector-curvature="0" />
        <path
           style="fill:#7a5f0e;fill-opacity:0.39779005;stroke:#c9a22b;stroke-width:1px;stroke-linecap:butt;stroke-linejoin:miter;stroke-opacity:1"
           d="m 27.08591,1025.5499 c -0.211214,0.05 -0.58771,0.09 -0.557769,0.3721 0.201115,0.1255 0.542814,0.3667 0.748217,0.1336 0.19862,-0.2528 0.102734,-0.425 -0.190448,-0.5057 z"
           id="path876-6"
           inkscape:connector-curvature="0" />
        <path
           style="fill:#7a5f0e;fill-opacity:0.39779005;stroke:#c9a22b;stroke-width:1px;stroke-linecap:butt;stroke-linejoin:miter;stroke-opacity:1"
           d="m 28.12286,1025.0027 c 0.211214,0.05 0.58771,0.09 0.557769,0.3721 -0.201115,0.1255 -0.542815,0.3667 -0.748219,0.1336 -0.198628,-0.2528 -0.102745,-0.425 0.19045,-0.5057 z"
           id="path881"
           inkscape:connector-curvature="0" />
      </g>
    </g>
    <g
       style="fill:#7a5f0e;fill-opacity:0.39779005;stroke:#c9a22b;stroke-opacity:1"
       inkscape:label="Layer 1"
       id="g951"
       transform="matrix(-0.32033957,0,0,0.32033957,59.728606,637.94794)">
      <g
         style="fill:#7a5f0e;fill-opacity:0.39779005;stroke:#c9a22b;stroke-opacity:1"
         id="g949"
         transform="matrix(3.0105747,0,0,3.0105747,-52.319836,-2050.8073)">
        <path
           inkscape:connector-curvature="0"
           id="path935"
           d="m 20.99364,1019.9283 c 0.524221,-1.9344 2.491495,-2.8881 4.364693,-2.8767 1.670493,-0.3808 3.735972,-0.076 4.573455,1.6146 0.583613,1.4862 0.682713,3.1368 0.963677,4.7103 -0.542367,1.3979 -0.323067,2.7621 -0.325902,4.1834 -1.211028,0.374 -2.952752,1.9255 -4.047415,0.5388 -1.29425,-0.9786 -2.928935,-1.1847 -4.336609,-1.8592 -1.838194,-1.1711 -3.090072,-3.7543 -1.983479,-5.8016 0.193543,-0.2566 0.48302,-0.4294 0.79158,-0.5096 z"
           style="fill:#7a5f0e;fill-opacity:0.39779005;stroke:#c9a22b;stroke-width:1.06419671px;stroke-linecap:butt;stroke-linejoin:miter;stroke-opacity:1" />
        <path
           inkscape:connector-curvature="0"
           id="path937"
           d="m 22.927265,1021.2271 c 0.322874,-0.099 0.671998,-0.073 0.987909,0.034 0.259981,0.036 0.535502,0 0.772175,0.1441 0.20652,0.1313 0.379635,0.3125 0.568424,0.47 0.126516,0.2287 0.147116,0.5885 -0.09852,0.7553 -0.416649,0.2681 -0.936191,0.1632 -1.403909,0.1879 -0.330266,0.091 -0.592042,-0.114 -0.728532,-0.3979 -0.174984,-0.1767 -0.168725,-0.4446 -0.266738,-0.6551 8.6e-4,-0.1998 0.260859,-0.3244 0.169187,-0.5382 z"
           style="fill:#7a5f0e;fill-opacity:0.39779005;stroke:#c9a22b;stroke-width:0.5;stroke-linecap:butt;stroke-linejoin:miter;stroke-miterlimit:4;stroke-dasharray:none;stroke-opacity:1" />
        <path
           style="fill:#7a5f0e;fill-opacity:0.39779005;stroke:#c9a22b;stroke-width:0.5;stroke-linecap:butt;stroke-linejoin:miter;stroke-miterlimit:4;stroke-dasharray:none;stroke-opacity:1"
           d="m 28.156616,1019.514 c -0.301261,0.1526 -0.534738,0.4135 -0.68811,0.7097 -0.162323,0.2062 -0.385776,0.3714 -0.456334,0.6393 -0.05771,0.2378 -0.05675,0.4884 -0.08352,0.7328 0.06747,0.2526 0.302176,0.526 0.594818,0.4758 0.486097,-0.096 0.787622,-0.5317 1.141697,-0.8383 0.301038,-0.1635 0.347443,-0.4927 0.248869,-0.7919 0.0035,-0.2487 -0.186805,-0.4373 -0.262191,-0.6569 -0.139192,-0.1434 -0.412913,-0.053 -0.495155,-0.2704 z"
           id="path939"
           inkscape:connector-curvature="0" />
        <path
           inkscape:connector-curvature="0"
           id="path941"
           d="m 27.031191,1019.2025 c -1.123576,1.0387 -1.032383,3.0309 -0.110191,4.1624 0.51778,0.5414 1.200976,0.8755 1.861221,1.2074"
           style="fill:none;fill-opacity:0.39779005;stroke:#c9a22b;stroke-width:0.40000001;stroke-linecap:round;stroke-linejoin:round;stroke-miterlimit:4;stroke-dasharray:none;stroke-opacity:1" />
        <path
           inkscape:connector-curvature="0"
           id="path943"
           d="m 24.240521,1020.2422 c 1.055404,0.6239 2.129433,1.5663 1.979455,2.9182 0.04648,0.6494 -0.03961,1.3886 -0.556777,1.8456"
           style="fill:none;fill-opacity:0.39779005;stroke:#c9a22b;stroke-width:0.40000001;stroke-linecap:round;stroke-linejoin:round;stroke-miterlimit:4;stroke-dasharray:none;stroke-opacity:1" />
        <path
           inkscape:connector-curvature="0"
           id="path945"
           d="m 27.08591,1025.5499 c -0.211214,0.05 -0.58771,0.09 -0.557769,0.3721 0.201115,0.1255 0.542814,0.3667 0.748217,0.1336 0.19862,-0.2528 0.102734,-0.425 -0.190448,-0.5057 z"
           style="fill:#7a5f0e;fill-opacity:0.39779005;stroke:#c9a22b;stroke-width:1px;stroke-linecap:butt;stroke-linejoin:miter;stroke-opacity:1" />
        <path
           inkscape:connector-curvature="0"
           id="path947"
           d="m 28.12286,1025.0027 c 0.211214,0.05 0.58771,0.09 0.557769,0.3721 -0.201115,0.1255 -0.542815,0.3667 -0.748219,0.1336 -0.198628,-0.2528 -0.102745,-0.425 0.19045,-0.5057 z"
           style="fill:#7a5f0e;fill-opacity:0.39779005;stroke:#c9a22b;stroke-width:1px;stroke-linecap:butt;stroke-linejoin:miter;stroke-opacity:1" />
      </g>
    </g>
    <g
       id="g871"
       transform="translate(-27.032542,-14.066309)">
      <path
         style="fill:#463164;fill-opacity:1;stroke:#4c208d;stroke-width:0.99994719px;stroke-linecap:butt;stroke-linejoin:miter;stroke-opacity:1"
         d="m 58.901059,1047.9639 0.08919,-8.04 9.856816,0.037 v 8 c 0.532433,1.7789 -9.715611,2.3494 -9.946007,0 z"
         id="path867"
         inkscape:connector-curvature="0"
         sodipodi:nodetypes="cccccc" />
      <path
         style="opacity:1;fill:#5b2ca0;fill-opacity:1;stroke:#4c208d;stroke-width:0.99994719;stroke-linecap:round;stroke-linejoin:round;stroke-miterlimit:4;stroke-dasharray:none;stroke-opacity:1"
         d="m 68.847066,1039.9608 a 4.9207205,2.4606216 0 0 1 -4.920719,2.4606 4.9207205,2.4606216 0 0 1 -4.920719,-2.4606 4.9207205,2.4606216 0 0 1 4.920719,-2.4607 4.9207205,2.4606216 0 0 1 4.920719,2.4607 z"
         id="path869"
         inkscape:connector-curvature="0" />
    </g>
  </g>
</svg>
