<?xml version="1.0" encoding="UTF-8" standalone="no"?>
<!-- Created with Inkscape (http://www.inkscape.org/) -->

<svg
   xmlns:dc="http://purl.org/dc/elements/1.1/"
   xmlns:cc="http://creativecommons.org/ns#"
   xmlns:rdf="http://www.w3.org/1999/02/22-rdf-syntax-ns#"
   xmlns:svg="http://www.w3.org/2000/svg"
   xmlns="http://www.w3.org/2000/svg"
   xmlns:sodipodi="http://sodipodi.sourceforge.net/DTD/sodipodi-0.dtd"
   xmlns:inkscape="http://www.inkscape.org/namespaces/inkscape"
   width="192"
   height="196"
   viewBox="0 0 192 195.99999"
   id="svg2"
   version="1.1"
   inkscape:version="0.92.3 (2405546, 2018-03-11)"
   sodipodi:docname="galartsexpo.svg"
   inkscape:export-filename="D:\Development\Games\My Colony\Web\0.61.0\html5\images\galartsexpo.png"
   inkscape:export-xdpi="96"
   inkscape:export-ydpi="96">
  <defs
     id="defs4">
    <filter
       inkscape:collect="always"
       style="color-interpolation-filters:sRGB"
       id="filter1594"
       x="-0.056815766"
       width="1.1136315"
       y="-0.093167573"
       height="1.1863351">
      <feGaussianBlur
         inkscape:collect="always"
         stdDeviation="1.6363685"
         id="feGaussianBlur1596" />
    </filter>
    <filter
       inkscape:collect="always"
       style="color-interpolation-filters:sRGB"
       id="filter1598"
       x="-0.042072784"
       width="1.0841455"
       y="-0.070935637"
       height="1.1418713">
      <feGaussianBlur
         inkscape:collect="always"
         stdDeviation="1.6363685"
         id="feGaussianBlur1600" />
    </filter>
  </defs>
  <sodipodi:namedview
     id="base"
     pagecolor="#ffffff"
     bordercolor="#666666"
     borderopacity="1.0"
     inkscape:pageopacity="0.0"
     inkscape:pageshadow="2"
     inkscape:zoom="2.79"
     inkscape:cx="112.87973"
     inkscape:cy="90.711595"
     inkscape:document-units="px"
     inkscape:current-layer="layer1"
     showgrid="false"
     units="px"
     inkscape:window-width="1649"
     inkscape:window-height="1030"
     inkscape:window-x="680"
     inkscape:window-y="257"
     inkscape:window-maximized="0"
     inkscape:snap-bbox="true"
     inkscape:bbox-paths="true"
     inkscape:bbox-nodes="true"
     inkscape:snap-global="false">
    <inkscape:grid
       type="xygrid"
       id="grid4136"
       empspacing="16" />
  </sodipodi:namedview>
  <metadata
     id="metadata7">
    <rdf:RDF>
      <cc:Work
         rdf:about="">
        <dc:format>image/svg+xml</dc:format>
        <dc:type
           rdf:resource="http://purl.org/dc/dcmitype/StillImage" />
        <dc:title></dc:title>
      </cc:Work>
    </rdf:RDF>
  </metadata>
  <g
     inkscape:label="Layer 1"
     inkscape:groupmode="layer"
     id="layer1"
     transform="translate(0,-856.3622)">
    <path
       style="fill:none;stroke:#4c208d;stroke-width:1px;stroke-linecap:round;stroke-linejoin:round;stroke-opacity:1"
       d="M 95.995119,909.22725 1.2042398,956.5367 70.362014,990.5995 163.94865,943.29004 Z"
       id="path879"
       inkscape:connector-curvature="0" />
    <path
       inkscape:connector-curvature="0"
       id="path883"
       d="m 1.3762741,956.3646 94.9629139,-47.13735 95.306982,46.96535 -25.28904,12.9026 -27.52548,-13.4187 -40.600085,20.6441 26.149205,13.4187 -28.213617,14.7949 z"
       style="fill:#5b2ca0;fill-opacity:1;stroke:#4c208d;stroke-width:1px;stroke-linecap:round;stroke-linejoin:round;stroke-opacity:1" />
    <path
       inkscape:connector-curvature="0"
       id="path885"
       d="M 95.995119,859.22725 1.2042398,906.5367 70.362014,940.5995 163.94865,893.29004 Z"
       style="fill:#5b2ca0;fill-opacity:1;stroke:#4c208d;stroke-width:1px;stroke-linecap:round;stroke-linejoin:round;stroke-opacity:1" />
    <path
       style="fill:#463164;fill-opacity:1;stroke:#4c208d;stroke-width:1px;stroke-linecap:round;stroke-linejoin:round;stroke-opacity:1"
       d="m 1.2042398,906.5367 0.1720343,97.8279 94.7908789,48.1696 v -48 L 70.362014,990.5995 v -50 z"
       id="path887"
       inkscape:connector-curvature="0" />
    <path
       style="fill:#4f2d80;fill-opacity:1;stroke:#4c208d;stroke-width:1px;stroke-linecap:round;stroke-linejoin:round;stroke-opacity:1"
       d="m 70.362014,940.5995 93.586636,-47.30946 v 50 L 70.362014,990.5995 Z"
       id="path889"
       inkscape:connector-curvature="0" />
    <path
       style="fill:#4f2d80;fill-opacity:1;stroke:#4c208d;stroke-width:1px;stroke-linecap:round;stroke-linejoin:round;stroke-opacity:1"
       d="m 98.231565,1024.3206 40.600085,-20.6441 v -48 l -40.600085,20.6441 z"
       id="path891"
       inkscape:connector-curvature="0" />
    <path
       style="fill:#463164;fill-opacity:1;stroke:#4c208d;stroke-width:1px;stroke-linecap:round;stroke-linejoin:round;stroke-opacity:1"
       d="m 138.83165,955.6765 27.52548,13.4187 v 48 l -27.52548,-13.4187 z"
       id="path895"
       inkscape:connector-curvature="0" />
    <path
       style="fill:#d4aa00;fill-opacity:1;stroke:#4c208d;stroke-width:1px;stroke-linecap:butt;stroke-linejoin:miter;stroke-opacity:1"
       d="m 138.83165,955.6765 27.52548,61.4187 -41.97636,20.6441 -26.149205,-61.4187 z"
       id="path938"
       inkscape:connector-curvature="0" />
    <path
       style="opacity:0.125;fill:#150925;fill-opacity:1;stroke:none;stroke-width:1px;stroke-linecap:butt;stroke-linejoin:miter;stroke-opacity:1"
       d="m 162.85178,1015.214 -38.83677,19.3246 -0.93809,-4.6905 37.52346,-18.3865 z"
       id="path1530"
       inkscape:connector-curvature="0" />
    <path
       inkscape:connector-curvature="0"
       id="path1532"
       d="m 158.53658,1005.7131 -38.83677,19.3246 -0.93809,-4.6905 37.52346,-18.3865 z"
       style="opacity:0.125;fill:#150925;fill-opacity:1;stroke:none;stroke-width:1px;stroke-linecap:butt;stroke-linejoin:miter;stroke-opacity:1" />
    <path
       inkscape:connector-curvature="0"
       id="path1540"
       d="m 141.08817,968.18964 -38.83677,19.32468 -0.93809,-4.6905 37.52346,-18.38658 z"
       style="opacity:0.125;fill:#150925;fill-opacity:1;stroke:none;stroke-width:1px;stroke-linecap:butt;stroke-linejoin:miter;stroke-opacity:1" />
    <path
       inkscape:connector-curvature="0"
       id="path1536"
       d="m 149.34333,987.51422 -38.83677,19.32468 -0.93809,-4.6905 37.52346,-18.38658 z"
       style="opacity:0.125;fill:#150925;fill-opacity:1;stroke:none;stroke-width:1px;stroke-linecap:butt;stroke-linejoin:miter;stroke-opacity:1" />
    <path
       style="opacity:0.125;fill:#150925;fill-opacity:1;stroke:none;stroke-width:1px;stroke-linecap:butt;stroke-linejoin:miter;stroke-opacity:1"
       d="m 154.22138,996.70747 -38.83677,19.32463 -0.93809,-4.6905 37.52346,-18.38653 z"
       id="path1534"
       inkscape:connector-curvature="0" />
    <path
       style="fill:#4f2d80;fill-opacity:1;stroke:#4c208d;stroke-width:1px;stroke-linecap:round;stroke-linejoin:round;stroke-opacity:1"
       d="m 96.167153,1004.5342 28.213617,-14.7949 v 48 l -28.213617,14.7949 z"
       id="path893"
       inkscape:connector-curvature="0" />
    <path
       style="fill:#4f2d80;fill-opacity:1;stroke:#4c208d;stroke-width:1px;stroke-linecap:round;stroke-linejoin:round;stroke-opacity:1"
       d="m 166.35713,969.0952 25.28904,-12.9026 0.35383,48.1696 -25.64287,12.733 z"
       id="path897"
       inkscape:connector-curvature="0" />
    <path
       style="fill:#150925;fill-opacity:1;stroke:#4c208d;stroke-width:1px;stroke-linecap:round;stroke-linejoin:round;stroke-opacity:1"
       d="m 122.64144,963.70423 v -25.8705 c 3.24045,-4.90295 7.06176,-8.45056 13.25331,-6.4676 v 25.7645 z"
       id="path2053"
       inkscape:connector-curvature="0"
       sodipodi:nodetypes="ccccc" />
    <path
       style="opacity:0.125;fill:#150925;fill-opacity:1;stroke:none;stroke-width:1px;stroke-linecap:butt;stroke-linejoin:miter;stroke-opacity:1"
       d="m 145.21575,977.94574 -38.83677,19.32468 -0.93809,-4.6905 37.52346,-18.38658 z"
       id="path1538"
       inkscape:connector-curvature="0" />
    <path
       style="fill:#5b2ca0;fill-opacity:1;stroke:#4c208d;stroke-width:1px;stroke-linecap:round;stroke-linejoin:round;stroke-opacity:1"
       d="m 70.362014,990.5995 27.869551,-14.2789 26.149205,13.4187 -28.213617,14.7949 z"
       id="path936"
       inkscape:connector-curvature="0" />
    <path
       inkscape:connector-curvature="0"
       id="path953"
       d="m 101.50417,974.51523 v -25.8705 c 4.41777,-5.3162 8.83554,-6.01775 13.25331,-6.4676 v 25.7645 z"
       style="fill:#150925;fill-opacity:1;stroke:#4c208d;stroke-width:1px;stroke-linecap:round;stroke-linejoin:round;stroke-opacity:1"
       sodipodi:nodetypes="ccccc" />
    <g
       transform="matrix(1.0267533,0,0,1.0268624,-56.336467,203.58755)"
       id="g1607" />
    <path
       sodipodi:nodetypes="cccccccc"
       inkscape:connector-curvature="0"
       id="path1407"
       d="m 102.29531,1001.2322 14.75704,-8.0882 3.79709,33.3847 -6.43398,-5.7917 -1.9653,18.496 -5.62246,-16.0178 -6.54307,9.6184 z"
       style="fill:#ff00ff;fill-opacity:1;stroke:#c9a22b;stroke-width:0.7116037px;stroke-linecap:round;stroke-linejoin:round;stroke-opacity:1" />
    <g
       style="fill:#7a5f0e;fill-opacity:0.39779005;stroke:#c9a22b;stroke-opacity:1"
       inkscape:label="Layer 1"
       id="g1429"
       transform="matrix(0.2273323,0.01683532,-0.01683532,0.2273323,121.24634,776.58234)">
      <g
         style="fill:#7a5f0e;fill-opacity:0.39779005;stroke:#c9a22b;stroke-opacity:1"
         id="g1427"
         transform="matrix(3.0105747,0,0,3.0105747,-52.319836,-2050.8073)">
        <path
           inkscape:connector-curvature="0"
           id="path1413"
           d="m 20.99364,1019.9283 c 0.524221,-1.9344 2.491495,-2.8881 4.364693,-2.8767 1.670493,-0.3808 3.735972,-0.076 4.573455,1.6146 0.583613,1.4862 0.682713,3.1368 0.963677,4.7103 -0.542367,1.3979 -0.323067,2.7621 -0.325902,4.1834 -1.211028,0.374 -2.952752,1.9255 -4.047415,0.5388 -1.29425,-0.9786 -2.928935,-1.1847 -4.336609,-1.8592 -1.838194,-1.1711 -3.090072,-3.7543 -1.983479,-5.8016 0.193543,-0.2566 0.48302,-0.4294 0.79158,-0.5096 z"
           style="fill:#7a5f0e;fill-opacity:0.39779005;stroke:#c9a22b;stroke-width:1.06419671px;stroke-linecap:butt;stroke-linejoin:miter;stroke-opacity:1" />
        <path
           inkscape:connector-curvature="0"
           id="path1415"
           d="m 22.927265,1021.2271 c 0.322874,-0.099 0.671998,-0.073 0.987909,0.034 0.259981,0.036 0.535502,0 0.772175,0.1441 0.20652,0.1313 0.379635,0.3125 0.568424,0.47 0.126516,0.2287 0.147116,0.5885 -0.09852,0.7553 -0.416649,0.2681 -0.936191,0.1632 -1.403909,0.1879 -0.330266,0.091 -0.592042,-0.114 -0.728532,-0.3979 -0.174984,-0.1767 -0.168725,-0.4446 -0.266738,-0.6551 8.6e-4,-0.1998 0.260859,-0.3244 0.169187,-0.5382 z"
           style="fill:#7a5f0e;fill-opacity:0.39779005;stroke:#c9a22b;stroke-width:0.5;stroke-linecap:butt;stroke-linejoin:miter;stroke-miterlimit:4;stroke-dasharray:none;stroke-opacity:1" />
        <path
           style="fill:#7a5f0e;fill-opacity:0.39779005;stroke:#c9a22b;stroke-width:0.5;stroke-linecap:butt;stroke-linejoin:miter;stroke-miterlimit:4;stroke-dasharray:none;stroke-opacity:1"
           d="m 28.156616,1019.514 c -0.301261,0.1526 -0.534738,0.4135 -0.68811,0.7097 -0.162323,0.2062 -0.385776,0.3714 -0.456334,0.6393 -0.05771,0.2378 -0.05675,0.4884 -0.08352,0.7328 0.06747,0.2526 0.302176,0.526 0.594818,0.4758 0.486097,-0.096 0.787622,-0.5317 1.141697,-0.8383 0.301038,-0.1635 0.347443,-0.4927 0.248869,-0.7919 0.0035,-0.2487 -0.186805,-0.4373 -0.262191,-0.6569 -0.139192,-0.1434 -0.412913,-0.053 -0.495155,-0.2704 z"
           id="path1417"
           inkscape:connector-curvature="0" />
        <path
           inkscape:connector-curvature="0"
           id="path1419"
           d="m 27.031191,1019.2025 c -1.123576,1.0387 -1.032383,3.0309 -0.110191,4.1624 0.51778,0.5414 1.200976,0.8755 1.861221,1.2074"
           style="fill:none;fill-opacity:0.39779005;stroke:#c9a22b;stroke-width:0.40000001;stroke-linecap:round;stroke-linejoin:round;stroke-miterlimit:4;stroke-dasharray:none;stroke-opacity:1" />
        <path
           inkscape:connector-curvature="0"
           id="path1421"
           d="m 24.240521,1020.2422 c 1.055404,0.6239 2.129433,1.5663 1.979455,2.9182 0.04648,0.6494 -0.03961,1.3886 -0.556777,1.8456"
           style="fill:none;fill-opacity:0.39779005;stroke:#c9a22b;stroke-width:0.40000001;stroke-linecap:round;stroke-linejoin:round;stroke-miterlimit:4;stroke-dasharray:none;stroke-opacity:1" />
        <path
           inkscape:connector-curvature="0"
           id="path1423"
           d="m 27.08591,1025.5499 c -0.211214,0.05 -0.58771,0.09 -0.557769,0.3721 0.201115,0.1255 0.542814,0.3667 0.748217,0.1336 0.19862,-0.2528 0.102734,-0.425 -0.190448,-0.5057 z"
           style="fill:#7a5f0e;fill-opacity:0.39779005;stroke:#c9a22b;stroke-width:1px;stroke-linecap:butt;stroke-linejoin:miter;stroke-opacity:1" />
        <path
           inkscape:connector-curvature="0"
           id="path1425"
           d="m 28.12286,1025.0027 c 0.211214,0.05 0.58771,0.09 0.557769,0.3721 -0.201115,0.1255 -0.542815,0.3667 -0.748219,0.1336 -0.198628,-0.2528 -0.102745,-0.425 0.19045,-0.5057 z"
           style="fill:#7a5f0e;fill-opacity:0.39779005;stroke:#c9a22b;stroke-width:1px;stroke-linecap:butt;stroke-linejoin:miter;stroke-opacity:1" />
      </g>
    </g>
    <path
       inkscape:connector-curvature="0"
       id="path1522"
       d="m 78.214367,990.54947 19.767122,-10.12764 18.546931,9.51752 -20.011162,10.49365 z"
       style="fill:#d4aa00;fill-opacity:1;stroke:#4c208d;stroke-width:1;stroke-linecap:round;stroke-linejoin:round;stroke-miterlimit:4;stroke-dasharray:none;stroke-opacity:1" />
    <path
       style="fill:#5b2ca0;fill-opacity:1;stroke:#4c208d;stroke-width:1;stroke-linecap:round;stroke-linejoin:round;stroke-miterlimit:4;stroke-dasharray:none;stroke-opacity:1"
       d="m 85.957562,990.50014 11.777329,-6.03409 11.050339,5.67057 -11.922734,6.25216 z"
       id="path1524"
       inkscape:connector-curvature="0" />
    <path
       style="fill:#d4aa00;fill-opacity:1;stroke:#4c208d;stroke-width:1;stroke-linecap:round;stroke-linejoin:round;stroke-miterlimit:4;stroke-dasharray:none;stroke-opacity:1"
       d="m 148.79031,956.11177 18.14827,-9.29822 17.02801,8.73807 -18.37233,9.63426 z"
       id="path1526"
       inkscape:connector-curvature="0" />
    <path
       inkscape:connector-curvature="0"
       id="path1528"
       d="m 155.89937,956.06648 10.81281,-5.53992 10.14536,5.20618 -10.94631,5.74013 z"
       style="fill:#5b2ca0;fill-opacity:1;stroke:#4c208d;stroke-width:1;stroke-linecap:round;stroke-linejoin:round;stroke-miterlimit:4;stroke-dasharray:none;stroke-opacity:1" />
    <path
       style="fill:#ff00ff;fill-opacity:1;stroke:#c9a22b;stroke-width:0.63492453px;stroke-linecap:round;stroke-linejoin:round;stroke-opacity:1"
       d="m 172.29359,965.99769 13.16689,-7.21665 3.38793,29.78731 -5.74068,-5.16761 -1.75353,16.50297 -5.01661,-14.29181 -5.83801,8.58197 z"
       id="path1542"
       inkscape:connector-curvature="0"
       sodipodi:nodetypes="cccccccc" />
    <g
       transform="matrix(0.202836,0.01502122,-0.01502122,0.202836,189.20255,765.55508)"
       id="g1560"
       inkscape:label="Layer 1"
       style="fill:#7a5f0e;fill-opacity:0.39779005;stroke:#c9a22b;stroke-opacity:1">
      <g
         transform="matrix(3.0105747,0,0,3.0105747,-52.319836,-2050.8073)"
         id="g1558"
         style="fill:#7a5f0e;fill-opacity:0.39779005;stroke:#c9a22b;stroke-opacity:1">
        <path
           style="fill:#7a5f0e;fill-opacity:0.39779005;stroke:#c9a22b;stroke-width:1.06419671px;stroke-linecap:butt;stroke-linejoin:miter;stroke-opacity:1"
           d="m 20.99364,1019.9283 c 0.524221,-1.9344 2.491495,-2.8881 4.364693,-2.8767 1.670493,-0.3808 3.735972,-0.076 4.573455,1.6146 0.583613,1.4862 0.682713,3.1368 0.963677,4.7103 -0.542367,1.3979 -0.323067,2.7621 -0.325902,4.1834 -1.211028,0.374 -2.952752,1.9255 -4.047415,0.5388 -1.29425,-0.9786 -2.928935,-1.1847 -4.336609,-1.8592 -1.838194,-1.1711 -3.090072,-3.7543 -1.983479,-5.8016 0.193543,-0.2566 0.48302,-0.4294 0.79158,-0.5096 z"
           id="path1544"
           inkscape:connector-curvature="0" />
        <path
           style="fill:#7a5f0e;fill-opacity:0.39779005;stroke:#c9a22b;stroke-width:0.5;stroke-linecap:butt;stroke-linejoin:miter;stroke-miterlimit:4;stroke-dasharray:none;stroke-opacity:1"
           d="m 22.927265,1021.2271 c 0.322874,-0.099 0.671998,-0.073 0.987909,0.034 0.259981,0.036 0.535502,0 0.772175,0.1441 0.20652,0.1313 0.379635,0.3125 0.568424,0.47 0.126516,0.2287 0.147116,0.5885 -0.09852,0.7553 -0.416649,0.2681 -0.936191,0.1632 -1.403909,0.1879 -0.330266,0.091 -0.592042,-0.114 -0.728532,-0.3979 -0.174984,-0.1767 -0.168725,-0.4446 -0.266738,-0.6551 8.6e-4,-0.1998 0.260859,-0.3244 0.169187,-0.5382 z"
           id="path1546"
           inkscape:connector-curvature="0" />
        <path
           inkscape:connector-curvature="0"
           id="path1548"
           d="m 28.156616,1019.514 c -0.301261,0.1526 -0.534738,0.4135 -0.68811,0.7097 -0.162323,0.2062 -0.385776,0.3714 -0.456334,0.6393 -0.05771,0.2378 -0.05675,0.4884 -0.08352,0.7328 0.06747,0.2526 0.302176,0.526 0.594818,0.4758 0.486097,-0.096 0.787622,-0.5317 1.141697,-0.8383 0.301038,-0.1635 0.347443,-0.4927 0.248869,-0.7919 0.0035,-0.2487 -0.186805,-0.4373 -0.262191,-0.6569 -0.139192,-0.1434 -0.412913,-0.053 -0.495155,-0.2704 z"
           style="fill:#7a5f0e;fill-opacity:0.39779005;stroke:#c9a22b;stroke-width:0.5;stroke-linecap:butt;stroke-linejoin:miter;stroke-miterlimit:4;stroke-dasharray:none;stroke-opacity:1" />
        <path
           style="fill:none;fill-opacity:0.39779005;stroke:#c9a22b;stroke-width:0.40000001;stroke-linecap:round;stroke-linejoin:round;stroke-miterlimit:4;stroke-dasharray:none;stroke-opacity:1"
           d="m 27.031191,1019.2025 c -1.123576,1.0387 -1.032383,3.0309 -0.110191,4.1624 0.51778,0.5414 1.200976,0.8755 1.861221,1.2074"
           id="path1550"
           inkscape:connector-curvature="0" />
        <path
           style="fill:none;fill-opacity:0.39779005;stroke:#c9a22b;stroke-width:0.40000001;stroke-linecap:round;stroke-linejoin:round;stroke-miterlimit:4;stroke-dasharray:none;stroke-opacity:1"
           d="m 24.240521,1020.2422 c 1.055404,0.6239 2.129433,1.5663 1.979455,2.9182 0.04648,0.6494 -0.03961,1.3886 -0.556777,1.8456"
           id="path1552"
           inkscape:connector-curvature="0" />
        <path
           style="fill:#7a5f0e;fill-opacity:0.39779005;stroke:#c9a22b;stroke-width:1px;stroke-linecap:butt;stroke-linejoin:miter;stroke-opacity:1"
           d="m 27.08591,1025.5499 c -0.211214,0.05 -0.58771,0.09 -0.557769,0.3721 0.201115,0.1255 0.542814,0.3667 0.748217,0.1336 0.19862,-0.2528 0.102734,-0.425 -0.190448,-0.5057 z"
           id="path1554"
           inkscape:connector-curvature="0" />
        <path
           style="fill:#7a5f0e;fill-opacity:0.39779005;stroke:#c9a22b;stroke-width:1px;stroke-linecap:butt;stroke-linejoin:miter;stroke-opacity:1"
           d="m 28.12286,1025.0027 c 0.211214,0.05 0.58771,0.09 0.557769,0.3721 -0.201115,0.1255 -0.542815,0.3667 -0.748219,0.1336 -0.198628,-0.2528 -0.102745,-0.425 0.19045,-0.5057 z"
           id="path1556"
           inkscape:connector-curvature="0" />
      </g>
    </g>
    <path
       style="fill:#00ccff;fill-opacity:1;stroke:#4c208d;stroke-width:1px;stroke-linecap:round;stroke-linejoin:round;stroke-opacity:1"
       d="m 163.8692,897.34841 -93.291267,46.43235 v 8.9317 l 93.345007,-47.11033 z"
       id="path1562"
       inkscape:connector-curvature="0"
       sodipodi:nodetypes="ccccc" />
    <path
       style="fill:#00ccff;fill-opacity:1;stroke:#4c208d;stroke-width:1px;stroke-linecap:round;stroke-linejoin:round;stroke-opacity:1"
       d="m 70.402802,943.9559 -69.1231424,-33.22122 0.098841,8.70283 69.0243014,33.45008 z"
       id="path1564"
       inkscape:connector-curvature="0"
       sodipodi:nodetypes="ccccc" />
    <path
       sodipodi:nodetypes="ccccc"
       inkscape:connector-curvature="0"
       id="path1566"
       d="m 163.8692,897.34841 -93.291267,46.43235 v 8.9317 l 93.345007,-47.11033 z"
       style="fill:#00ccff;fill-opacity:1;stroke:none;stroke-width:1px;stroke-linecap:round;stroke-linejoin:round;stroke-opacity:1;filter:url(#filter1598)" />
    <path
       sodipodi:nodetypes="ccccc"
       inkscape:connector-curvature="0"
       id="path1568"
       d="m 70.402802,943.9559 -69.1231424,-33.22122 0.098841,8.70283 69.0243014,33.45008 z"
       style="fill:#00ccff;fill-opacity:1;stroke:none;stroke-width:1px;stroke-linecap:round;stroke-linejoin:round;stroke-opacity:1;filter:url(#filter1594)" />
    <path
       sodipodi:nodetypes="ccccc"
       style="fill:#150925;fill-opacity:1;stroke:#4c208d;stroke-width:1px;stroke-linecap:round;stroke-linejoin:round;stroke-opacity:1"
       d="m 17.190115,1011.6368 v -25.87048 c -4.41777,-5.3162 -8.83554,-6.01775 -13.25331,-6.4676 v 25.76448 z"
       id="path1602"
       inkscape:connector-curvature="0" />
    <path
       style="fill:#d4aa00;fill-opacity:1;stroke:#4c208d;stroke-width:1;stroke-linecap:round;stroke-linejoin:round;stroke-miterlimit:4;stroke-dasharray:none;stroke-opacity:1"
       d="m 93.626069,866.41033 -78.055668,38.95703 56.948056,28.04906 77.064033,-38.95704 z"
       id="path1604"
       inkscape:connector-curvature="0" />
    <path
       inkscape:connector-curvature="0"
       id="path1606"
       d="m 89.910968,877.67471 -51.811814,25.85891 37.800997,18.61842 51.153589,-25.85892 z"
       style="fill:#5b2ca0;fill-opacity:1;stroke:#4c208d;stroke-width:1;stroke-linecap:round;stroke-linejoin:round;stroke-miterlimit:4;stroke-dasharray:none;stroke-opacity:1" />
  </g>
</svg>
