<?xml version="1.0" encoding="UTF-8" standalone="no"?>
<!-- Created with Inkscape (http://www.inkscape.org/) -->

<svg
   xmlns:dc="http://purl.org/dc/elements/1.1/"
   xmlns:cc="http://creativecommons.org/ns#"
   xmlns:rdf="http://www.w3.org/1999/02/22-rdf-syntax-ns#"
   xmlns:svg="http://www.w3.org/2000/svg"
   xmlns="http://www.w3.org/2000/svg"
   xmlns:sodipodi="http://sodipodi.sourceforge.net/DTD/sodipodi-0.dtd"
   xmlns:inkscape="http://www.inkscape.org/namespaces/inkscape"
   width="200"
   height="200"
   viewBox="0 0 52.916665 52.916668"
   version="1.1"
   id="svg8"
   inkscape:version="0.92.4 (5da689c313, 2019-01-14)"
   sodipodi:docname="logo-65.svg">
  <defs
     id="defs2" />
  <sodipodi:namedview
     id="base"
     pagecolor="#ffffff"
     bordercolor="#666666"
     borderopacity="1.0"
     inkscape:pageopacity="0.0"
     inkscape:pageshadow="2"
     inkscape:zoom="2.4723636"
     inkscape:cx="88.005013"
     inkscape:cy="92.623136"
     inkscape:document-units="px"
     inkscape:current-layer="layer1"
     showgrid="true"
     units="px"
     inkscape:window-width="1781"
     inkscape:window-height="1082"
     inkscape:window-x="2126"
     inkscape:window-y="236"
     inkscape:window-maximized="0"
     showguides="false"
     inkscape:snap-global="false">
    <inkscape:grid
       type="xygrid"
       id="grid912" />
  </sodipodi:namedview>
  <metadata
     id="metadata5">
    <rdf:RDF>
      <cc:Work
         rdf:about="">
        <dc:format>image/svg+xml</dc:format>
        <dc:type
           rdf:resource="http://purl.org/dc/dcmitype/StillImage" />
        <dc:title></dc:title>
      </cc:Work>
    </rdf:RDF>
  </metadata>
  <g
     inkscape:label="Layer 1"
     inkscape:groupmode="layer"
     id="layer1"
     transform="translate(0,-244.08332)">
    <g
       style="fill:#ff00ff;stroke:none"
       id="g838"
       transform="matrix(0.01550293,0,0,0.01550293,75.671074,250.18703)" />
    <g
       style="fill:#ff00ff;stroke:none"
       id="g840"
       transform="matrix(0.01550293,0,0,0.01550293,75.671074,250.18703)" />
    <g
       style="fill:#ff00ff;stroke:none"
       id="g842"
       transform="matrix(0.01550293,0,0,0.01550293,75.671074,250.18703)" />
    <g
       style="fill:#ff00ff;stroke:none"
       id="g844"
       transform="matrix(0.01550293,0,0,0.01550293,75.671074,250.18703)" />
    <g
       style="fill:#ff00ff;stroke:none"
       id="g846"
       transform="matrix(0.01550293,0,0,0.01550293,75.671074,250.18703)" />
    <g
       style="fill:#ff00ff;stroke:none"
       id="g848"
       transform="matrix(0.01550293,0,0,0.01550293,75.671074,250.18703)" />
    <g
       style="fill:#ff00ff;stroke:none"
       id="g850"
       transform="matrix(0.01550293,0,0,0.01550293,75.671074,250.18703)" />
    <g
       style="fill:#ff00ff;stroke:none"
       id="g852"
       transform="matrix(0.01550293,0,0,0.01550293,75.671074,250.18703)" />
    <g
       style="fill:#ff00ff;stroke:none"
       id="g854"
       transform="matrix(0.01550293,0,0,0.01550293,75.671074,250.18703)" />
    <g
       style="fill:#ff00ff;stroke:none"
       id="g856"
       transform="matrix(0.01550293,0,0,0.01550293,75.671074,250.18703)" />
    <g
       style="fill:#ff00ff;stroke:none"
       id="g858"
       transform="matrix(0.01550293,0,0,0.01550293,75.671074,250.18703)" />
    <g
       style="fill:#ff00ff;stroke:none"
       id="g860"
       transform="matrix(0.01550293,0,0,0.01550293,75.671074,250.18703)" />
    <g
       style="fill:#ff00ff;stroke:none"
       id="g862"
       transform="matrix(0.01550293,0,0,0.01550293,75.671074,250.18703)" />
    <g
       style="fill:#ff00ff;stroke:none"
       id="g864"
       transform="matrix(0.01550293,0,0,0.01550293,75.671074,250.18703)" />
    <g
       style="fill:#ff00ff;stroke:none"
       id="g866"
       transform="matrix(0.01550293,0,0,0.01550293,75.671074,250.18703)" />
    <path
       inkscape:connector-curvature="0"
       id="path1572"
       style="font-style:normal;font-variant:normal;font-weight:100;font-stretch:normal;font-size:49.00785065px;line-height:1.25;font-family:'Apple Chancery';-inkscape-font-specification:'Apple Chancery, Thin';font-variant-ligatures:normal;font-variant-caps:normal;font-variant-numeric:normal;font-feature-settings:normal;text-align:start;letter-spacing:0px;word-spacing:0px;writing-mode:lr-tb;text-anchor:start;fill:#ff00ff;fill-opacity:1;stroke:none;stroke-width:4.59447813"
       d="m 33.936338,277.57695 q -5.408093,3.75695 -10.648679,3.75695 -4.95343,0 -7.992491,-3.66123 -3.015131,-3.66123 -3.015131,-9.66757 0,-8.87788 5.599529,-14.83636 5.59953,-5.95847 13.974895,-5.95847 4.235542,0 8.782169,1.60328 l -1.603284,3.51765 -0.454663,1.02898 q -0.574311,1.22041 -1.411847,1.22041 -0.167507,0 -0.502522,-0.0718 0.335015,-0.74182 0.335015,-1.22041 0,-1.60329 -2.153666,-2.79977 -2.129735,-1.19648 -4.97736,-1.19648 -5.958474,0 -9.547916,4.69021 -3.589442,4.66627 -3.589442,12.39554 0,5.67132 2.51261,8.85396 2.512609,3.18263 6.987447,3.18263 4.115894,0 7.968562,-3.25442 l 0.981114,-8.63859 h -4.068035 q -4.139823,0 -6.628503,0.8136 1.196481,-2.44082 2.249384,-3.06299 1.076833,-0.62217 4.020175,-0.62217 l 2.416891,-0.0239 h 6.365278 l -0.239296,0.98112 -0.382874,1.50756 q -0.311085,1.34006 -0.430733,2.32118 l -1.052903,9.6197 q -0.550382,4.85771 -1.411848,7.25067 -0.861466,2.41689 -2.823694,4.45091 -3.924457,4.1159 -9.380409,4.1159 -5.025219,0 -7.824984,-3.44587 l 3.565513,-2.82369 q 2.201524,4.23554 6.77208,4.23554 3.445865,0 4.953431,-2.1776 1.531495,-2.15366 2.201524,-7.94463 z" />
  </g>
  <style
     type="text/css"
     id="style851">
	.st0{fill:#3A3A3A;}
</style>
</svg>
