<?xml version="1.0" encoding="UTF-8" standalone="no"?>
<!-- Created with Inkscape (http://www.inkscape.org/) -->

<svg
   xmlns:dc="http://purl.org/dc/elements/1.1/"
   xmlns:cc="http://creativecommons.org/ns#"
   xmlns:rdf="http://www.w3.org/1999/02/22-rdf-syntax-ns#"
   xmlns:svg="http://www.w3.org/2000/svg"
   xmlns="http://www.w3.org/2000/svg"
   xmlns:xlink="http://www.w3.org/1999/xlink"
   xmlns:sodipodi="http://sodipodi.sourceforge.net/DTD/sodipodi-0.dtd"
   xmlns:inkscape="http://www.inkscape.org/namespaces/inkscape"
   width="200"
   height="200"
   viewBox="0 0 52.916665 52.916668"
   version="1.1"
   id="svg8"
   inkscape:version="0.92.4 (5da689c313, 2019-01-14)"
   sodipodi:docname="logo-8.svg">
  <defs
     id="defs2">
    <linearGradient
       id="linearGradient35380">
      <stop
         style="stop-color:#a9a9a9;stop-opacity:1;"
         offset="0"
         id="stop35382" />
      <stop
         style="stop-color:#565656;stop-opacity:1;"
         offset="1"
         id="stop35384" />
    </linearGradient>
    <linearGradient
       id="linearGradient35369">
      <stop
         style="stop-color:#ffffff;stop-opacity:1;"
         offset="0"
         id="stop35371" />
      <stop
         style="stop-color:#acacac;stop-opacity:1;"
         offset="1"
         id="stop35373" />
    </linearGradient>
    <linearGradient
       id="linearGradient25712">
      <stop
         style="stop-color:#ffffff;stop-opacity:1;"
         offset="0"
         id="stop25714" />
      <stop
         style="stop-color:#e2afff;stop-opacity:1;"
         offset="1"
         id="stop25716" />
    </linearGradient>
    <linearGradient
       id="linearGradient25706">
      <stop
         id="stop25708"
         offset="0"
         style="stop-color:#b461de;stop-opacity:1;" />
      <stop
         id="stop25710"
         offset="1"
         style="stop-color:#8e3db6;stop-opacity:1;" />
    </linearGradient>
    <linearGradient
       id="linearGradient15254">
      <stop
         id="stop15256"
         offset="0"
         style="stop-color:#2ed948;stop-opacity:1;" />
      <stop
         id="stop15258"
         offset="1"
         style="stop-color:#288237;stop-opacity:1;" />
    </linearGradient>
    <linearGradient
       id="linearGradient35616">
      <stop
         style="stop-color:#f2f2f2;stop-opacity:1;"
         offset="0"
         id="stop35618" />
      <stop
         style="stop-color:#676767;stop-opacity:1;"
         offset="1"
         id="stop35620" />
    </linearGradient>
    <linearGradient
       id="linearGradient35539">
      <stop
         style="stop-color:#f7eb7a;stop-opacity:1;"
         offset="0"
         id="stop35541" />
      <stop
         style="stop-color:#ffd100;stop-opacity:1;"
         offset="1"
         id="stop35543" />
    </linearGradient>
    <linearGradient
       id="linearGradient3755">
      <stop
         style="stop-color:#71bdf0;stop-opacity:1;"
         offset="0"
         id="stop3757" />
      <stop
         style="stop-color:#0099ff;stop-opacity:1;"
         offset="1"
         id="stop3759" />
    </linearGradient>
    <clipPath
       clipPathUnits="userSpaceOnUse"
       id="clipPath3871">
      <path
         d="m 420.54245,445.2738 a 169.79866,169.79866 0 1 1 -339.597321,0 169.79866,169.79866 0 1 1 339.597321,0 z"
         sodipodi:ry="169.79866"
         sodipodi:rx="169.79866"
         sodipodi:cy="445.2738"
         sodipodi:cx="250.74379"
         id="path3873"
         style="fill:url(#radialGradient3875);fill-opacity:1;stroke:none"
         sodipodi:type="arc" />
    </clipPath>
    <radialGradient
       inkscape:collect="always"
       xlink:href="#linearGradient3755"
       id="radialGradient3875"
       gradientUnits="userSpaceOnUse"
       gradientTransform="matrix(0.32745848,1.4349641,-1.3491113,0.30786647,634.85261,-18.77423)"
       cx="197.16794"
       cy="372.22382"
       fx="197.16794"
       fy="372.22382"
       r="169.79866" />
    <linearGradient
       id="linearGradient3751">
      <stop
         style="stop-color:#61de74;stop-opacity:1;"
         offset="0"
         id="stop3753" />
      <stop
         style="stop-color:#3db65a;stop-opacity:1;"
         offset="1"
         id="stop3755" />
    </linearGradient>
    <linearGradient
       id="linearGradient9639">
      <stop
         id="stop9641"
         offset="0"
         style="stop-color:#ffffff;stop-opacity:1;" />
      <stop
         id="stop9643"
         offset="1"
         style="stop-color:#afffb9;stop-opacity:1;" />
    </linearGradient>
    <clipPath
       clipPathUnits="userSpaceOnUse"
       id="clipPath35468">
      <path
         transform="matrix(0.6884656,0,0,0.6884656,-1755.6356,-1342.9723)"
         d="m 1329.8392,1683.4099 a 174.51379,174.51379 0 1 1 -349.02755,0 174.51379,174.51379 0 1 1 349.02755,0 z"
         sodipodi:ry="174.51379"
         sodipodi:rx="174.51379"
         sodipodi:cy="1683.4099"
         sodipodi:cx="1155.3254"
         id="path35470"
         style="fill:url(#radialGradient35472);fill-opacity:1;stroke:none"
         sodipodi:type="arc" />
    </clipPath>
    <radialGradient
       inkscape:collect="always"
       xlink:href="#linearGradient35369"
       id="radialGradient35472"
       gradientUnits="userSpaceOnUse"
       gradientTransform="matrix(-0.4360239,1.1076521,-1.3394834,-0.52728489,3739.5645,1227.9101)"
       cx="1094.5464"
       cy="1621.0869"
       fx="1094.5464"
       fy="1621.0869"
       r="174.51379" />
    <radialGradient
       inkscape:collect="always"
       xlink:href="#linearGradient25712"
       id="radialGradient4477"
       gradientUnits="userSpaceOnUse"
       gradientTransform="matrix(1.0717983,1.8198873,-1.3170671,0.77566969,-3180.033,5645.2163)"
       cx="-3422.5815"
       cy="-2601.0588"
       fx="-3422.5815"
       fy="-2601.0588"
       r="244.68996" />
    <radialGradient
       inkscape:collect="always"
       xlink:href="#linearGradient25706"
       id="radialGradient4479"
       gradientUnits="userSpaceOnUse"
       gradientTransform="matrix(0.60529051,1.4461625,-1.2363247,0.51746269,-4481.7087,3259.766)"
       cx="-3130.1846"
       cy="-2625.6816"
       fx="-3130.1846"
       fy="-2625.6816"
       r="203.13882" />
    <radialGradient
       inkscape:collect="always"
       xlink:href="#linearGradient25712"
       id="radialGradient4483"
       gradientUnits="userSpaceOnUse"
       gradientTransform="matrix(1.0717983,1.8198873,-1.3170671,0.77566969,-3180.033,5645.2163)"
       cx="-3422.5815"
       cy="-2601.0588"
       fx="-3422.5815"
       fy="-2601.0588"
       r="244.68996" />
    <radialGradient
       inkscape:collect="always"
       xlink:href="#linearGradient25706"
       id="radialGradient4485"
       gradientUnits="userSpaceOnUse"
       gradientTransform="matrix(0.60529051,1.4461625,-1.2363247,0.51746269,-4481.7087,3259.766)"
       cx="-3130.1846"
       cy="-2625.6816"
       fx="-3130.1846"
       fy="-2625.6816"
       r="203.13882" />
    <radialGradient
       inkscape:collect="always"
       xlink:href="#linearGradient35380"
       id="radialGradient4505"
       gradientUnits="userSpaceOnUse"
       gradientTransform="matrix(0.2123212,-1.7117911,2.077346,0.25766271,-382.97517,-1494.1804)"
       cx="-837.65149"
       cy="-133.59895"
       fx="-837.65149"
       fy="-133.59895"
       r="24.697931" />
    <clipPath
       clipPathUnits="userSpaceOnUse"
       id="clipPath4180">
      <path
         inkscape:connector-curvature="0"
         id="path4182"
         d="m 63.592233,993.94796 c 7.181517,-0.16816 10.216816,8.01924 16.585981,10.09194 6.256333,2.3168 11.34316,6.8402 17.358167,9.3601 4.292219,0.5645 15.911709,5.0796 8.234069,9.4779 -6.143459,2.3996 -11.675482,5.6961 -17.062862,9.7147 -4.466292,4.1431 -10.581348,5.8041 -14.402087,10.7436 -4.844978,4.0679 -11.877521,4.8874 -16.664946,0.1791 -5.845874,-2.8166 -10.49518,-8.3534 -17.312907,-9.1629 -4.471253,-5.0046 -12.620843,-4.2607 -16.38841,-9.4865 -3.609259,-2.2451 -6.892068,-7.2641 -0.850203,-8.831 5.003892,-7.4299 14.186894,-8.9362 21.491631,-13.5621 5.833659,-2.57703 10.921973,-6.59467 17.313592,-7.90222 l 0.85287,-0.30096 0.845105,-0.32166 0,0 z"
         style="fill:none;fill-rule:evenodd;stroke:#893803;stroke-width:1px;stroke-linecap:butt;stroke-linejoin:miter;stroke-opacity:1" />
    </clipPath>
    <clipPath
       clipPathUnits="userSpaceOnUse"
       id="clipPath4186">
      <path
         inkscape:connector-curvature="0"
         id="path4188"
         d="m 63.592233,993.94796 c 7.181517,-0.16816 10.216816,8.01924 16.585981,10.09194 6.256333,2.3168 11.34316,6.8402 17.358167,9.3601 4.292219,0.5645 15.911709,5.0796 8.234069,9.4779 -6.143459,2.3996 -11.675482,5.6961 -17.062862,9.7147 -4.466292,4.1431 -10.581348,5.8041 -14.402087,10.7436 -4.844978,4.0679 -11.877521,4.8874 -16.664946,0.1791 -5.845874,-2.8166 -10.49518,-8.3534 -17.312907,-9.1629 -4.471253,-5.0046 -12.620843,-4.2607 -16.38841,-9.4865 -3.609259,-2.2451 -6.892068,-7.2641 -0.850203,-8.831 5.003892,-7.4299 14.186894,-8.9362 21.491631,-13.5621 5.833659,-2.57703 10.921973,-6.59467 17.313592,-7.90222 l 0.85287,-0.30096 0.845105,-0.32166 0,0 z"
         style="fill:none;fill-rule:evenodd;stroke:#893803;stroke-width:1px;stroke-linecap:butt;stroke-linejoin:miter;stroke-opacity:1" />
    </clipPath>
    <clipPath
       clipPathUnits="userSpaceOnUse"
       id="clipPath4194">
      <path
         inkscape:connector-curvature="0"
         id="path4196"
         d="m 63.592233,993.94796 c 7.181517,-0.16816 10.216816,8.01924 16.585981,10.09194 6.256333,2.3168 11.34316,6.8402 17.358167,9.3601 4.292219,0.5645 15.911709,5.0796 8.234069,9.4779 -6.143459,2.3996 -11.675482,5.6961 -17.062862,9.7147 -4.466292,4.1431 -10.581348,5.8041 -14.402087,10.7436 -4.844978,4.0679 -11.877521,4.8874 -16.664946,0.1791 -5.845874,-2.8166 -10.49518,-8.3534 -17.312907,-9.1629 -4.471253,-5.0046 -12.620843,-4.2607 -16.38841,-9.4865 -3.609259,-2.2451 -6.892068,-7.2641 -0.850203,-8.831 5.003892,-7.4299 14.186894,-8.9362 21.491631,-13.5621 5.833659,-2.57703 10.921973,-6.59467 17.313592,-7.90222 l 0.85287,-0.30096 0.845105,-0.32166 0,0 z"
         style="fill:none;fill-rule:evenodd;stroke:#893803;stroke-width:1px;stroke-linecap:butt;stroke-linejoin:miter;stroke-opacity:1" />
    </clipPath>
    <clipPath
       clipPathUnits="userSpaceOnUse"
       id="clipPath4195">
      <path
         inkscape:connector-curvature="0"
         id="path4197"
         d="m 63.592233,993.94796 c 7.181517,-0.16816 10.216816,8.01924 16.585981,10.09194 6.256333,2.3168 11.34316,6.8402 17.358167,9.3601 4.292219,0.5645 15.911709,5.0796 8.234069,9.4779 -6.143459,2.3996 -11.675482,5.6961 -17.062862,9.7147 -4.466292,4.1431 -10.581348,5.8041 -14.402087,10.7436 -4.844978,4.0679 -11.877521,4.8874 -16.664946,0.1791 -5.845874,-2.8166 -10.49518,-8.3534 -17.312907,-9.1629 -4.471253,-5.0046 -12.620843,-4.2607 -16.38841,-9.4865 -3.609259,-2.2451 -6.892068,-7.2641 -0.850203,-8.831 5.003892,-7.4299 14.186894,-8.9362 21.491631,-13.5621 5.833659,-2.57703 10.921973,-6.59467 17.313592,-7.90222 l 0.85287,-0.30096 0.845105,-0.32166 0,0 z"
         style="fill:none;fill-rule:evenodd;stroke:#893803;stroke-width:2;stroke-linecap:round;stroke-linejoin:round;stroke-miterlimit:4;stroke-dasharray:none;stroke-opacity:1" />
    </clipPath>
    <clipPath
       id="clipPath4180-8"
       clipPathUnits="userSpaceOnUse">
      <path
         style="fill:none;fill-rule:evenodd;stroke:#893803;stroke-width:1px;stroke-linecap:butt;stroke-linejoin:miter;stroke-opacity:1"
         d="m 63.592233,993.94796 c 7.181517,-0.16816 10.216816,8.01924 16.585981,10.09194 6.256333,2.3168 11.34316,6.8402 17.358167,9.3601 4.292219,0.5645 15.911709,5.0796 8.234069,9.4779 -6.143459,2.3996 -11.675482,5.6961 -17.062862,9.7147 -4.466292,4.1431 -10.581348,5.8041 -14.402087,10.7436 -4.844978,4.0679 -11.877521,4.8874 -16.664946,0.1791 -5.845874,-2.8166 -10.49518,-8.3534 -17.312907,-9.1629 -4.471253,-5.0046 -12.620843,-4.2607 -16.38841,-9.4865 -3.609259,-2.2451 -6.892068,-7.2641 -0.850203,-8.831 5.003892,-7.4299 14.186894,-8.9362 21.491631,-13.5621 5.833659,-2.57703 10.921973,-6.59467 17.313592,-7.90222 l 0.85287,-0.30096 0.845105,-0.32166 0,0 z"
         id="path4182-4"
         inkscape:connector-curvature="0" />
    </clipPath>
    <clipPath
       id="clipPath4186-3"
       clipPathUnits="userSpaceOnUse">
      <path
         style="fill:none;fill-rule:evenodd;stroke:#893803;stroke-width:1px;stroke-linecap:butt;stroke-linejoin:miter;stroke-opacity:1"
         d="m 63.592233,993.94796 c 7.181517,-0.16816 10.216816,8.01924 16.585981,10.09194 6.256333,2.3168 11.34316,6.8402 17.358167,9.3601 4.292219,0.5645 15.911709,5.0796 8.234069,9.4779 -6.143459,2.3996 -11.675482,5.6961 -17.062862,9.7147 -4.466292,4.1431 -10.581348,5.8041 -14.402087,10.7436 -4.844978,4.0679 -11.877521,4.8874 -16.664946,0.1791 -5.845874,-2.8166 -10.49518,-8.3534 -17.312907,-9.1629 -4.471253,-5.0046 -12.620843,-4.2607 -16.38841,-9.4865 -3.609259,-2.2451 -6.892068,-7.2641 -0.850203,-8.831 5.003892,-7.4299 14.186894,-8.9362 21.491631,-13.5621 5.833659,-2.57703 10.921973,-6.59467 17.313592,-7.90222 l 0.85287,-0.30096 0.845105,-0.32166 0,0 z"
         id="path4188-5"
         inkscape:connector-curvature="0" />
    </clipPath>
    <clipPath
       id="clipPath4194-7"
       clipPathUnits="userSpaceOnUse">
      <path
         style="fill:none;fill-rule:evenodd;stroke:#893803;stroke-width:1px;stroke-linecap:butt;stroke-linejoin:miter;stroke-opacity:1"
         d="m 63.592233,993.94796 c 7.181517,-0.16816 10.216816,8.01924 16.585981,10.09194 6.256333,2.3168 11.34316,6.8402 17.358167,9.3601 4.292219,0.5645 15.911709,5.0796 8.234069,9.4779 -6.143459,2.3996 -11.675482,5.6961 -17.062862,9.7147 -4.466292,4.1431 -10.581348,5.8041 -14.402087,10.7436 -4.844978,4.0679 -11.877521,4.8874 -16.664946,0.1791 -5.845874,-2.8166 -10.49518,-8.3534 -17.312907,-9.1629 -4.471253,-5.0046 -12.620843,-4.2607 -16.38841,-9.4865 -3.609259,-2.2451 -6.892068,-7.2641 -0.850203,-8.831 5.003892,-7.4299 14.186894,-8.9362 21.491631,-13.5621 5.833659,-2.57703 10.921973,-6.59467 17.313592,-7.90222 l 0.85287,-0.30096 0.845105,-0.32166 0,0 z"
         id="path4196-5"
         inkscape:connector-curvature="0" />
    </clipPath>
    <clipPath
       id="clipPath4195-8"
       clipPathUnits="userSpaceOnUse">
      <path
         style="fill:none;fill-rule:evenodd;stroke:#893803;stroke-width:2;stroke-linecap:round;stroke-linejoin:round;stroke-miterlimit:4;stroke-dasharray:none;stroke-opacity:1"
         d="m 63.592233,993.94796 c 7.181517,-0.16816 10.216816,8.01924 16.585981,10.09194 6.256333,2.3168 11.34316,6.8402 17.358167,9.3601 4.292219,0.5645 15.911709,5.0796 8.234069,9.4779 -6.143459,2.3996 -11.675482,5.6961 -17.062862,9.7147 -4.466292,4.1431 -10.581348,5.8041 -14.402087,10.7436 -4.844978,4.0679 -11.877521,4.8874 -16.664946,0.1791 -5.845874,-2.8166 -10.49518,-8.3534 -17.312907,-9.1629 -4.471253,-5.0046 -12.620843,-4.2607 -16.38841,-9.4865 -3.609259,-2.2451 -6.892068,-7.2641 -0.850203,-8.831 5.003892,-7.4299 14.186894,-8.9362 21.491631,-13.5621 5.833659,-2.57703 10.921973,-6.59467 17.313592,-7.90222 l 0.85287,-0.30096 0.845105,-0.32166 0,0 z"
         id="path4197-8"
         inkscape:connector-curvature="0" />
    </clipPath>
    <linearGradient
       id="linearGradient912">
      <stop
         id="stop908"
         offset="0"
         style="stop-color:#e9be02;stop-opacity:1;" />
      <stop
         id="stop910"
         offset="1"
         style="stop-color:#cc9d11;stop-opacity:1;" />
    </linearGradient>
    <clipPath
       clipPathUnits="userSpaceOnUse"
       id="clipPath4180-0">
      <path
         inkscape:connector-curvature="0"
         id="path4182-5"
         d="m 63.592233,993.94796 c 7.181517,-0.16816 10.216816,8.01924 16.585981,10.09194 6.256333,2.3168 11.34316,6.8402 17.358167,9.3601 4.292219,0.5645 15.911709,5.0796 8.234069,9.4779 -6.143459,2.3996 -11.675482,5.6961 -17.062862,9.7147 -4.466292,4.1431 -10.581348,5.8041 -14.402087,10.7436 -4.844978,4.0679 -11.877521,4.8874 -16.664946,0.1791 -5.845874,-2.8166 -10.49518,-8.3534 -17.312907,-9.1629 -4.471253,-5.0046 -12.620843,-4.2607 -16.38841,-9.4865 -3.609259,-2.2451 -6.892068,-7.2641 -0.850203,-8.831 5.003892,-7.4299 14.186894,-8.9362 21.491631,-13.5621 5.833659,-2.57703 10.921973,-6.59467 17.313592,-7.90222 l 0.85287,-0.30096 z"
         style="fill:none;fill-rule:evenodd;stroke:#893803;stroke-width:1px;stroke-linecap:butt;stroke-linejoin:miter;stroke-opacity:1" />
    </clipPath>
    <clipPath
       clipPathUnits="userSpaceOnUse"
       id="clipPath4186-5">
      <path
         inkscape:connector-curvature="0"
         id="path4188-0"
         d="m 63.592233,993.94796 c 7.181517,-0.16816 10.216816,8.01924 16.585981,10.09194 6.256333,2.3168 11.34316,6.8402 17.358167,9.3601 4.292219,0.5645 15.911709,5.0796 8.234069,9.4779 -6.143459,2.3996 -11.675482,5.6961 -17.062862,9.7147 -4.466292,4.1431 -10.581348,5.8041 -14.402087,10.7436 -4.844978,4.0679 -11.877521,4.8874 -16.664946,0.1791 -5.845874,-2.8166 -10.49518,-8.3534 -17.312907,-9.1629 -4.471253,-5.0046 -12.620843,-4.2607 -16.38841,-9.4865 -3.609259,-2.2451 -6.892068,-7.2641 -0.850203,-8.831 5.003892,-7.4299 14.186894,-8.9362 21.491631,-13.5621 5.833659,-2.57703 10.921973,-6.59467 17.313592,-7.90222 l 0.85287,-0.30096 z"
         style="fill:none;fill-rule:evenodd;stroke:#893803;stroke-width:1px;stroke-linecap:butt;stroke-linejoin:miter;stroke-opacity:1" />
    </clipPath>
    <clipPath
       clipPathUnits="userSpaceOnUse"
       id="clipPath4194-4">
      <path
         inkscape:connector-curvature="0"
         id="path4196-6"
         d="m 63.592233,993.94796 c 7.181517,-0.16816 10.216816,8.01924 16.585981,10.09194 6.256333,2.3168 11.34316,6.8402 17.358167,9.3601 4.292219,0.5645 15.911709,5.0796 8.234069,9.4779 -6.143459,2.3996 -11.675482,5.6961 -17.062862,9.7147 -4.466292,4.1431 -10.581348,5.8041 -14.402087,10.7436 -4.844978,4.0679 -11.877521,4.8874 -16.664946,0.1791 -5.845874,-2.8166 -10.49518,-8.3534 -17.312907,-9.1629 -4.471253,-5.0046 -12.620843,-4.2607 -16.38841,-9.4865 -3.609259,-2.2451 -6.892068,-7.2641 -0.850203,-8.831 5.003892,-7.4299 14.186894,-8.9362 21.491631,-13.5621 5.833659,-2.57703 10.921973,-6.59467 17.313592,-7.90222 l 0.85287,-0.30096 z"
         style="fill:none;fill-rule:evenodd;stroke:#893803;stroke-width:1px;stroke-linecap:butt;stroke-linejoin:miter;stroke-opacity:1" />
    </clipPath>
    <clipPath
       clipPathUnits="userSpaceOnUse"
       id="clipPath4195-5">
      <path
         inkscape:connector-curvature="0"
         id="path4197-6"
         d="m 63.592233,993.94796 c 7.181517,-0.16816 10.216816,8.01924 16.585981,10.09194 6.256333,2.3168 11.34316,6.8402 17.358167,9.3601 4.292219,0.5645 15.911709,5.0796 8.234069,9.4779 -6.143459,2.3996 -11.675482,5.6961 -17.062862,9.7147 -4.466292,4.1431 -10.581348,5.8041 -14.402087,10.7436 -4.844978,4.0679 -11.877521,4.8874 -16.664946,0.1791 -5.845874,-2.8166 -10.49518,-8.3534 -17.312907,-9.1629 -4.471253,-5.0046 -12.620843,-4.2607 -16.38841,-9.4865 -3.609259,-2.2451 -6.892068,-7.2641 -0.850203,-8.831 5.003892,-7.4299 14.186894,-8.9362 21.491631,-13.5621 5.833659,-2.57703 10.921973,-6.59467 17.313592,-7.90222 l 0.85287,-0.30096 z"
         style="fill:none;fill-rule:evenodd;stroke:#893803;stroke-width:2;stroke-linecap:round;stroke-linejoin:round;stroke-miterlimit:4;stroke-dasharray:none;stroke-opacity:1" />
    </clipPath>
    <clipPath
       clipPathUnits="userSpaceOnUse"
       id="clipPath3871-2">
      <circle
         id="path3873-3"
         style="fill:url(#radialGradient3875-83);fill-opacity:1;stroke:none"
         cx="250.74379"
         cy="445.2738"
         r="169.79866" />
    </clipPath>
    <radialGradient
       inkscape:collect="always"
       xlink:href="#linearGradient3755"
       id="radialGradient3875-83"
       gradientUnits="userSpaceOnUse"
       gradientTransform="matrix(0.32745848,1.4349641,-1.3491113,0.30786647,634.85261,-18.77423)"
       cx="197.16794"
       cy="372.22382"
       fx="197.16794"
       fy="372.22382"
       r="169.79866" />
    <clipPath
       clipPathUnits="userSpaceOnUse"
       id="clipPath3871-9">
      <circle
         id="path3873-2"
         style="fill:url(#radialGradient3875-8);fill-opacity:1;stroke:none"
         cx="250.74379"
         cy="445.2738"
         r="169.79866" />
    </clipPath>
    <radialGradient
       inkscape:collect="always"
       xlink:href="#linearGradient3755"
       id="radialGradient3875-8"
       gradientUnits="userSpaceOnUse"
       gradientTransform="matrix(0.32745848,1.4349641,-1.3491113,0.30786647,634.85261,-18.77423)"
       cx="197.16794"
       cy="372.22382"
       fx="197.16794"
       fy="372.22382"
       r="169.79866" />
    <clipPath
       clipPathUnits="userSpaceOnUse"
       id="clipPath4702">
      <path
         sodipodi:nodetypes="cccccc"
         inkscape:connector-curvature="0"
         id="path4704"
         d="m 3.96875,270.54165 h 18.520833 v 25.13542 l -9.260416,-6.61459 -9.260417,6.61459 z"
         style="fill:#d6981a;fill-opacity:1;stroke:none;stroke-width:0.26499999;stroke-linecap:butt;stroke-linejoin:miter;stroke-miterlimit:4;stroke-dasharray:none;stroke-opacity:1" />
    </clipPath>
    <clipPath
       id="clipPath4180-9"
       clipPathUnits="userSpaceOnUse">
      <path
         style="fill:none;fill-rule:evenodd;stroke:#893803;stroke-width:1px;stroke-linecap:butt;stroke-linejoin:miter;stroke-opacity:1"
         d="m 63.592233,993.94796 c 7.181517,-0.16816 10.216816,8.01924 16.585981,10.09194 6.256333,2.3168 11.34316,6.8402 17.358167,9.3601 4.292219,0.5645 15.911709,5.0796 8.234069,9.4779 -6.143459,2.3996 -11.675482,5.6961 -17.062862,9.7147 -4.466292,4.1431 -10.581348,5.8041 -14.402087,10.7436 -4.844978,4.0679 -11.877521,4.8874 -16.664946,0.1791 -5.845874,-2.8166 -10.49518,-8.3534 -17.312907,-9.1629 -4.471253,-5.0046 -12.620843,-4.2607 -16.38841,-9.4865 -3.609259,-2.2451 -6.892068,-7.2641 -0.850203,-8.831 5.003892,-7.4299 14.186894,-8.9362 21.491631,-13.5621 5.833659,-2.57703 10.921973,-6.59467 17.313592,-7.90222 l 0.85287,-0.30096 0.845105,-0.32166 0,0 z"
         id="path4182-7"
         inkscape:connector-curvature="0" />
    </clipPath>
    <clipPath
       id="clipPath4186-6"
       clipPathUnits="userSpaceOnUse">
      <path
         style="fill:none;fill-rule:evenodd;stroke:#893803;stroke-width:1px;stroke-linecap:butt;stroke-linejoin:miter;stroke-opacity:1"
         d="m 63.592233,993.94796 c 7.181517,-0.16816 10.216816,8.01924 16.585981,10.09194 6.256333,2.3168 11.34316,6.8402 17.358167,9.3601 4.292219,0.5645 15.911709,5.0796 8.234069,9.4779 -6.143459,2.3996 -11.675482,5.6961 -17.062862,9.7147 -4.466292,4.1431 -10.581348,5.8041 -14.402087,10.7436 -4.844978,4.0679 -11.877521,4.8874 -16.664946,0.1791 -5.845874,-2.8166 -10.49518,-8.3534 -17.312907,-9.1629 -4.471253,-5.0046 -12.620843,-4.2607 -16.38841,-9.4865 -3.609259,-2.2451 -6.892068,-7.2641 -0.850203,-8.831 5.003892,-7.4299 14.186894,-8.9362 21.491631,-13.5621 5.833659,-2.57703 10.921973,-6.59467 17.313592,-7.90222 l 0.85287,-0.30096 0.845105,-0.32166 0,0 z"
         id="path4188-9"
         inkscape:connector-curvature="0" />
    </clipPath>
    <clipPath
       id="clipPath4194-5"
       clipPathUnits="userSpaceOnUse">
      <path
         style="fill:none;fill-rule:evenodd;stroke:#893803;stroke-width:1px;stroke-linecap:butt;stroke-linejoin:miter;stroke-opacity:1"
         d="m 63.592233,993.94796 c 7.181517,-0.16816 10.216816,8.01924 16.585981,10.09194 6.256333,2.3168 11.34316,6.8402 17.358167,9.3601 4.292219,0.5645 15.911709,5.0796 8.234069,9.4779 -6.143459,2.3996 -11.675482,5.6961 -17.062862,9.7147 -4.466292,4.1431 -10.581348,5.8041 -14.402087,10.7436 -4.844978,4.0679 -11.877521,4.8874 -16.664946,0.1791 -5.845874,-2.8166 -10.49518,-8.3534 -17.312907,-9.1629 -4.471253,-5.0046 -12.620843,-4.2607 -16.38841,-9.4865 -3.609259,-2.2451 -6.892068,-7.2641 -0.850203,-8.831 5.003892,-7.4299 14.186894,-8.9362 21.491631,-13.5621 5.833659,-2.57703 10.921973,-6.59467 17.313592,-7.90222 l 0.85287,-0.30096 0.845105,-0.32166 0,0 z"
         id="path4196-7"
         inkscape:connector-curvature="0" />
    </clipPath>
    <clipPath
       id="clipPath4195-2"
       clipPathUnits="userSpaceOnUse">
      <path
         style="fill:none;fill-rule:evenodd;stroke:#893803;stroke-width:2;stroke-linecap:round;stroke-linejoin:round;stroke-miterlimit:4;stroke-dasharray:none;stroke-opacity:1"
         d="m 63.592233,993.94796 c 7.181517,-0.16816 10.216816,8.01924 16.585981,10.09194 6.256333,2.3168 11.34316,6.8402 17.358167,9.3601 4.292219,0.5645 15.911709,5.0796 8.234069,9.4779 -6.143459,2.3996 -11.675482,5.6961 -17.062862,9.7147 -4.466292,4.1431 -10.581348,5.8041 -14.402087,10.7436 -4.844978,4.0679 -11.877521,4.8874 -16.664946,0.1791 -5.845874,-2.8166 -10.49518,-8.3534 -17.312907,-9.1629 -4.471253,-5.0046 -12.620843,-4.2607 -16.38841,-9.4865 -3.609259,-2.2451 -6.892068,-7.2641 -0.850203,-8.831 5.003892,-7.4299 14.186894,-8.9362 21.491631,-13.5621 5.833659,-2.57703 10.921973,-6.59467 17.313592,-7.90222 l 0.85287,-0.30096 0.845105,-0.32166 0,0 z"
         id="path4197-67"
         inkscape:connector-curvature="0" />
    </clipPath>
    <clipPath
       clipPathUnits="userSpaceOnUse"
       id="clipPath3871-6">
      <path
         d="m 420.54245,445.2738 a 169.79866,169.79866 0 1 1 -339.597321,0 169.79866,169.79866 0 1 1 339.597321,0 z"
         sodipodi:ry="169.79866"
         sodipodi:rx="169.79866"
         sodipodi:cy="445.2738"
         sodipodi:cx="250.74379"
         id="path3873-1"
         style="fill:url(#radialGradient3875-0);fill-opacity:1;stroke:none"
         sodipodi:type="arc" />
    </clipPath>
    <radialGradient
       inkscape:collect="always"
       xlink:href="#linearGradient3755"
       id="radialGradient3875-0"
       gradientUnits="userSpaceOnUse"
       gradientTransform="matrix(0.32745848,1.4349641,-1.3491113,0.30786647,634.85261,-18.77423)"
       cx="197.16794"
       cy="372.22382"
       fx="197.16794"
       fy="372.22382"
       r="169.79866" />
    <clipPath
       clipPathUnits="userSpaceOnUse"
       id="clipPath35468-2">
      <path
         transform="matrix(0.6884656,0,0,0.6884656,-1755.6356,-1342.9723)"
         d="m 1329.8392,1683.4099 a 174.51379,174.51379 0 1 1 -349.02755,0 174.51379,174.51379 0 1 1 349.02755,0 z"
         sodipodi:ry="174.51379"
         sodipodi:rx="174.51379"
         sodipodi:cy="1683.4099"
         sodipodi:cx="1155.3254"
         id="path35470-2"
         style="fill:url(#radialGradient35472-2);fill-opacity:1;stroke:none"
         sodipodi:type="arc" />
    </clipPath>
    <radialGradient
       inkscape:collect="always"
       xlink:href="#linearGradient35369"
       id="radialGradient35472-2"
       gradientUnits="userSpaceOnUse"
       gradientTransform="matrix(-0.4360239,1.1076521,-1.3394834,-0.52728489,3739.5645,1227.9101)"
       cx="1094.5464"
       cy="1621.0869"
       fx="1094.5464"
       fy="1621.0869"
       r="174.51379" />
    <radialGradient
       inkscape:collect="always"
       xlink:href="#linearGradient25712"
       id="radialGradient4477-0"
       gradientUnits="userSpaceOnUse"
       gradientTransform="matrix(1.0717983,1.8198873,-1.3170671,0.77566969,-3180.033,5645.2163)"
       cx="-3422.5815"
       cy="-2601.0588"
       fx="-3422.5815"
       fy="-2601.0588"
       r="244.68996" />
    <radialGradient
       inkscape:collect="always"
       xlink:href="#linearGradient25706"
       id="radialGradient4479-6"
       gradientUnits="userSpaceOnUse"
       gradientTransform="matrix(0.60529051,1.4461625,-1.2363247,0.51746269,-4481.7087,3259.766)"
       cx="-3130.1846"
       cy="-2625.6816"
       fx="-3130.1846"
       fy="-2625.6816"
       r="203.13882" />
    <radialGradient
       inkscape:collect="always"
       xlink:href="#linearGradient25712"
       id="radialGradient4483-4"
       gradientUnits="userSpaceOnUse"
       gradientTransform="matrix(1.0717983,1.8198873,-1.3170671,0.77566969,-3180.033,5645.2163)"
       cx="-3422.5815"
       cy="-2601.0588"
       fx="-3422.5815"
       fy="-2601.0588"
       r="244.68996" />
    <radialGradient
       inkscape:collect="always"
       xlink:href="#linearGradient25706"
       id="radialGradient4485-4"
       gradientUnits="userSpaceOnUse"
       gradientTransform="matrix(0.60529051,1.4461625,-1.2363247,0.51746269,-4481.7087,3259.766)"
       cx="-3130.1846"
       cy="-2625.6816"
       fx="-3130.1846"
       fy="-2625.6816"
       r="203.13882" />
    <radialGradient
       inkscape:collect="always"
       xlink:href="#linearGradient35380"
       id="radialGradient4505-0"
       gradientUnits="userSpaceOnUse"
       gradientTransform="matrix(0.2123212,-1.7117911,2.077346,0.25766271,-382.97517,-1494.1804)"
       cx="-837.65149"
       cy="-133.59895"
       fx="-837.65149"
       fy="-133.59895"
       r="24.697931" />
    <clipPath
       id="clipPath4180-50"
       clipPathUnits="userSpaceOnUse">
      <path
         style="fill:none;fill-rule:evenodd;stroke:#893803;stroke-width:1px;stroke-linecap:butt;stroke-linejoin:miter;stroke-opacity:1"
         d="m 63.592233,993.94796 c 7.181517,-0.16816 10.216816,8.01924 16.585981,10.09194 6.256333,2.3168 11.34316,6.8402 17.358167,9.3601 4.292219,0.5645 15.911709,5.0796 8.234069,9.4779 -6.143459,2.3996 -11.675482,5.6961 -17.062862,9.7147 -4.466292,4.1431 -10.581348,5.8041 -14.402087,10.7436 -4.844978,4.0679 -11.877521,4.8874 -16.664946,0.1791 -5.845874,-2.8166 -10.49518,-8.3534 -17.312907,-9.1629 -4.471253,-5.0046 -12.620843,-4.2607 -16.38841,-9.4865 -3.609259,-2.2451 -6.892068,-7.2641 -0.850203,-8.831 5.003892,-7.4299 14.186894,-8.9362 21.491631,-13.5621 5.833659,-2.57703 10.921973,-6.59467 17.313592,-7.90222 l 0.85287,-0.30096 0.845105,-0.32166 0,0 z"
         id="path4182-1"
         inkscape:connector-curvature="0" />
    </clipPath>
    <clipPath
       id="clipPath4186-02"
       clipPathUnits="userSpaceOnUse">
      <path
         style="fill:none;fill-rule:evenodd;stroke:#893803;stroke-width:1px;stroke-linecap:butt;stroke-linejoin:miter;stroke-opacity:1"
         d="m 63.592233,993.94796 c 7.181517,-0.16816 10.216816,8.01924 16.585981,10.09194 6.256333,2.3168 11.34316,6.8402 17.358167,9.3601 4.292219,0.5645 15.911709,5.0796 8.234069,9.4779 -6.143459,2.3996 -11.675482,5.6961 -17.062862,9.7147 -4.466292,4.1431 -10.581348,5.8041 -14.402087,10.7436 -4.844978,4.0679 -11.877521,4.8874 -16.664946,0.1791 -5.845874,-2.8166 -10.49518,-8.3534 -17.312907,-9.1629 -4.471253,-5.0046 -12.620843,-4.2607 -16.38841,-9.4865 -3.609259,-2.2451 -6.892068,-7.2641 -0.850203,-8.831 5.003892,-7.4299 14.186894,-8.9362 21.491631,-13.5621 5.833659,-2.57703 10.921973,-6.59467 17.313592,-7.90222 l 0.85287,-0.30096 0.845105,-0.32166 0,0 z"
         id="path4188-07"
         inkscape:connector-curvature="0" />
    </clipPath>
    <clipPath
       id="clipPath4194-15"
       clipPathUnits="userSpaceOnUse">
      <path
         style="fill:none;fill-rule:evenodd;stroke:#893803;stroke-width:1px;stroke-linecap:butt;stroke-linejoin:miter;stroke-opacity:1"
         d="m 63.592233,993.94796 c 7.181517,-0.16816 10.216816,8.01924 16.585981,10.09194 6.256333,2.3168 11.34316,6.8402 17.358167,9.3601 4.292219,0.5645 15.911709,5.0796 8.234069,9.4779 -6.143459,2.3996 -11.675482,5.6961 -17.062862,9.7147 -4.466292,4.1431 -10.581348,5.8041 -14.402087,10.7436 -4.844978,4.0679 -11.877521,4.8874 -16.664946,0.1791 -5.845874,-2.8166 -10.49518,-8.3534 -17.312907,-9.1629 -4.471253,-5.0046 -12.620843,-4.2607 -16.38841,-9.4865 -3.609259,-2.2451 -6.892068,-7.2641 -0.850203,-8.831 5.003892,-7.4299 14.186894,-8.9362 21.491631,-13.5621 5.833659,-2.57703 10.921973,-6.59467 17.313592,-7.90222 l 0.85287,-0.30096 0.845105,-0.32166 0,0 z"
         id="path4196-2"
         inkscape:connector-curvature="0" />
    </clipPath>
    <clipPath
       id="clipPath4195-53"
       clipPathUnits="userSpaceOnUse">
      <path
         style="fill:none;fill-rule:evenodd;stroke:#893803;stroke-width:2;stroke-linecap:round;stroke-linejoin:round;stroke-miterlimit:4;stroke-dasharray:none;stroke-opacity:1"
         d="m 63.592233,993.94796 c 7.181517,-0.16816 10.216816,8.01924 16.585981,10.09194 6.256333,2.3168 11.34316,6.8402 17.358167,9.3601 4.292219,0.5645 15.911709,5.0796 8.234069,9.4779 -6.143459,2.3996 -11.675482,5.6961 -17.062862,9.7147 -4.466292,4.1431 -10.581348,5.8041 -14.402087,10.7436 -4.844978,4.0679 -11.877521,4.8874 -16.664946,0.1791 -5.845874,-2.8166 -10.49518,-8.3534 -17.312907,-9.1629 -4.471253,-5.0046 -12.620843,-4.2607 -16.38841,-9.4865 -3.609259,-2.2451 -6.892068,-7.2641 -0.850203,-8.831 5.003892,-7.4299 14.186894,-8.9362 21.491631,-13.5621 5.833659,-2.57703 10.921973,-6.59467 17.313592,-7.90222 l 0.85287,-0.30096 0.845105,-0.32166 0,0 z"
         id="path4197-7"
         inkscape:connector-curvature="0" />
    </clipPath>
    <clipPath
       id="clipPath4180-5"
       clipPathUnits="userSpaceOnUse">
      <path
         style="fill:none;fill-rule:evenodd;stroke:#893803;stroke-width:1px;stroke-linecap:butt;stroke-linejoin:miter;stroke-opacity:1"
         d="m 63.592233,993.94796 c 7.181517,-0.16816 10.216816,8.01924 16.585981,10.09194 6.256333,2.3168 11.34316,6.8402 17.358167,9.3601 4.292219,0.5645 15.911709,5.0796 8.234069,9.4779 -6.143459,2.3996 -11.675482,5.6961 -17.062862,9.7147 -4.466292,4.1431 -10.581348,5.8041 -14.402087,10.7436 -4.844978,4.0679 -11.877521,4.8874 -16.664946,0.1791 -5.845874,-2.8166 -10.49518,-8.3534 -17.312907,-9.1629 -4.471253,-5.0046 -12.620843,-4.2607 -16.38841,-9.4865 -3.609259,-2.2451 -6.892068,-7.2641 -0.850203,-8.831 5.003892,-7.4299 14.186894,-8.9362 21.491631,-13.5621 5.833659,-2.57703 10.921973,-6.59467 17.313592,-7.90222 l 0.85287,-0.30096 0.845105,-0.32166 0,0 z"
         id="path4182-4-1"
         inkscape:connector-curvature="0" />
    </clipPath>
    <clipPath
       id="clipPath4186-0"
       clipPathUnits="userSpaceOnUse">
      <path
         style="fill:none;fill-rule:evenodd;stroke:#893803;stroke-width:1px;stroke-linecap:butt;stroke-linejoin:miter;stroke-opacity:1"
         d="m 63.592233,993.94796 c 7.181517,-0.16816 10.216816,8.01924 16.585981,10.09194 6.256333,2.3168 11.34316,6.8402 17.358167,9.3601 4.292219,0.5645 15.911709,5.0796 8.234069,9.4779 -6.143459,2.3996 -11.675482,5.6961 -17.062862,9.7147 -4.466292,4.1431 -10.581348,5.8041 -14.402087,10.7436 -4.844978,4.0679 -11.877521,4.8874 -16.664946,0.1791 -5.845874,-2.8166 -10.49518,-8.3534 -17.312907,-9.1629 -4.471253,-5.0046 -12.620843,-4.2607 -16.38841,-9.4865 -3.609259,-2.2451 -6.892068,-7.2641 -0.850203,-8.831 5.003892,-7.4299 14.186894,-8.9362 21.491631,-13.5621 5.833659,-2.57703 10.921973,-6.59467 17.313592,-7.90222 l 0.85287,-0.30096 0.845105,-0.32166 0,0 z"
         id="path4188-2"
         inkscape:connector-curvature="0" />
    </clipPath>
    <clipPath
       id="clipPath4194-1"
       clipPathUnits="userSpaceOnUse">
      <path
         style="fill:none;fill-rule:evenodd;stroke:#893803;stroke-width:1px;stroke-linecap:butt;stroke-linejoin:miter;stroke-opacity:1"
         d="m 63.592233,993.94796 c 7.181517,-0.16816 10.216816,8.01924 16.585981,10.09194 6.256333,2.3168 11.34316,6.8402 17.358167,9.3601 4.292219,0.5645 15.911709,5.0796 8.234069,9.4779 -6.143459,2.3996 -11.675482,5.6961 -17.062862,9.7147 -4.466292,4.1431 -10.581348,5.8041 -14.402087,10.7436 -4.844978,4.0679 -11.877521,4.8874 -16.664946,0.1791 -5.845874,-2.8166 -10.49518,-8.3534 -17.312907,-9.1629 -4.471253,-5.0046 -12.620843,-4.2607 -16.38841,-9.4865 -3.609259,-2.2451 -6.892068,-7.2641 -0.850203,-8.831 5.003892,-7.4299 14.186894,-8.9362 21.491631,-13.5621 5.833659,-2.57703 10.921973,-6.59467 17.313592,-7.90222 l 0.85287,-0.30096 0.845105,-0.32166 0,0 z"
         id="path4196-4"
         inkscape:connector-curvature="0" />
    </clipPath>
    <clipPath
       id="clipPath4195-2-6"
       clipPathUnits="userSpaceOnUse">
      <path
         style="fill:none;fill-rule:evenodd;stroke:#893803;stroke-width:2;stroke-linecap:round;stroke-linejoin:round;stroke-miterlimit:4;stroke-dasharray:none;stroke-opacity:1"
         d="m 63.592233,993.94796 c 7.181517,-0.16816 10.216816,8.01924 16.585981,10.09194 6.256333,2.3168 11.34316,6.8402 17.358167,9.3601 4.292219,0.5645 15.911709,5.0796 8.234069,9.4779 -6.143459,2.3996 -11.675482,5.6961 -17.062862,9.7147 -4.466292,4.1431 -10.581348,5.8041 -14.402087,10.7436 -4.844978,4.0679 -11.877521,4.8874 -16.664946,0.1791 -5.845874,-2.8166 -10.49518,-8.3534 -17.312907,-9.1629 -4.471253,-5.0046 -12.620843,-4.2607 -16.38841,-9.4865 -3.609259,-2.2451 -6.892068,-7.2641 -0.850203,-8.831 5.003892,-7.4299 14.186894,-8.9362 21.491631,-13.5621 5.833659,-2.57703 10.921973,-6.59467 17.313592,-7.90222 l 0.85287,-0.30096 0.845105,-0.32166 0,0 z"
         id="path4197-2"
         inkscape:connector-curvature="0" />
    </clipPath>
    <clipPath
       clipPathUnits="userSpaceOnUse"
       id="clipPath4180-3">
      <path
         inkscape:connector-curvature="0"
         id="path4182-8"
         d="m 63.592233,993.94796 c 7.181517,-0.16816 10.216816,8.01924 16.585981,10.09194 6.256333,2.3168 11.34316,6.8402 17.358167,9.3601 4.292219,0.5645 15.911709,5.0796 8.234069,9.4779 -6.143459,2.3996 -11.675482,5.6961 -17.062862,9.7147 -4.466292,4.1431 -10.581348,5.8041 -14.402087,10.7436 -4.844978,4.0679 -11.877521,4.8874 -16.664946,0.1791 -5.845874,-2.8166 -10.49518,-8.3534 -17.312907,-9.1629 -4.471253,-5.0046 -12.620843,-4.2607 -16.38841,-9.4865 -3.609259,-2.2451 -6.892068,-7.2641 -0.850203,-8.831 5.003892,-7.4299 14.186894,-8.9362 21.491631,-13.5621 5.833659,-2.57703 10.921973,-6.59467 17.313592,-7.90222 l 0.85287,-0.30096 0.845105,-0.32166 0,0 z"
         style="fill:none;fill-rule:evenodd;stroke:#893803;stroke-width:1px;stroke-linecap:butt;stroke-linejoin:miter;stroke-opacity:1" />
    </clipPath>
    <clipPath
       clipPathUnits="userSpaceOnUse"
       id="clipPath4186-9">
      <path
         inkscape:connector-curvature="0"
         id="path4188-0-8"
         d="m 63.592233,993.94796 c 7.181517,-0.16816 10.216816,8.01924 16.585981,10.09194 6.256333,2.3168 11.34316,6.8402 17.358167,9.3601 4.292219,0.5645 15.911709,5.0796 8.234069,9.4779 -6.143459,2.3996 -11.675482,5.6961 -17.062862,9.7147 -4.466292,4.1431 -10.581348,5.8041 -14.402087,10.7436 -4.844978,4.0679 -11.877521,4.8874 -16.664946,0.1791 -5.845874,-2.8166 -10.49518,-8.3534 -17.312907,-9.1629 -4.471253,-5.0046 -12.620843,-4.2607 -16.38841,-9.4865 -3.609259,-2.2451 -6.892068,-7.2641 -0.850203,-8.831 5.003892,-7.4299 14.186894,-8.9362 21.491631,-13.5621 5.833659,-2.57703 10.921973,-6.59467 17.313592,-7.90222 l 0.85287,-0.30096 0.845105,-0.32166 0,0 z"
         style="fill:none;fill-rule:evenodd;stroke:#893803;stroke-width:1px;stroke-linecap:butt;stroke-linejoin:miter;stroke-opacity:1" />
    </clipPath>
    <clipPath
       clipPathUnits="userSpaceOnUse"
       id="clipPath4194-0">
      <path
         inkscape:connector-curvature="0"
         id="path4196-9"
         d="m 63.592233,993.94796 c 7.181517,-0.16816 10.216816,8.01924 16.585981,10.09194 6.256333,2.3168 11.34316,6.8402 17.358167,9.3601 4.292219,0.5645 15.911709,5.0796 8.234069,9.4779 -6.143459,2.3996 -11.675482,5.6961 -17.062862,9.7147 -4.466292,4.1431 -10.581348,5.8041 -14.402087,10.7436 -4.844978,4.0679 -11.877521,4.8874 -16.664946,0.1791 -5.845874,-2.8166 -10.49518,-8.3534 -17.312907,-9.1629 -4.471253,-5.0046 -12.620843,-4.2607 -16.38841,-9.4865 -3.609259,-2.2451 -6.892068,-7.2641 -0.850203,-8.831 5.003892,-7.4299 14.186894,-8.9362 21.491631,-13.5621 5.833659,-2.57703 10.921973,-6.59467 17.313592,-7.90222 l 0.85287,-0.30096 0.845105,-0.32166 0,0 z"
         style="fill:none;fill-rule:evenodd;stroke:#893803;stroke-width:1px;stroke-linecap:butt;stroke-linejoin:miter;stroke-opacity:1" />
    </clipPath>
    <clipPath
       clipPathUnits="userSpaceOnUse"
       id="clipPath4195-1">
      <path
         inkscape:connector-curvature="0"
         id="path4197-5"
         d="m 63.592233,993.94796 c 7.181517,-0.16816 10.216816,8.01924 16.585981,10.09194 6.256333,2.3168 11.34316,6.8402 17.358167,9.3601 4.292219,0.5645 15.911709,5.0796 8.234069,9.4779 -6.143459,2.3996 -11.675482,5.6961 -17.062862,9.7147 -4.466292,4.1431 -10.581348,5.8041 -14.402087,10.7436 -4.844978,4.0679 -11.877521,4.8874 -16.664946,0.1791 -5.845874,-2.8166 -10.49518,-8.3534 -17.312907,-9.1629 -4.471253,-5.0046 -12.620843,-4.2607 -16.38841,-9.4865 -3.609259,-2.2451 -6.892068,-7.2641 -0.850203,-8.831 5.003892,-7.4299 14.186894,-8.9362 21.491631,-13.5621 5.833659,-2.57703 10.921973,-6.59467 17.313592,-7.90222 l 0.85287,-0.30096 0.845105,-0.32166 0,0 z"
         style="fill:none;fill-rule:evenodd;stroke:#893803;stroke-width:2;stroke-linecap:round;stroke-linejoin:round;stroke-miterlimit:4;stroke-dasharray:none;stroke-opacity:1" />
    </clipPath>
  </defs>
  <sodipodi:namedview
     id="base"
     pagecolor="#ffffff"
     bordercolor="#666666"
     borderopacity="1.0"
     inkscape:pageopacity="0.0"
     inkscape:pageshadow="2"
     inkscape:zoom="2.2960843"
     inkscape:cx="129.47298"
     inkscape:cy="143.21109"
     inkscape:document-units="px"
     inkscape:current-layer="layer1"
     showgrid="false"
     units="px"
     inkscape:window-width="1781"
     inkscape:window-height="1082"
     inkscape:window-x="2431"
     inkscape:window-y="193"
     inkscape:window-maximized="0"
     showguides="false">
    <inkscape:grid
       type="xygrid"
       id="grid912" />
  </sodipodi:namedview>
  <metadata
     id="metadata5">
    <rdf:RDF>
      <cc:Work
         rdf:about="">
        <dc:format>image/svg+xml</dc:format>
        <dc:type
           rdf:resource="http://purl.org/dc/dcmitype/StillImage" />
        <dc:title></dc:title>
      </cc:Work>
    </rdf:RDF>
  </metadata>
  <g
     inkscape:label="Layer 1"
     inkscape:groupmode="layer"
     id="layer1"
     transform="translate(0,-244.08332)">
    <g
       id="g1793"
       transform="matrix(4.3318358,0,0,4.3318358,-88.154825,-901.40038)">
      <circle
         r="5.2915449"
         cy="270.54166"
         cx="26.458334"
         id="path5443"
         style="opacity:1;fill:#ff00ff;fill-opacity:1;stroke:none;stroke-width:0.52916664;stroke-linecap:round;stroke-linejoin:round;stroke-miterlimit:4;stroke-dasharray:none;stroke-opacity:1" />
      <g
         id="text5445"
         style="font-style:normal;font-weight:normal;font-size:3.17499995px;line-height:0%;font-family:sans-serif;letter-spacing:0px;word-spacing:0px;opacity:0.328;fill:#000000;fill-opacity:1;stroke:none;stroke-width:0.26458332px;stroke-linecap:butt;stroke-linejoin:miter;stroke-opacity:1"
         aria-label="$">
        <path
           id="path1787"
           style="font-size:9.09444332px;line-height:1.25;fill:#000000;stroke-width:0.26458332px"
           d="m 26.638179,274.66479 h -0.444064 l -0.0044,-1.33663 q -0.466268,-0.009 -0.932536,-0.10658 -0.466267,-0.10213 -0.936976,-0.30196 v -0.79932 q 0.452946,0.2842 0.914773,0.43074 0.466268,0.1421 0.95918,0.14654 v -2.02493 q -0.981383,-0.15986 -1.429888,-0.54176 -0.444065,-0.3819 -0.444065,-1.04799 0,-0.72383 0.484031,-1.14125 0.48403,-0.41742 1.389922,-0.47959 v -1.04355 h 0.444064 v 1.03023 q 0.412981,0.0178 0.799317,0.0888 0.386336,0.0666 0.75491,0.18651 v 0.77711 q -0.368574,-0.1865 -0.759351,-0.28864 -0.386336,-0.10213 -0.794876,-0.1199 v 1.89616 q 1.008027,0.15542 1.483176,0.55508 0.475149,0.39966 0.475149,1.0924 0,0.75047 -0.506233,1.18565 -0.501793,0.43074 -1.452092,0.49735 z m -0.444064,-4.75593 v -1.82067 q -0.515115,0.0577 -0.785995,0.29309 -0.270879,0.23535 -0.270879,0.62613 0,0.38189 0.248676,0.59504 0.253117,0.21315 0.808198,0.30641 z m 0.444064,0.8526 v 1.9228 q 0.563963,-0.0755 0.848164,-0.31972 0.288642,-0.24424 0.288642,-0.6439 0,-0.39078 -0.27532,-0.62169 -0.27088,-0.23091 -0.861486,-0.33749 z"
           inkscape:connector-curvature="0" />
      </g>
    </g>
  </g>
</svg>
