<?xml version="1.0" encoding="UTF-8" standalone="no"?>
<!-- Created with Inkscape (http://www.inkscape.org/) -->

<svg
   xmlns:dc="http://purl.org/dc/elements/1.1/"
   xmlns:cc="http://creativecommons.org/ns#"
   xmlns:rdf="http://www.w3.org/1999/02/22-rdf-syntax-ns#"
   xmlns:svg="http://www.w3.org/2000/svg"
   xmlns="http://www.w3.org/2000/svg"
   xmlns:sodipodi="http://sodipodi.sourceforge.net/DTD/sodipodi-0.dtd"
   xmlns:inkscape="http://www.inkscape.org/namespaces/inkscape"
   width="200"
   height="200"
   viewBox="0 0 52.916665 52.916668"
   version="1.1"
   id="svg8"
   inkscape:version="0.92.4 (5da689c313, 2019-01-14)"
   sodipodi:docname="logo-59.svg">
  <defs
     id="defs2" />
  <sodipodi:namedview
     id="base"
     pagecolor="#ffffff"
     bordercolor="#666666"
     borderopacity="1.0"
     inkscape:pageopacity="0.0"
     inkscape:pageshadow="2"
     inkscape:zoom="2.4723636"
     inkscape:cx="88.005013"
     inkscape:cy="92.623136"
     inkscape:document-units="px"
     inkscape:current-layer="layer1"
     showgrid="true"
     units="px"
     inkscape:window-width="1781"
     inkscape:window-height="1082"
     inkscape:window-x="2126"
     inkscape:window-y="236"
     inkscape:window-maximized="0"
     showguides="false"
     inkscape:snap-global="false">
    <inkscape:grid
       type="xygrid"
       id="grid912" />
  </sodipodi:namedview>
  <metadata
     id="metadata5">
    <rdf:RDF>
      <cc:Work
         rdf:about="">
        <dc:format>image/svg+xml</dc:format>
        <dc:type
           rdf:resource="http://purl.org/dc/dcmitype/StillImage" />
        <dc:title></dc:title>
      </cc:Work>
    </rdf:RDF>
  </metadata>
  <g
     inkscape:label="Layer 1"
     inkscape:groupmode="layer"
     id="layer1"
     transform="translate(0,-244.08332)">
    <g
       style="fill:#ff00ff;stroke:none"
       id="g838"
       transform="matrix(0.01550293,0,0,0.01550293,75.671074,250.18703)" />
    <g
       style="fill:#ff00ff;stroke:none"
       id="g840"
       transform="matrix(0.01550293,0,0,0.01550293,75.671074,250.18703)" />
    <g
       style="fill:#ff00ff;stroke:none"
       id="g842"
       transform="matrix(0.01550293,0,0,0.01550293,75.671074,250.18703)" />
    <g
       style="fill:#ff00ff;stroke:none"
       id="g844"
       transform="matrix(0.01550293,0,0,0.01550293,75.671074,250.18703)" />
    <g
       style="fill:#ff00ff;stroke:none"
       id="g846"
       transform="matrix(0.01550293,0,0,0.01550293,75.671074,250.18703)" />
    <g
       style="fill:#ff00ff;stroke:none"
       id="g848"
       transform="matrix(0.01550293,0,0,0.01550293,75.671074,250.18703)" />
    <g
       style="fill:#ff00ff;stroke:none"
       id="g850"
       transform="matrix(0.01550293,0,0,0.01550293,75.671074,250.18703)" />
    <g
       style="fill:#ff00ff;stroke:none"
       id="g852"
       transform="matrix(0.01550293,0,0,0.01550293,75.671074,250.18703)" />
    <g
       style="fill:#ff00ff;stroke:none"
       id="g854"
       transform="matrix(0.01550293,0,0,0.01550293,75.671074,250.18703)" />
    <g
       style="fill:#ff00ff;stroke:none"
       id="g856"
       transform="matrix(0.01550293,0,0,0.01550293,75.671074,250.18703)" />
    <g
       style="fill:#ff00ff;stroke:none"
       id="g858"
       transform="matrix(0.01550293,0,0,0.01550293,75.671074,250.18703)" />
    <g
       style="fill:#ff00ff;stroke:none"
       id="g860"
       transform="matrix(0.01550293,0,0,0.01550293,75.671074,250.18703)" />
    <g
       style="fill:#ff00ff;stroke:none"
       id="g862"
       transform="matrix(0.01550293,0,0,0.01550293,75.671074,250.18703)" />
    <g
       style="fill:#ff00ff;stroke:none"
       id="g864"
       transform="matrix(0.01550293,0,0,0.01550293,75.671074,250.18703)" />
    <g
       style="fill:#ff00ff;stroke:none"
       id="g866"
       transform="matrix(0.01550293,0,0,0.01550293,75.671074,250.18703)" />
    <path
       inkscape:connector-curvature="0"
       id="path1548"
       style="font-style:normal;font-variant:normal;font-weight:100;font-stretch:normal;font-size:64.54391479px;line-height:1.25;font-family:'Apple Chancery';-inkscape-font-specification:'Apple Chancery, Thin';font-variant-ligatures:normal;font-variant-caps:normal;font-variant-numeric:normal;font-feature-settings:normal;text-align:start;letter-spacing:0px;word-spacing:0px;writing-mode:lr-tb;text-anchor:start;fill:#ff00ff;fill-opacity:1;stroke:none;stroke-width:6.05098152"
       d="m 10.700542,266.91736 -4.9479468,4.75886 q -1.292139,-3.37217 -1.292139,-6.52373 0,-7.81586 6.7758508,-12.60623 5.672805,-4.034 19.413599,-4.034 2.332153,0 4.097026,0.0945 4.884915,0.31516 5.010978,0.31516 H 41.964 q -2.458215,3.8449 -2.458215,15.56869 l 0.03152,1.63881 0.126062,3.6243 q 0,6.52372 1.607295,13.3626 0.630311,2.64731 1.229107,3.40369 0.598796,0.75637 2.080029,0.75637 1.607295,0 3.655808,-1.04001 0.220609,0.53576 0.220609,0.88243 0,0.78789 -1.229108,1.35517 l -1.481233,0.72486 -7.752833,3.37217 q -2.584278,-7.97344 -3.120043,-16.70326 l -2.395184,1.67032 h -10.58924 q -2.899434,7.37465 -7.941927,10.52621 l 6.523726,0.31516 -3.403683,3.59277 -12.5747182,-0.44122 4.1915726,-3.78187 3.1515586,0.1891 q 2.143059,-1.57578 3.655807,-4.41218 1.512748,-2.86792 4.506729,-11.06197 l 0.945467,-2.6158 q 2.899434,-7.91041 5.515227,-11.50319 2.615794,-3.62429 7.122522,-5.95644 -4.947946,-0.91395 -10.431658,-0.91395 -13.9614033,0 -13.9614033,9.42316 0,3.21459 1.5127483,6.01947 z m 24.109421,7.21707 q -0.441218,-5.48371 -0.441218,-8.88739 0,-1.73336 0.06303,-2.83641 l 0.252125,-3.6558 q 0.252124,-3.75036 0.693343,-5.73584 -6.177055,3.78187 -10.148018,15.44264 -1.134561,3.37216 -1.323655,3.87641 l -0.724858,1.79639 z" />
  </g>
  <style
     type="text/css"
     id="style851">
	.st0{fill:#3A3A3A;}
</style>
</svg>
