<?xml version="1.0" encoding="UTF-8" standalone="no"?>
<!-- Created with Inkscape (http://www.inkscape.org/) -->

<svg
   xmlns:dc="http://purl.org/dc/elements/1.1/"
   xmlns:cc="http://creativecommons.org/ns#"
   xmlns:rdf="http://www.w3.org/1999/02/22-rdf-syntax-ns#"
   xmlns:svg="http://www.w3.org/2000/svg"
   xmlns="http://www.w3.org/2000/svg"
   xmlns:sodipodi="http://sodipodi.sourceforge.net/DTD/sodipodi-0.dtd"
   xmlns:inkscape="http://www.inkscape.org/namespaces/inkscape"
   width="200"
   height="200"
   viewBox="0 0 52.916665 52.916668"
   version="1.1"
   id="svg8"
   inkscape:version="0.92.4 (5da689c313, 2019-01-14)"
   sodipodi:docname="logo-58.svg">
  <defs
     id="defs2" />
  <sodipodi:namedview
     id="base"
     pagecolor="#ffffff"
     bordercolor="#666666"
     borderopacity="1.0"
     inkscape:pageopacity="0.0"
     inkscape:pageshadow="2"
     inkscape:zoom="2.4723636"
     inkscape:cx="88.005013"
     inkscape:cy="92.623136"
     inkscape:document-units="px"
     inkscape:current-layer="layer1"
     showgrid="true"
     units="px"
     inkscape:window-width="1781"
     inkscape:window-height="1082"
     inkscape:window-x="2126"
     inkscape:window-y="236"
     inkscape:window-maximized="0"
     showguides="false"
     inkscape:snap-global="false">
    <inkscape:grid
       type="xygrid"
       id="grid912" />
  </sodipodi:namedview>
  <metadata
     id="metadata5">
    <rdf:RDF>
      <cc:Work
         rdf:about="">
        <dc:format>image/svg+xml</dc:format>
        <dc:type
           rdf:resource="http://purl.org/dc/dcmitype/StillImage" />
        <dc:title></dc:title>
      </cc:Work>
    </rdf:RDF>
  </metadata>
  <g
     inkscape:label="Layer 1"
     inkscape:groupmode="layer"
     id="layer1"
     transform="translate(0,-244.08332)">
    <g
       style="fill:#ff00ff;stroke:none"
       id="g838"
       transform="matrix(0.01550293,0,0,0.01550293,75.671074,250.18703)" />
    <g
       style="fill:#ff00ff;stroke:none"
       id="g840"
       transform="matrix(0.01550293,0,0,0.01550293,75.671074,250.18703)" />
    <g
       style="fill:#ff00ff;stroke:none"
       id="g842"
       transform="matrix(0.01550293,0,0,0.01550293,75.671074,250.18703)" />
    <g
       style="fill:#ff00ff;stroke:none"
       id="g844"
       transform="matrix(0.01550293,0,0,0.01550293,75.671074,250.18703)" />
    <g
       style="fill:#ff00ff;stroke:none"
       id="g846"
       transform="matrix(0.01550293,0,0,0.01550293,75.671074,250.18703)" />
    <g
       style="fill:#ff00ff;stroke:none"
       id="g848"
       transform="matrix(0.01550293,0,0,0.01550293,75.671074,250.18703)" />
    <g
       style="fill:#ff00ff;stroke:none"
       id="g850"
       transform="matrix(0.01550293,0,0,0.01550293,75.671074,250.18703)" />
    <g
       style="fill:#ff00ff;stroke:none"
       id="g852"
       transform="matrix(0.01550293,0,0,0.01550293,75.671074,250.18703)" />
    <g
       style="fill:#ff00ff;stroke:none"
       id="g854"
       transform="matrix(0.01550293,0,0,0.01550293,75.671074,250.18703)" />
    <g
       style="fill:#ff00ff;stroke:none"
       id="g856"
       transform="matrix(0.01550293,0,0,0.01550293,75.671074,250.18703)" />
    <g
       style="fill:#ff00ff;stroke:none"
       id="g858"
       transform="matrix(0.01550293,0,0,0.01550293,75.671074,250.18703)" />
    <g
       style="fill:#ff00ff;stroke:none"
       id="g860"
       transform="matrix(0.01550293,0,0,0.01550293,75.671074,250.18703)" />
    <g
       style="fill:#ff00ff;stroke:none"
       id="g862"
       transform="matrix(0.01550293,0,0,0.01550293,75.671074,250.18703)" />
    <g
       style="fill:#ff00ff;stroke:none"
       id="g864"
       transform="matrix(0.01550293,0,0,0.01550293,75.671074,250.18703)" />
    <g
       style="fill:#ff00ff;stroke:none"
       id="g866"
       transform="matrix(0.01550293,0,0,0.01550293,75.671074,250.18703)" />
    <path
       style="fill:#ff00ff;stroke-width:0.05102389"
       d="m 25.616761,293.22724 c -3.699565,-1.24034 -6.890792,-3.08424 -9.97517,-5.76365 -1.340786,-1.16475 -3.171935,-3.10326 -4.4784,-4.74098 l -0.50185,-0.62909 -0.213411,-1.19674 C 9.5459272,275.83864 8.9837989,270.48133 8.702833,264.2653 c -0.1328918,-2.9401 -0.1607181,-4.25125 -0.1886803,-8.89091 -0.029009,-4.81322 -0.027349,-4.93658 0.066461,-4.93693 0.1354142,-5.8e-4 2.0246253,-0.14396 2.6984353,-0.20487 4.630635,-0.41864 9.618259,-1.26585 14.275721,-2.42492 l 0.907459,-0.22584 0.80184,0.22593 c 4.728993,1.33244 10.721207,2.27819 16.529955,2.60893 l 0.625042,0.0356 -4.34e-4,3.57719 c -0.0011,10.65898 -0.569041,18.8089 -1.815287,26.05323 -0.127935,0.74367 -0.257424,1.49633 -0.287756,1.67258 -0.05229,0.30381 -0.08746,0.36073 -0.677898,1.09701 -3.740401,4.6643 -7.930986,7.87253 -12.857474,9.84345 -0.475825,0.19036 -2.248357,0.80688 -2.316484,0.80573 -0.01684,-3e-4 -0.397986,-0.1237 -0.846998,-0.27424 z m 1.540757,-1.80933 c 4.826756,-1.69431 8.977047,-4.69582 12.745668,-9.21771 0.327435,-0.39288 0.625802,-0.78321 0.663035,-0.86741 0.08282,-0.18727 0.569914,-3.09805 0.815411,-4.87277 0.824215,-5.95835 1.209253,-12.13509 1.285684,-20.62486 0.02855,-3.171 0.02294,-3.71353 -0.03861,-3.73177 -0.03961,-0.0118 -0.703433,-0.0709 -1.47517,-0.13152 -4.73695,-0.37197 -9.483643,-1.16699 -13.760259,-2.3047 l -0.978774,-0.26038 -0.960132,0.23327 c -4.701977,1.14238 -9.966659,2.00877 -14.502373,2.38661 l -0.735239,0.0612 0.03321,3.75435 c 0.08639,9.76616 0.582621,16.59448 1.694153,23.31218 0.392357,2.37126 0.315712,2.12019 0.849632,2.78319 1.214416,1.50802 3.022495,3.37489 4.378554,4.52092 2.308887,1.9513 4.756012,3.44615 7.372952,4.50385 0.373057,0.15077 1.778589,0.66927 1.897923,0.70013 0.0055,0.002 0.326972,-0.10865 0.714335,-0.24463 z"
       id="path1542"
       inkscape:connector-curvature="0"
       sodipodi:nodetypes="csscsssccscscccscscccccccsscssccscssscccc" />
  </g>
  <style
     type="text/css"
     id="style851">
	.st0{fill:#3A3A3A;}
</style>
</svg>
