<?xml version="1.0" encoding="UTF-8" standalone="no"?>
<!-- Created with Inkscape (http://www.inkscape.org/) -->

<svg
   xmlns:dc="http://purl.org/dc/elements/1.1/"
   xmlns:cc="http://creativecommons.org/ns#"
   xmlns:rdf="http://www.w3.org/1999/02/22-rdf-syntax-ns#"
   xmlns:svg="http://www.w3.org/2000/svg"
   xmlns="http://www.w3.org/2000/svg"
   xmlns:sodipodi="http://sodipodi.sourceforge.net/DTD/sodipodi-0.dtd"
   xmlns:inkscape="http://www.inkscape.org/namespaces/inkscape"
   width="200"
   height="200"
   viewBox="0 0 52.916665 52.916668"
   version="1.1"
   id="svg8"
   inkscape:version="0.92.4 (5da689c313, 2019-01-14)"
   sodipodi:docname="logo-54.svg">
  <defs
     id="defs2" />
  <sodipodi:namedview
     id="base"
     pagecolor="#ffffff"
     bordercolor="#666666"
     borderopacity="1.0"
     inkscape:pageopacity="0.0"
     inkscape:pageshadow="2"
     inkscape:zoom="3.53"
     inkscape:cx="20.441274"
     inkscape:cy="114.35496"
     inkscape:document-units="px"
     inkscape:current-layer="layer1"
     showgrid="true"
     units="px"
     inkscape:window-width="1781"
     inkscape:window-height="1082"
     inkscape:window-x="2126"
     inkscape:window-y="236"
     inkscape:window-maximized="0"
     showguides="false"
     inkscape:snap-global="false">
    <inkscape:grid
       type="xygrid"
       id="grid912" />
  </sodipodi:namedview>
  <metadata
     id="metadata5">
    <rdf:RDF>
      <cc:Work
         rdf:about="">
        <dc:format>image/svg+xml</dc:format>
        <dc:type
           rdf:resource="http://purl.org/dc/dcmitype/StillImage" />
        <dc:title></dc:title>
      </cc:Work>
    </rdf:RDF>
  </metadata>
  <g
     inkscape:label="Layer 1"
     inkscape:groupmode="layer"
     id="layer1"
     transform="translate(0,-244.08332)">
    <path
       style="fill:#ff00ff;stroke-width:0.18014544"
       d="M 93.375 20.664062 C 86.856493 20.766481 80.298747 23.056642 74.386719 28.96875 C 53.617391 49.737519 69.091386 34.265417 96.353516 52.962891 L 119.5625 29.755859 C 112.34507 25.038661 102.90205 20.514374 93.375 20.664062 z M 130.5957 27.878906 C 128.87279 27.878906 127.15046 28.53509 125.83594 29.849609 L 123.32227 32.363281 L 100.03711 55.648438 L 97.271484 58.414062 C 94.642082 61.043291 94.642082 65.306319 97.271484 67.935547 L 98.240234 68.902344 L 124.86719 95.529297 L 125.83594 96.498047 C 127.15046 97.812567 128.87279 98.470703 130.5957 98.470703 C 132.31862 98.470703 134.04272 97.812567 135.35742 96.498047 L 137.89453 93.958984 L 161.38086 70.472656 L 163.91992 67.933594 C 166.54915 65.304403 166.54915 61.043253 163.91992 58.414062 L 135.35742 29.849609 C 134.0429 28.53509 132.31897 27.878906 130.5957 27.878906 z M 95.054688 72.087891 L 16.177734 150.96484 C 13.847913 153.29451 13.847913 157.07272 16.177734 159.40234 L 34.369141 177.5918 C 36.698781 179.92161 40.474866 179.92161 42.804688 177.5918 L 121.68359 98.714844 L 95.054688 72.087891 z M 164.56641 73.658203 L 141.08008 97.144531 L 146.78125 102.8457 L 144.24219 105.38477 C 141.61296 108.01399 141.61296 112.27702 144.24219 114.90625 L 145.51172 116.17578 C 148.14112 118.8052 152.40398 118.8052 155.0332 116.17578 L 183.59766 87.611328 C 186.22706 84.982138 186.22706 80.720987 183.59766 78.091797 L 182.32812 76.820312 C 179.6989 74.191122 175.43586 74.191122 172.80664 76.820312 L 170.26758 79.359375 L 164.56641 73.658203 z "
       transform="matrix(0.26458333,0,0,0.26458333,0,244.08332)"
       id="path1409" />
  </g>
  <style
     type="text/css"
     id="style851">
	.st0{fill:#3A3A3A;}
</style>
</svg>
