<?xml version="1.0" encoding="UTF-8" standalone="no"?>
<!-- Created with Inkscape (http://www.inkscape.org/) -->

<svg
   xmlns:dc="http://purl.org/dc/elements/1.1/"
   xmlns:cc="http://creativecommons.org/ns#"
   xmlns:rdf="http://www.w3.org/1999/02/22-rdf-syntax-ns#"
   xmlns:svg="http://www.w3.org/2000/svg"
   xmlns="http://www.w3.org/2000/svg"
   xmlns:sodipodi="http://sodipodi.sourceforge.net/DTD/sodipodi-0.dtd"
   xmlns:inkscape="http://www.inkscape.org/namespaces/inkscape"
   width="200"
   height="200"
   viewBox="0 0 52.916665 52.916668"
   version="1.1"
   id="svg8"
   inkscape:version="0.92.4 (5da689c313, 2019-01-14)"
   sodipodi:docname="logo-71.svg">
  <defs
     id="defs2" />
  <sodipodi:namedview
     id="base"
     pagecolor="#ffffff"
     bordercolor="#666666"
     borderopacity="1.0"
     inkscape:pageopacity="0.0"
     inkscape:pageshadow="2"
     inkscape:zoom="2.4723636"
     inkscape:cx="88.005013"
     inkscape:cy="101.97373"
     inkscape:document-units="px"
     inkscape:current-layer="layer1"
     showgrid="true"
     units="px"
     inkscape:window-width="1780"
     inkscape:window-height="1082"
     inkscape:window-x="2127"
     inkscape:window-y="236"
     inkscape:window-maximized="0"
     showguides="false"
     inkscape:snap-global="false">
    <inkscape:grid
       type="xygrid"
       id="grid912" />
  </sodipodi:namedview>
  <metadata
     id="metadata5">
    <rdf:RDF>
      <cc:Work
         rdf:about="">
        <dc:format>image/svg+xml</dc:format>
        <dc:type
           rdf:resource="http://purl.org/dc/dcmitype/StillImage" />
        <dc:title></dc:title>
      </cc:Work>
    </rdf:RDF>
  </metadata>
  <g
     inkscape:label="Layer 1"
     inkscape:groupmode="layer"
     id="layer1"
     transform="translate(0,-244.08332)">
    <g
       style="fill:#ff00ff;stroke:none"
       id="g838"
       transform="matrix(0.01550293,0,0,0.01550293,75.671074,250.18703)" />
    <g
       style="fill:#ff00ff;stroke:none"
       id="g840"
       transform="matrix(0.01550293,0,0,0.01550293,75.671074,250.18703)" />
    <g
       style="fill:#ff00ff;stroke:none"
       id="g842"
       transform="matrix(0.01550293,0,0,0.01550293,75.671074,250.18703)" />
    <g
       style="fill:#ff00ff;stroke:none"
       id="g844"
       transform="matrix(0.01550293,0,0,0.01550293,75.671074,250.18703)" />
    <g
       style="fill:#ff00ff;stroke:none"
       id="g846"
       transform="matrix(0.01550293,0,0,0.01550293,75.671074,250.18703)" />
    <g
       style="fill:#ff00ff;stroke:none"
       id="g848"
       transform="matrix(0.01550293,0,0,0.01550293,75.671074,250.18703)" />
    <g
       style="fill:#ff00ff;stroke:none"
       id="g850"
       transform="matrix(0.01550293,0,0,0.01550293,75.671074,250.18703)" />
    <g
       style="fill:#ff00ff;stroke:none"
       id="g852"
       transform="matrix(0.01550293,0,0,0.01550293,75.671074,250.18703)" />
    <g
       style="fill:#ff00ff;stroke:none"
       id="g854"
       transform="matrix(0.01550293,0,0,0.01550293,75.671074,250.18703)" />
    <g
       style="fill:#ff00ff;stroke:none"
       id="g856"
       transform="matrix(0.01550293,0,0,0.01550293,75.671074,250.18703)" />
    <g
       style="fill:#ff00ff;stroke:none"
       id="g858"
       transform="matrix(0.01550293,0,0,0.01550293,75.671074,250.18703)" />
    <g
       style="fill:#ff00ff;stroke:none"
       id="g860"
       transform="matrix(0.01550293,0,0,0.01550293,75.671074,250.18703)" />
    <g
       style="fill:#ff00ff;stroke:none"
       id="g862"
       transform="matrix(0.01550293,0,0,0.01550293,75.671074,250.18703)" />
    <g
       style="fill:#ff00ff;stroke:none"
       id="g864"
       transform="matrix(0.01550293,0,0,0.01550293,75.671074,250.18703)" />
    <g
       style="fill:#ff00ff;stroke:none"
       id="g866"
       transform="matrix(0.01550293,0,0,0.01550293,75.671074,250.18703)" />
    <path
       inkscape:connector-curvature="0"
       id="path1596"
       style="font-style:normal;font-variant:normal;font-weight:100;font-stretch:normal;font-size:51.47136307px;line-height:1.25;font-family:'Apple Chancery';-inkscape-font-specification:'Apple Chancery, Thin';font-variant-ligatures:normal;font-variant-caps:normal;font-variant-numeric:normal;font-feature-settings:normal;text-align:start;letter-spacing:0px;word-spacing:0px;writing-mode:lr-tb;text-anchor:start;fill:#ff00ff;fill-opacity:1;stroke:none;stroke-width:4.82543182"
       d="m 6.4654283,267.96556 -4.0965977,3.92067 q -0.5780475,-1.96033 -0.5780475,-3.92067 0,-6.23286 4.6997777,-10.32946 4.7249102,-4.12173 11.8625412,-4.12173 1.181227,0 2.085997,0.10053 0.60318,0.0503 0.80424,0.0503 h 0.326723 q -0.02513,0.72884 -0.02513,1.05556 0,3.87041 3.367755,12.46573 l 1.130963,2.8651 q 0.226193,0.60318 0.728843,1.98547 l 0.929902,2.61378 q 0.753975,2.06086 1.30689,4.0966 l 1.30689,-2.1614 q 2.161395,-3.59395 3.870405,-6.53445 l 2.462986,-4.24739 1.91007,-3.51855 2.31219,-4.22226 q 0.326722,-0.57805 1.281757,-2.36246 l 4.850573,-3.04103 q -1.60848,9.37442 -1.60848,15.05437 l -0.326722,8.21833 -0.0754,3.09129 q 0,3.92067 0.50265,5.15217 0.527783,1.20636 2.21166,1.20636 1.784408,0 3.191828,-0.50265 0.226192,0.30159 0.226192,0.52778 0,0.82937 -1.70901,1.23149 l -1.332022,0.32672 -7.137631,1.45769 q -0.125662,-2.36246 -0.125662,-4.34792 0,-12.81758 1.130962,-22.77005 -3.468285,4.92597 -5.22756,7.99214 l -1.50795,2.58864 q -3.091298,5.32809 -5.001368,10.2792 l -3.61908,3.76987 q -0.351855,-4.75004 -3.744743,-13.34536 l -0.980167,-2.53838 q -0.20106,-0.45238 -0.90477,-2.21166 -1.432553,-3.46829 -2.136263,-6.63498 l -2.035733,12.44059 q -0.90477,5.60455 -1.884937,7.64028 -0.980168,2.0106 -3.468285,3.31749 l 6.33339,0.47752 -3.21696,2.9405 -10.7315783,-0.55292 3.2420927,-3.11643 2.8399726,0.25133 q 1.658745,-1.23149 2.362455,-3.0159 0.70371,-1.78441 1.633613,-7.21303 l 3.0159,-17.66815 h -1.181228 q -10.4551202,0 -10.4551202,6.91144 0,2.16139 1.1812275,4.34792 z" />
  </g>
  <style
     type="text/css"
     id="style851">
	.st0{fill:#3A3A3A;}
</style>
</svg>
