<?xml version="1.0" encoding="UTF-8" standalone="no"?>
<!-- Created with Inkscape (http://www.inkscape.org/) -->

<svg
   xmlns:dc="http://purl.org/dc/elements/1.1/"
   xmlns:cc="http://creativecommons.org/ns#"
   xmlns:rdf="http://www.w3.org/1999/02/22-rdf-syntax-ns#"
   xmlns:svg="http://www.w3.org/2000/svg"
   xmlns="http://www.w3.org/2000/svg"
   xmlns:xlink="http://www.w3.org/1999/xlink"
   xmlns:sodipodi="http://sodipodi.sourceforge.net/DTD/sodipodi-0.dtd"
   xmlns:inkscape="http://www.inkscape.org/namespaces/inkscape"
   width="200"
   height="200"
   viewBox="0 0 52.916665 52.916668"
   version="1.1"
   id="svg8"
   inkscape:version="0.92.4 (5da689c313, 2019-01-14)"
   sodipodi:docname="logo-11.svg">
  <defs
     id="defs2">
    <linearGradient
       id="linearGradient35380">
      <stop
         style="stop-color:#a9a9a9;stop-opacity:1;"
         offset="0"
         id="stop35382" />
      <stop
         style="stop-color:#565656;stop-opacity:1;"
         offset="1"
         id="stop35384" />
    </linearGradient>
    <linearGradient
       id="linearGradient35369">
      <stop
         style="stop-color:#ffffff;stop-opacity:1;"
         offset="0"
         id="stop35371" />
      <stop
         style="stop-color:#acacac;stop-opacity:1;"
         offset="1"
         id="stop35373" />
    </linearGradient>
    <linearGradient
       id="linearGradient25712">
      <stop
         style="stop-color:#ffffff;stop-opacity:1;"
         offset="0"
         id="stop25714" />
      <stop
         style="stop-color:#e2afff;stop-opacity:1;"
         offset="1"
         id="stop25716" />
    </linearGradient>
    <linearGradient
       id="linearGradient25706">
      <stop
         id="stop25708"
         offset="0"
         style="stop-color:#b461de;stop-opacity:1;" />
      <stop
         id="stop25710"
         offset="1"
         style="stop-color:#8e3db6;stop-opacity:1;" />
    </linearGradient>
    <linearGradient
       id="linearGradient15254">
      <stop
         id="stop15256"
         offset="0"
         style="stop-color:#2ed948;stop-opacity:1;" />
      <stop
         id="stop15258"
         offset="1"
         style="stop-color:#288237;stop-opacity:1;" />
    </linearGradient>
    <linearGradient
       id="linearGradient35616">
      <stop
         style="stop-color:#f2f2f2;stop-opacity:1;"
         offset="0"
         id="stop35618" />
      <stop
         style="stop-color:#676767;stop-opacity:1;"
         offset="1"
         id="stop35620" />
    </linearGradient>
    <linearGradient
       id="linearGradient35539">
      <stop
         style="stop-color:#f7eb7a;stop-opacity:1;"
         offset="0"
         id="stop35541" />
      <stop
         style="stop-color:#ffd100;stop-opacity:1;"
         offset="1"
         id="stop35543" />
    </linearGradient>
    <linearGradient
       id="linearGradient3755">
      <stop
         style="stop-color:#71bdf0;stop-opacity:1;"
         offset="0"
         id="stop3757" />
      <stop
         style="stop-color:#0099ff;stop-opacity:1;"
         offset="1"
         id="stop3759" />
    </linearGradient>
    <clipPath
       clipPathUnits="userSpaceOnUse"
       id="clipPath3871">
      <path
         d="m 420.54245,445.2738 a 169.79866,169.79866 0 1 1 -339.597321,0 169.79866,169.79866 0 1 1 339.597321,0 z"
         sodipodi:ry="169.79866"
         sodipodi:rx="169.79866"
         sodipodi:cy="445.2738"
         sodipodi:cx="250.74379"
         id="path3873"
         style="fill:url(#radialGradient3875);fill-opacity:1;stroke:none"
         sodipodi:type="arc" />
    </clipPath>
    <radialGradient
       inkscape:collect="always"
       xlink:href="#linearGradient3755"
       id="radialGradient3875"
       gradientUnits="userSpaceOnUse"
       gradientTransform="matrix(0.32745848,1.4349641,-1.3491113,0.30786647,634.85261,-18.77423)"
       cx="197.16794"
       cy="372.22382"
       fx="197.16794"
       fy="372.22382"
       r="169.79866" />
    <linearGradient
       id="linearGradient3751">
      <stop
         style="stop-color:#61de74;stop-opacity:1;"
         offset="0"
         id="stop3753" />
      <stop
         style="stop-color:#3db65a;stop-opacity:1;"
         offset="1"
         id="stop3755" />
    </linearGradient>
    <linearGradient
       id="linearGradient9639">
      <stop
         id="stop9641"
         offset="0"
         style="stop-color:#ffffff;stop-opacity:1;" />
      <stop
         id="stop9643"
         offset="1"
         style="stop-color:#afffb9;stop-opacity:1;" />
    </linearGradient>
    <clipPath
       clipPathUnits="userSpaceOnUse"
       id="clipPath35468">
      <path
         transform="matrix(0.6884656,0,0,0.6884656,-1755.6356,-1342.9723)"
         d="m 1329.8392,1683.4099 a 174.51379,174.51379 0 1 1 -349.02755,0 174.51379,174.51379 0 1 1 349.02755,0 z"
         sodipodi:ry="174.51379"
         sodipodi:rx="174.51379"
         sodipodi:cy="1683.4099"
         sodipodi:cx="1155.3254"
         id="path35470"
         style="fill:url(#radialGradient35472);fill-opacity:1;stroke:none"
         sodipodi:type="arc" />
    </clipPath>
    <radialGradient
       inkscape:collect="always"
       xlink:href="#linearGradient35369"
       id="radialGradient35472"
       gradientUnits="userSpaceOnUse"
       gradientTransform="matrix(-0.4360239,1.1076521,-1.3394834,-0.52728489,3739.5645,1227.9101)"
       cx="1094.5464"
       cy="1621.0869"
       fx="1094.5464"
       fy="1621.0869"
       r="174.51379" />
    <radialGradient
       inkscape:collect="always"
       xlink:href="#linearGradient25712"
       id="radialGradient4477"
       gradientUnits="userSpaceOnUse"
       gradientTransform="matrix(1.0717983,1.8198873,-1.3170671,0.77566969,-3180.033,5645.2163)"
       cx="-3422.5815"
       cy="-2601.0588"
       fx="-3422.5815"
       fy="-2601.0588"
       r="244.68996" />
    <radialGradient
       inkscape:collect="always"
       xlink:href="#linearGradient25706"
       id="radialGradient4479"
       gradientUnits="userSpaceOnUse"
       gradientTransform="matrix(0.60529051,1.4461625,-1.2363247,0.51746269,-4481.7087,3259.766)"
       cx="-3130.1846"
       cy="-2625.6816"
       fx="-3130.1846"
       fy="-2625.6816"
       r="203.13882" />
    <radialGradient
       inkscape:collect="always"
       xlink:href="#linearGradient25712"
       id="radialGradient4483"
       gradientUnits="userSpaceOnUse"
       gradientTransform="matrix(1.0717983,1.8198873,-1.3170671,0.77566969,-3180.033,5645.2163)"
       cx="-3422.5815"
       cy="-2601.0588"
       fx="-3422.5815"
       fy="-2601.0588"
       r="244.68996" />
    <radialGradient
       inkscape:collect="always"
       xlink:href="#linearGradient25706"
       id="radialGradient4485"
       gradientUnits="userSpaceOnUse"
       gradientTransform="matrix(0.60529051,1.4461625,-1.2363247,0.51746269,-4481.7087,3259.766)"
       cx="-3130.1846"
       cy="-2625.6816"
       fx="-3130.1846"
       fy="-2625.6816"
       r="203.13882" />
    <radialGradient
       inkscape:collect="always"
       xlink:href="#linearGradient35380"
       id="radialGradient4505"
       gradientUnits="userSpaceOnUse"
       gradientTransform="matrix(0.2123212,-1.7117911,2.077346,0.25766271,-382.97517,-1494.1804)"
       cx="-837.65149"
       cy="-133.59895"
       fx="-837.65149"
       fy="-133.59895"
       r="24.697931" />
    <clipPath
       clipPathUnits="userSpaceOnUse"
       id="clipPath4180">
      <path
         inkscape:connector-curvature="0"
         id="path4182"
         d="m 63.592233,993.94796 c 7.181517,-0.16816 10.216816,8.01924 16.585981,10.09194 6.256333,2.3168 11.34316,6.8402 17.358167,9.3601 4.292219,0.5645 15.911709,5.0796 8.234069,9.4779 -6.143459,2.3996 -11.675482,5.6961 -17.062862,9.7147 -4.466292,4.1431 -10.581348,5.8041 -14.402087,10.7436 -4.844978,4.0679 -11.877521,4.8874 -16.664946,0.1791 -5.845874,-2.8166 -10.49518,-8.3534 -17.312907,-9.1629 -4.471253,-5.0046 -12.620843,-4.2607 -16.38841,-9.4865 -3.609259,-2.2451 -6.892068,-7.2641 -0.850203,-8.831 5.003892,-7.4299 14.186894,-8.9362 21.491631,-13.5621 5.833659,-2.57703 10.921973,-6.59467 17.313592,-7.90222 l 0.85287,-0.30096 0.845105,-0.32166 0,0 z"
         style="fill:none;fill-rule:evenodd;stroke:#893803;stroke-width:1px;stroke-linecap:butt;stroke-linejoin:miter;stroke-opacity:1" />
    </clipPath>
    <clipPath
       clipPathUnits="userSpaceOnUse"
       id="clipPath4186">
      <path
         inkscape:connector-curvature="0"
         id="path4188"
         d="m 63.592233,993.94796 c 7.181517,-0.16816 10.216816,8.01924 16.585981,10.09194 6.256333,2.3168 11.34316,6.8402 17.358167,9.3601 4.292219,0.5645 15.911709,5.0796 8.234069,9.4779 -6.143459,2.3996 -11.675482,5.6961 -17.062862,9.7147 -4.466292,4.1431 -10.581348,5.8041 -14.402087,10.7436 -4.844978,4.0679 -11.877521,4.8874 -16.664946,0.1791 -5.845874,-2.8166 -10.49518,-8.3534 -17.312907,-9.1629 -4.471253,-5.0046 -12.620843,-4.2607 -16.38841,-9.4865 -3.609259,-2.2451 -6.892068,-7.2641 -0.850203,-8.831 5.003892,-7.4299 14.186894,-8.9362 21.491631,-13.5621 5.833659,-2.57703 10.921973,-6.59467 17.313592,-7.90222 l 0.85287,-0.30096 0.845105,-0.32166 0,0 z"
         style="fill:none;fill-rule:evenodd;stroke:#893803;stroke-width:1px;stroke-linecap:butt;stroke-linejoin:miter;stroke-opacity:1" />
    </clipPath>
    <clipPath
       clipPathUnits="userSpaceOnUse"
       id="clipPath4194">
      <path
         inkscape:connector-curvature="0"
         id="path4196"
         d="m 63.592233,993.94796 c 7.181517,-0.16816 10.216816,8.01924 16.585981,10.09194 6.256333,2.3168 11.34316,6.8402 17.358167,9.3601 4.292219,0.5645 15.911709,5.0796 8.234069,9.4779 -6.143459,2.3996 -11.675482,5.6961 -17.062862,9.7147 -4.466292,4.1431 -10.581348,5.8041 -14.402087,10.7436 -4.844978,4.0679 -11.877521,4.8874 -16.664946,0.1791 -5.845874,-2.8166 -10.49518,-8.3534 -17.312907,-9.1629 -4.471253,-5.0046 -12.620843,-4.2607 -16.38841,-9.4865 -3.609259,-2.2451 -6.892068,-7.2641 -0.850203,-8.831 5.003892,-7.4299 14.186894,-8.9362 21.491631,-13.5621 5.833659,-2.57703 10.921973,-6.59467 17.313592,-7.90222 l 0.85287,-0.30096 0.845105,-0.32166 0,0 z"
         style="fill:none;fill-rule:evenodd;stroke:#893803;stroke-width:1px;stroke-linecap:butt;stroke-linejoin:miter;stroke-opacity:1" />
    </clipPath>
    <clipPath
       clipPathUnits="userSpaceOnUse"
       id="clipPath4195">
      <path
         inkscape:connector-curvature="0"
         id="path4197"
         d="m 63.592233,993.94796 c 7.181517,-0.16816 10.216816,8.01924 16.585981,10.09194 6.256333,2.3168 11.34316,6.8402 17.358167,9.3601 4.292219,0.5645 15.911709,5.0796 8.234069,9.4779 -6.143459,2.3996 -11.675482,5.6961 -17.062862,9.7147 -4.466292,4.1431 -10.581348,5.8041 -14.402087,10.7436 -4.844978,4.0679 -11.877521,4.8874 -16.664946,0.1791 -5.845874,-2.8166 -10.49518,-8.3534 -17.312907,-9.1629 -4.471253,-5.0046 -12.620843,-4.2607 -16.38841,-9.4865 -3.609259,-2.2451 -6.892068,-7.2641 -0.850203,-8.831 5.003892,-7.4299 14.186894,-8.9362 21.491631,-13.5621 5.833659,-2.57703 10.921973,-6.59467 17.313592,-7.90222 l 0.85287,-0.30096 0.845105,-0.32166 0,0 z"
         style="fill:none;fill-rule:evenodd;stroke:#893803;stroke-width:2;stroke-linecap:round;stroke-linejoin:round;stroke-miterlimit:4;stroke-dasharray:none;stroke-opacity:1" />
    </clipPath>
    <clipPath
       id="clipPath4180-8"
       clipPathUnits="userSpaceOnUse">
      <path
         style="fill:none;fill-rule:evenodd;stroke:#893803;stroke-width:1px;stroke-linecap:butt;stroke-linejoin:miter;stroke-opacity:1"
         d="m 63.592233,993.94796 c 7.181517,-0.16816 10.216816,8.01924 16.585981,10.09194 6.256333,2.3168 11.34316,6.8402 17.358167,9.3601 4.292219,0.5645 15.911709,5.0796 8.234069,9.4779 -6.143459,2.3996 -11.675482,5.6961 -17.062862,9.7147 -4.466292,4.1431 -10.581348,5.8041 -14.402087,10.7436 -4.844978,4.0679 -11.877521,4.8874 -16.664946,0.1791 -5.845874,-2.8166 -10.49518,-8.3534 -17.312907,-9.1629 -4.471253,-5.0046 -12.620843,-4.2607 -16.38841,-9.4865 -3.609259,-2.2451 -6.892068,-7.2641 -0.850203,-8.831 5.003892,-7.4299 14.186894,-8.9362 21.491631,-13.5621 5.833659,-2.57703 10.921973,-6.59467 17.313592,-7.90222 l 0.85287,-0.30096 0.845105,-0.32166 0,0 z"
         id="path4182-4"
         inkscape:connector-curvature="0" />
    </clipPath>
    <clipPath
       id="clipPath4186-3"
       clipPathUnits="userSpaceOnUse">
      <path
         style="fill:none;fill-rule:evenodd;stroke:#893803;stroke-width:1px;stroke-linecap:butt;stroke-linejoin:miter;stroke-opacity:1"
         d="m 63.592233,993.94796 c 7.181517,-0.16816 10.216816,8.01924 16.585981,10.09194 6.256333,2.3168 11.34316,6.8402 17.358167,9.3601 4.292219,0.5645 15.911709,5.0796 8.234069,9.4779 -6.143459,2.3996 -11.675482,5.6961 -17.062862,9.7147 -4.466292,4.1431 -10.581348,5.8041 -14.402087,10.7436 -4.844978,4.0679 -11.877521,4.8874 -16.664946,0.1791 -5.845874,-2.8166 -10.49518,-8.3534 -17.312907,-9.1629 -4.471253,-5.0046 -12.620843,-4.2607 -16.38841,-9.4865 -3.609259,-2.2451 -6.892068,-7.2641 -0.850203,-8.831 5.003892,-7.4299 14.186894,-8.9362 21.491631,-13.5621 5.833659,-2.57703 10.921973,-6.59467 17.313592,-7.90222 l 0.85287,-0.30096 0.845105,-0.32166 0,0 z"
         id="path4188-5"
         inkscape:connector-curvature="0" />
    </clipPath>
    <clipPath
       id="clipPath4194-7"
       clipPathUnits="userSpaceOnUse">
      <path
         style="fill:none;fill-rule:evenodd;stroke:#893803;stroke-width:1px;stroke-linecap:butt;stroke-linejoin:miter;stroke-opacity:1"
         d="m 63.592233,993.94796 c 7.181517,-0.16816 10.216816,8.01924 16.585981,10.09194 6.256333,2.3168 11.34316,6.8402 17.358167,9.3601 4.292219,0.5645 15.911709,5.0796 8.234069,9.4779 -6.143459,2.3996 -11.675482,5.6961 -17.062862,9.7147 -4.466292,4.1431 -10.581348,5.8041 -14.402087,10.7436 -4.844978,4.0679 -11.877521,4.8874 -16.664946,0.1791 -5.845874,-2.8166 -10.49518,-8.3534 -17.312907,-9.1629 -4.471253,-5.0046 -12.620843,-4.2607 -16.38841,-9.4865 -3.609259,-2.2451 -6.892068,-7.2641 -0.850203,-8.831 5.003892,-7.4299 14.186894,-8.9362 21.491631,-13.5621 5.833659,-2.57703 10.921973,-6.59467 17.313592,-7.90222 l 0.85287,-0.30096 0.845105,-0.32166 0,0 z"
         id="path4196-5"
         inkscape:connector-curvature="0" />
    </clipPath>
    <clipPath
       id="clipPath4195-8"
       clipPathUnits="userSpaceOnUse">
      <path
         style="fill:none;fill-rule:evenodd;stroke:#893803;stroke-width:2;stroke-linecap:round;stroke-linejoin:round;stroke-miterlimit:4;stroke-dasharray:none;stroke-opacity:1"
         d="m 63.592233,993.94796 c 7.181517,-0.16816 10.216816,8.01924 16.585981,10.09194 6.256333,2.3168 11.34316,6.8402 17.358167,9.3601 4.292219,0.5645 15.911709,5.0796 8.234069,9.4779 -6.143459,2.3996 -11.675482,5.6961 -17.062862,9.7147 -4.466292,4.1431 -10.581348,5.8041 -14.402087,10.7436 -4.844978,4.0679 -11.877521,4.8874 -16.664946,0.1791 -5.845874,-2.8166 -10.49518,-8.3534 -17.312907,-9.1629 -4.471253,-5.0046 -12.620843,-4.2607 -16.38841,-9.4865 -3.609259,-2.2451 -6.892068,-7.2641 -0.850203,-8.831 5.003892,-7.4299 14.186894,-8.9362 21.491631,-13.5621 5.833659,-2.57703 10.921973,-6.59467 17.313592,-7.90222 l 0.85287,-0.30096 0.845105,-0.32166 0,0 z"
         id="path4197-8"
         inkscape:connector-curvature="0" />
    </clipPath>
    <linearGradient
       id="linearGradient912">
      <stop
         id="stop908"
         offset="0"
         style="stop-color:#e9be02;stop-opacity:1;" />
      <stop
         id="stop910"
         offset="1"
         style="stop-color:#cc9d11;stop-opacity:1;" />
    </linearGradient>
    <clipPath
       clipPathUnits="userSpaceOnUse"
       id="clipPath4180-0">
      <path
         inkscape:connector-curvature="0"
         id="path4182-5"
         d="m 63.592233,993.94796 c 7.181517,-0.16816 10.216816,8.01924 16.585981,10.09194 6.256333,2.3168 11.34316,6.8402 17.358167,9.3601 4.292219,0.5645 15.911709,5.0796 8.234069,9.4779 -6.143459,2.3996 -11.675482,5.6961 -17.062862,9.7147 -4.466292,4.1431 -10.581348,5.8041 -14.402087,10.7436 -4.844978,4.0679 -11.877521,4.8874 -16.664946,0.1791 -5.845874,-2.8166 -10.49518,-8.3534 -17.312907,-9.1629 -4.471253,-5.0046 -12.620843,-4.2607 -16.38841,-9.4865 -3.609259,-2.2451 -6.892068,-7.2641 -0.850203,-8.831 5.003892,-7.4299 14.186894,-8.9362 21.491631,-13.5621 5.833659,-2.57703 10.921973,-6.59467 17.313592,-7.90222 l 0.85287,-0.30096 z"
         style="fill:none;fill-rule:evenodd;stroke:#893803;stroke-width:1px;stroke-linecap:butt;stroke-linejoin:miter;stroke-opacity:1" />
    </clipPath>
    <clipPath
       clipPathUnits="userSpaceOnUse"
       id="clipPath4186-5">
      <path
         inkscape:connector-curvature="0"
         id="path4188-0"
         d="m 63.592233,993.94796 c 7.181517,-0.16816 10.216816,8.01924 16.585981,10.09194 6.256333,2.3168 11.34316,6.8402 17.358167,9.3601 4.292219,0.5645 15.911709,5.0796 8.234069,9.4779 -6.143459,2.3996 -11.675482,5.6961 -17.062862,9.7147 -4.466292,4.1431 -10.581348,5.8041 -14.402087,10.7436 -4.844978,4.0679 -11.877521,4.8874 -16.664946,0.1791 -5.845874,-2.8166 -10.49518,-8.3534 -17.312907,-9.1629 -4.471253,-5.0046 -12.620843,-4.2607 -16.38841,-9.4865 -3.609259,-2.2451 -6.892068,-7.2641 -0.850203,-8.831 5.003892,-7.4299 14.186894,-8.9362 21.491631,-13.5621 5.833659,-2.57703 10.921973,-6.59467 17.313592,-7.90222 l 0.85287,-0.30096 z"
         style="fill:none;fill-rule:evenodd;stroke:#893803;stroke-width:1px;stroke-linecap:butt;stroke-linejoin:miter;stroke-opacity:1" />
    </clipPath>
    <clipPath
       clipPathUnits="userSpaceOnUse"
       id="clipPath4194-4">
      <path
         inkscape:connector-curvature="0"
         id="path4196-6"
         d="m 63.592233,993.94796 c 7.181517,-0.16816 10.216816,8.01924 16.585981,10.09194 6.256333,2.3168 11.34316,6.8402 17.358167,9.3601 4.292219,0.5645 15.911709,5.0796 8.234069,9.4779 -6.143459,2.3996 -11.675482,5.6961 -17.062862,9.7147 -4.466292,4.1431 -10.581348,5.8041 -14.402087,10.7436 -4.844978,4.0679 -11.877521,4.8874 -16.664946,0.1791 -5.845874,-2.8166 -10.49518,-8.3534 -17.312907,-9.1629 -4.471253,-5.0046 -12.620843,-4.2607 -16.38841,-9.4865 -3.609259,-2.2451 -6.892068,-7.2641 -0.850203,-8.831 5.003892,-7.4299 14.186894,-8.9362 21.491631,-13.5621 5.833659,-2.57703 10.921973,-6.59467 17.313592,-7.90222 l 0.85287,-0.30096 z"
         style="fill:none;fill-rule:evenodd;stroke:#893803;stroke-width:1px;stroke-linecap:butt;stroke-linejoin:miter;stroke-opacity:1" />
    </clipPath>
    <clipPath
       clipPathUnits="userSpaceOnUse"
       id="clipPath4195-5">
      <path
         inkscape:connector-curvature="0"
         id="path4197-6"
         d="m 63.592233,993.94796 c 7.181517,-0.16816 10.216816,8.01924 16.585981,10.09194 6.256333,2.3168 11.34316,6.8402 17.358167,9.3601 4.292219,0.5645 15.911709,5.0796 8.234069,9.4779 -6.143459,2.3996 -11.675482,5.6961 -17.062862,9.7147 -4.466292,4.1431 -10.581348,5.8041 -14.402087,10.7436 -4.844978,4.0679 -11.877521,4.8874 -16.664946,0.1791 -5.845874,-2.8166 -10.49518,-8.3534 -17.312907,-9.1629 -4.471253,-5.0046 -12.620843,-4.2607 -16.38841,-9.4865 -3.609259,-2.2451 -6.892068,-7.2641 -0.850203,-8.831 5.003892,-7.4299 14.186894,-8.9362 21.491631,-13.5621 5.833659,-2.57703 10.921973,-6.59467 17.313592,-7.90222 l 0.85287,-0.30096 z"
         style="fill:none;fill-rule:evenodd;stroke:#893803;stroke-width:2;stroke-linecap:round;stroke-linejoin:round;stroke-miterlimit:4;stroke-dasharray:none;stroke-opacity:1" />
    </clipPath>
    <clipPath
       clipPathUnits="userSpaceOnUse"
       id="clipPath3871-2">
      <circle
         id="path3873-3"
         style="fill:url(#radialGradient3875-83);fill-opacity:1;stroke:none"
         cx="250.74379"
         cy="445.2738"
         r="169.79866" />
    </clipPath>
    <radialGradient
       inkscape:collect="always"
       xlink:href="#linearGradient3755"
       id="radialGradient3875-83"
       gradientUnits="userSpaceOnUse"
       gradientTransform="matrix(0.32745848,1.4349641,-1.3491113,0.30786647,634.85261,-18.77423)"
       cx="197.16794"
       cy="372.22382"
       fx="197.16794"
       fy="372.22382"
       r="169.79866" />
    <clipPath
       clipPathUnits="userSpaceOnUse"
       id="clipPath3871-9">
      <circle
         id="path3873-2"
         style="fill:url(#radialGradient3875-8);fill-opacity:1;stroke:none"
         cx="250.74379"
         cy="445.2738"
         r="169.79866" />
    </clipPath>
    <radialGradient
       inkscape:collect="always"
       xlink:href="#linearGradient3755"
       id="radialGradient3875-8"
       gradientUnits="userSpaceOnUse"
       gradientTransform="matrix(0.32745848,1.4349641,-1.3491113,0.30786647,634.85261,-18.77423)"
       cx="197.16794"
       cy="372.22382"
       fx="197.16794"
       fy="372.22382"
       r="169.79866" />
    <clipPath
       clipPathUnits="userSpaceOnUse"
       id="clipPath4702">
      <path
         sodipodi:nodetypes="cccccc"
         inkscape:connector-curvature="0"
         id="path4704"
         d="m 3.96875,270.54165 h 18.520833 v 25.13542 l -9.260416,-6.61459 -9.260417,6.61459 z"
         style="fill:#d6981a;fill-opacity:1;stroke:none;stroke-width:0.26499999;stroke-linecap:butt;stroke-linejoin:miter;stroke-miterlimit:4;stroke-dasharray:none;stroke-opacity:1" />
    </clipPath>
    <clipPath
       id="clipPath4180-9"
       clipPathUnits="userSpaceOnUse">
      <path
         style="fill:none;fill-rule:evenodd;stroke:#893803;stroke-width:1px;stroke-linecap:butt;stroke-linejoin:miter;stroke-opacity:1"
         d="m 63.592233,993.94796 c 7.181517,-0.16816 10.216816,8.01924 16.585981,10.09194 6.256333,2.3168 11.34316,6.8402 17.358167,9.3601 4.292219,0.5645 15.911709,5.0796 8.234069,9.4779 -6.143459,2.3996 -11.675482,5.6961 -17.062862,9.7147 -4.466292,4.1431 -10.581348,5.8041 -14.402087,10.7436 -4.844978,4.0679 -11.877521,4.8874 -16.664946,0.1791 -5.845874,-2.8166 -10.49518,-8.3534 -17.312907,-9.1629 -4.471253,-5.0046 -12.620843,-4.2607 -16.38841,-9.4865 -3.609259,-2.2451 -6.892068,-7.2641 -0.850203,-8.831 5.003892,-7.4299 14.186894,-8.9362 21.491631,-13.5621 5.833659,-2.57703 10.921973,-6.59467 17.313592,-7.90222 l 0.85287,-0.30096 0.845105,-0.32166 0,0 z"
         id="path4182-7"
         inkscape:connector-curvature="0" />
    </clipPath>
    <clipPath
       id="clipPath4186-6"
       clipPathUnits="userSpaceOnUse">
      <path
         style="fill:none;fill-rule:evenodd;stroke:#893803;stroke-width:1px;stroke-linecap:butt;stroke-linejoin:miter;stroke-opacity:1"
         d="m 63.592233,993.94796 c 7.181517,-0.16816 10.216816,8.01924 16.585981,10.09194 6.256333,2.3168 11.34316,6.8402 17.358167,9.3601 4.292219,0.5645 15.911709,5.0796 8.234069,9.4779 -6.143459,2.3996 -11.675482,5.6961 -17.062862,9.7147 -4.466292,4.1431 -10.581348,5.8041 -14.402087,10.7436 -4.844978,4.0679 -11.877521,4.8874 -16.664946,0.1791 -5.845874,-2.8166 -10.49518,-8.3534 -17.312907,-9.1629 -4.471253,-5.0046 -12.620843,-4.2607 -16.38841,-9.4865 -3.609259,-2.2451 -6.892068,-7.2641 -0.850203,-8.831 5.003892,-7.4299 14.186894,-8.9362 21.491631,-13.5621 5.833659,-2.57703 10.921973,-6.59467 17.313592,-7.90222 l 0.85287,-0.30096 0.845105,-0.32166 0,0 z"
         id="path4188-9"
         inkscape:connector-curvature="0" />
    </clipPath>
    <clipPath
       id="clipPath4194-5"
       clipPathUnits="userSpaceOnUse">
      <path
         style="fill:none;fill-rule:evenodd;stroke:#893803;stroke-width:1px;stroke-linecap:butt;stroke-linejoin:miter;stroke-opacity:1"
         d="m 63.592233,993.94796 c 7.181517,-0.16816 10.216816,8.01924 16.585981,10.09194 6.256333,2.3168 11.34316,6.8402 17.358167,9.3601 4.292219,0.5645 15.911709,5.0796 8.234069,9.4779 -6.143459,2.3996 -11.675482,5.6961 -17.062862,9.7147 -4.466292,4.1431 -10.581348,5.8041 -14.402087,10.7436 -4.844978,4.0679 -11.877521,4.8874 -16.664946,0.1791 -5.845874,-2.8166 -10.49518,-8.3534 -17.312907,-9.1629 -4.471253,-5.0046 -12.620843,-4.2607 -16.38841,-9.4865 -3.609259,-2.2451 -6.892068,-7.2641 -0.850203,-8.831 5.003892,-7.4299 14.186894,-8.9362 21.491631,-13.5621 5.833659,-2.57703 10.921973,-6.59467 17.313592,-7.90222 l 0.85287,-0.30096 0.845105,-0.32166 0,0 z"
         id="path4196-7"
         inkscape:connector-curvature="0" />
    </clipPath>
    <clipPath
       id="clipPath4195-2"
       clipPathUnits="userSpaceOnUse">
      <path
         style="fill:none;fill-rule:evenodd;stroke:#893803;stroke-width:2;stroke-linecap:round;stroke-linejoin:round;stroke-miterlimit:4;stroke-dasharray:none;stroke-opacity:1"
         d="m 63.592233,993.94796 c 7.181517,-0.16816 10.216816,8.01924 16.585981,10.09194 6.256333,2.3168 11.34316,6.8402 17.358167,9.3601 4.292219,0.5645 15.911709,5.0796 8.234069,9.4779 -6.143459,2.3996 -11.675482,5.6961 -17.062862,9.7147 -4.466292,4.1431 -10.581348,5.8041 -14.402087,10.7436 -4.844978,4.0679 -11.877521,4.8874 -16.664946,0.1791 -5.845874,-2.8166 -10.49518,-8.3534 -17.312907,-9.1629 -4.471253,-5.0046 -12.620843,-4.2607 -16.38841,-9.4865 -3.609259,-2.2451 -6.892068,-7.2641 -0.850203,-8.831 5.003892,-7.4299 14.186894,-8.9362 21.491631,-13.5621 5.833659,-2.57703 10.921973,-6.59467 17.313592,-7.90222 l 0.85287,-0.30096 0.845105,-0.32166 0,0 z"
         id="path4197-67"
         inkscape:connector-curvature="0" />
    </clipPath>
    <clipPath
       clipPathUnits="userSpaceOnUse"
       id="clipPath3871-6">
      <path
         d="m 420.54245,445.2738 a 169.79866,169.79866 0 1 1 -339.597321,0 169.79866,169.79866 0 1 1 339.597321,0 z"
         sodipodi:ry="169.79866"
         sodipodi:rx="169.79866"
         sodipodi:cy="445.2738"
         sodipodi:cx="250.74379"
         id="path3873-1"
         style="fill:url(#radialGradient3875-0);fill-opacity:1;stroke:none"
         sodipodi:type="arc" />
    </clipPath>
    <radialGradient
       inkscape:collect="always"
       xlink:href="#linearGradient3755"
       id="radialGradient3875-0"
       gradientUnits="userSpaceOnUse"
       gradientTransform="matrix(0.32745848,1.4349641,-1.3491113,0.30786647,634.85261,-18.77423)"
       cx="197.16794"
       cy="372.22382"
       fx="197.16794"
       fy="372.22382"
       r="169.79866" />
    <clipPath
       clipPathUnits="userSpaceOnUse"
       id="clipPath35468-2">
      <path
         transform="matrix(0.6884656,0,0,0.6884656,-1755.6356,-1342.9723)"
         d="m 1329.8392,1683.4099 a 174.51379,174.51379 0 1 1 -349.02755,0 174.51379,174.51379 0 1 1 349.02755,0 z"
         sodipodi:ry="174.51379"
         sodipodi:rx="174.51379"
         sodipodi:cy="1683.4099"
         sodipodi:cx="1155.3254"
         id="path35470-2"
         style="fill:url(#radialGradient35472-2);fill-opacity:1;stroke:none"
         sodipodi:type="arc" />
    </clipPath>
    <radialGradient
       inkscape:collect="always"
       xlink:href="#linearGradient35369"
       id="radialGradient35472-2"
       gradientUnits="userSpaceOnUse"
       gradientTransform="matrix(-0.4360239,1.1076521,-1.3394834,-0.52728489,3739.5645,1227.9101)"
       cx="1094.5464"
       cy="1621.0869"
       fx="1094.5464"
       fy="1621.0869"
       r="174.51379" />
    <radialGradient
       inkscape:collect="always"
       xlink:href="#linearGradient25712"
       id="radialGradient4477-0"
       gradientUnits="userSpaceOnUse"
       gradientTransform="matrix(1.0717983,1.8198873,-1.3170671,0.77566969,-3180.033,5645.2163)"
       cx="-3422.5815"
       cy="-2601.0588"
       fx="-3422.5815"
       fy="-2601.0588"
       r="244.68996" />
    <radialGradient
       inkscape:collect="always"
       xlink:href="#linearGradient25706"
       id="radialGradient4479-6"
       gradientUnits="userSpaceOnUse"
       gradientTransform="matrix(0.60529051,1.4461625,-1.2363247,0.51746269,-4481.7087,3259.766)"
       cx="-3130.1846"
       cy="-2625.6816"
       fx="-3130.1846"
       fy="-2625.6816"
       r="203.13882" />
    <radialGradient
       inkscape:collect="always"
       xlink:href="#linearGradient25712"
       id="radialGradient4483-4"
       gradientUnits="userSpaceOnUse"
       gradientTransform="matrix(1.0717983,1.8198873,-1.3170671,0.77566969,-3180.033,5645.2163)"
       cx="-3422.5815"
       cy="-2601.0588"
       fx="-3422.5815"
       fy="-2601.0588"
       r="244.68996" />
    <radialGradient
       inkscape:collect="always"
       xlink:href="#linearGradient25706"
       id="radialGradient4485-4"
       gradientUnits="userSpaceOnUse"
       gradientTransform="matrix(0.60529051,1.4461625,-1.2363247,0.51746269,-4481.7087,3259.766)"
       cx="-3130.1846"
       cy="-2625.6816"
       fx="-3130.1846"
       fy="-2625.6816"
       r="203.13882" />
    <radialGradient
       inkscape:collect="always"
       xlink:href="#linearGradient35380"
       id="radialGradient4505-0"
       gradientUnits="userSpaceOnUse"
       gradientTransform="matrix(0.2123212,-1.7117911,2.077346,0.25766271,-382.97517,-1494.1804)"
       cx="-837.65149"
       cy="-133.59895"
       fx="-837.65149"
       fy="-133.59895"
       r="24.697931" />
    <clipPath
       id="clipPath4180-50"
       clipPathUnits="userSpaceOnUse">
      <path
         style="fill:none;fill-rule:evenodd;stroke:#893803;stroke-width:1px;stroke-linecap:butt;stroke-linejoin:miter;stroke-opacity:1"
         d="m 63.592233,993.94796 c 7.181517,-0.16816 10.216816,8.01924 16.585981,10.09194 6.256333,2.3168 11.34316,6.8402 17.358167,9.3601 4.292219,0.5645 15.911709,5.0796 8.234069,9.4779 -6.143459,2.3996 -11.675482,5.6961 -17.062862,9.7147 -4.466292,4.1431 -10.581348,5.8041 -14.402087,10.7436 -4.844978,4.0679 -11.877521,4.8874 -16.664946,0.1791 -5.845874,-2.8166 -10.49518,-8.3534 -17.312907,-9.1629 -4.471253,-5.0046 -12.620843,-4.2607 -16.38841,-9.4865 -3.609259,-2.2451 -6.892068,-7.2641 -0.850203,-8.831 5.003892,-7.4299 14.186894,-8.9362 21.491631,-13.5621 5.833659,-2.57703 10.921973,-6.59467 17.313592,-7.90222 l 0.85287,-0.30096 0.845105,-0.32166 0,0 z"
         id="path4182-1"
         inkscape:connector-curvature="0" />
    </clipPath>
    <clipPath
       id="clipPath4186-02"
       clipPathUnits="userSpaceOnUse">
      <path
         style="fill:none;fill-rule:evenodd;stroke:#893803;stroke-width:1px;stroke-linecap:butt;stroke-linejoin:miter;stroke-opacity:1"
         d="m 63.592233,993.94796 c 7.181517,-0.16816 10.216816,8.01924 16.585981,10.09194 6.256333,2.3168 11.34316,6.8402 17.358167,9.3601 4.292219,0.5645 15.911709,5.0796 8.234069,9.4779 -6.143459,2.3996 -11.675482,5.6961 -17.062862,9.7147 -4.466292,4.1431 -10.581348,5.8041 -14.402087,10.7436 -4.844978,4.0679 -11.877521,4.8874 -16.664946,0.1791 -5.845874,-2.8166 -10.49518,-8.3534 -17.312907,-9.1629 -4.471253,-5.0046 -12.620843,-4.2607 -16.38841,-9.4865 -3.609259,-2.2451 -6.892068,-7.2641 -0.850203,-8.831 5.003892,-7.4299 14.186894,-8.9362 21.491631,-13.5621 5.833659,-2.57703 10.921973,-6.59467 17.313592,-7.90222 l 0.85287,-0.30096 0.845105,-0.32166 0,0 z"
         id="path4188-07"
         inkscape:connector-curvature="0" />
    </clipPath>
    <clipPath
       id="clipPath4194-15"
       clipPathUnits="userSpaceOnUse">
      <path
         style="fill:none;fill-rule:evenodd;stroke:#893803;stroke-width:1px;stroke-linecap:butt;stroke-linejoin:miter;stroke-opacity:1"
         d="m 63.592233,993.94796 c 7.181517,-0.16816 10.216816,8.01924 16.585981,10.09194 6.256333,2.3168 11.34316,6.8402 17.358167,9.3601 4.292219,0.5645 15.911709,5.0796 8.234069,9.4779 -6.143459,2.3996 -11.675482,5.6961 -17.062862,9.7147 -4.466292,4.1431 -10.581348,5.8041 -14.402087,10.7436 -4.844978,4.0679 -11.877521,4.8874 -16.664946,0.1791 -5.845874,-2.8166 -10.49518,-8.3534 -17.312907,-9.1629 -4.471253,-5.0046 -12.620843,-4.2607 -16.38841,-9.4865 -3.609259,-2.2451 -6.892068,-7.2641 -0.850203,-8.831 5.003892,-7.4299 14.186894,-8.9362 21.491631,-13.5621 5.833659,-2.57703 10.921973,-6.59467 17.313592,-7.90222 l 0.85287,-0.30096 0.845105,-0.32166 0,0 z"
         id="path4196-2"
         inkscape:connector-curvature="0" />
    </clipPath>
    <clipPath
       id="clipPath4195-53"
       clipPathUnits="userSpaceOnUse">
      <path
         style="fill:none;fill-rule:evenodd;stroke:#893803;stroke-width:2;stroke-linecap:round;stroke-linejoin:round;stroke-miterlimit:4;stroke-dasharray:none;stroke-opacity:1"
         d="m 63.592233,993.94796 c 7.181517,-0.16816 10.216816,8.01924 16.585981,10.09194 6.256333,2.3168 11.34316,6.8402 17.358167,9.3601 4.292219,0.5645 15.911709,5.0796 8.234069,9.4779 -6.143459,2.3996 -11.675482,5.6961 -17.062862,9.7147 -4.466292,4.1431 -10.581348,5.8041 -14.402087,10.7436 -4.844978,4.0679 -11.877521,4.8874 -16.664946,0.1791 -5.845874,-2.8166 -10.49518,-8.3534 -17.312907,-9.1629 -4.471253,-5.0046 -12.620843,-4.2607 -16.38841,-9.4865 -3.609259,-2.2451 -6.892068,-7.2641 -0.850203,-8.831 5.003892,-7.4299 14.186894,-8.9362 21.491631,-13.5621 5.833659,-2.57703 10.921973,-6.59467 17.313592,-7.90222 l 0.85287,-0.30096 0.845105,-0.32166 0,0 z"
         id="path4197-7"
         inkscape:connector-curvature="0" />
    </clipPath>
    <clipPath
       id="clipPath4180-5"
       clipPathUnits="userSpaceOnUse">
      <path
         style="fill:none;fill-rule:evenodd;stroke:#893803;stroke-width:1px;stroke-linecap:butt;stroke-linejoin:miter;stroke-opacity:1"
         d="m 63.592233,993.94796 c 7.181517,-0.16816 10.216816,8.01924 16.585981,10.09194 6.256333,2.3168 11.34316,6.8402 17.358167,9.3601 4.292219,0.5645 15.911709,5.0796 8.234069,9.4779 -6.143459,2.3996 -11.675482,5.6961 -17.062862,9.7147 -4.466292,4.1431 -10.581348,5.8041 -14.402087,10.7436 -4.844978,4.0679 -11.877521,4.8874 -16.664946,0.1791 -5.845874,-2.8166 -10.49518,-8.3534 -17.312907,-9.1629 -4.471253,-5.0046 -12.620843,-4.2607 -16.38841,-9.4865 -3.609259,-2.2451 -6.892068,-7.2641 -0.850203,-8.831 5.003892,-7.4299 14.186894,-8.9362 21.491631,-13.5621 5.833659,-2.57703 10.921973,-6.59467 17.313592,-7.90222 l 0.85287,-0.30096 0.845105,-0.32166 0,0 z"
         id="path4182-4-1"
         inkscape:connector-curvature="0" />
    </clipPath>
    <clipPath
       id="clipPath4186-0"
       clipPathUnits="userSpaceOnUse">
      <path
         style="fill:none;fill-rule:evenodd;stroke:#893803;stroke-width:1px;stroke-linecap:butt;stroke-linejoin:miter;stroke-opacity:1"
         d="m 63.592233,993.94796 c 7.181517,-0.16816 10.216816,8.01924 16.585981,10.09194 6.256333,2.3168 11.34316,6.8402 17.358167,9.3601 4.292219,0.5645 15.911709,5.0796 8.234069,9.4779 -6.143459,2.3996 -11.675482,5.6961 -17.062862,9.7147 -4.466292,4.1431 -10.581348,5.8041 -14.402087,10.7436 -4.844978,4.0679 -11.877521,4.8874 -16.664946,0.1791 -5.845874,-2.8166 -10.49518,-8.3534 -17.312907,-9.1629 -4.471253,-5.0046 -12.620843,-4.2607 -16.38841,-9.4865 -3.609259,-2.2451 -6.892068,-7.2641 -0.850203,-8.831 5.003892,-7.4299 14.186894,-8.9362 21.491631,-13.5621 5.833659,-2.57703 10.921973,-6.59467 17.313592,-7.90222 l 0.85287,-0.30096 0.845105,-0.32166 0,0 z"
         id="path4188-2"
         inkscape:connector-curvature="0" />
    </clipPath>
    <clipPath
       id="clipPath4194-1"
       clipPathUnits="userSpaceOnUse">
      <path
         style="fill:none;fill-rule:evenodd;stroke:#893803;stroke-width:1px;stroke-linecap:butt;stroke-linejoin:miter;stroke-opacity:1"
         d="m 63.592233,993.94796 c 7.181517,-0.16816 10.216816,8.01924 16.585981,10.09194 6.256333,2.3168 11.34316,6.8402 17.358167,9.3601 4.292219,0.5645 15.911709,5.0796 8.234069,9.4779 -6.143459,2.3996 -11.675482,5.6961 -17.062862,9.7147 -4.466292,4.1431 -10.581348,5.8041 -14.402087,10.7436 -4.844978,4.0679 -11.877521,4.8874 -16.664946,0.1791 -5.845874,-2.8166 -10.49518,-8.3534 -17.312907,-9.1629 -4.471253,-5.0046 -12.620843,-4.2607 -16.38841,-9.4865 -3.609259,-2.2451 -6.892068,-7.2641 -0.850203,-8.831 5.003892,-7.4299 14.186894,-8.9362 21.491631,-13.5621 5.833659,-2.57703 10.921973,-6.59467 17.313592,-7.90222 l 0.85287,-0.30096 0.845105,-0.32166 0,0 z"
         id="path4196-4"
         inkscape:connector-curvature="0" />
    </clipPath>
    <clipPath
       id="clipPath4195-2-6"
       clipPathUnits="userSpaceOnUse">
      <path
         style="fill:none;fill-rule:evenodd;stroke:#893803;stroke-width:2;stroke-linecap:round;stroke-linejoin:round;stroke-miterlimit:4;stroke-dasharray:none;stroke-opacity:1"
         d="m 63.592233,993.94796 c 7.181517,-0.16816 10.216816,8.01924 16.585981,10.09194 6.256333,2.3168 11.34316,6.8402 17.358167,9.3601 4.292219,0.5645 15.911709,5.0796 8.234069,9.4779 -6.143459,2.3996 -11.675482,5.6961 -17.062862,9.7147 -4.466292,4.1431 -10.581348,5.8041 -14.402087,10.7436 -4.844978,4.0679 -11.877521,4.8874 -16.664946,0.1791 -5.845874,-2.8166 -10.49518,-8.3534 -17.312907,-9.1629 -4.471253,-5.0046 -12.620843,-4.2607 -16.38841,-9.4865 -3.609259,-2.2451 -6.892068,-7.2641 -0.850203,-8.831 5.003892,-7.4299 14.186894,-8.9362 21.491631,-13.5621 5.833659,-2.57703 10.921973,-6.59467 17.313592,-7.90222 l 0.85287,-0.30096 0.845105,-0.32166 0,0 z"
         id="path4197-2"
         inkscape:connector-curvature="0" />
    </clipPath>
    <clipPath
       clipPathUnits="userSpaceOnUse"
       id="clipPath4180-3">
      <path
         inkscape:connector-curvature="0"
         id="path4182-8"
         d="m 63.592233,993.94796 c 7.181517,-0.16816 10.216816,8.01924 16.585981,10.09194 6.256333,2.3168 11.34316,6.8402 17.358167,9.3601 4.292219,0.5645 15.911709,5.0796 8.234069,9.4779 -6.143459,2.3996 -11.675482,5.6961 -17.062862,9.7147 -4.466292,4.1431 -10.581348,5.8041 -14.402087,10.7436 -4.844978,4.0679 -11.877521,4.8874 -16.664946,0.1791 -5.845874,-2.8166 -10.49518,-8.3534 -17.312907,-9.1629 -4.471253,-5.0046 -12.620843,-4.2607 -16.38841,-9.4865 -3.609259,-2.2451 -6.892068,-7.2641 -0.850203,-8.831 5.003892,-7.4299 14.186894,-8.9362 21.491631,-13.5621 5.833659,-2.57703 10.921973,-6.59467 17.313592,-7.90222 l 0.85287,-0.30096 0.845105,-0.32166 0,0 z"
         style="fill:none;fill-rule:evenodd;stroke:#893803;stroke-width:1px;stroke-linecap:butt;stroke-linejoin:miter;stroke-opacity:1" />
    </clipPath>
    <clipPath
       clipPathUnits="userSpaceOnUse"
       id="clipPath4186-9">
      <path
         inkscape:connector-curvature="0"
         id="path4188-0-8"
         d="m 63.592233,993.94796 c 7.181517,-0.16816 10.216816,8.01924 16.585981,10.09194 6.256333,2.3168 11.34316,6.8402 17.358167,9.3601 4.292219,0.5645 15.911709,5.0796 8.234069,9.4779 -6.143459,2.3996 -11.675482,5.6961 -17.062862,9.7147 -4.466292,4.1431 -10.581348,5.8041 -14.402087,10.7436 -4.844978,4.0679 -11.877521,4.8874 -16.664946,0.1791 -5.845874,-2.8166 -10.49518,-8.3534 -17.312907,-9.1629 -4.471253,-5.0046 -12.620843,-4.2607 -16.38841,-9.4865 -3.609259,-2.2451 -6.892068,-7.2641 -0.850203,-8.831 5.003892,-7.4299 14.186894,-8.9362 21.491631,-13.5621 5.833659,-2.57703 10.921973,-6.59467 17.313592,-7.90222 l 0.85287,-0.30096 0.845105,-0.32166 0,0 z"
         style="fill:none;fill-rule:evenodd;stroke:#893803;stroke-width:1px;stroke-linecap:butt;stroke-linejoin:miter;stroke-opacity:1" />
    </clipPath>
    <clipPath
       clipPathUnits="userSpaceOnUse"
       id="clipPath4194-0">
      <path
         inkscape:connector-curvature="0"
         id="path4196-9"
         d="m 63.592233,993.94796 c 7.181517,-0.16816 10.216816,8.01924 16.585981,10.09194 6.256333,2.3168 11.34316,6.8402 17.358167,9.3601 4.292219,0.5645 15.911709,5.0796 8.234069,9.4779 -6.143459,2.3996 -11.675482,5.6961 -17.062862,9.7147 -4.466292,4.1431 -10.581348,5.8041 -14.402087,10.7436 -4.844978,4.0679 -11.877521,4.8874 -16.664946,0.1791 -5.845874,-2.8166 -10.49518,-8.3534 -17.312907,-9.1629 -4.471253,-5.0046 -12.620843,-4.2607 -16.38841,-9.4865 -3.609259,-2.2451 -6.892068,-7.2641 -0.850203,-8.831 5.003892,-7.4299 14.186894,-8.9362 21.491631,-13.5621 5.833659,-2.57703 10.921973,-6.59467 17.313592,-7.90222 l 0.85287,-0.30096 0.845105,-0.32166 0,0 z"
         style="fill:none;fill-rule:evenodd;stroke:#893803;stroke-width:1px;stroke-linecap:butt;stroke-linejoin:miter;stroke-opacity:1" />
    </clipPath>
    <clipPath
       clipPathUnits="userSpaceOnUse"
       id="clipPath4195-1">
      <path
         inkscape:connector-curvature="0"
         id="path4197-5"
         d="m 63.592233,993.94796 c 7.181517,-0.16816 10.216816,8.01924 16.585981,10.09194 6.256333,2.3168 11.34316,6.8402 17.358167,9.3601 4.292219,0.5645 15.911709,5.0796 8.234069,9.4779 -6.143459,2.3996 -11.675482,5.6961 -17.062862,9.7147 -4.466292,4.1431 -10.581348,5.8041 -14.402087,10.7436 -4.844978,4.0679 -11.877521,4.8874 -16.664946,0.1791 -5.845874,-2.8166 -10.49518,-8.3534 -17.312907,-9.1629 -4.471253,-5.0046 -12.620843,-4.2607 -16.38841,-9.4865 -3.609259,-2.2451 -6.892068,-7.2641 -0.850203,-8.831 5.003892,-7.4299 14.186894,-8.9362 21.491631,-13.5621 5.833659,-2.57703 10.921973,-6.59467 17.313592,-7.90222 l 0.85287,-0.30096 0.845105,-0.32166 0,0 z"
         style="fill:none;fill-rule:evenodd;stroke:#893803;stroke-width:2;stroke-linecap:round;stroke-linejoin:round;stroke-miterlimit:4;stroke-dasharray:none;stroke-opacity:1" />
    </clipPath>
    <linearGradient
       id="linearGradient4222">
      <stop
         style="stop-color:#d7cda3;stop-opacity:1;"
         offset="0"
         id="stop4224" />
      <stop
         style="stop-color:#c99f1c;stop-opacity:1;"
         offset="1"
         id="stop4226" />
    </linearGradient>
    <clipPath
       id="clipPath4180-99"
       clipPathUnits="userSpaceOnUse">
      <path
         style="fill:none;fill-rule:evenodd;stroke:#893803;stroke-width:1px;stroke-linecap:butt;stroke-linejoin:miter;stroke-opacity:1"
         d="m 63.592233,993.94796 c 7.181517,-0.16816 10.216816,8.01924 16.585981,10.09194 6.256333,2.3168 11.34316,6.8402 17.358167,9.3601 4.292219,0.5645 15.911709,5.0796 8.234069,9.4779 -6.143459,2.3996 -11.675482,5.6961 -17.062862,9.7147 -4.466292,4.1431 -10.581348,5.8041 -14.402087,10.7436 -4.844978,4.0679 -11.877521,4.8874 -16.664946,0.1791 -5.845874,-2.8166 -10.49518,-8.3534 -17.312907,-9.1629 -4.471253,-5.0046 -12.620843,-4.2607 -16.38841,-9.4865 -3.609259,-2.2451 -6.892068,-7.2641 -0.850203,-8.831 5.003892,-7.4299 14.186894,-8.9362 21.491631,-13.5621 5.833659,-2.57703 10.921973,-6.59467 17.313592,-7.90222 l 0.85287,-0.30096 z"
         id="path4182-18"
         inkscape:connector-curvature="0" />
    </clipPath>
    <clipPath
       id="clipPath4186-4"
       clipPathUnits="userSpaceOnUse">
      <path
         style="fill:none;fill-rule:evenodd;stroke:#893803;stroke-width:1px;stroke-linecap:butt;stroke-linejoin:miter;stroke-opacity:1"
         d="m 63.592233,993.94796 c 7.181517,-0.16816 10.216816,8.01924 16.585981,10.09194 6.256333,2.3168 11.34316,6.8402 17.358167,9.3601 4.292219,0.5645 15.911709,5.0796 8.234069,9.4779 -6.143459,2.3996 -11.675482,5.6961 -17.062862,9.7147 -4.466292,4.1431 -10.581348,5.8041 -14.402087,10.7436 -4.844978,4.0679 -11.877521,4.8874 -16.664946,0.1791 -5.845874,-2.8166 -10.49518,-8.3534 -17.312907,-9.1629 -4.471253,-5.0046 -12.620843,-4.2607 -16.38841,-9.4865 -3.609259,-2.2451 -6.892068,-7.2641 -0.850203,-8.831 5.003892,-7.4299 14.186894,-8.9362 21.491631,-13.5621 5.833659,-2.57703 10.921973,-6.59467 17.313592,-7.90222 l 0.85287,-0.30096 z"
         id="path4188-6"
         inkscape:connector-curvature="0" />
    </clipPath>
    <clipPath
       id="clipPath4194-8"
       clipPathUnits="userSpaceOnUse">
      <path
         style="fill:none;fill-rule:evenodd;stroke:#893803;stroke-width:1px;stroke-linecap:butt;stroke-linejoin:miter;stroke-opacity:1"
         d="m 63.592233,993.94796 c 7.181517,-0.16816 10.216816,8.01924 16.585981,10.09194 6.256333,2.3168 11.34316,6.8402 17.358167,9.3601 4.292219,0.5645 15.911709,5.0796 8.234069,9.4779 -6.143459,2.3996 -11.675482,5.6961 -17.062862,9.7147 -4.466292,4.1431 -10.581348,5.8041 -14.402087,10.7436 -4.844978,4.0679 -11.877521,4.8874 -16.664946,0.1791 -5.845874,-2.8166 -10.49518,-8.3534 -17.312907,-9.1629 -4.471253,-5.0046 -12.620843,-4.2607 -16.38841,-9.4865 -3.609259,-2.2451 -6.892068,-7.2641 -0.850203,-8.831 5.003892,-7.4299 14.186894,-8.9362 21.491631,-13.5621 5.833659,-2.57703 10.921973,-6.59467 17.313592,-7.90222 l 0.85287,-0.30096 z"
         id="path4196-1"
         inkscape:connector-curvature="0" />
    </clipPath>
    <clipPath
       id="clipPath4195-6"
       clipPathUnits="userSpaceOnUse">
      <path
         style="fill:none;fill-rule:evenodd;stroke:#893803;stroke-width:2;stroke-linecap:round;stroke-linejoin:round;stroke-miterlimit:4;stroke-dasharray:none;stroke-opacity:1"
         d="m 63.592233,993.94796 c 7.181517,-0.16816 10.216816,8.01924 16.585981,10.09194 6.256333,2.3168 11.34316,6.8402 17.358167,9.3601 4.292219,0.5645 15.911709,5.0796 8.234069,9.4779 -6.143459,2.3996 -11.675482,5.6961 -17.062862,9.7147 -4.466292,4.1431 -10.581348,5.8041 -14.402087,10.7436 -4.844978,4.0679 -11.877521,4.8874 -16.664946,0.1791 -5.845874,-2.8166 -10.49518,-8.3534 -17.312907,-9.1629 -4.471253,-5.0046 -12.620843,-4.2607 -16.38841,-9.4865 -3.609259,-2.2451 -6.892068,-7.2641 -0.850203,-8.831 5.003892,-7.4299 14.186894,-8.9362 21.491631,-13.5621 5.833659,-2.57703 10.921973,-6.59467 17.313592,-7.90222 l 0.85287,-0.30096 z"
         id="path4197-78"
         inkscape:connector-curvature="0" />
    </clipPath>
    <clipPath
       id="clipPath856"
       clipPathUnits="userSpaceOnUse">
      <path
         inkscape:connector-curvature="0"
         id="path858"
         d="m -7.0728887,1011.6258 c 0,0 10.1456711,15.8124 10.4477583,15.154 0.3020873,-0.6584 6.7165284,-9.1386 6.7165284,-9.1386 l 1.496359,9.1875 6.28542,-5.8829 4.291176,7.1491 9.729579,-7.889 0.834077,7.1569 10.564879,-3.9194 7.862775,-16.8481 -46.0904059,-22.87318 z"
         style="fill:none;stroke:#000000;stroke-width:1.17105854px;stroke-linecap:butt;stroke-linejoin:miter;stroke-opacity:1" />
    </clipPath>
    <clipPath
       id="clipPath862"
       clipPathUnits="userSpaceOnUse">
      <path
         inkscape:connector-curvature="0"
         id="path864"
         d="m -4.8830295,1036.6723 c 1.6200685,-3.2416 6.8959467,-11.8457 7.9558353,-9.2342 1.0598895,2.6116 1.3272494,8.9771 3.1435306,6.7554 1.8162823,-2.2217 10.0316666,-8.5474 10.0316666,-8.5474 l 2.960208,7.7339 6.854632,-11.4661 c 0,0 3.657452,14.031 4.01892,13.5327 0.361421,-0.4983 8.029381,-10.263 8.029381,-10.263 l 10.550901,8.56 -11.048415,36.2403 c 0,0 -31.1747836,-8.1929 -31.6408531,-9.2037 -0.4660216,-1.0108 -10.8558064,-24.1079 -10.8558064,-24.1079 z"
         style="fill:none;stroke:#000000;stroke-width:1.17105854px;stroke-linecap:butt;stroke-linejoin:miter;stroke-opacity:1" />
    </clipPath>
  </defs>
  <sodipodi:namedview
     id="base"
     pagecolor="#ffffff"
     bordercolor="#666666"
     borderopacity="1.0"
     inkscape:pageopacity="0.0"
     inkscape:pageshadow="2"
     inkscape:zoom="1.415"
     inkscape:cx="104.11111"
     inkscape:cy="114.93736"
     inkscape:document-units="px"
     inkscape:current-layer="layer1"
     showgrid="false"
     units="px"
     inkscape:window-width="1781"
     inkscape:window-height="1082"
     inkscape:window-x="2431"
     inkscape:window-y="193"
     inkscape:window-maximized="0"
     showguides="false">
    <inkscape:grid
       type="xygrid"
       id="grid912" />
  </sodipodi:namedview>
  <metadata
     id="metadata5">
    <rdf:RDF>
      <cc:Work
         rdf:about="">
        <dc:format>image/svg+xml</dc:format>
        <dc:type
           rdf:resource="http://purl.org/dc/dcmitype/StillImage" />
        <dc:title></dc:title>
      </cc:Work>
    </rdf:RDF>
  </metadata>
  <g
     inkscape:label="Layer 1"
     inkscape:groupmode="layer"
     id="layer1"
     transform="translate(0,-244.08332)">
    <g
       transform="matrix(1.023303,0,0,1.023303,1.8990601,-784.85266)"
       id="layer1-5"
       inkscape:label="Layer 1"
       style="fill:#ff00ff;stroke:none">
      <path
         inkscape:connector-curvature="0"
         id="path4526"
         d="m 21.437662,1050.1264 c -0.521987,-0.064 -0.945745,-0.4084 -1.243906,-1.0123 -0.142884,-0.2893 -0.241256,-0.6006 -0.37497,-1.1862 -0.431273,-1.8889 -1.197091,-3.9076 -2.30263,-6.0698 -1.365089,-2.6698 -2.830563,-4.8386 -4.369589,-6.4666 -0.815019,-0.862 -1.13772,-1.3131 -1.966505,-2.7494 -0.830464,-1.439 -1.2511479,-1.9842 -1.8620454,-2.4134 -0.5084962,-0.3571 -1.1715456,-0.5702 -1.9278173,-0.6194 -0.1929439,-0.017 -0.362029,-0.034 -0.3757466,-0.049 -0.015279,-0.017 -0.022314,-2.6241 -0.018167,-6.7127 l 0.00672,-6.6878 h 0.2955065 c 0.7389913,-0.017 1.6224147,-0.089 2.2028667,-0.1845 1.0339761,-0.1706 1.7736841,-0.403 3.5192141,-1.1055 1.783951,-0.7181 2.536938,-0.9782 3.636244,-1.2564 2.358298,-0.5967 5.048581,-0.9045 8.801893,-1.0069 4.177347,-0.1142 7.053831,0.136 9.453607,0.8224 1.98575,0.5677 3.469658,1.4928 3.958785,2.4681 0.121141,0.2416 0.167532,0.4277 0.167012,0.6698 -9.94e-4,0.4644 -0.102957,0.7446 -0.471269,1.2957 -0.300881,0.45 -0.382428,0.6271 -0.406251,0.8821 -0.02995,0.3207 0.129284,0.5242 0.681443,0.8709 1.099566,0.6903 1.359531,0.9178 1.605428,1.4042 0.168353,0.3331 0.213122,0.5615 0.195743,0.9988 -0.01612,0.4035 -0.0775,0.6762 -0.220504,0.9781 -0.194817,0.4112 -0.377123,0.6284 -1.002205,1.1948 -0.422611,0.3828 -0.542419,0.545 -0.54285,0.7347 -4.84e-4,0.2168 0.09162,0.2977 0.821348,0.7225 0.536465,0.3121 0.824243,0.5969 1.045294,1.0337 0.184007,0.3639 0.260499,0.7427 0.26058,1.2902 0,0.3303 -0.01024,0.4292 -0.06798,0.6506 -0.110412,0.4238 -0.298023,0.7633 -0.609725,1.1035 -0.237655,0.2594 -0.533478,0.4869 -1.113959,0.8566 -0.587077,0.3741 -0.715582,0.4716 -0.8113,0.6164 -0.06184,0.094 -0.06756,0.1225 -0.05512,0.2854 0.01377,0.1803 0.05593,0.3214 0.310677,1.041 0.185852,0.525 0.23101,0.7581 0.228972,1.182 -0.0015,0.319 -0.0091,0.3712 -0.08719,0.6029 -0.152052,0.4514 -0.397957,0.7724 -0.7921,1.0347 -0.467312,0.3109 -1.04877,0.4993 -1.923617,0.623 -0.477982,0.067 -2.236516,0.069 -2.86104,10e-4 -0.607528,-0.065 -1.497731,-0.2149 -2.296891,-0.3856 -2.400173,-0.5128 -3.039011,-0.626 -4.392302,-0.7782 -0.540723,-0.061 -1.265523,-0.061 -1.584989,0 -0.516453,0.099 -0.940015,0.3191 -1.239428,0.6424 -0.207244,0.2236 -0.322677,0.4227 -0.428441,0.7391 -0.218965,0.6546 -0.222568,1.4357 -0.01142,2.4622 0.08019,0.3897 0.173244,0.7139 0.605276,2.1089 0.570188,1.841 0.667139,2.1928 0.830311,3.0128 0.159792,0.8031 0.188901,1.0885 0.1872,1.8362 -0.0016,0.7226 -0.02775,0.959 -0.1632,1.4775 -0.232695,0.8907 -0.736629,1.7522 -1.330323,2.2741 -0.641476,0.5638 -1.35503,0.8442 -1.960726,0.7706 z"
         style="fill:#ff00ff;stroke:none;stroke-width:1.67901421;stroke-linecap:round;stroke-linejoin:round;stroke-miterlimit:4;stroke-dasharray:none;stroke-opacity:1" />
    </g>
  </g>
</svg>
