<?xml version="1.0" encoding="UTF-8" standalone="no"?>
<!-- Created with Inkscape (http://www.inkscape.org/) -->

<svg
   xmlns:dc="http://purl.org/dc/elements/1.1/"
   xmlns:cc="http://creativecommons.org/ns#"
   xmlns:rdf="http://www.w3.org/1999/02/22-rdf-syntax-ns#"
   xmlns:svg="http://www.w3.org/2000/svg"
   xmlns="http://www.w3.org/2000/svg"
   xmlns:sodipodi="http://sodipodi.sourceforge.net/DTD/sodipodi-0.dtd"
   xmlns:inkscape="http://www.inkscape.org/namespaces/inkscape"
   width="200"
   height="200"
   viewBox="0 0 52.916665 52.916668"
   version="1.1"
   id="svg8"
   inkscape:version="0.92.4 (5da689c313, 2019-01-14)"
   sodipodi:docname="logo-90.svg">
  <defs
     id="defs2" />
  <sodipodi:namedview
     id="base"
     pagecolor="#ffffff"
     bordercolor="#666666"
     borderopacity="1.0"
     inkscape:pageopacity="0.0"
     inkscape:pageshadow="2"
     inkscape:zoom="0.76201582"
     inkscape:cx="88.005013"
     inkscape:cy="101.97373"
     inkscape:document-units="px"
     inkscape:current-layer="layer1"
     showgrid="true"
     units="px"
     inkscape:window-width="1780"
     inkscape:window-height="1082"
     inkscape:window-x="2127"
     inkscape:window-y="236"
     inkscape:window-maximized="0"
     showguides="false"
     inkscape:snap-global="false">
    <inkscape:grid
       type="xygrid"
       id="grid912" />
  </sodipodi:namedview>
  <metadata
     id="metadata5">
    <rdf:RDF>
      <cc:Work
         rdf:about="">
        <dc:format>image/svg+xml</dc:format>
        <dc:type
           rdf:resource="http://purl.org/dc/dcmitype/StillImage" />
        <dc:title></dc:title>
      </cc:Work>
    </rdf:RDF>
  </metadata>
  <g
     inkscape:label="Layer 1"
     inkscape:groupmode="layer"
     id="layer1"
     transform="translate(0,-244.08332)">
    <path
       style="fill:#ff00ff;stroke-width:0.03850131"
       d="m 25.025577,292.02257 c -4.042496,-0.26657 -8.029874,-1.72399 -11.300136,-4.13029 -5.530283,-4.06925 -8.7775386,-10.48802 -8.7775386,-17.35034 0,-5.11788 1.7371139,-9.87784 5.0653036,-13.87972 0.53682,-0.64548 1.934544,-2.04281 2.576446,-2.57572 3.204448,-2.66032 6.825365,-4.28131 10.83812,-4.85194 1.016262,-0.14451 1.461247,-0.17934 2.598839,-0.2034 4.458667,-0.0943 8.700954,1.14054 12.404172,3.61056 1.160737,0.77421 2.161122,1.6026 3.248669,2.69015 1.757937,1.75793 2.979176,3.45506 4.074142,5.66175 1.188438,2.39505 1.845582,4.68542 2.148582,7.4885 0.05098,0.47164 0.06659,0.95441 0.06659,2.05982 0,1.10541 -0.0156,1.58818 -0.06659,2.05982 -0.303,2.80308 -0.960144,5.09346 -2.148582,7.48851 -1.033486,2.08279 -2.262619,3.82037 -3.861085,5.4583 -3.764286,3.85721 -8.64129,6.10744 -14.037086,6.47665 -0.638941,0.0437 -2.148109,0.0423 -2.829846,-0.003 z M 24.54431,281.63769 v -6.4178 l -4.550817,4.55082 -4.550816,4.55082 0.109921,0.0886 c 1.680805,1.35433 4.054549,2.55617 6.219618,3.14901 0.88842,0.24327 2.629836,0.56755 2.743218,0.51083 0.01588,-0.008 0.02888,-2.90245 0.02888,-6.43225 z m 5.390184,6.20597 c 1.617255,-0.31642 3.117404,-0.84231 4.639408,-1.62639 0.951954,-0.4904 1.802621,-1.03554 2.814293,-1.80347 l 0.111807,-0.0849 -4.55278,-4.55452 -4.552781,-4.55452 v 6.41366 c 0,3.52751 0.0088,6.42246 0.01957,6.43323 0.03233,0.0323 0.762567,-0.0748 1.520482,-0.22312 z m -11.309626,-12.21005 5.919617,-5.91971 -0.0097,-8.35465 -0.0097,-8.35465 -0.134755,0.012 c -0.285435,0.0253 -0.963736,0.13238 -1.424549,0.22483 -4.577937,0.91847 -8.698356,3.70985 -11.256986,7.62603 -1.569775,2.40267 -2.4502841,4.87854 -2.8039153,7.88422 -0.078766,0.66947 -0.066529,3.05115 0.019291,3.75388 0.3474222,2.8449 1.2465533,5.34847 2.7516503,7.66176 0.291648,0.44826 0.974689,1.38528 1.010156,1.38578 0.01061,1.5e-4 2.683127,-2.6636 5.938916,-5.91944 z m 21.99862,5.4478 c 1.667544,-2.23692 2.775273,-4.82282 3.245235,-7.57577 0.184298,-1.07956 0.21443,-1.49606 0.21443,-2.9637 0,-1.12287 -0.01397,-1.51749 -0.0695,-1.96357 -0.280847,-2.256 -0.822838,-4.06388 -1.79485,-5.98695 -0.859893,-1.70125 -1.901088,-3.1444 -3.236501,-4.48595 -2.4894,-2.50083 -5.592467,-4.17606 -9.009307,-4.86378 -0.460042,-0.0926 -1.137655,-0.19968 -1.424548,-0.22514 l -0.134755,-0.012 -0.0097,8.35465 -0.0097,8.35465 5.919618,5.91971 c 3.255789,3.25584 5.928301,5.91959 5.938915,5.91944 0.01061,-1.6e-4 0.177423,-0.21239 0.370689,-0.47164 z"
       id="path1739"
       inkscape:connector-curvature="0" />
  </g>
  <style
     type="text/css"
     id="style851">
	.st0{fill:#3A3A3A;}
</style>
</svg>
