<?xml version="1.0" encoding="UTF-8" standalone="no"?>
<!-- Created with Inkscape (http://www.inkscape.org/) -->

<svg
   xmlns:dc="http://purl.org/dc/elements/1.1/"
   xmlns:cc="http://creativecommons.org/ns#"
   xmlns:rdf="http://www.w3.org/1999/02/22-rdf-syntax-ns#"
   xmlns:svg="http://www.w3.org/2000/svg"
   xmlns="http://www.w3.org/2000/svg"
   xmlns:sodipodi="http://sodipodi.sourceforge.net/DTD/sodipodi-0.dtd"
   xmlns:inkscape="http://www.inkscape.org/namespaces/inkscape"
   width="200"
   height="200"
   viewBox="0 0 52.916665 52.916668"
   version="1.1"
   id="svg8"
   inkscape:version="0.92.4 (5da689c313, 2019-01-14)"
   sodipodi:docname="logo-75.svg">
  <defs
     id="defs2" />
  <sodipodi:namedview
     id="base"
     pagecolor="#ffffff"
     bordercolor="#666666"
     borderopacity="1.0"
     inkscape:pageopacity="0.0"
     inkscape:pageshadow="2"
     inkscape:zoom="2.4723636"
     inkscape:cx="88.005013"
     inkscape:cy="101.97373"
     inkscape:document-units="px"
     inkscape:current-layer="layer1"
     showgrid="true"
     units="px"
     inkscape:window-width="1780"
     inkscape:window-height="1082"
     inkscape:window-x="2127"
     inkscape:window-y="236"
     inkscape:window-maximized="0"
     showguides="false"
     inkscape:snap-global="false">
    <inkscape:grid
       type="xygrid"
       id="grid912" />
  </sodipodi:namedview>
  <metadata
     id="metadata5">
    <rdf:RDF>
      <cc:Work
         rdf:about="">
        <dc:format>image/svg+xml</dc:format>
        <dc:type
           rdf:resource="http://purl.org/dc/dcmitype/StillImage" />
        <dc:title></dc:title>
      </cc:Work>
    </rdf:RDF>
  </metadata>
  <g
     inkscape:label="Layer 1"
     inkscape:groupmode="layer"
     id="layer1"
     transform="translate(0,-244.08332)">
    <g
       style="fill:#ff00ff;stroke:none"
       id="g838"
       transform="matrix(0.01550293,0,0,0.01550293,75.671074,250.18703)" />
    <g
       style="fill:#ff00ff;stroke:none"
       id="g840"
       transform="matrix(0.01550293,0,0,0.01550293,75.671074,250.18703)" />
    <g
       style="fill:#ff00ff;stroke:none"
       id="g842"
       transform="matrix(0.01550293,0,0,0.01550293,75.671074,250.18703)" />
    <g
       style="fill:#ff00ff;stroke:none"
       id="g844"
       transform="matrix(0.01550293,0,0,0.01550293,75.671074,250.18703)" />
    <g
       style="fill:#ff00ff;stroke:none"
       id="g846"
       transform="matrix(0.01550293,0,0,0.01550293,75.671074,250.18703)" />
    <g
       style="fill:#ff00ff;stroke:none"
       id="g848"
       transform="matrix(0.01550293,0,0,0.01550293,75.671074,250.18703)" />
    <g
       style="fill:#ff00ff;stroke:none"
       id="g850"
       transform="matrix(0.01550293,0,0,0.01550293,75.671074,250.18703)" />
    <g
       style="fill:#ff00ff;stroke:none"
       id="g852"
       transform="matrix(0.01550293,0,0,0.01550293,75.671074,250.18703)" />
    <g
       style="fill:#ff00ff;stroke:none"
       id="g854"
       transform="matrix(0.01550293,0,0,0.01550293,75.671074,250.18703)" />
    <g
       style="fill:#ff00ff;stroke:none"
       id="g856"
       transform="matrix(0.01550293,0,0,0.01550293,75.671074,250.18703)" />
    <g
       style="fill:#ff00ff;stroke:none"
       id="g858"
       transform="matrix(0.01550293,0,0,0.01550293,75.671074,250.18703)" />
    <g
       style="fill:#ff00ff;stroke:none"
       id="g860"
       transform="matrix(0.01550293,0,0,0.01550293,75.671074,250.18703)" />
    <g
       style="fill:#ff00ff;stroke:none"
       id="g862"
       transform="matrix(0.01550293,0,0,0.01550293,75.671074,250.18703)" />
    <g
       style="fill:#ff00ff;stroke:none"
       id="g864"
       transform="matrix(0.01550293,0,0,0.01550293,75.671074,250.18703)" />
    <g
       style="fill:#ff00ff;stroke:none"
       id="g866"
       transform="matrix(0.01550293,0,0,0.01550293,75.671074,250.18703)" />
    <path
       inkscape:connector-curvature="0"
       id="path1612"
       style="font-style:normal;font-variant:normal;font-weight:100;font-stretch:normal;font-size:46.60106659px;line-height:1.25;font-family:'Apple Chancery';-inkscape-font-specification:'Apple Chancery, Thin';font-variant-ligatures:normal;font-variant-caps:normal;font-variant-numeric:normal;font-feature-settings:normal;text-align:start;letter-spacing:0px;word-spacing:0px;writing-mode:lr-tb;text-anchor:start;fill:#ff00ff;fill-opacity:1;stroke:none;stroke-width:4.36884212"
       d="m 22.123614,279.24521 0.40958,0.40958 q 11.399968,10.60356 19.295754,10.60356 1.774845,0 2.935321,-1.0467 1.18323,-1.0467 1.18323,-2.63951 0,-0.72815 -0.386825,-1.52455 l 3.982025,-2.18443 q 0.159281,0.63713 0.159281,1.04671 0,3.0946 -2.935321,5.48381 -2.912567,2.41197 -6.689802,2.41197 -4.437113,0 -10.558054,-3.00358 -6.120941,-2.98083 -11.51374,-7.78201 -2.502987,0.70538 -4.801184,0.70538 -4.3460957,0 -7.1676447,-3.52693 -2.8215489,-3.54969 -2.8215489,-9.03351 0,-8.03231 5.4155536,-13.94847 5.438308,-5.9389 12.810742,-5.9389 4.596395,0 7.417944,3.45867 2.821549,3.45868 2.821549,9.07902 0,11.19518 -9.55686,17.42989 z m -0.932931,-0.95569 q 6.189204,-4.27783 6.189204,-14.24427 0,-5.55208 -2.502987,-9.23829 -2.480233,-3.70898 -6.211959,-3.70898 -4.755675,0 -7.941295,4.52813 -3.1856195,4.50538 -3.1856195,11.26345 0,5.91615 2.3892148,9.30656 2.4119697,3.39041 6.8035737,3.68621 l 3.117357,-3.20837 q 0.295807,0.34132 0.386825,0.43233 l 0.637124,0.81916 q 0.06826,0.0683 0.318562,0.36407 z" />
  </g>
  <style
     type="text/css"
     id="style851">
	.st0{fill:#3A3A3A;}
</style>
</svg>
