<?xml version="1.0" encoding="UTF-8" standalone="no"?>
<!-- Created with Inkscape (http://www.inkscape.org/) -->

<svg
   xmlns:dc="http://purl.org/dc/elements/1.1/"
   xmlns:cc="http://creativecommons.org/ns#"
   xmlns:rdf="http://www.w3.org/1999/02/22-rdf-syntax-ns#"
   xmlns:svg="http://www.w3.org/2000/svg"
   xmlns="http://www.w3.org/2000/svg"
   xmlns:sodipodi="http://sodipodi.sourceforge.net/DTD/sodipodi-0.dtd"
   xmlns:inkscape="http://www.inkscape.org/namespaces/inkscape"
   width="200"
   height="200"
   viewBox="0 0 52.916665 52.916668"
   version="1.1"
   id="svg8"
   inkscape:version="0.92.4 (5da689c313, 2019-01-14)"
   sodipodi:docname="logo-57.svg">
  <defs
     id="defs2" />
  <sodipodi:namedview
     id="base"
     pagecolor="#ffffff"
     bordercolor="#666666"
     borderopacity="1.0"
     inkscape:pageopacity="0.0"
     inkscape:pageshadow="2"
     inkscape:zoom="3.52"
     inkscape:cx="88.005013"
     inkscape:cy="92.623136"
     inkscape:document-units="px"
     inkscape:current-layer="layer1"
     showgrid="true"
     units="px"
     inkscape:window-width="1781"
     inkscape:window-height="1082"
     inkscape:window-x="2126"
     inkscape:window-y="236"
     inkscape:window-maximized="0"
     showguides="false"
     inkscape:snap-global="true">
    <inkscape:grid
       type="xygrid"
       id="grid912" />
  </sodipodi:namedview>
  <metadata
     id="metadata5">
    <rdf:RDF>
      <cc:Work
         rdf:about="">
        <dc:format>image/svg+xml</dc:format>
        <dc:type
           rdf:resource="http://purl.org/dc/dcmitype/StillImage" />
        <dc:title></dc:title>
      </cc:Work>
    </rdf:RDF>
  </metadata>
  <g
     inkscape:label="Layer 1"
     inkscape:groupmode="layer"
     id="layer1"
     transform="translate(0,-244.08332)">
    <g
       style="fill:#ff00ff;stroke:none"
       id="g838"
       transform="matrix(0.01550293,0,0,0.01550293,75.671074,250.18703)" />
    <g
       style="fill:#ff00ff;stroke:none"
       id="g840"
       transform="matrix(0.01550293,0,0,0.01550293,75.671074,250.18703)" />
    <g
       style="fill:#ff00ff;stroke:none"
       id="g842"
       transform="matrix(0.01550293,0,0,0.01550293,75.671074,250.18703)" />
    <g
       style="fill:#ff00ff;stroke:none"
       id="g844"
       transform="matrix(0.01550293,0,0,0.01550293,75.671074,250.18703)" />
    <g
       style="fill:#ff00ff;stroke:none"
       id="g846"
       transform="matrix(0.01550293,0,0,0.01550293,75.671074,250.18703)" />
    <g
       style="fill:#ff00ff;stroke:none"
       id="g848"
       transform="matrix(0.01550293,0,0,0.01550293,75.671074,250.18703)" />
    <g
       style="fill:#ff00ff;stroke:none"
       id="g850"
       transform="matrix(0.01550293,0,0,0.01550293,75.671074,250.18703)" />
    <g
       style="fill:#ff00ff;stroke:none"
       id="g852"
       transform="matrix(0.01550293,0,0,0.01550293,75.671074,250.18703)" />
    <g
       style="fill:#ff00ff;stroke:none"
       id="g854"
       transform="matrix(0.01550293,0,0,0.01550293,75.671074,250.18703)" />
    <g
       style="fill:#ff00ff;stroke:none"
       id="g856"
       transform="matrix(0.01550293,0,0,0.01550293,75.671074,250.18703)" />
    <g
       style="fill:#ff00ff;stroke:none"
       id="g858"
       transform="matrix(0.01550293,0,0,0.01550293,75.671074,250.18703)" />
    <g
       style="fill:#ff00ff;stroke:none"
       id="g860"
       transform="matrix(0.01550293,0,0,0.01550293,75.671074,250.18703)" />
    <g
       style="fill:#ff00ff;stroke:none"
       id="g862"
       transform="matrix(0.01550293,0,0,0.01550293,75.671074,250.18703)" />
    <g
       style="fill:#ff00ff;stroke:none"
       id="g864"
       transform="matrix(0.01550293,0,0,0.01550293,75.671074,250.18703)" />
    <g
       style="fill:#ff00ff;stroke:none"
       id="g866"
       transform="matrix(0.01550293,0,0,0.01550293,75.671074,250.18703)" />
    <path
       style="fill:#ff00ff;stroke-width:0.0424056"
       d="m 25.879527,294.35415 c -0.198247,-0.16409 -0.618062,-0.51392 -0.932924,-0.77739 -0.314861,-0.26348 -1.507518,-1.25732 -2.65035,-2.20857 -1.858703,-1.54708 -3.602299,-3.03097 -4.134547,-3.51873 -1.492522,-1.36775 -2.390516,-2.2848 -4.169941,-4.2584 -0.177544,-0.19693 -0.315019,-0.36583 -0.305496,-0.37535 0.0095,-0.01 0.154469,0.006 0.322107,0.0341 0.320082,0.054 0.558251,0.0374 0.658652,-0.046 0.154222,-0.12799 0.07789,-0.32548 -0.555101,-1.43591 -0.338161,-0.59324 -0.614837,-1.08208 -0.614837,-1.08633 0,-0.008 -0.500216,-0.84013 -0.761322,-1.26497 -0.09867,-0.16053 -0.213118,-0.35136 -0.254337,-0.42404 -0.04122,-0.0727 -0.179897,-0.31346 -0.308173,-0.53504 -0.300076,-0.51832 -0.843566,-1.54569 -1.132867,-2.14148 -1.7405432,-3.58452 -2.9471536,-8.30675 -3.4564784,-13.52739 -0.059161,-0.6064 -0.1175136,-1.19796 -0.1296705,-1.31457 -0.052761,-0.50602 -0.1500519,-2.87433 -0.1733332,-4.21936 -0.023014,-1.32888 0.02363,-3.36286 0.078372,-3.41759 0.012175,-0.0122 0.191195,-0.0479 0.3978191,-0.0793 0.2066241,-0.0315 0.4615525,-0.0775 0.5665059,-0.10239 0.1049562,-0.0249 0.4770638,-0.0944 0.8269104,-0.15469 1.5035537,-0.25886 3.0358247,-0.70125 4.1345457,-1.19372 1.003984,-0.45 2.214578,-1.19379 3.280435,-2.0155 0.299901,-0.2312 0.551398,-0.41425 0.558881,-0.40675 0.0075,0.007 -0.0553,0.15647 -0.139526,0.33111 -0.109262,0.22653 -0.158342,0.39228 -0.171315,0.57853 -0.01653,0.23737 -0.0095,0.26571 0.07797,0.3125 0.240501,0.1287 1.162613,-0.14578 2.711986,-0.80727 1.54456,-0.65943 4.291805,-2.15554 6.476091,-3.52676 0.542784,-0.34076 0.612566,-0.37347 0.699692,-0.32798 0.05323,0.0279 0.507051,0.28366 1.008497,0.5686 2.263984,1.28651 4.71958,2.58164 5.809568,3.06408 1.909811,0.84527 2.945904,1.17648 3.220556,1.02948 0.150296,-0.0804 0.107254,-0.47626 -0.09658,-0.88817 -0.08559,-0.17297 -0.145872,-0.32424 -0.133956,-0.33615 0.01192,-0.0119 0.07394,0.027 0.137837,0.0864 0.343564,0.31961 1.646625,1.22446 2.384872,1.65606 0.468847,0.27412 1.21688,0.65257 1.611413,0.81529 1.097936,0.45281 2.552059,0.84857 3.991606,1.08638 l 0.874793,0.14451 0.02632,0.25006 c 0.0663,0.62976 0.0055,3.94179 -0.102503,5.58072 -0.05744,0.87179 -0.232307,2.65885 -0.340266,3.47726 -0.04769,0.3615 -0.105521,0.80995 -0.128508,0.99652 -0.110636,0.8979 -0.41681,2.5899 -0.73281,4.04974 -0.416699,1.92503 -1.042571,4.03395 -1.742998,5.87319 -0.454638,1.1938 -1.422659,3.22582 -2.12115,4.45258 -0.279435,0.49077 -0.818817,1.45106 -0.976569,1.73863 -0.160163,0.29197 -0.626098,1.11438 -1.080608,1.90737 -0.568074,0.99113 -0.608581,1.16334 -0.295688,1.25708 0.120956,0.0362 0.246449,0.0356 0.508126,-0.003 0.191125,-0.0279 0.353381,-0.0447 0.36057,-0.0373 0.03414,0.0353 -1.47075,1.65677 -2.610124,2.8123 -1.105091,1.12075 -1.440358,1.44048 -2.266672,2.16163 -0.396491,0.34604 -0.787683,0.68893 -0.869315,0.76201 -0.458548,0.41048 -5.592268,4.68971 -6.20935,5.17582 -0.08882,0.07 -0.275,0.21786 -0.413733,0.32865 -0.138732,0.11079 -0.274829,0.20052 -0.302439,0.19943 -0.02761,-0.001 -0.2124,-0.13626 -0.410647,-0.30035 z m -1.196269,-4.69814 c 0.312253,-0.16164 0.774928,-0.72991 1.055779,-1.29674 0.06934,-0.13993 0.147912,-0.2926 0.174613,-0.33924 0.0267,-0.0466 0.07951,-0.16114 0.11734,-0.25444 0.337097,-0.8312 0.435196,-1.0875 0.482875,-1.26156 0.06237,-0.22774 0.114044,-0.25585 0.155849,-0.0848 0.01568,0.0641 0.0932,0.3456 0.172274,0.62548 0.07907,0.27989 0.159059,0.56611 0.177744,0.63608 0.01868,0.07 0.0751,0.20756 0.125373,0.30576 0.05027,0.0983 0.0914,0.20975 0.0914,0.2479 0,0.12975 0.394897,0.80231 0.630853,1.07442 0.339946,0.39204 0.659004,0.51138 0.992524,0.37127 0.405349,-0.17029 2.009692,-1.32625 2.89282,-2.08432 1.518946,-1.30385 2.559559,-2.37783 3.636114,-3.75274 0.189235,-0.24167 1.451366,-1.9215 1.51825,-2.0207 0.03384,-0.0502 0.187576,-0.26965 0.341635,-0.48768 0.513166,-0.7262 1.326324,-1.96806 1.703439,-2.60148 1.985516,-3.33498 3.161877,-6.22241 4.137679,-10.15615 0.595895,-2.40222 0.762239,-3.60567 0.800086,-5.78836 0.0169,-0.97397 0.0066,-1.26399 -0.06921,-1.94204 -0.120763,-1.08082 -0.250499,-1.42756 -0.692814,-1.85168 -0.262192,-0.25141 -0.611278,-0.4346 -1.070617,-0.56185 -0.294584,-0.0816 -0.445322,-0.0941 -1.144953,-0.0949 -0.611832,-7.6e-4 -0.885877,0.0167 -1.138885,0.0727 -0.183248,0.0406 -0.359143,0.0737 -0.390876,0.0737 -0.03173,0 0.176696,-0.23376 0.463176,-0.51947 0.571025,-0.56948 0.993551,-1.15594 1.201789,-1.66804 0.09633,-0.2369 0.119232,-0.35837 0.119232,-0.63246 0,-0.30747 -0.01328,-0.36221 -0.141732,-0.58447 -0.184908,-0.31995 -0.669908,-0.80814 -1.055196,-1.06216 -0.55798,-0.36787 -0.998174,-0.56981 -1.941088,-0.89047 -1.769674,-0.60183 -2.692384,-0.98443 -4.71628,-1.95562 -0.712599,-0.34194 -0.806396,-0.3756 -1.20856,-0.43368 -0.589912,-0.0852 -1.801942,-0.0522 -2.368649,0.0646 -1.032693,0.21273 -1.879437,0.74785 -2.734151,1.72787 -0.145828,0.16721 -0.286768,0.34443 -0.313197,0.39381 -0.07317,0.13673 -0.137245,0.1082 -0.299502,-0.13334 -0.20866,-0.31065 -0.718559,-0.8363 -1.07572,-1.10896 -0.935242,-0.714 -1.834166,-0.93208 -3.430765,-0.83232 -0.392092,0.0245 -0.79842,0.0637 -0.90295,0.0871 -0.104536,0.0234 -0.480625,0.17828 -0.835766,0.34414 -1.874254,0.87532 -2.665921,1.19103 -4.674242,1.86409 -1.393955,0.46717 -2.198004,0.89678 -2.794142,1.49291 -0.504946,0.50495 -0.654028,0.93139 -0.514513,1.47173 0.155059,0.60054 0.627696,1.31211 1.363827,2.05327 0.328916,0.33117 0.393537,0.41457 0.303742,0.39204 -0.06273,-0.0158 -0.367957,-0.0666 -0.678277,-0.11293 -2.016421,-0.30134 -3.3266316,0.2722 -3.6592532,1.60181 -0.1451072,0.58004 -0.2425681,1.73722 -0.2418799,2.8719 0.0018,2.74732 0.6260219,7.18937 1.2963791,9.22322 0.826716,2.50827 1.75974,4.49114 3.312305,7.03935 0.486876,0.79909 1.703067,2.60279 2.144473,3.18041 0.06237,0.0816 0.248324,0.32969 0.413205,0.55127 0.370846,0.49834 0.899486,1.17889 1.154351,1.48607 0.218756,0.26365 1.931122,1.94687 2.435485,2.39404 0.739347,0.6555 1.665072,1.43508 1.825139,1.53701 0.09329,0.0594 0.227766,0.1577 0.298831,0.21843 0.314153,0.26844 0.939614,0.66124 1.503408,0.94414 0.55027,0.27613 0.771313,0.31107 1.051227,0.16616 z"
       id="path1529"
       inkscape:connector-curvature="0" />
  </g>
  <style
     type="text/css"
     id="style851">
	.st0{fill:#3A3A3A;}
</style>
</svg>
