<?xml version="1.0" encoding="UTF-8" standalone="no"?>
<!-- Created with Inkscape (http://www.inkscape.org/) -->

<svg
   xmlns:dc="http://purl.org/dc/elements/1.1/"
   xmlns:cc="http://creativecommons.org/ns#"
   xmlns:rdf="http://www.w3.org/1999/02/22-rdf-syntax-ns#"
   xmlns:svg="http://www.w3.org/2000/svg"
   xmlns="http://www.w3.org/2000/svg"
   xmlns:sodipodi="http://sodipodi.sourceforge.net/DTD/sodipodi-0.dtd"
   xmlns:inkscape="http://www.inkscape.org/namespaces/inkscape"
   width="200"
   height="200"
   viewBox="0 0 52.916665 52.916668"
   version="1.1"
   id="svg8"
   inkscape:version="0.92.4 (5da689c313, 2019-01-14)"
   sodipodi:docname="logo-89.svg">
  <defs
     id="defs2" />
  <sodipodi:namedview
     id="base"
     pagecolor="#ffffff"
     bordercolor="#666666"
     borderopacity="1.0"
     inkscape:pageopacity="0.0"
     inkscape:pageshadow="2"
     inkscape:zoom="0.76201582"
     inkscape:cx="88.005013"
     inkscape:cy="101.97373"
     inkscape:document-units="px"
     inkscape:current-layer="layer1"
     showgrid="true"
     units="px"
     inkscape:window-width="1780"
     inkscape:window-height="1082"
     inkscape:window-x="2127"
     inkscape:window-y="236"
     inkscape:window-maximized="0"
     showguides="false"
     inkscape:snap-global="false">
    <inkscape:grid
       type="xygrid"
       id="grid912" />
  </sodipodi:namedview>
  <metadata
     id="metadata5">
    <rdf:RDF>
      <cc:Work
         rdf:about="">
        <dc:format>image/svg+xml</dc:format>
        <dc:type
           rdf:resource="http://purl.org/dc/dcmitype/StillImage" />
        <dc:title></dc:title>
      </cc:Work>
    </rdf:RDF>
  </metadata>
  <g
     inkscape:label="Layer 1"
     inkscape:groupmode="layer"
     id="layer1"
     transform="translate(0,-244.08332)">
    <path
       style="fill:#ff00ff;stroke-width:0.08496592"
       d="m 39.868784,292.20757 c -0.43119,-0.16202 -0.63442,-0.43548 -1.188221,-1.59879 -0.923648,-1.9402 -1.770503,-3.1419 -2.885465,-4.09453 -1.748007,-1.4935 -3.125678,-1.89372 -7.525968,-2.18634 -1.073826,-0.0714 -2.315641,-0.18862 -2.759588,-0.26047 -2.754258,-0.44574 -4.822433,-1.4728 -6.37869,-3.16766 -0.630007,-0.68611 -1.572002,-2.08772 -2.295149,-3.41498 -1.227318,-2.25261 -2.14428,-3.25024 -3.879182,-4.22046 -0.578612,-0.32357 -1.305775,-0.44861 -1.928993,-0.3317 l -0.308957,0.058 0.569131,0.82392 c 0.313021,0.45315 0.792507,1.09811 1.065524,1.43324 0.273016,0.33513 0.496394,0.64922 0.496394,0.69798 0,0.0488 -0.07464,0.1286 -0.165865,0.17742 -0.205884,0.11019 -0.281022,0.0353 -1.236232,-1.23136 -1.26908,-1.68292 -2.2528343,-3.4722 -2.6873079,-4.88776 l -0.1967387,-0.64099 -0.5545966,-0.005 c -0.8218264,-0.007 -1.423989,-0.27123 -2.1217753,-0.92948 -0.5448197,-0.51396 -1.1092478,-1.36931 -1.1092478,-1.68099 0,-0.17951 0.3211427,-0.2513 0.9278258,-0.20742 0.743402,0.0538 1.4833866,0.45236 2.1370049,1.15108 0.3953329,0.42261 0.5189478,0.51588 0.4772984,0.36013 -0.030912,-0.11561 -0.056728,-0.65491 -0.057366,-1.19846 l -0.00116,-0.98826 -0.4035879,-0.10066 C 6.5512548,265.43817 5.623466,264.2387 5.3308835,262.49707 l -0.055631,-0.33114 0.4639525,0.0479 c 1.076432,0.1111 2.0453959,1.0141 2.4827732,2.31377 l 0.1846299,0.54863 0.1937714,-0.73351 c 0.1065741,-0.40342 0.2806949,-0.9553 0.3869347,-1.22639 l 0.1931639,-0.4929 -0.3662513,-0.1773 c -0.7641664,-0.36992 -1.4675623,-1.37867 -1.6566735,-2.37585 -0.163351,-0.86135 -0.083092,-1.70275 0.1624195,-1.70275 0.2762369,0 1.0674843,0.55813 1.3852181,0.97711 0.4332848,0.57135 0.667758,1.22488 0.7235809,2.0168 l 0.046337,0.65735 0.3620364,-0.61487 c 0.1991198,-0.33817 0.5123618,-0.82231 0.6960928,-1.07586 l 0.334057,-0.46101 -0.281581,-0.24723 c -0.15487,-0.13598 -0.406629,-0.50138 -0.559466,-0.812 -0.2642857,-0.53712 -0.277648,-0.61056 -0.2730561,-1.50087 0.00485,-0.94069 0.1598738,-1.5831 0.4914511,-2.03656 0.107251,-0.14667 0.134052,-0.13736 0.464723,0.16138 0.542102,0.48975 0.80764,1.11535 0.850066,2.00273 0.03198,0.66889 -0.04356,1.31045 -0.203317,1.72677 -0.03295,0.0859 0.136077,-0.0511 0.375613,-0.30438 0.239536,-0.25327 0.494126,-0.6266 0.565756,-0.82963 0.410618,-1.16381 1.688417,-2.01185 3.17075,-2.10433 l 0.714081,-0.0445 -0.06246,0.28871 c -0.280451,1.29626 -1.594922,2.30799 -3.181857,2.44904 l -0.548871,0.0488 -0.617418,0.71712 c -0.33958,0.39442 -0.605106,0.72943 -0.590058,0.74448 0.01505,0.0151 0.201763,-0.0498 0.414923,-0.14408 0.526985,-0.23311 1.298717,-0.30201 1.949247,-0.17403 0.585222,0.11514 1.535099,0.51295 1.643462,0.68828 0.100568,0.16273 -0.562427,0.71832 -1.094904,0.91755 -0.963359,0.36044 -2.028399,0.28945 -3.073259,-0.20485 -0.397832,-0.1882 -0.498818,-0.20837 -0.563015,-0.11242 -0.430891,0.64402 -1.1770498,2.11389 -1.1770498,2.31869 0,0.0221 0.1242626,-0.0751 0.2761393,-0.21612 0.5482655,-0.509 1.4936585,-0.84341 2.3544135,-0.83281 0.644794,0.008 1.567464,0.25421 1.599771,0.427 0.03609,0.19304 -0.705396,0.98701 -1.119504,1.19874 -0.808077,0.41317 -1.881128,0.51946 -2.8076792,0.27813 -0.2734903,-0.0712 -0.5117018,-0.11508 -0.5293585,-0.0974 -0.1006155,0.10062 -0.2831837,1.45413 -0.280886,2.08242 l 0.0027,0.73597 0.1881135,-0.25489 c 0.4860026,-0.65855 1.2105852,-1.11801 2.1396762,-1.35677 0.536308,-0.13782 1.36763,-0.17491 1.436135,-0.0641 0.07218,0.11679 -0.247306,0.92961 -0.490966,1.24907 -0.528237,0.69255 -1.467486,1.18126 -2.577373,1.34106 -0.7293947,0.10501 -0.7170809,0.0673 -0.413077,1.2657 0.2300239,0.90678 0.6879231,2.06762 1.128307,2.86042 l 0.298478,0.53733 0.254569,-0.34616 c 0.140013,-0.19038 0.29453,-0.34616 0.343372,-0.34616 0.05482,0 0.07104,-0.13239 0.0424,-0.34594 -0.07176,-0.53501 0.08823,-1.42642 0.360695,-2.00959 0.642179,-1.37452 1.961243,-2.08852 3.602118,-1.94982 1.290449,0.10908 2.192899,0.53865 3.54074,1.68538 1.763359,1.50025 2.769658,2.11625 4.160805,2.54701 0.49329,0.15275 0.838781,0.19767 1.529386,0.19887 0.794804,10e-4 0.945869,-0.0236 1.384563,-0.22918 1.029848,-0.48254 1.929998,-1.65562 3.050236,-3.97509 1.957225,-4.05245 2.398221,-4.80371 3.319779,-5.65537 0.405718,-0.37495 1.308301,-0.94953 3.511644,-2.2355 5.17891,-3.02265 6.133822,-3.6078 8.913186,-5.46184 2.808026,-1.87315 3.473381,-2.27708 3.578198,-2.17226 0.03365,0.0336 0.06117,0.28945 0.06117,0.56846 0,1.08012 -0.987099,2.45868 -2.751873,3.84323 l -0.292739,0.22966 1.382422,0.004 1.382424,0.004 -0.164496,0.32244 c -0.358614,0.70293 -1.483189,1.47697 -2.915261,2.00653 -0.453589,0.16773 -0.883729,0.30497 -0.955867,0.30497 -0.07214,0 -0.13116,0.0343 -0.13116,0.0761 0,0.10419 1.307379,0.32983 2.315322,0.3996 0.455631,0.0315 0.828419,0.0731 0.828419,0.0924 0,0.14302 -0.304863,0.56083 -0.623592,0.85462 -0.649434,0.59863 -1.638623,1.02161 -2.902495,1.24112 -0.653468,0.11349 -0.66988,0.1219 -0.42483,0.21774 2.028901,0.79349 2.895104,1.13859 2.924579,1.16518 0.06612,0.0596 -0.372651,0.47085 -0.715465,0.67051 -0.648276,0.37756 -1.389648,0.56715 -2.440397,0.62407 l -0.995977,0.054 1.505773,0.88597 c 0.828174,0.48728 1.555051,0.92333 1.615282,0.96901 0.173428,0.13151 -0.274889,0.53626 -0.826141,0.74586 -0.560574,0.21314 -2.002451,0.30295 -2.953311,0.18394 -0.336143,-0.0421 -0.592613,-0.0465 -0.569932,-0.01 0.02268,0.0367 0.670494,0.54739 1.439586,1.13488 0.769093,0.58749 1.39835,1.09645 1.39835,1.13103 0,0.0346 -0.124263,0.13802 -0.276139,0.22988 -0.23799,0.14394 -0.428737,0.1665 -1.380697,0.1633 -0.949305,-0.003 -1.216436,-0.0366 -1.900535,-0.23777 -0.437788,-0.12874 -0.80882,-0.22123 -0.824516,-0.20553 -0.01569,0.0157 0.636326,0.58151 1.448937,1.25736 0.812611,0.67586 1.467361,1.26707 1.454999,1.3138 -0.01236,0.0467 -0.237128,0.19506 -0.499481,0.32962 -0.95155,0.48805 -2.136185,0.37811 -3.543985,-0.32893 -0.421334,-0.21161 -0.766062,-0.36024 -0.766062,-0.3303 0,0.03 0.50661,0.59452 1.125799,1.2546 0.619189,0.66008 1.19813,1.28539 1.286536,1.38958 l 0.160737,0.18944 -0.373152,0.16931 c -0.759661,0.34467 -1.650086,0.19682 -3.314849,-0.55041 -0.571107,-0.25634 -1.072387,-0.46608 -1.113956,-0.46608 -0.04157,0 0.576465,0.63498 1.373406,1.41107 0.796941,0.77609 1.429483,1.44262 1.405648,1.48119 -0.02383,0.0386 -0.259783,0.11505 -0.524329,0.16997 -0.654886,0.13595 -1.768116,-0.0118 -2.872198,-0.38122 -0.467313,-0.15636 -0.857161,-0.27758 -0.866329,-0.26938 -0.04268,0.0382 3.833899,3.31566 4.434898,3.74952 0.37385,0.26988 0.910711,0.59664 1.193026,0.72614 1.564742,0.71777 4.974898,1.31268 7.217246,1.25909 0.678302,-0.0162 0.824465,0.006 1.085159,0.16746 0.165698,0.10241 0.324182,0.2459 0.352185,0.31887 0.139817,0.36436 -0.01,0.81835 -0.370017,1.12152 -0.278536,0.23453 -3.540593,-0.0965 -5.271786,-0.53507 -1.180461,-0.299 -1.267117,-0.31513 -0.892142,-0.16603 0.760864,0.30255 3.045498,0.90908 4.606423,1.22292 1.455732,0.29269 1.690511,0.36266 1.9044,0.56758 0.282384,0.27054 0.317512,0.6035 0.102133,0.96811 -0.239118,0.40479 -0.447516,0.46657 -1.152845,0.34174 -1.516985,-0.26846 -4.379425,-1.21261 -6.076114,-2.00414 -0.432264,-0.20166 -0.785935,-0.35451 -0.785935,-0.33966 0,0.0634 1.295881,0.78881 2.285042,1.27912 1.769874,0.87728 3.812376,1.6257 4.869275,1.78419 0.445245,0.0668 0.747548,0.32741 0.954578,0.82302 0.267837,0.64118 -0.186419,1.24531 -1.04136,1.38492 -0.333463,0.0545 -0.44599,0.0191 -1.232005,-0.3874 -1.134124,-0.58649 -2.741592,-1.5139 -4.476075,-2.58241 -1.930899,-1.18951 -1.949646,-1.20054 -1.741802,-1.02455 0.506212,0.42861 3.424325,2.50052 4.809967,3.41514 1.426182,0.94138 1.60434,1.08479 1.650006,1.32822 0.106592,0.56818 -0.271556,1.03813 -0.823686,1.02365 -0.265413,-0.007 -0.492759,-0.11403 -1.041088,-0.49033 -0.969535,-0.66537 -3.08894,-2.36881 -4.498777,-3.61582 -0.647937,-0.57311 -1.144314,-0.9817 -1.10306,-0.90798 0.175741,0.31403 1.478682,1.73137 2.190024,2.38231 0.876581,0.80216 1.927915,1.65492 2.578763,2.0917 0.422639,0.28363 0.440732,0.31113 0.391375,0.59476 -0.109263,0.62788 -0.468315,0.91436 -1.01698,0.81143 -0.255016,-0.0478 -0.517428,-0.25499 -1.332019,-1.0515 -0.557942,-0.54557 -1.465404,-1.5081 -2.016583,-2.13897 -0.55118,-0.63088 -1.106096,-1.26175 -1.233148,-1.40194 l -0.231005,-0.2549 0.148772,0.2549 c 0.461454,0.79063 1.894591,2.68339 2.824353,3.73016 0.501378,0.56447 0.51651,0.59486 0.404287,0.81188 -0.178639,0.34545 -0.67025,0.5151 -1.063956,0.36716 z m -25.10357,-21.38873 c 0.32944,-0.32944 0.26808,-0.73195 -0.144069,-0.94508 -0.207343,-0.10723 -0.284111,-0.11001 -0.477484,-0.0173 -0.126731,0.0607 -0.280116,0.21412 -0.340856,0.34085 -0.09282,0.19367 -0.08984,0.27025 0.01868,0.48011 0.210689,0.40742 0.616872,0.4683 0.94373,0.14145 z m 9.29174,0.24736 c 0.491207,-0.55946 0.885994,-1.50268 1.118676,-2.67275 0.05111,-0.25702 0.124051,-1.84376 0.162086,-3.52609 0.092,-4.06946 0.172336,-4.38373 1.539082,-6.02117 0.908189,-1.08806 8.503601,-8.53004 9.842851,-9.64401 0.540913,-0.44992 0.547712,-0.4527 0.622859,-0.2542 0.119519,0.31571 0.02276,1.25832 -0.183758,1.79017 -0.231348,0.59578 -0.848211,1.5519 -1.487267,2.30521 -0.264091,0.31131 -0.468436,0.56602 -0.454099,0.56602 0.01433,0 0.7119,-0.22941 1.550143,-0.5098 0.838244,-0.28039 1.555682,-0.50979 1.594307,-0.50979 0.08299,0 -9.63e-4,0.50476 -0.159391,0.95835 -0.178958,0.51235 -0.681913,1.20517 -1.374274,1.89305 -0.353261,0.35097 -0.58789,0.62036 -0.521398,0.59862 0.429874,-0.14053 2.902994,-0.65376 2.945492,-0.61126 0.02868,0.0287 -0.01481,0.26454 -0.09664,0.52413 -0.112954,0.35833 -0.27518,0.60309 -0.673678,1.01642 -0.456338,0.47332 -0.907766,0.76801 -3.456221,2.25617 -1.612228,0.94145 -3.111129,1.84285 -3.33089,2.00312 -1.044961,0.76205 -1.697773,1.75573 -3.311721,5.04091 -0.700224,1.4253 -1.479975,2.90277 -1.732781,3.28326 -0.814081,1.22524 -1.647889,1.8147 -2.566952,1.8147 h -0.290761 z"
       id="path1726"
       inkscape:connector-curvature="0" />
  </g>
  <style
     type="text/css"
     id="style851">
	.st0{fill:#3A3A3A;}
</style>
</svg>
