<?xml version="1.0" encoding="UTF-8" standalone="no"?>
<!-- Created with Inkscape (http://www.inkscape.org/) -->

<svg
   xmlns:dc="http://purl.org/dc/elements/1.1/"
   xmlns:cc="http://creativecommons.org/ns#"
   xmlns:rdf="http://www.w3.org/1999/02/22-rdf-syntax-ns#"
   xmlns:svg="http://www.w3.org/2000/svg"
   xmlns="http://www.w3.org/2000/svg"
   xmlns:sodipodi="http://sodipodi.sourceforge.net/DTD/sodipodi-0.dtd"
   xmlns:inkscape="http://www.inkscape.org/namespaces/inkscape"
   width="200"
   height="200"
   viewBox="0 0 52.916665 52.916668"
   version="1.1"
   id="svg8"
   inkscape:version="0.92.4 (5da689c313, 2019-01-14)"
   sodipodi:docname="logo-56.svg">
  <defs
     id="defs2" />
  <sodipodi:namedview
     id="base"
     pagecolor="#ffffff"
     bordercolor="#666666"
     borderopacity="1.0"
     inkscape:pageopacity="0.0"
     inkscape:pageshadow="2"
     inkscape:zoom="3.53"
     inkscape:cx="88.005013"
     inkscape:cy="114.35496"
     inkscape:document-units="px"
     inkscape:current-layer="layer1"
     showgrid="true"
     units="px"
     inkscape:window-width="1781"
     inkscape:window-height="1082"
     inkscape:window-x="2126"
     inkscape:window-y="236"
     inkscape:window-maximized="0"
     showguides="false"
     inkscape:snap-global="true">
    <inkscape:grid
       type="xygrid"
       id="grid912" />
  </sodipodi:namedview>
  <metadata
     id="metadata5">
    <rdf:RDF>
      <cc:Work
         rdf:about="">
        <dc:format>image/svg+xml</dc:format>
        <dc:type
           rdf:resource="http://purl.org/dc/dcmitype/StillImage" />
        <dc:title></dc:title>
      </cc:Work>
    </rdf:RDF>
  </metadata>
  <g
     inkscape:label="Layer 1"
     inkscape:groupmode="layer"
     id="layer1"
     transform="translate(0,-244.08332)">
    <g
       style="fill:#ff00ff;stroke:none"
       id="g838"
       transform="matrix(0.01550293,0,0,0.01550293,75.671074,250.18703)" />
    <g
       style="fill:#ff00ff;stroke:none"
       id="g840"
       transform="matrix(0.01550293,0,0,0.01550293,75.671074,250.18703)" />
    <g
       style="fill:#ff00ff;stroke:none"
       id="g842"
       transform="matrix(0.01550293,0,0,0.01550293,75.671074,250.18703)" />
    <g
       style="fill:#ff00ff;stroke:none"
       id="g844"
       transform="matrix(0.01550293,0,0,0.01550293,75.671074,250.18703)" />
    <g
       style="fill:#ff00ff;stroke:none"
       id="g846"
       transform="matrix(0.01550293,0,0,0.01550293,75.671074,250.18703)" />
    <g
       style="fill:#ff00ff;stroke:none"
       id="g848"
       transform="matrix(0.01550293,0,0,0.01550293,75.671074,250.18703)" />
    <g
       style="fill:#ff00ff;stroke:none"
       id="g850"
       transform="matrix(0.01550293,0,0,0.01550293,75.671074,250.18703)" />
    <g
       style="fill:#ff00ff;stroke:none"
       id="g852"
       transform="matrix(0.01550293,0,0,0.01550293,75.671074,250.18703)" />
    <g
       style="fill:#ff00ff;stroke:none"
       id="g854"
       transform="matrix(0.01550293,0,0,0.01550293,75.671074,250.18703)" />
    <g
       style="fill:#ff00ff;stroke:none"
       id="g856"
       transform="matrix(0.01550293,0,0,0.01550293,75.671074,250.18703)" />
    <g
       style="fill:#ff00ff;stroke:none"
       id="g858"
       transform="matrix(0.01550293,0,0,0.01550293,75.671074,250.18703)" />
    <g
       style="fill:#ff00ff;stroke:none"
       id="g860"
       transform="matrix(0.01550293,0,0,0.01550293,75.671074,250.18703)" />
    <g
       style="fill:#ff00ff;stroke:none"
       id="g862"
       transform="matrix(0.01550293,0,0,0.01550293,75.671074,250.18703)" />
    <g
       style="fill:#ff00ff;stroke:none"
       id="g864"
       transform="matrix(0.01550293,0,0,0.01550293,75.671074,250.18703)" />
    <g
       style="fill:#ff00ff;stroke:none"
       id="g866"
       transform="matrix(0.01550293,0,0,0.01550293,75.671074,250.18703)" />
    <path
       style="fill:#ff00ff;stroke-width:0.11292067"
       d="m 37.822881,287.90786 c -0.13245,-0.34516 -0.06583,-0.62481 0.215997,-0.90663 0.222058,-0.22206 0.377034,-0.27673 0.705755,-0.24894 0.399753,0.0338 0.472018,-0.0177 1.418234,-1.00896 1.125056,-1.17869 1.12825,-1.19192 0.570868,-2.36357 -0.357134,-0.75072 -0.834805,-1.16284 -2.062294,-1.77932 -0.60518,-0.30395 -1.193157,-0.70317 -1.512116,-1.02669 -0.551243,-0.55915 -1.337709,-1.94834 -1.532287,-2.7066 -0.06376,-0.24842 -0.170004,-0.65985 -0.23612,-0.91427 l -0.120211,-0.46259 -1.38359,0.0503 c -1.573802,0.0572 -2.96887,-0.16984 -4.289684,-0.69825 l -0.759553,-0.30387 -0.48205,0.33077 c -2.476277,1.69919 -6.121211,2.35885 -8.982786,1.62572 -1.027266,-0.26319 -0.923405,-0.1491 0.28599,0.31414 1.398596,0.53572 1.391582,0.52194 1.08849,2.13827 -0.285121,1.52048 -0.09249,2.40713 0.693795,3.19342 l 0.384261,0.38425 -0.567035,1.12327 c -0.352302,0.6979 -0.66044,1.51883 -0.813686,2.16779 l -0.246652,1.04452 h -2.526241 -2.526244 l 0.07622,-0.30365 c 0.201219,-0.80172 0.849685,-1.27724 1.741781,-1.27724 h 0.562597 l 0.422633,-1.28412 0.422634,-1.28412 -0.1886,-0.76426 c -0.276547,-1.12065 -0.699438,-1.86524 -1.713372,-3.01678 -1.465915,-1.66486 -1.809439,-2.09774 -2.233192,-2.81405 -0.354587,-0.59939 -0.972081,-2.30002 -1.151456,-3.1712 -0.0374,-0.18165 -0.190525,-0.37452 -0.372413,-0.46909 -0.521885,-0.27133 -1.316703,-1.14047 -1.625997,-1.77804 -0.355612,-0.73304 -0.545591,-1.58197 -0.547542,-2.44669 l -0.0015,-0.64374 -0.259401,0.56079 c -0.22652,0.48969 -0.272257,0.53264 -0.3608223,0.33875 -0.055786,-0.1221 -0.1040916,-0.9172 -0.1073602,-1.76687 -0.00564,-1.45967 -0.020493,-1.56037 -0.2698987,-1.82585 -0.393103,-0.41843 -1.3209885,-0.77358 -2.2663068,-0.86743 -0.8587031,-0.0852 -1.1932922,-0.28346 -1.0608895,-0.62849 0.035431,-0.0924 -0.2019439,-0.44228 -0.568733,-0.83845 -0.6624026,-0.71548 -0.9755574,-1.43925 -0.9755574,-2.25474 0,-0.69807 0.1261761,-0.76947 1.9539014,-1.10559 L 8.29194,259.91278 8.4629299,259.3249 c 0.170777,-0.58715 0.4369996,-0.83431 1.6830081,-1.5625 0.175981,-0.10289 0.182758,-0.15297 0.05337,-0.39474 -0.189927,-0.35488 -0.191529,-1.43712 -0.0027,-1.80282 0.20518,-0.39729 0.685098,-0.89487 1.043931,-1.08233 0.318855,-0.16658 0.696688,-0.22407 0.478976,-0.0729 -0.471679,0.32756 -0.656428,1.24661 -0.335807,1.6705 0.163128,0.21569 0.165846,0.21547 0.16938,-0.0127 0.0072,-0.46546 0.566679,-1.37444 1.037891,-1.68627 0.837136,-0.55399 1.607788,-0.75208 3.087305,-0.79359 1.380143,-0.0387 1.982763,-0.13235 2.868861,-0.44581 0.27364,-0.0968 0.517337,-0.15619 0.541548,-0.13198 0.02422,0.0243 -0.247929,0.30424 -0.604759,0.62227 l -0.648779,0.57824 0.558913,0.002 c 0.905704,0.004 2.064079,0.64702 2.533274,1.40619 0.125176,0.20254 0.227594,0.39224 0.227594,0.42154 0,0.0293 -0.368404,0.11996 -0.818675,0.20148 l -0.818675,0.14821 0.798623,0.24587 c 0.88521,0.27254 1.636854,0.74003 2.174628,1.35251 0.406825,0.46336 0.529375,0.83679 0.419077,1.27701 -0.225643,0.90058 -0.213748,1.02817 0.103273,1.10774 0.165483,0.0415 0.500206,0.0487 0.743827,0.0161 0.406647,-0.0546 0.433619,-0.042 0.329123,0.15327 -0.14721,0.27507 -0.892941,0.7816 -1.150686,0.7816 -0.347089,0 -0.222362,0.40197 0.30764,0.99146 0.518742,0.57697 1.095407,0.88542 1.918559,1.02622 l 0.449714,0.0769 -0.430708,0.26619 c -0.236891,0.14641 -0.65718,0.29172 -0.933979,0.32292 -0.2768,0.0312 -0.488609,0.0992 -0.470688,0.15095 0.06954,0.20109 1.421843,1.26495 2.076483,1.63357 1.710957,0.96342 2.967999,1.12835 5.212132,0.68386 0.888644,-0.176 1.875339,-0.29619 2.427795,-0.29571 1.477533,10e-4 3.239182,0.50962 4.47974,1.29275 0.244083,0.15409 1.146055,0.63675 2.004381,1.07259 1.830806,0.92964 3.131633,1.87318 4.38656,3.18175 1.964811,2.04879 3.177808,4.30567 3.716899,6.91557 0.220718,1.06855 0.224722,2.86965 0.0082,3.68334 -0.232182,0.87252 -0.800395,1.94353 -1.267488,2.38905 l -0.396678,0.37837 0.05327,-0.95983 c 0.06249,-1.1258 0.361145,-1.99631 0.94903,-2.76624 l 0.404558,-0.52984 -0.192938,-0.97149 c -0.64724,-3.25905 -2.557474,-6.07152 -5.342237,-7.86546 -0.822999,-0.53017 -2.045175,-1.12834 -2.1307,-1.0428 -0.02501,0.025 0.229264,0.97992 0.565031,2.12204 0.335766,1.14213 0.72425,2.58473 0.863295,3.20579 0.139046,0.62107 0.307557,1.19722 0.374468,1.28033 0.06692,0.0831 0.556339,0.3731 1.087616,0.64441 0.531278,0.27131 1.030324,0.53713 1.108991,0.5907 0.113702,0.0775 0.06153,0.76732 -0.254415,3.36427 -0.218595,1.79678 -0.427851,3.46148 -0.465011,3.69934 -0.04764,0.30491 -0.267214,0.67126 -0.744483,1.24213 -0.799924,0.95678 -0.8041,0.95805 -3.212097,0.97067 -1.357203,0.007 -1.607332,-0.0184 -1.66558,-0.17025 z m -25.927613,-0.90713 c 4.52e-4,-0.69218 0.914927,-1.39059 1.827882,-1.39603 0.412612,-0.002 0.423353,-0.0147 1.268446,-1.44221 0.46877,-0.79187 0.853171,-1.55462 0.854222,-1.69502 0.001,-0.14039 -0.101357,-0.71888 -0.227576,-1.28553 -0.126218,-0.56664 -0.210259,-1.04949 -0.186756,-1.07299 0.08161,-0.0816 0.989533,1.30842 1.330433,2.0369 0.476697,1.01868 0.530176,1.74112 0.196736,2.65768 l -0.26402,0.72575 -0.63682,0.12647 c -0.77575,0.15407 -1.339509,0.56304 -1.613402,1.17043 l -0.205569,0.45587 -1.171908,0.0352 -1.171906,0.0352 2.25e-4,-0.35176 z m 17.239461,0.22002 c -0.0414,-0.0414 -0.07528,-0.2622 -0.07528,-0.49064 0,-0.56221 0.316706,-0.83842 0.965984,-0.84248 0.485353,-0.003 0.516749,-0.0264 1.290167,-0.96019 0.882579,-1.06559 0.938689,-1.27691 0.622108,-2.34296 -0.184227,-0.62035 -0.683826,-1.1554 -1.331568,-1.42605 -0.582405,-0.24334 -1.057776,-0.87418 -1.209508,-1.60507 -0.124708,-0.60072 -0.123572,-2.44852 0.0016,-2.56858 0.03106,-0.0298 0.437567,0.0465 0.903364,0.1695 0.546884,0.14443 1.396911,0.2459 2.399464,0.28644 l 1.552559,0.0628 0.116845,0.46413 c 0.196014,0.77859 0.55718,1.68388 0.848684,2.12727 0.15224,0.23157 0.2768,0.47467 0.2768,0.54022 0,0.0655 -0.327813,1.26392 -0.728471,2.66306 -0.712078,2.48663 -0.741743,2.56024 -1.318304,3.27085 l -0.589833,0.72699 h -1.824655 c -1.00356,0 -1.858531,-0.0338 -1.899935,-0.0753 z"
       id="path1494"
       inkscape:connector-curvature="0" />
  </g>
  <style
     type="text/css"
     id="style851">
	.st0{fill:#3A3A3A;}
</style>
</svg>
