<?xml version="1.0" encoding="UTF-8" standalone="no"?>
<!-- Created with Inkscape (http://www.inkscape.org/) -->

<svg
   xmlns:dc="http://purl.org/dc/elements/1.1/"
   xmlns:cc="http://creativecommons.org/ns#"
   xmlns:rdf="http://www.w3.org/1999/02/22-rdf-syntax-ns#"
   xmlns:svg="http://www.w3.org/2000/svg"
   xmlns="http://www.w3.org/2000/svg"
   xmlns:sodipodi="http://sodipodi.sourceforge.net/DTD/sodipodi-0.dtd"
   xmlns:inkscape="http://www.inkscape.org/namespaces/inkscape"
   width="200"
   height="200"
   viewBox="0 0 52.916665 52.916668"
   version="1.1"
   id="svg8"
   inkscape:version="0.92.4 (5da689c313, 2019-01-14)"
   sodipodi:docname="logo-86.svg">
  <defs
     id="defs2" />
  <sodipodi:namedview
     id="base"
     pagecolor="#ffffff"
     bordercolor="#666666"
     borderopacity="1.0"
     inkscape:pageopacity="0.0"
     inkscape:pageshadow="2"
     inkscape:zoom="0.76201582"
     inkscape:cx="88.005013"
     inkscape:cy="101.97373"
     inkscape:document-units="px"
     inkscape:current-layer="layer1"
     showgrid="true"
     units="px"
     inkscape:window-width="1780"
     inkscape:window-height="1082"
     inkscape:window-x="2127"
     inkscape:window-y="236"
     inkscape:window-maximized="0"
     showguides="false"
     inkscape:snap-global="false">
    <inkscape:grid
       type="xygrid"
       id="grid912" />
  </sodipodi:namedview>
  <metadata
     id="metadata5">
    <rdf:RDF>
      <cc:Work
         rdf:about="">
        <dc:format>image/svg+xml</dc:format>
        <dc:type
           rdf:resource="http://purl.org/dc/dcmitype/StillImage" />
        <dc:title></dc:title>
      </cc:Work>
    </rdf:RDF>
  </metadata>
  <g
     inkscape:label="Layer 1"
     inkscape:groupmode="layer"
     id="layer1"
     transform="translate(0,-244.08332)">
    <path
       inkscape:connector-curvature="0"
       id="path1680"
       d="m 25.930584,291.43266 c -0.219801,-0.26648 -0.519674,-0.79999 -0.666383,-1.18557 -0.24542,-0.64502 -0.261433,-0.88256 -0.200332,-2.97204 0.0739,-2.52717 0.03921,-2.63504 -0.682093,-2.12143 -0.219237,0.15611 -0.751841,0.39471 -1.18357,0.53021 -0.926781,0.29089 -2.936994,0.45976 -3.062159,0.25724 -0.0476,-0.077 0.232172,-0.31494 0.650745,-0.55351 1.316621,-0.75041 2.403547,-2.10128 2.884516,-3.58498 0.06582,-0.20303 0.311941,-0.22306 2.741541,-0.22306 h 2.66923 l 0.510414,0.93 c 0.652677,1.18921 1.488179,2.11515 2.521678,2.79464 0.758829,0.4989 0.797656,0.54648 0.530048,0.64959 -0.409205,0.15765 -2.083085,0.0173 -2.838043,-0.23801 -0.35053,-0.11853 -0.849054,-0.38068 -1.107839,-0.58256 -0.842483,-0.65723 -0.867857,-0.59576 -0.867857,2.10214 0,1.43424 -0.05943,2.29826 -0.194364,2.82566 -0.210088,0.82117 -0.776502,1.75424 -1.103083,1.81714 -0.11182,0.0215 -0.382104,-0.17832 -0.602449,-0.44546 z m -5.365568,-11.31898 v -0.57359 h 5.863355 5.863357 v 0.57359 0.57359 h -5.863357 -5.863355 z m 1.340526,-2.07129 c -0.15593,-1.22295 -0.597096,-2.95634 -0.914544,-3.59338 -0.6477,-1.29977 -2.155313,-2.62824 -3.411768,-3.00638 -1.036341,-0.31189 -1.924977,0.14877 -2.446173,1.26807 -0.374574,0.80442 -0.381607,1.40776 -0.03021,2.59327 0.150982,0.5094 0.242761,0.95793 0.203951,0.99674 -0.229503,0.2295 -2.717709,-1.44352 -3.737477,-2.51301 -1.405934,-1.47448 -2.0607353,-2.96415 -2.1826627,-4.96554 -0.072615,-1.19188 -0.061106,-1.26672 0.3202128,-2.08157 0.4848569,-1.03612 1.5376649,-2.12709 2.4728229,-2.56245 1.193027,-0.55541 3.270951,-0.37453 4.712867,0.41026 1.274213,0.69351 2.686487,2.21024 3.774429,4.05358 1.319835,2.23625 2.583906,6.26766 2.887599,9.20921 l 0.08225,0.79665 h -0.827038 -0.827034 z m 3.318934,-0.70106 c -0.223375,-3.46546 -0.896208,-6.68455 -1.967356,-9.41255 -1.446185,-3.68315 -1.733523,-5.14293 -1.638338,-8.32334 0.0721,-2.40912 0.251322,-3.30142 1.037551,-5.16564 0.748541,-1.77485 3.287528,-5.23621 3.840886,-5.23621 0.228761,0 1.555369,1.57756 2.439519,2.901 1.487731,2.2269 2.190896,4.38289 2.299074,7.04919 0.120395,2.9674 -0.311662,5.30822 -1.663244,9.01121 -1.163081,3.18654 -1.683906,5.67519 -1.827074,8.73022 l -0.08214,1.75263 h -1.177336 -1.177332 z m 4.197891,0.57359 c 0.385177,-3.49979 1.762731,-7.59868 3.394925,-10.10154 0.696051,-1.06735 2.414743,-2.7702 3.244174,-3.21428 1.488526,-0.79696 3.543636,-0.97936 4.743066,-0.42096 0.886404,0.41267 1.990788,1.53101 2.423245,2.45387 0.305053,0.65098 0.343614,0.88133 0.336454,2.00989 -0.01296,2.04281 -0.705495,3.68099 -2.198021,5.1994 -1.039169,1.05719 -3.470184,2.67801 -3.688782,2.45941 -0.03881,-0.0388 0.05297,-0.48734 0.203952,-0.99674 0.351376,-1.18551 0.344343,-1.78885 -0.03023,-2.59327 -0.337919,-0.7257 -0.788619,-1.1386 -1.438821,-1.31813 -1.276591,-0.35248 -3.581078,1.29844 -4.487577,3.21487 -0.345989,0.73146 -0.647084,1.95838 -0.842966,3.43495 l -0.08032,0.60545 H 30.171591 29.34171 Z"
       style="fill:#ff00ff;stroke-width:0.12746428" />
  </g>
  <style
     type="text/css"
     id="style851">
	.st0{fill:#3A3A3A;}
</style>
</svg>
