<?xml version="1.0" encoding="UTF-8" standalone="no"?>
<!-- Created with Inkscape (http://www.inkscape.org/) -->

<svg
   xmlns:dc="http://purl.org/dc/elements/1.1/"
   xmlns:cc="http://creativecommons.org/ns#"
   xmlns:rdf="http://www.w3.org/1999/02/22-rdf-syntax-ns#"
   xmlns:svg="http://www.w3.org/2000/svg"
   xmlns="http://www.w3.org/2000/svg"
   xmlns:sodipodi="http://sodipodi.sourceforge.net/DTD/sodipodi-0.dtd"
   xmlns:inkscape="http://www.inkscape.org/namespaces/inkscape"
   width="200"
   height="200"
   viewBox="0 0 52.916665 52.916668"
   version="1.1"
   id="svg8"
   inkscape:version="0.92.4 (5da689c313, 2019-01-14)"
   sodipodi:docname="logo-85.svg">
  <defs
     id="defs2" />
  <sodipodi:namedview
     id="base"
     pagecolor="#ffffff"
     bordercolor="#666666"
     borderopacity="1.0"
     inkscape:pageopacity="0.0"
     inkscape:pageshadow="2"
     inkscape:zoom="2.3067968"
     inkscape:cx="88.005013"
     inkscape:cy="101.97373"
     inkscape:document-units="px"
     inkscape:current-layer="layer1"
     showgrid="true"
     units="px"
     inkscape:window-width="1780"
     inkscape:window-height="1082"
     inkscape:window-x="2127"
     inkscape:window-y="236"
     inkscape:window-maximized="0"
     showguides="false"
     inkscape:snap-global="false">
    <inkscape:grid
       type="xygrid"
       id="grid912" />
  </sodipodi:namedview>
  <metadata
     id="metadata5">
    <rdf:RDF>
      <cc:Work
         rdf:about="">
        <dc:format>image/svg+xml</dc:format>
        <dc:type
           rdf:resource="http://purl.org/dc/dcmitype/StillImage" />
        <dc:title></dc:title>
      </cc:Work>
    </rdf:RDF>
  </metadata>
  <g
     inkscape:label="Layer 1"
     inkscape:groupmode="layer"
     id="layer1"
     transform="translate(0,-244.08332)">
    <g
       style="fill:#ff00ff;stroke:none"
       id="g838"
       transform="matrix(0.01550293,0,0,0.01550293,75.671074,250.18703)" />
    <g
       style="fill:#ff00ff;stroke:none"
       id="g840"
       transform="matrix(0.01550293,0,0,0.01550293,75.671074,250.18703)" />
    <g
       style="fill:#ff00ff;stroke:none"
       id="g842"
       transform="matrix(0.01550293,0,0,0.01550293,75.671074,250.18703)" />
    <g
       style="fill:#ff00ff;stroke:none"
       id="g844"
       transform="matrix(0.01550293,0,0,0.01550293,75.671074,250.18703)" />
    <g
       style="fill:#ff00ff;stroke:none"
       id="g846"
       transform="matrix(0.01550293,0,0,0.01550293,75.671074,250.18703)" />
    <g
       style="fill:#ff00ff;stroke:none"
       id="g848"
       transform="matrix(0.01550293,0,0,0.01550293,75.671074,250.18703)" />
    <g
       style="fill:#ff00ff;stroke:none"
       id="g850"
       transform="matrix(0.01550293,0,0,0.01550293,75.671074,250.18703)" />
    <g
       style="fill:#ff00ff;stroke:none"
       id="g852"
       transform="matrix(0.01550293,0,0,0.01550293,75.671074,250.18703)" />
    <g
       style="fill:#ff00ff;stroke:none"
       id="g854"
       transform="matrix(0.01550293,0,0,0.01550293,75.671074,250.18703)" />
    <g
       style="fill:#ff00ff;stroke:none"
       id="g856"
       transform="matrix(0.01550293,0,0,0.01550293,75.671074,250.18703)" />
    <g
       style="fill:#ff00ff;stroke:none"
       id="g858"
       transform="matrix(0.01550293,0,0,0.01550293,75.671074,250.18703)" />
    <g
       style="fill:#ff00ff;stroke:none"
       id="g860"
       transform="matrix(0.01550293,0,0,0.01550293,75.671074,250.18703)" />
    <g
       style="fill:#ff00ff;stroke:none"
       id="g862"
       transform="matrix(0.01550293,0,0,0.01550293,75.671074,250.18703)" />
    <g
       style="fill:#ff00ff;stroke:none"
       id="g864"
       transform="matrix(0.01550293,0,0,0.01550293,75.671074,250.18703)" />
    <g
       style="fill:#ff00ff;stroke:none"
       id="g866"
       transform="matrix(0.01550293,0,0,0.01550293,75.671074,250.18703)" />
    <path
       style="fill:#ff00ff;stroke-width:0.05619228"
       d="m 26.376867,290.56464 c -0.01393,-0.0412 -0.05179,-0.17836 -0.08408,-0.30481 -0.08319,-0.32563 -0.221159,-0.42962 -0.586939,-0.44239 -0.331817,-0.0116 -0.737777,-0.20357 -0.511821,-0.24205 0.222937,-0.038 0.42686,-0.14273 0.483382,-0.24835 0.05891,-0.11007 0.217315,-0.60152 0.218412,-0.67762 0.0012,-0.0794 -0.19604,-0.0414 -0.364641,0.0703 -0.108461,0.0718 -0.263704,0.11178 -0.435329,0.11201 -0.227137,3.2e-4 -0.299688,-0.0294 -0.488547,-0.20001 -0.218553,-0.19745 -0.366315,-0.49933 -0.33061,-0.67545 0.01475,-0.0727 0.06026,-0.0566 0.236704,0.0838 0.186679,0.14859 0.483956,0.23745 0.483956,0.14466 0,-0.016 -0.06322,-0.12935 -0.140481,-0.25175 -0.07727,-0.12239 -0.140481,-0.23568 -0.140481,-0.25175 0,-0.016 0.09552,-0.0292 0.212266,-0.0292 0.247328,0 0.429663,-0.11154 0.544115,-0.33287 0.08633,-0.16695 0.217068,-0.98902 0.223278,-1.40398 0.0042,-0.2797 -0.105154,-0.37393 -0.153484,-0.13229 -0.06672,0.33362 -0.282935,0.81885 -0.449293,1.00832 -0.09544,0.1087 -0.306635,0.27276 -0.469334,0.36458 -0.310201,0.17507 -0.389922,0.30157 -0.332993,0.52839 0.01883,0.075 0.02743,0.13612 0.01912,0.13576 -0.0083,-3.2e-4 -0.153184,-0.0374 -0.321932,-0.0823 -0.276538,-0.0736 -0.316737,-0.0727 -0.407393,0.01 -0.135352,0.1225 -0.126889,0.19739 0.04301,0.38072 0.07898,0.0853 0.131867,0.16666 0.117533,0.181 -0.05869,0.0587 -0.557421,-0.0601 -0.724205,-0.17249 -0.09996,-0.0674 -0.2158,-0.21705 -0.262077,-0.33864 -0.07403,-0.19452 -0.07325,-0.24484 0.0073,-0.46894 l 0.09027,-0.25104 -0.486966,0.0392 c -0.542431,0.0436 -0.783374,0.1475 -0.899382,0.38761 -0.06581,0.13622 -0.06296,0.16936 0.02276,0.26408 0.05391,0.0596 0.170606,0.10831 0.259326,0.10831 0.160543,0 0.160903,-8e-4 0.07558,-0.16579 -0.115053,-0.22249 -0.110379,-0.23559 0.0688,-0.19278 0.21592,0.0516 0.295008,0.12636 0.295008,0.27897 0,0.49542 -0.946151,0.47383 -1.205406,-0.0275 -0.110203,-0.21311 -0.110169,-0.40292 1.13e-4,-0.66734 0.176752,-0.42377 0.630307,-0.76507 1.101793,-0.82908 0.134185,-0.0182 0.301906,-0.0449 0.372713,-0.0593 l 0.12874,-0.0263 -0.168653,-0.23716 c -0.1487,-0.20911 -0.327026,-0.7482 -0.267265,-0.80797 0.01212,-0.0122 0.13942,0.0283 0.28287,0.0897 l 0.260818,0.1118 v -0.19926 -0.19926 l 0.182625,0.11223 c 0.179517,0.11031 0.185973,0.11042 0.379298,0.007 0.118619,-0.0635 0.314862,-0.10622 0.494474,-0.10764 0.16379,-9.7e-4 0.378724,-0.0433 0.477634,-0.0932 0.218629,-0.11046 0.4327,-0.30007 0.4327,-0.38324 0,-0.0336 -0.05689,-0.0861 -0.126433,-0.11664 -0.101288,-0.0444 -0.12984,-0.10855 -0.143561,-0.32238 -0.0094,-0.1468 -0.0018,-0.26691 0.01684,-0.26691 0.01868,0 0.107148,0.0378 0.196593,0.0841 0.196829,0.10179 0.356343,0.0526 0.573359,-0.17678 0.190135,-0.20097 0.288313,-0.43743 0.409111,-0.98535 0.153975,-0.69841 0.10016,-0.70474 -0.34698,-0.0408 -0.573338,0.85131 -0.666436,0.91947 -2.178087,1.5947 -1.187311,0.53034 -1.349044,0.66804 -1.127955,0.96035 0.129815,0.17163 0.101959,0.20883 -0.124646,0.16649 -0.25991,-0.0486 -0.33464,-0.10829 -0.454368,-0.36312 -0.09364,-0.19932 -0.09543,-0.20009 -0.500084,-0.21651 l -0.406102,-0.0165 -0.03717,0.23242 c -0.02044,0.12784 -0.09992,0.307 -0.176624,0.39816 -0.0767,0.0911 -0.129278,0.17592 -0.116839,0.18836 0.01244,0.0125 0.122344,1.1e-4 0.244233,-0.0273 0.121886,-0.0275 0.23051,-0.0411 0.241382,-0.0302 0.04725,0.0472 -0.16608,0.36264 -0.266934,0.39465 -0.06109,0.0194 -0.206762,0.009 -0.323721,-0.0238 -0.307552,-0.0854 -0.320749,-0.0818 -0.607689,0.16656 -0.572271,0.49529 -0.960701,0.57179 -1.304326,0.25689 -0.177294,-0.16249 -0.208619,-0.22666 -0.208619,-0.42742 0,-0.30899 0.207579,-0.50524 0.534406,-0.50524 0.210657,0 0.287362,0.0652 0.165444,0.14047 -0.03091,0.0191 -0.05619,0.0838 -0.05619,0.1438 0,0.1432 0.228992,0.14725 0.35654,0.007 0.09568,-0.10573 0.114017,-0.2347 0.06128,-0.43106 -0.02746,-0.10225 -0.0777,-0.11239 -0.556848,-0.11239 -0.447021,0 -0.550684,-0.0179 -0.685501,-0.11794 -0.212025,-0.15744 -0.243793,-0.42588 -0.06521,-0.55096 0.179237,-0.12555 0.205904,-0.11458 0.225912,0.0929 0.01653,0.17141 0.03227,0.18368 0.256425,0.19989 0.218514,0.0158 0.238816,0.006 0.238816,-0.11561 0,-0.10106 -0.05385,-0.15666 -0.224769,-0.23207 -0.254453,-0.11226 -0.292592,-0.20342 -0.08511,-0.20342 0.07681,0 0.293543,-0.0806 0.481625,-0.17925 0.378786,-0.19856 0.563234,-0.21478 1.495916,-0.13159 l 0.515721,0.046 0.03242,-0.21878 c 0.01782,-0.12032 0.08492,-0.37049 0.149107,-0.55593 0.177894,-0.51396 0.184903,-0.61368 0.07872,-1.11968 -0.05944,-0.28324 -0.08347,-0.54885 -0.06066,-0.67045 0.110476,-0.58888 1.086932,-1.04292 1.516393,-0.70511 0.185529,0.14594 0.371208,0.50033 0.371417,0.7089 1.12e-4,0.0862 -0.05647,0.26368 -0.125674,0.39434 -0.120277,0.22708 -0.121451,0.24195 -0.02658,0.33681 0.07374,0.0738 0.213252,0.10442 0.542973,0.1194 0.401878,0.0182 0.471668,0.005 0.739955,-0.14014 0.162923,-0.0882 0.444098,-0.29684 0.624832,-0.46375 0.32066,-0.2961 0.650897,-0.76454 0.585255,-0.83019 -0.01806,-0.0181 -0.06311,0.0337 -0.100136,0.11492 -0.03702,0.0813 -0.08222,0.14715 -0.10044,0.14642 -0.01822,-8e-4 -0.08841,-0.12716 -0.155975,-0.28097 -0.10925,-0.24868 -0.142089,-0.27963 -0.296766,-0.27963 -0.202529,0 -0.278831,0.12821 -0.175126,0.29426 0.05878,0.0942 0.05165,0.1231 -0.04732,0.19243 -0.169105,0.11844 -0.14482,0.17462 0.108249,0.25045 0.123622,0.0371 0.224769,0.0846 0.224769,0.10565 0,0.0726 -0.421883,0.17721 -0.640629,0.15892 -0.310558,-0.026 -0.457532,-0.23504 -0.447941,-0.63715 0.0093,-0.38702 0.143638,-0.60443 0.586083,-0.94802 0.310012,-0.24074 0.336166,-0.27667 0.263309,-0.36169 -0.130348,-0.15211 -0.150722,-0.26803 -0.08484,-0.48268 0.06561,-0.2138 0.123442,-0.2538 0.174508,-0.12073 0.04635,0.12078 0.290128,0.26334 0.386847,0.22623 0.08379,-0.0322 0.212201,-0.25732 0.212201,-0.3721 0,-0.0327 -0.03793,-0.0442 -0.08429,-0.0255 -0.04636,0.0187 -0.122101,0.0494 -0.168312,0.0681 -0.07014,0.0284 -0.07816,-0.009 -0.04856,-0.22477 0.02061,-0.15038 0.01317,-0.25878 -0.01775,-0.25878 -0.02927,0 -0.304947,0.21087 -0.612623,0.46861 -0.549635,0.46042 -0.697744,0.6506 -0.698366,0.8967 -0.0012,0.42645 -0.266438,0.82619 -0.548459,0.82619 -0.184232,0 -0.477945,-0.2304 -0.345631,-0.27112 0.123888,-0.0381 0.276288,-0.18785 0.276288,-0.27142 0,-0.0481 -0.06767,-0.0756 -0.186077,-0.0756 -0.108351,0 -0.236423,-0.0469 -0.306602,-0.11229 l -0.120524,-0.11228 0.138025,-0.13803 c 0.282129,-0.28213 0.146757,-0.4241 -0.404396,-0.4241 -0.489931,0 -0.66009,0.0684 -0.77539,0.31128 -0.133541,0.28143 -0.114151,0.36303 0.08627,0.36303 0.213147,0 0.195818,0.0939 -0.04779,0.25904 -0.130942,0.0887 -0.158817,0.13467 -0.110862,0.18263 0.108763,0.10876 0.408959,0.0711 0.63035,-0.0792 0.245,-0.16626 0.284942,-0.15444 0.189092,0.0559 -0.0936,0.20544 -0.321034,0.31211 -0.665473,0.31211 -0.678047,0 -1.167941,-0.54272 -1.012147,-1.1213 0.07397,-0.27466 0.266422,-0.50817 0.656158,-0.79608 0.164889,-0.12181 0.299799,-0.244 0.299799,-0.27153 0,-0.0275 -0.09482,-0.0803 -0.210722,-0.11726 -0.115895,-0.037 -0.296528,-0.10672 -0.401405,-0.15506 -0.182139,-0.0839 -0.195159,-0.0824 -0.290577,0.0354 -0.05494,0.0679 -0.11107,0.15463 -0.124729,0.19284 -0.04089,0.11442 -0.103927,0.009 -0.135546,-0.22682 -0.04026,-0.3001 0.05129,-0.44609 0.326158,-0.5201 0.180672,-0.0487 0.280207,-0.0441 0.472237,0.0212 0.260999,0.0889 0.308391,0.0758 0.308391,-0.0852 0,-0.14762 0.200763,-0.32779 0.365249,-0.32779 0.165475,0 0.169446,0.0159 0.04955,0.19893 -0.0751,0.11462 -0.07827,0.15403 -0.01822,0.2264 0.0918,0.11061 0.267076,0.0701 0.573011,-0.13254 0.210669,-0.13952 0.289375,-0.15492 0.936673,-0.18326 0.388674,-0.017 0.751867,-0.0517 0.807095,-0.0771 0.05523,-0.0254 0.13566,-0.11427 0.178739,-0.19758 l 0.07833,-0.15146 -0.319221,0.082 c -0.284964,0.0732 -0.341701,0.0724 -0.528709,-0.007 -0.387546,-0.16442 -0.567153,-0.70881 -0.330336,-1.00127 0.136709,-0.16882 0.476133,-0.17875 0.693183,-0.0203 0.187542,0.13694 0.195308,0.19539 0.02596,0.19539 -0.07136,0 -0.178826,0.0364 -0.238817,0.0808 -0.101349,0.0751 -0.102518,0.0875 -0.01652,0.17484 0.07887,0.0801 0.122233,0.0842 0.29317,0.0278 0.110336,-0.0364 0.268695,-0.1467 0.351912,-0.24508 0.170631,-0.20173 0.385388,-0.65023 0.441388,-0.92181 l 0.03732,-0.18101 -0.32365,0.11135 c -0.469665,0.1616 -0.656842,0.11166 -1.013615,-0.27038 -0.198204,-0.21225 -0.317805,-0.29912 -0.379298,-0.27554 -0.133241,0.0512 -0.108899,0.17737 0.05066,0.26277 0.210383,0.11259 0.170598,0.16858 -0.119799,0.16858 -0.166299,0 -0.329192,-0.0426 -0.451125,-0.11795 -0.153459,-0.0948 -0.207046,-0.10451 -0.273547,-0.0493 -0.145598,0.12083 -0.09967,0.32714 0.09992,0.44883 0.233604,0.14244 0.494037,0.1422 0.675592,-6.3e-4 0.189428,-0.149 0.218576,-0.14198 0.175035,0.0422 -0.065,0.2749 -0.235885,0.40754 -0.523269,0.40616 -0.557061,-0.003 -1.009808,-0.38373 -1.058543,-0.8909 -0.04344,-0.45212 0.252843,-0.84751 0.8495,-1.13368 0.765414,-0.36711 1.211657,-0.225 1.352761,0.43079 0.04689,0.21793 0.224812,0.41498 0.374679,0.41498 0.06241,0 0.229057,-0.10921 0.370333,-0.24269 0.227917,-0.21535 0.260076,-0.27611 0.285359,-0.53923 l 0.02849,-0.29655 -0.173456,0.0897 c -0.180231,0.0932 -0.416186,0.11022 -0.587766,0.0424 -0.086,-0.034 -0.06866,-0.0687 0.126433,-0.25366 0.207631,-0.19675 0.226019,-0.23797 0.225068,-0.50452 -7.97e-4,-0.20997 -0.05448,-0.40686 -0.194209,-0.71171 -0.207123,-0.45188 -0.370834,-0.63273 -0.523952,-0.57883 -0.134999,0.0475 -0.348455,0.24856 -0.348455,0.32818 0,0.0368 -0.05689,0.1395 -0.126433,0.22822 l -0.126433,0.16131 -0.0281,-0.22287 -0.0281,-0.22288 -0.248677,0.22367 c -0.302175,0.2718 -1.672898,2.32329 -1.719968,2.5742 -0.03749,0.19986 0.03052,0.41973 0.206118,0.66634 0.06442,0.0905 0.105813,0.17577 0.092,0.18958 -0.05498,0.055 -0.41638,-0.10818 -0.540932,-0.24421 -0.114643,-0.1252 -0.127539,-0.18077 -0.0964,-0.41549 0.02088,-0.15745 0.01378,-0.27096 -0.01698,-0.27096 -0.08604,0 -0.545835,0.53996 -0.654134,0.76818 -0.202083,0.42586 -0.177107,0.67146 0.129028,1.26879 0.01189,0.0232 -0.06882,0.0422 -0.179323,0.0422 -0.152407,0 -0.23719,-0.0408 -0.351125,-0.16858 -0.08261,-0.0927 -0.172372,-0.16858 -0.19947,-0.16858 -0.02709,0 -0.04189,0.19331 -0.03286,0.42959 0.02049,0.53627 0.08568,0.59871 0.477803,0.4577 0.306789,-0.11032 0.357945,-0.0923 0.208022,0.0734 -0.136883,0.15125 -0.376754,0.27555 -0.53176,0.27555 -0.154992,0 -0.502902,-0.34598 -0.502902,-0.50011 0,-0.18712 -0.123572,-0.13946 -0.420832,0.16234 -0.326663,0.33165 -0.56922,0.43202 -0.826951,0.34217 -0.154453,-0.0539 -0.193965,-0.0456 -0.312942,0.0654 -0.07489,0.0698 -0.196492,0.24545 -0.27022,0.39028 -0.09389,0.18446 -0.226915,0.32497 -0.44408,0.46912 -0.309511,0.20545 -0.399555,0.29229 -0.352171,0.33968 0.0138,0.0138 0.122598,-0.0156 0.241769,-0.0655 0.12213,-0.051 0.293504,-0.078 0.392749,-0.062 0.231211,0.0376 0.282871,-0.003 0.330033,-0.25951 0.06658,-0.36196 0.393247,-0.57291 0.682859,-0.44095 0.208837,0.0951 0.849502,0.99961 0.979056,1.38217 0.20616,0.60877 0.11983,1.13124 -0.207341,1.25481 -0.207592,0.0784 -0.501534,0.1272 -0.539226,0.0895 -0.01653,-0.0165 0.01988,-0.11471 0.08093,-0.21817 0.120752,-0.20466 0.104961,-0.47559 -0.04499,-0.77181 -0.114311,-0.22583 -0.18772,-0.18916 -0.18772,0.0938 0,0.22128 -0.02058,0.26101 -0.189257,0.36525 -0.300196,0.18553 -0.499483,0.15552 -0.726204,-0.10935 l -0.193719,-0.22632 -0.03542,0.17709 c -0.03524,0.17622 -0.03687,0.17697 -0.335589,0.15219 -0.18611,-0.0154 -0.365738,-0.0716 -0.472722,-0.14776 l -0.17255,-0.12287 -0.191786,0.23089 c -0.162652,0.19581 -0.231966,0.23541 -0.456296,0.2607 -0.38388,0.0433 -0.485615,0.19414 -0.485615,0.72017 0,0.49142 -0.03059,0.58677 -0.188636,0.5879 -0.247657,0.002 -0.284126,0.075 -0.17698,0.35561 0.180537,0.47272 -0.0063,0.8912 -0.427966,0.95863 -0.12939,0.0207 -0.256772,0.0509 -0.28307,0.0672 -0.0263,0.0162 0.01555,0.13767 0.09298,0.2698 0.160486,0.27385 0.181676,0.54671 0.05249,0.6759 -0.105457,0.10546 -0.194622,0.1106 -0.388212,0.0224 -0.18881,-0.086 -0.251819,-0.0114 -0.187823,0.22257 0.06046,0.22101 0.305734,0.38673 0.64846,0.43812 0.132355,0.0199 0.240646,0.0538 0.240646,0.0754 0,0.0216 -0.07468,0.11085 -0.165947,0.1983 -0.146292,0.14015 -0.206041,0.15841 -0.504454,0.15418 -0.418271,-0.006 -0.746825,-0.14709 -1.029647,-0.44237 -0.276569,-0.28875 -0.456076,-0.7894 -0.419608,-1.1703 0.0148,-0.15453 0.0051,-0.33829 -0.02144,-0.40837 -0.03929,-0.10353 -0.01202,-0.16759 0.145531,-0.342 0.106633,-0.11802 0.309032,-0.26208 0.449777,-0.32012 0.227667,-0.0939 0.259714,-0.12939 0.290488,-0.32184 0.01902,-0.11898 0.09412,-0.30404 0.166882,-0.41126 0.158443,-0.23348 0.582696,-1.00012 0.582696,-1.05296 0,-0.0566 -0.21849,-0.0446 -0.336346,0.0184 -0.05731,0.0307 -0.135166,0.15078 -0.173027,0.26691 -0.03786,0.11613 -0.09678,0.22973 -0.130933,0.25244 -0.124614,0.0828 -0.318615,0.0397 -0.437852,-0.0975 -0.17287,-0.19882 -0.270455,-0.17999 -0.270455,0.0521 0,0.36324 -0.242918,0.452 -0.757344,0.27671 -0.258266,-0.088 -0.275349,-0.0875 -0.347164,0.0107 -0.04154,0.0568 -0.07553,0.17122 -0.07553,0.25425 0,0.19164 -0.08723,0.26277 -0.37962,0.30952 -0.207673,0.0332 -0.251508,0.0194 -0.39542,-0.12451 -0.08902,-0.089 -0.1753831,-0.19954 -0.1919153,-0.2456 -0.023676,-0.0659 -0.052462,-0.0704 -0.135617,-0.0208 -0.1405468,0.0839 -0.1472941,0.69452 -0.01064,0.96249 0.2272923,0.44569 -0.3120556,0.0534 -0.6761115,-0.49182 -0.2856111,-0.42771 -0.3346662,-0.72875 -0.1782257,-1.09371 0.1468258,-0.34253 0.4159477,-0.68363 0.6244409,-0.79144 0.08908,-0.0461 0.2133004,-0.18438 0.2760428,-0.30737 0.1375985,-0.26972 0.2595478,-0.28553 0.6403268,-0.083 0.210473,0.11191 0.352388,0.14198 0.696725,0.14761 0.615676,0.01 1.187293,-0.0614 1.41536,-0.177 l 0.196254,-0.0995 -0.23813,-0.0641 c -0.186907,-0.0503 -0.260492,-0.10772 -0.342089,-0.26676 l -0.103958,-0.20264 -0.1863,0.20474 c -0.111189,0.12218 -0.238416,0.20472 -0.315563,0.20472 -0.13627,0 -0.335477,-0.17637 -0.388739,-0.34418 -0.03474,-0.10946 -0.216921,-0.18902 -0.306322,-0.13377 -0.08331,0.0515 -0.06906,0.33959 0.02833,0.57268 0.04676,0.11192 0.07324,0.21528 0.05884,0.22967 -0.04753,0.0475 -0.382787,-0.18096 -0.503241,-0.34298 -0.179049,-0.24081 -0.158691,-0.81042 0.04309,-1.20563 0.165621,-0.32439 0.38264,-0.4906 0.713559,-0.5465 0.119341,-0.0202 0.30719,-0.11867 0.435082,-0.22814 0.392376,-0.33586 0.642147,-0.21786 0.748947,0.35382 0.02693,0.14416 0.08042,0.2821 0.118862,0.30651 0.03844,0.0244 0.204928,0.0448 0.369972,0.0453 0.262551,7.9e-4 0.318579,0.0219 0.448004,0.16944 0.126436,0.14408 0.187774,0.16857 0.42226,0.16857 0.181236,0 0.370112,-0.0481 0.556564,-0.14175 0.802758,-0.4032 2.7332,-2.66283 3.391234,-3.96951 0.231498,-0.45969 0.240173,-0.5527 0.05154,-0.5527 -0.183686,0 -0.178009,-0.0292 0.0562,-0.28836 0.232185,-0.257 0.268703,-0.4712 0.07024,-0.41199 -0.23815,0.0711 -0.576025,0.29809 -0.826488,0.55539 -0.137785,0.14154 -0.272549,0.25735 -0.299474,0.25735 -0.06618,0 0.0075,-0.33416 0.108986,-0.49432 0.04498,-0.071 0.225828,-0.22179 0.401877,-0.33517 l 0.320088,-0.20614 -0.214538,-0.0358 c -0.256631,-0.043 -0.351318,-0.13127 -0.402398,-0.37544 -0.04222,-0.20179 -0.01204,-0.21697 0.195492,-0.0983 0.257148,0.14699 0.383236,0.10328 0.769872,-0.26692 0.317679,-0.30417 0.416426,-0.45279 0.737392,-1.1098 0.277202,-0.56742 0.45067,-0.84467 0.688351,-1.10017 0.323023,-0.34722 0.475261,-0.65653 0.646253,-1.31302 0.101781,-0.39076 0.10136,-0.63019 -0.0015,-0.87645 -0.09779,-0.23406 -0.5857,-0.76284 -0.910343,-0.98662 l -0.233418,-0.16089 -0.03151,0.32208 c -0.01733,0.17716 -0.0467,0.54968 -0.06527,0.82782 -0.07279,1.09009 -0.203611,2.05257 -0.36663,2.69724 -0.251723,0.99544 -0.319082,1.17323 -0.512818,1.35359 -0.139312,0.12968 -0.166898,0.1403 -0.133072,0.0512 0.13893,-0.36589 0.323247,-0.93018 0.367082,-1.12384 0.117432,-0.5188 0.337751,-2.98141 0.336827,-3.76488 -6.38e-4,-0.50368 -0.08902,-0.67124 -0.130776,-0.24782 -0.171458,1.73847 -0.222193,2.10984 -0.345516,2.52906 -0.0764,0.2597 -0.178648,0.69727 -0.22723,0.97238 -0.04858,0.27512 -0.140558,0.60385 -0.204393,0.7305 -0.220258,0.43703 -1.18149,1.55198 -1.463941,1.69804 -0.246589,0.12751 -0.863243,0.24262 -1.040723,0.19425 l -0.154374,-0.0421 0.236938,-0.1218 c 0.24919,-0.12809 0.353081,-0.26194 0.353081,-0.45488 0,-0.0786 -0.03627,-0.11608 -0.112384,-0.11608 -0.149317,0 -0.142321,-0.0353 0.05043,-0.25489 0.344715,-0.3926 0.44039,-0.88414 0.568361,-2.91997 0.03496,-0.55631 0.09969,-1.29817 0.143835,-1.64859 0.08608,-0.68336 0.108374,-1.75104 0.03657,-1.75104 -0.02403,0 -0.126395,0.58791 -0.227477,1.30646 -0.2067,1.46939 -0.789793,4.73024 -0.964933,5.39624 -0.178207,0.67766 -0.433804,1.33457 -0.633313,1.62769 -0.193528,0.28433 -0.299662,0.34843 -0.232775,0.14059 0.545793,-1.69596 0.828952,-2.76135 1.030682,-3.87797 0.244559,-1.3537 0.512366,-3.43425 0.505003,-3.92331 l -0.0046,-0.30446 -0.08155,0.18674 c -0.09727,0.22275 -0.518357,2.66334 -0.566458,3.28313 -0.01859,0.23953 -0.04814,0.4355 -0.06568,0.4355 -0.01754,0 -0.156492,-0.12011 -0.30879,-0.26691 -0.159965,-0.1542 -0.257995,-0.21946 -0.232128,-0.15454 0.29253,0.73426 0.29805,0.87387 0.0731,1.8496 -0.144862,0.62837 -1.225956,3.79608 -1.466233,4.29619 -0.131205,0.2731 -0.306699,0.49855 -0.65753,0.84473 -0.432051,0.42633 -0.904639,0.79211 -1.023385,0.79211 -0.02485,0 -0.04519,-0.11528 -0.04519,-0.25618 0,-0.1409 -0.02131,-0.243 -0.04736,-0.2269 -0.02605,0.0161 -0.165953,0.23336 -0.310896,0.48282 -0.481956,0.82948 -0.864889,1.12494 -1.6072045,1.24011 -0.4885707,0.0758 -0.7960787,0.0374 -1.0349046,-0.12937 -0.2158903,-0.15072 -0.9330895,-0.83328 -0.9330895,-0.88802 0,-0.022 0.1095994,-0.0277 0.2435535,-0.0127 0.3178217,0.0358 0.5072181,-0.0652 0.8733718,-0.46583 0.7154901,-0.78286 1.5703643,-2.30468 2.4524763,-4.36582 0.322141,-0.75271 0.344274,-0.82884 0.240992,-0.82884 -0.08544,0 -0.104203,-0.0244 -0.07544,-0.0983 0.234954,-0.60356 1.598333,-4.31882 1.720951,-4.68965 0.08898,-0.26911 0.177487,-0.63576 0.196679,-0.81479 0.03174,-0.29604 0.02738,-0.31534 -0.04808,-0.21312 -0.04563,0.0618 -0.311267,0.71926 -0.590296,1.461 -0.279029,0.74173 -0.61652,1.62677 -0.74998,1.96673 -0.319773,0.81457 -1.222074,2.6052 -1.679919,3.33383 -0.7853094,1.24977 -1.9893398,2.69235 -2.663774,3.19153 -0.3947024,0.29214 -0.8195335,0.54557 -0.8550302,0.51008 -0.049028,-0.0491 0.2239677,-0.32463 0.5913016,-0.59695 0.4025615,-0.29843 0.5678168,-0.4912 0.5681751,-0.66275 3.186e-4,-0.18388 0.211725,-0.45106 0.9880875,-1.24919 0.7358068,-0.75644 0.7872432,-0.82474 1.1562782,-1.53526 0.6571678,-1.26529 1.2514828,-2.50735 1.5926288,-3.32844 0.317378,-0.7639 1.322412,-3.43789 1.317817,-3.50618 -0.0013,-0.0186 -0.07781,0.0545 -0.170121,0.16246 -0.122778,0.14367 -0.252104,0.46047 -0.481724,1.18004 -0.345488,1.08267 -0.477891,1.38077 -0.836211,1.88271 -0.244694,0.34278 -0.625427,0.74265 -0.665121,0.69857 -0.01201,-0.0133 -0.044,-0.19927 -0.07108,-0.41318 -0.06946,-0.54862 -0.189379,-0.56316 -0.190838,-0.0232 -0.0019,0.70053 -0.09363,1.16716 -0.2909233,1.47972 -0.097537,0.15454 -0.3765358,0.60969 -0.6199985,1.01146 -0.3986972,0.65796 -0.7822623,1.15195 -0.8944421,1.15195 -0.022941,0 -0.051375,-0.12011 -0.063188,-0.26691 -0.01799,-0.22354 -0.028985,-0.24523 -0.067664,-0.13345 -0.1410503,0.4076 -0.3001857,0.60586 -0.7063565,0.88 -0.5177645,0.34946 -0.9653384,0.50075 -1.486446,0.50244 -0.85978,0.003 -1.3767098,-0.44951 -1.3767098,-1.20462 0,-0.18665 0.011517,-0.33938 0.025601,-0.33938 0.01408,0 0.118755,0.0632 0.2326105,0.14047 0.2364732,0.16048 0.358476,0.1735 0.5734155,0.0612 0.2264462,-0.11829 0.3862889,-0.3093 1.0966177,-1.31036 1.2118641,-1.70787 1.9154363,-2.89654 2.8527341,-4.81961 0.8151844,-1.67252 1.7113824,-3.78652 1.6646624,-3.92668 -0.01106,-0.0331 -0.08422,0.0529 -0.162585,0.19123 -1.4176562,2.50242 -1.8087173,3.13124 -2.8472058,4.57833 -1.0814095,1.5069 -2.2960878,2.61137 -3.2285704,2.93566 -0.2127795,0.074 -0.3998504,0.12156 -0.4157137,0.1057 -0.049043,-0.049 0.2790057,-0.3208 0.5587948,-0.4629 0.2068924,-0.10508 0.2943797,-0.19427 0.3933453,-0.40102 0.1280908,-0.26759 0.175322,-0.30392 0.6891967,-0.53013 0.3533771,-0.15555 0.8412214,-0.64567 1.3205186,-1.32668 0.8628032,-1.22592 2.1625433,-3.33992 2.5918555,-4.2156 0.454248,-0.92653 0.550544,-1.26093 0.22954,-0.79708 -1.0212642,1.47569 -1.86427,2.66177 -2.0478302,2.88122 -0.2344567,0.28031 -0.5735398,0.5103 -0.8543755,0.5795 -0.090803,0.0224 -0.2551653,0.13475 -0.3652489,0.24973 -0.2398453,0.25048 -0.5608001,0.3354 -1.2678047,0.3354 -1.1934969,0 -1.6913427,-0.37509 -1.6781221,-1.26433 0.00625,-0.41993 0.097747,-0.84267 0.1954732,-0.90307 0.032771,-0.0203 0.1432149,0.0479 0.2454283,0.15155 0.49851,0.50528 0.9227008,0.28526 2.4607806,-1.27641 0.8503568,-0.86338 1.0754379,-1.12993 1.4946909,-1.77005 0.2714697,-0.41448 0.6875545,-1.02937 0.9246345,-1.36642 0.2370801,-0.33704 0.4310545,-0.6372 0.4310545,-0.66702 0,-0.0298 -0.3965548,0.3556 -0.8812326,0.8565 -0.9448973,0.97651 -1.0480233,1.05701 -2.3779208,1.85628 -1.0580118,0.63586 -1.2905825,0.74257 -1.6295,0.74769 -0.2695679,0.004 -0.6181906,-0.10456 -0.6181906,-0.19262 0,-0.0271 0.018966,-0.0444 0.042145,-0.0383 0.094604,0.0247 0.734413,-0.0792 0.9866507,-0.16021 0.2412247,-0.0774 0.2683414,-0.10265 0.2528652,-0.23463 -0.016685,-0.14231 0.00363,-0.15368 0.5424537,-0.30341 0.6268825,-0.17421 0.8872214,-0.32677 1.6049987,-0.94062 0.9159567,-0.78332 2.2878271,-2.18798 2.4707811,-2.52983 0.05815,-0.10864 0.05419,-0.11563 -0.0376,-0.0663 -0.05642,0.0303 -0.3520708,0.2737 -0.6569936,0.54092 -1.568443,1.37457 -2.3807689,1.87479 -3.1317556,1.92853 -0.2563739,0.0183 -0.3877795,0.008 -0.3877795,-0.0326 0,-0.0332 0.024109,-0.0753 0.053576,-0.0936 0.029466,-0.0182 0.1113611,-0.11452 0.1819881,-0.21403 l 0.1284106,-0.18092 -0.2827706,0.20698 c -0.1555245,0.11385 -0.3995543,0.2364 -0.5422913,0.27235 -0.7408641,0.18655 -1.6158065,-0.55147 -1.617479,-1.36437 -3.185e-4,-0.1468 0.014766,-0.26691 0.033485,-0.26691 0.018718,0 0.1091597,0.0633 0.2009844,0.14049 0.1487214,0.12514 0.2707131,0.17887 0.2707131,0.11924 0,-0.0117 -0.035012,-0.10651 -0.077806,-0.21072 -0.073723,-0.17955 -0.063763,-0.55474 0.014734,-0.55474 0.020102,0 0.099413,0.10213 0.1762459,0.22696 0.076834,0.12482 0.1935108,0.24058 0.2592828,0.25723 0.065772,0.0166 0.289692,-0.0223 0.4976022,-0.0864 0.2079085,-0.0642 0.4411929,-0.11676 0.5184096,-0.11676 0.2483526,0 0.8580196,-0.37289 2.1516511,-1.31604 1.3821463,-1.00767 1.6747436,-1.24036 1.6244462,-1.29186 -0.018273,-0.0187 -0.3304866,0.12048 -0.6938065,0.30933 -1.3229782,0.68767 -2.2265649,1.00886 -2.8211905,1.0028 -0.580456,-0.006 -0.8561149,-0.0764 -1.0473989,-0.26762 -0.096225,-0.0963 -0.1621046,-0.18782 -0.1463943,-0.20353 0.015705,-0.0157 0.1600832,0.0214 0.3208275,0.0825 0.3877097,0.14732 0.9653718,0.15492 0.9653463,0.0127 -1.44e-5,-0.0857 0.059675,-0.0983 0.4669617,-0.0983 H 7.106819 l 1.2890457,-0.63604 c 1.3414887,-0.6619 1.7911743,-0.90348 1.7529493,-0.94171 -0.01241,-0.0124 -0.362079,0.0959 -0.7770535,0.24069 l -0.7545021,0.26325 -0.7532549,-0.008 c -0.7212959,-0.007 -0.768258,-0.015 -1.1068394,-0.18162 -0.6165401,-0.30352 -0.9837068,-0.85637 -0.893185,-1.34487 0.04564,-0.2463 0.2126616,-0.52736 0.4018001,-0.67613 l 0.1410499,-0.11096 0.1507348,0.28854 c 0.2691983,0.51531 0.7978037,0.66857 1.5941803,0.46221 0.4807705,-0.12458 1.7319126,-0.62719 1.8984168,-0.76263 l 0.140481,-0.11428 -0.2809612,0.0339 c -1.1955308,0.1441 -1.6370551,0.0967 -2.3715318,-0.25456 -0.4582938,-0.21918 -0.7471399,-0.48542 -0.7471399,-0.68866 0,-0.1295 0.071081,-0.11614 0.2188195,0.0411 0.069314,0.0738 0.3708399,0.24274 0.6700555,0.37546 l 0.5440275,0.24132 0.8147883,-0.0107 c 0.9558832,-0.0126 1.6319951,-0.0729 1.6334091,-0.14576 6.37e-4,-0.0285 -0.158124,-0.0919 -0.352614,-0.14096 -0.4741844,-0.11963 -0.8794633,-0.33993 -1.0790731,-0.58655 -0.2509077,-0.31001 -0.2282382,-0.57479 0.1009135,-1.17863 0.1458447,-0.26755 0.2894498,-0.48646 0.3191199,-0.48646 0.029672,0 0.1456966,0.1454 0.2578333,0.3231 0.5753124,0.91173 0.5192064,0.8496 0.8001424,0.88594 0.142396,0.0184 0.422041,0.0565 0.62143,0.0846 0.199388,0.0281 0.371046,0.0426 0.381457,0.0322 0.01042,-0.0104 -0.06371,-0.15187 -0.164712,-0.31435 -0.290679,-0.46761 -0.218664,-0.86047 0.205818,-1.12281 0.236917,-0.14643 0.528281,-0.14375 0.881251,0.008 0.278121,0.11965 0.288538,0.12001 0.692593,0.0247 0.361763,-0.0853 0.432835,-0.0873 0.601592,-0.0167 0.342882,0.14327 0.494206,0.53909 0.280154,0.73279 -0.141779,0.12831 -0.439669,0.1165 -0.618875,-0.0245 l -0.149345,-0.11753 0.211337,0.0396 c 0.323787,0.0606 0.491879,-0.13287 0.29038,-0.33437 -0.119388,-0.11939 -0.389865,-0.11106 -0.782678,0.024 -0.179658,0.0618 -0.392231,0.11329 -0.472383,0.11439 -0.08015,9.6e-4 -0.208949,0.0381 -0.286213,0.0823 -0.201759,0.11534 -0.225999,0.10448 -0.188245,-0.0843 0.03141,-0.15704 0.0223,-0.16857 -0.133175,-0.16857 -0.343878,0 -0.461226,0.38227 -0.226002,0.73623 0.135146,0.20337 0.543964,0.4438 0.754596,0.4438 0.111221,0 0.122957,-0.0211 0.09359,-0.16792 -0.02194,-0.1097 -0.0015,-0.21685 0.05889,-0.30906 0.118536,-0.1809 0.20227,-0.18012 0.20227,0.002 0,0.19019 0.215891,0.39704 0.49199,0.47138 0.12317,0.0331 0.372619,0.16145 0.554333,0.28506 l 0.330387,0.22476 0.0281,-0.18134 c 0.0186,-0.12005 0.07558,-0.20529 0.168578,-0.25223 0.153168,-0.0772 0.415181,-0.0981 0.382178,-0.0304 -0.01129,0.0232 -0.05454,0.10981 -0.09611,0.19253 -0.140647,0.27988 -0.05075,0.39958 0.768025,1.02252 1.081617,0.82292 1.18124,1.00701 1.125156,2.07922 -0.04472,0.85494 -0.237112,1.14739 -0.812789,1.23549 -0.298806,0.0458 -0.48432,-0.026 -0.785838,-0.30396 -0.132531,-0.12215 -0.2679,-0.2221 -0.300821,-0.2221 -0.09968,0 -0.624014,0.51726 -0.794361,0.78364 -0.207139,0.32392 -0.215206,0.62701 -0.02183,0.82039 0.162789,0.16279 0.2343,0.16803 0.622413,0.0457 0.42996,-0.13553 0.559644,-0.0825 0.743994,0.30432 0.117481,0.24651 0.21841,0.36414 0.431604,0.50303 0.554606,0.3613 0.561658,0.66634 0.02962,1.28106 -0.246155,0.28442 -0.251383,0.36422 -0.04322,0.65976 0.148828,0.21129 0.415284,0.34061 0.630025,0.30576 0.09619,-0.0156 0.383789,-0.15526 0.639101,-0.31033 0.255312,-0.15507 0.563266,-0.29868 0.684339,-0.31914 0.376307,-0.0635 0.815863,0.0227 1.104425,0.21683 0.513361,0.34533 0.659788,0.41949 0.898945,0.45536 0.295918,0.0444 0.850406,-0.0581 1.084463,-0.20046 0.192518,-0.11708 0.225878,-0.21911 0.07164,-0.21911 -0.05563,0 -0.131489,-0.0303 -0.168576,-0.0674 -0.08136,-0.0814 -0.09051,-0.43831 -0.01123,-0.43831 0.03091,0 0.0562,0.0519 0.0562,0.1152 0,0.10472 0.02935,0.11365 0.323105,0.0983 0.28785,-0.015 0.320969,-0.0291 0.303529,-0.12924 -0.05468,-0.31393 -0.07168,-0.59003 -0.03632,-0.59003 0.02184,0 0.08944,0.0632 0.150216,0.14049 0.143092,0.18191 0.230041,0.1772 0.397274,-0.0215 0.136219,-0.1619 0.310129,-0.65645 0.251466,-0.71511 -0.04062,-0.0407 -0.260419,0.0743 -0.419962,0.21965 l -0.126432,0.11516 v -0.11656 c 0,-0.15564 0.341683,-0.49008 0.566595,-0.55458 0.205812,-0.059 0.310398,-0.18998 0.2589,-0.32418 -0.09298,-0.2423 -0.554401,0.026 -0.786916,0.45753 -0.08695,0.16139 -0.180251,0.29342 -0.207329,0.29342 -0.02707,0 -0.05709,-0.0948 -0.06667,-0.21072 l -0.01744,-0.21072 -0.814787,0.0183 c -0.644999,0.0144 -0.849916,0.0384 -0.983365,0.11523 -0.220422,0.12685 -0.243424,0.29925 -0.05925,0.44413 0.180655,0.1421 0.180712,0.18102 3.19e-4,0.18102 -0.344562,0 -0.64261,-0.33361 -0.56704,-0.6347 0.0181,-0.0721 0.126763,-0.19275 0.241459,-0.26801 0.219836,-0.14426 0.304428,-0.27635 0.178525,-0.27876 -0.0412,-8e-4 -0.212827,-0.0893 -0.381376,-0.19668 -0.336204,-0.21418 -0.4727,-0.23511 -0.757499,-0.11612 -0.133697,0.0559 -0.210817,0.13846 -0.262349,0.28097 -0.09285,0.25677 -0.139462,0.255 -0.181964,-0.007 -0.0248,-0.15278 -0.0042,-0.2591 0.07694,-0.39656 0.06095,-0.1033 0.11081,-0.20205 0.11081,-0.21945 0,-0.0174 -0.155534,-0.0204 -0.34563,-0.007 -0.290057,0.021 -0.366856,0.0497 -0.477634,0.17846 -0.170038,0.19769 -0.166686,0.35104 0.01348,0.61617 0.08001,0.11774 0.13275,0.22681 0.117197,0.24236 -0.04118,0.0411 -0.218815,-0.064 -0.346654,-0.20525 -0.161893,-0.1789 -0.153639,-0.69016 0.01557,-0.96393 0.265846,-0.43015 0.769172,-0.49266 1.681731,-0.20886 0.473911,0.14737 0.58881,0.16592 0.66026,0.10663 0.106594,-0.0884 0.108503,-0.42341 0.006,-1.0414 -0.04104,-0.24724 -0.07072,-0.45434 -0.06596,-0.4602 0.0047,-0.006 0.119334,0.0636 0.254617,0.15452 0.196343,0.13188 0.306988,0.16521 0.548377,0.16521 0.433316,0 0.6646,0.11151 0.746605,0.36 0.07149,0.21661 0.03669,0.49817 -0.07212,0.58363 -0.0821,0.0645 -0.375686,0.13809 -0.375686,0.0942 0,-0.0176 0.03775,-0.10496 0.08389,-0.19418 0.04614,-0.0892 0.0694,-0.2 0.05169,-0.24615 -0.03459,-0.0901 -0.306989,-0.20416 -0.487592,-0.20416 -0.10449,0 -0.105555,0.008 -0.01971,0.13851 0.110383,0.16845 0.112689,0.19864 0.01516,0.19864 -0.260381,0 -0.343077,0.48174 -0.135141,0.78727 0.219054,0.32185 0.396736,0.415 0.839323,0.44001 l 0.400241,0.0226 -0.119676,-0.16806 c -0.212908,-0.29901 -0.246016,-0.45132 -0.14457,-0.6651 0.112849,-0.23781 0.190673,-0.24631 0.190673,-0.0209 0,0.10678 0.05187,0.22301 0.137926,0.30906 0.11814,0.11814 0.190307,0.13793 0.503084,0.13793 0.533412,0 0.828257,-0.16031 0.514347,-0.27966 -0.172608,-0.0657 -0.275073,-0.241 -0.190325,-0.32574 0.04141,-0.0414 0.106824,-0.0432 0.205898,-0.006 0.232437,0.0884 0.38127,0.0161 0.506423,-0.24583 0.06281,-0.13146 0.131073,-0.30856 0.151689,-0.39355 0.03597,-0.14827 0.0287,-0.15457 -0.179328,-0.15536 -0.119247,-4.8e-4 -0.279917,-0.0327 -0.357044,-0.0717 -0.134322,-0.068 -0.433751,-0.5241 -0.379592,-0.57825 0.01435,-0.0144 0.137178,0.0374 0.272955,0.11503 0.50745,0.29007 0.66831,0.16862 0.66831,-0.50463 0,-0.40819 -0.01673,-0.48936 -0.126432,-0.61308 -0.162823,-0.18365 -0.91644,-0.59417 -1.090739,-0.59417 -0.07811,0 -0.235301,0.0934 -0.377052,0.22409 -0.133704,0.12324 -0.334619,0.26232 -0.446478,0.30905 -0.392041,0.16381 -0.908144,0.0688 -1.048209,-0.19287 -0.08802,-0.16447 -0.07863,-0.17169 0.223379,-0.17169 0.278297,0 0.406057,-0.0491 1.095474,-0.42113 l 0.280962,-0.15162 -0.449538,0.0389 c -0.312692,0.027 -0.587269,0.0956 -0.901983,0.22529 -0.653795,0.26939 -1.303542,0.47385 -1.628217,0.51237 -0.395146,0.0468 -1.06429,-0.067 -1.287715,-0.2191 -0.470361,-0.32025 -0.724096,-0.92749 -0.535107,-1.28062 0.09157,-0.17109 0.467719,-0.33379 0.768525,-0.33242 l 0.269153,9.7e-4 -0.231372,0.10508 c -0.290717,0.13201 -0.41484,0.30663 -0.41484,0.58359 0,0.34387 0.218833,0.52348 0.700664,0.57508 0.67844,0.0726 1.235989,0.003 1.792041,-0.22509 0.316916,-0.12979 0.674333,-0.22706 0.983364,-0.26762 l 0.485487,-0.0637 -0.477634,-0.098 c -0.884792,-0.18149 -1.108348,-0.13259 -1.496823,0.32742 l -0.179635,0.21272 -0.06522,-0.16858 c -0.154795,-0.40011 -0.236636,-0.84922 -0.204464,-1.12202 0.0285,-0.24171 0.07025,-0.31818 0.287341,-0.52647 0.228692,-0.21941 0.285878,-0.34253 0.258369,-0.55625 -0.01562,-0.12138 0.467411,-0.55191 0.803925,-0.71655 0.288365,-0.14108 0.401696,-0.16176 1.016555,-0.18544 0.380604,-0.0147 0.780843,-0.01 0.88942,0.0103 0.108578,0.0204 0.446277,0.20468 0.750441,0.40958 0.753753,0.50776 0.92126,0.57684 1.402383,0.57833 0.462427,9.6e-4 0.643677,-0.0991 0.760392,-0.42191 0.09207,-0.25462 0.138642,-0.2462 0.175927,0.0318 0.06342,0.47283 -0.139018,0.7668 -0.577539,0.83867 -0.108171,0.0178 -0.196672,0.0624 -0.196672,0.0991 0,0.0368 0.210062,0.30821 0.466805,0.60312 l 0.466806,0.5362 h 0.305838 c 0.168211,0 0.305836,0.0235 0.305836,0.0521 0,0.0918 -0.286222,0.28094 -0.480221,0.31733 l -0.187857,0.0352 0.162479,0.45791 c 0.08936,0.25186 0.23045,0.68549 0.313527,0.96365 0.09154,0.30648 0.236612,0.63181 0.368234,0.82575 0.119451,0.17601 0.217185,0.33406 0.217185,0.35121 0,0.0172 -0.104377,0.0312 -0.231951,0.0312 h -0.231951 l 0.03229,0.21072 c 0.01776,0.11589 0.04975,0.37508 0.07108,0.57596 0.02545,0.2397 0.09877,0.48114 0.213307,0.70241 0.09599,0.18543 0.18313,0.35612 0.193654,0.3793 0.01053,0.0232 -0.06244,0.0421 -0.16213,0.0421 h -0.181265 l 0.0362,0.34638 c 0.05932,0.56747 0.4555,1.2832 0.710307,1.2832 0.254807,0 0.650994,-0.71573 0.710307,-1.2832 l 0.0362,-0.34638 h -0.181263 c -0.0997,0 -0.172654,-0.0189 -0.16213,-0.0421 0.01053,-0.0232 0.09767,-0.19387 0.193653,-0.3793 0.114532,-0.22127 0.187852,-0.46271 0.213308,-0.70241 0.02133,-0.20088 0.05332,-0.46007 0.07108,-0.57596 l 0.03229,-0.21072 h -0.231951 c -0.127573,0 -0.231951,-0.014 -0.231951,-0.0312 0,-0.0172 0.09773,-0.1752 0.217187,-0.35121 0.13162,-0.19394 0.276694,-0.51927 0.368234,-0.82575 0.08307,-0.27816 0.224162,-0.71179 0.313526,-0.96365 l 0.162478,-0.45791 -0.187857,-0.0352 c -0.193997,-0.0364 -0.480221,-0.22553 -0.480221,-0.31733 0,-0.0287 0.137627,-0.0521 0.305836,-0.0521 h 0.305838 l 0.466806,-0.5362 c 0.256743,-0.29491 0.466808,-0.56632 0.466808,-0.60312 0,-0.0368 -0.08851,-0.0814 -0.196673,-0.0991 -0.438523,-0.0718 -0.640962,-0.36584 -0.577541,-0.83867 0.03729,-0.27799 0.08386,-0.28641 0.175928,-0.0318 0.116714,0.32277 0.297965,0.42334 0.760392,0.42191 0.481123,-9.7e-4 0.648631,-0.0706 1.402382,-0.57833 0.304165,-0.2049 0.641864,-0.38922 0.750441,-0.40958 0.108578,-0.0204 0.508817,-0.025 0.889421,-0.0103 0.614858,0.0237 0.728188,0.0443 1.016553,0.18544 0.336514,0.16464 0.819548,0.59517 0.803927,0.71655 -0.02751,0.21372 0.02967,0.33684 0.258368,0.55625 0.217092,0.20829 0.258835,0.28476 0.287342,0.52647 0.03217,0.2728 -0.04967,0.72191 -0.204464,1.12202 l -0.06522,0.16858 -0.179634,-0.21272 c -0.388474,-0.46001 -0.61203,-0.50891 -1.496822,-0.32742 l -0.477634,0.098 0.485486,0.0637 c 0.30903,0.0405 0.666447,0.13783 0.983365,0.26762 0.55605,0.22772 1.113602,0.29774 1.79204,0.22509 0.48183,-0.0516 0.700664,-0.23121 0.700664,-0.57508 0,-0.27696 -0.124122,-0.45158 -0.41484,-0.58359 l -0.231371,-0.10508 0.269152,-9.7e-4 c 0.300808,-9.6e-4 0.676961,0.16133 0.768526,0.33242 0.188989,0.35313 -0.06474,0.96037 -0.535107,1.28062 -0.223425,0.15213 -0.892571,0.26597 -1.287717,0.2191 -0.324674,-0.0385 -0.97442,-0.24298 -1.628217,-0.51237 -0.314712,-0.12967 -0.58929,-0.19826 -0.901981,-0.22529 l -0.449539,-0.0389 0.280962,0.15162 c 0.689417,0.37201 0.817177,0.42113 1.095473,0.42113 0.30201,0 0.311401,0.007 0.22338,0.17169 -0.140065,0.26171 -0.656168,0.35668 -1.048208,0.19287 -0.111859,-0.0467 -0.312774,-0.18581 -0.446478,-0.30905 -0.141751,-0.13067 -0.298944,-0.22409 -0.377053,-0.22409 -0.174298,0 -0.927915,0.41052 -1.090739,0.59417 -0.109693,0.12372 -0.126432,0.20489 -0.126432,0.61308 0,0.67325 0.160862,0.7947 0.66831,0.50462 0.135777,-0.0776 0.258608,-0.12938 0.272956,-0.11503 0.05416,0.0542 -0.24527,0.51029 -0.379592,0.57825 -0.07713,0.039 -0.237797,0.0714 -0.357045,0.0717 -0.208023,7.9e-4 -0.215293,0.007 -0.179327,0.15536 0.02061,0.085 0.08887,0.26209 0.151688,0.39355 0.125154,0.26195 0.273987,0.3342 0.506424,0.24582 0.09907,-0.0377 0.164483,-0.0359 0.205898,0.006 0.08475,0.0848 -0.01772,0.26011 -0.190325,0.32573 -0.31391,0.11935 -0.01907,0.27967 0.514345,0.27967 0.312778,0 0.384946,-0.0198 0.503086,-0.13793 0.08605,-0.086 0.137928,-0.20228 0.137928,-0.30906 0,-0.22548 0.07782,-0.21698 0.190671,0.0209 0.101446,0.21378 0.06833,0.3661 -0.14457,0.66509 l -0.119677,0.16807 0.400241,-0.0226 c 0.442587,-0.025 0.620269,-0.11816 0.839323,-0.44001 0.156662,-0.23019 0.168031,-0.56363 0.02368,-0.69428 -0.05652,-0.0512 -0.132379,-0.093 -0.168577,-0.093 -0.08738,0 -0.08315,-0.0337 0.02493,-0.19865 0.08584,-0.13102 0.08478,-0.1385 -0.01971,-0.1385 -0.180604,0 -0.453004,0.11406 -0.48758,0.20416 -0.01771,0.0462 0.0055,0.15693 0.05169,0.24615 0.04614,0.0892 0.08389,0.1766 0.08389,0.19418 0,0.0439 -0.29358,-0.0297 -0.375686,-0.0942 -0.108819,-0.0855 -0.143612,-0.36703 -0.07212,-0.58364 0.08201,-0.24848 0.313291,-0.36 0.746605,-0.36 0.24139,0 0.352034,-0.0333 0.548377,-0.1652 0.135285,-0.0909 0.249861,-0.1604 0.254618,-0.15453 0.0047,0.006 -0.02493,0.21296 -0.06596,0.4602 -0.102564,0.61799 -0.100653,0.95294 0.006,1.0414 0.07145,0.0593 0.186348,0.0407 0.660259,-0.10663 0.912557,-0.2838 1.415885,-0.22129 1.681731,0.20886 0.169199,0.27378 0.177455,0.78504 0.01556,0.96393 -0.12784,0.14125 -0.305472,0.24644 -0.346654,0.20525 -0.01555,-0.0155 0.03718,-0.12462 0.117197,-0.24236 0.180159,-0.26513 0.183512,-0.41848 0.01348,-0.61616 -0.11078,-0.12879 -0.187577,-0.15748 -0.477634,-0.17847 -0.190097,-0.0137 -0.345631,-0.0107 -0.345631,0.007 0,0.0174 0.04986,0.11615 0.110811,0.21945 0.0811,0.13747 0.101731,0.24378 0.07694,0.39656 -0.04251,0.26191 -0.08911,0.26368 -0.181967,0.007 -0.05153,-0.14251 -0.12865,-0.2251 -0.262347,-0.28096 -0.284799,-0.119 -0.421296,-0.0981 -0.757499,0.11612 -0.16855,0.10737 -0.340169,0.19588 -0.381377,0.19667 -0.125902,0.003 -0.04131,0.13451 0.178525,0.27877 0.114698,0.0752 0.223356,0.19586 0.241461,0.268 0.07557,0.30109 -0.222479,0.6347 -0.567041,0.6347 -0.180444,0 -0.180386,-0.0389 3.18e-4,-0.18102 0.184174,-0.14487 0.161171,-0.31727 -0.05925,-0.44412 -0.133449,-0.0768 -0.338366,-0.10081 -0.983365,-0.11523 l -0.814801,-0.0183 -0.01744,0.21072 c -0.0096,0.11589 -0.0396,0.21071 -0.06668,0.21071 -0.02707,0 -0.120375,-0.13203 -0.207328,-0.29342 -0.232516,-0.43155 -0.693937,-0.69983 -0.786917,-0.45753 -0.05149,0.1342 0.05309,0.26515 0.258899,0.32418 0.224913,0.0645 0.566595,0.39894 0.566595,0.55458 v 0.11656 l -0.126432,-0.11516 c -0.159542,-0.14531 -0.379339,-0.26028 -0.419961,-0.21965 -0.05866,0.0586 0.115247,0.55322 0.251467,0.71511 0.167231,0.19874 0.254181,0.20346 0.397272,0.0215 0.06077,-0.0772 0.128374,-0.14048 0.150217,-0.14048 0.03536,0 0.01837,0.27609 -0.03632,0.59002 -0.01744,0.10012 0.01568,0.11422 0.303531,0.12924 0.293746,0.0154 0.323105,0.007 0.323105,-0.0983 0,-0.0633 0.02529,-0.11519 0.05619,-0.11519 0.07927,0 0.07013,0.35694 -0.01124,0.4383 -0.03709,0.0371 -0.112946,0.0674 -0.168577,0.0674 -0.154242,0 -0.120883,0.10203 0.07164,0.21911 0.234057,0.14233 0.788544,0.24482 1.084464,0.20045 0.239155,-0.0358 0.385582,-0.11003 0.898944,-0.45536 0.288561,-0.1941 0.728118,-0.2804 1.104424,-0.21682 0.121074,0.0205 0.429027,0.16406 0.68434,0.31914 0.255314,0.15506 0.542908,0.2947 0.639101,0.31032 0.214741,0.0349 0.481199,-0.0944 0.630025,-0.30576 0.208163,-0.29554 0.202936,-0.37534 -0.04322,-0.65976 -0.532038,-0.61471 -0.524985,-0.91976 0.02962,-1.28106 0.213195,-0.13889 0.314123,-0.25652 0.431604,-0.50302 0.18435,-0.38681 0.314035,-0.43986 0.743994,-0.30432 0.388113,0.12235 0.459624,0.11709 0.622413,-0.0457 0.193377,-0.19338 0.185312,-0.49647 -0.02183,-0.82039 -0.170346,-0.26638 -0.694684,-0.78364 -0.794361,-0.78364 -0.03292,0 -0.168289,0.1 -0.300818,0.22211 -0.30152,0.27793 -0.487034,0.34968 -0.78584,0.30395 -0.575678,-0.0881 -0.768071,-0.38055 -0.812789,-1.23549 -0.05608,-1.0722 0.04354,-1.2563 1.125155,-2.07922 0.818777,-0.62294 0.908674,-0.74263 0.768027,-1.02252 -0.04156,-0.0828 -0.08481,-0.16935 -0.09611,-0.19253 -0.033,-0.0677 0.229009,-0.0469 0.382177,0.0304 0.09301,0.0469 0.149977,0.13218 0.168576,0.25224 l 0.0281,0.18133 0.330388,-0.22476 c 0.181714,-0.12361 0.431164,-0.25189 0.554335,-0.28506 0.276097,-0.0743 0.491988,-0.28119 0.491988,-0.47137 0,-0.18203 0.08374,-0.18281 0.20227,-0.002 0.06041,0.0922 0.08083,0.19937 0.05889,0.30906 -0.02937,0.14687 -0.01763,0.16793 0.09358,0.16793 0.210632,0 0.619452,-0.24044 0.754595,-0.44381 0.238546,-0.35895 0.11773,-0.73623 -0.235764,-0.73623 -0.144616,0 -0.154443,0.0134 -0.123413,0.16858 0.03776,0.18876 0.01351,0.19962 -0.188244,0.0843 -0.07727,-0.0441 -0.20606,-0.0812 -0.286212,-0.0823 -0.08015,-9.7e-4 -0.292724,-0.0525 -0.472384,-0.11438 -0.392813,-0.13515 -0.663289,-0.14348 -0.782678,-0.024 -0.201499,0.20149 -0.03341,0.39504 0.290381,0.33436 l 0.211335,-0.0396 -0.149342,0.11753 c -0.290939,0.22896 -0.721637,0.10245 -0.721637,-0.21198 0,-0.18778 0.169103,-0.40695 0.382914,-0.49629 0.168758,-0.0705 0.23983,-0.0686 0.601593,0.0167 0.404056,0.0952 0.414473,0.0949 0.692593,-0.0247 0.35297,-0.15184 0.644332,-0.15452 0.88125,-0.008 0.424482,0.26234 0.496497,0.6552 0.20582,1.12281 -0.101004,0.16248 -0.175125,0.30393 -0.164714,0.31435 0.01042,0.0104 0.182068,-0.004 0.381458,-0.0322 0.199391,-0.0281 0.479033,-0.0661 0.62143,-0.0846 0.280935,-0.0363 0.224831,0.0258 0.800141,-0.88594 0.112138,-0.1777 0.228162,-0.3231 0.257834,-0.3231 0.02967,0 0.173275,0.21891 0.319121,0.48646 0.329772,0.60498 0.35196,0.86845 0.09941,1.18048 -0.198026,0.24467 -0.663384,0.49585 -1.089202,0.58791 -0.335959,0.0726 -0.459315,0.14138 -0.332501,0.18532 0.189167,0.0656 1.905074,0.13539 2.24304,0.0913 0.401501,-0.0523 1.18872,-0.39632 1.511183,-0.66026 l 0.190666,-0.15606 -0.04266,0.13984 c -0.08987,0.29459 -0.313538,0.50332 -0.776753,0.72485 -0.734478,0.35127 -1.176002,0.39866 -2.371532,0.25457 l -0.28096,-0.0339 0.140479,0.11427 c 0.166506,0.13544 1.417648,0.63805 1.898417,0.76264 0.796376,0.20636 1.324982,0.0531 1.59418,-0.46221 l 0.150736,-0.28853 0.141049,0.11094 c 0.18914,0.14878 0.35616,0.42984 0.401801,0.67613 0.09052,0.48851 -0.276644,1.04135 -0.893185,1.34488 -0.338582,0.16668 -0.385545,0.17439 -1.106839,0.18161 l -0.753255,0.008 -0.754502,-0.26324 c -0.414976,-0.14479 -0.76465,-0.2531 -0.777055,-0.24069 -0.03823,0.0382 0.41146,0.2798 1.752949,0.94171 l 1.289047,0.63604 h 0.46698 c 0.407287,0 0.466979,0.0125 0.466962,0.0983 -2.5e-5,0.14221 0.577637,0.1346 0.965348,-0.0128 0.160744,-0.061 0.305116,-0.0982 0.320826,-0.0825 0.01571,0.0157 -0.05016,0.10729 -0.146394,0.20352 -0.191285,0.19128 -0.466941,0.26171 -1.047398,0.26762 -0.594625,0.006 -1.498213,-0.31512 -2.821192,-1.00279 -0.36332,-0.18885 -0.675532,-0.32805 -0.693807,-0.30933 -0.0503,0.0515 0.242301,0.28419 1.624446,1.29186 1.293632,0.94314 1.903299,1.31604 2.151654,1.31604 0.07722,0 0.310499,0.0525 0.518409,0.11676 0.207909,0.0642 0.431829,0.10313 0.497601,0.0864 0.06578,-0.0166 0.182449,-0.13241 0.259283,-0.25723 0.07683,-0.12483 0.156145,-0.22697 0.176247,-0.22697 0.07849,0 0.08845,0.37521 0.01472,0.55475 -0.0428,0.10421 -0.07781,0.19904 -0.07781,0.21072 0,0.0597 0.121992,0.006 0.270714,-0.11925 0.09183,-0.0772 0.182266,-0.14048 0.200984,-0.14048 0.01871,0 0.03379,0.12011 0.03349,0.26691 -0.0016,0.81289 -0.876613,1.55091 -1.617479,1.36436 -0.142735,-0.0359 -0.386767,-0.15849 -0.542289,-0.27234 l -0.282772,-0.20699 0.128411,0.18092 c 0.07062,0.0995 0.152522,0.19583 0.181988,0.21404 0.02947,0.0183 0.05357,0.0604 0.05357,0.0936 0,0.04 -0.131405,0.051 -0.387779,0.0326 -0.750987,-0.0537 -1.563313,-0.55396 -3.131756,-1.92853 -0.304923,-0.26722 -0.60057,-0.51064 -0.656994,-0.54093 -0.469147,-0.2518 1.258629,1.59173 2.433186,2.59621 0.717776,0.61384 0.978115,0.76641 1.604998,0.94062 0.538824,0.14972 0.559139,0.16109 0.542453,0.3034 -0.01548,0.13199 0.01165,0.15716 0.252865,0.23464 0.252239,0.081 0.892047,0.18491 0.986651,0.1602 0.02317,-0.006 0.04215,0.0112 0.04215,0.0383 0,0.0881 -0.348624,0.19669 -0.61819,0.19262 -0.338919,-0.005 -0.571488,-0.11183 -1.629502,-0.74769 -1.329896,-0.79926 -1.433022,-0.87976 -2.37792,-1.85628 -0.484677,-0.50089 -0.881232,-0.88632 -0.881232,-0.8565 0,0.0298 0.193975,0.32998 0.431054,0.66703 0.237081,0.33705 0.653166,0.95193 0.924635,1.36641 0.419253,0.64013 0.644334,0.90667 1.494691,1.77006 1.53808,1.56166 1.96227,1.78169 2.460781,1.2764 0.102214,-0.1036 0.212656,-0.1718 0.245428,-0.15154 0.09773,0.0604 0.189231,0.48314 0.195474,0.90307 0.01322,0.88923 -0.484626,1.26432 -1.678123,1.26432 -0.707005,0 -1.02796,-0.0849 -1.267804,-0.3354 -0.110084,-0.11497 -0.274445,-0.22734 -0.36525,-0.24973 -0.280835,-0.0692 -0.619918,-0.29919 -0.854375,-0.5795 -0.183558,-0.21945 -1.026566,-1.40553 -2.04783,-2.88121 -0.321004,-0.46385 -0.224708,-0.12945 0.22954,0.79708 0.429312,0.87567 1.729052,2.98967 2.591856,4.21559 0.479296,0.68101 0.96714,1.17114 1.320518,1.32669 0.513875,0.2262 0.561106,0.26253 0.689197,0.53012 0.09896,0.20676 0.186453,0.29595 0.393345,0.40102 0.279791,0.14211 0.607839,0.41386 0.558795,0.4629 -0.01587,0.0158 -0.202934,-0.0317 -0.415713,-0.10569 -0.932482,-0.32429 -2.147162,-1.42877 -3.228571,-2.93566 -1.038489,-1.44709 -1.42955,-2.07592 -2.847207,-4.57833 -0.07837,-0.13834 -0.151534,-0.22439 -0.162585,-0.19123 -0.04671,0.14015 0.84948,2.25415 1.664663,3.92667 0.937298,1.92307 1.64087,3.11174 2.852734,4.81961 0.71033,1.00107 0.870172,1.19207 1.096618,1.31037 0.21494,0.11229 0.336941,0.0993 0.573416,-0.0612 0.113856,-0.0772 0.21853,-0.14048 0.23261,-0.14048 0.01408,0 0.0256,0.15273 0.0256,0.33939 0,0.7551 -0.51693,1.20741 -1.37671,1.20462 -0.521108,-0.002 -0.968682,-0.15299 -1.486446,-0.50245 -0.406172,-0.27414 -0.565306,-0.47239 -0.706357,-0.88 -0.03868,-0.11178 -0.04968,-0.0901 -0.06767,0.13345 -0.01182,0.1468 -0.04025,0.26691 -0.06319,0.26691 -0.11218,0 -0.495745,-0.49398 -0.894441,-1.15194 -0.243463,-0.40177 -0.522463,-0.85693 -0.619999,-1.01146 -0.197289,-0.31256 -0.289033,-0.77919 -0.290923,-1.47973 -0.0014,-0.54001 -0.121376,-0.52546 -0.190838,0.0232 -0.02708,0.21391 -0.05907,0.39984 -0.07108,0.41318 -0.0397,0.0441 -0.420427,-0.35579 -0.665121,-0.69856 -0.35832,-0.50195 -0.490723,-0.80005 -0.836211,-1.88272 -0.229621,-0.71957 -0.358946,-1.03636 -0.481724,-1.18004 -0.09231,-0.10801 -0.168867,-0.18112 -0.170122,-0.16246 -0.0046,0.0683 1.00044,2.74228 1.317818,3.50618 0.341146,0.8211 0.935459,2.06316 1.592628,3.32845 0.369036,0.71052 0.420472,0.77882 1.156279,1.53525 0.776363,0.79813 0.987702,1.06532 0.988086,1.24918 3.18e-4,0.17157 0.165615,0.36433 0.568176,0.66277 0.367335,0.27232 0.64033,0.54792 0.591302,0.59694 -0.03549,0.0355 -0.460327,-0.21794 -0.85503,-0.51008 -0.674434,-0.49917 -1.878464,-1.94175 -2.663774,-3.19153 -0.457844,-0.72862 -1.360146,-2.51926 -1.679919,-3.33382 -0.13346,-0.33997 -0.470951,-1.225 -0.749979,-1.96674 -0.27903,-0.74174 -0.544664,-1.39918 -0.590297,-1.461 -0.07546,-0.10221 -0.07982,-0.0829 -0.04808,0.21313 0.0192,0.17903 0.107698,0.54568 0.196679,0.81479 0.122618,0.37082 1.485997,4.08608 1.72095,4.68964 0.02876,0.0739 0.01,0.0983 -0.07544,0.0983 -0.103279,0 -0.08115,0.0761 0.240994,0.82884 0.882112,2.06114 1.736986,3.58296 2.452476,4.36582 0.366153,0.40063 0.555551,0.50165 0.87337,0.46583 0.133956,-0.0151 0.243556,-0.01 0.243556,0.0127 0,0.0547 -0.7172,0.73729 -0.93309,0.88801 -0.238826,0.16674 -0.546333,0.20518 -1.034905,0.12938 -0.742315,-0.11517 -1.125247,-0.41064 -1.607205,-1.24012 -0.144941,-0.24945 -0.284844,-0.46672 -0.310895,-0.48282 -0.02605,-0.0161 -0.04736,0.086 -0.04736,0.22691 0,0.1409 -0.02034,0.25618 -0.04519,0.25618 -0.118746,0 -0.591334,-0.36579 -1.023385,-0.79211 -0.350832,-0.34618 -0.526327,-0.57164 -0.657531,-0.84473 -0.240278,-0.50012 -1.321371,-3.66782 -1.466234,-4.29619 -0.224939,-0.97573 -0.219419,-1.11535 0.07311,-1.8496 0.02587,-0.0649 -0.07217,3.2e-4 -0.232129,0.15453 -0.152297,0.1468 -0.291251,0.26692 -0.308788,0.26692 -0.01753,0 -0.04709,-0.19598 -0.06568,-0.4355 -0.0481,-0.6198 -0.469187,-3.06038 -0.566458,-3.28313 l -0.08154,-0.18674 -0.0046,0.30446 c -0.0073,0.48906 0.260444,2.56961 0.505003,3.9233 0.20173,1.11663 0.484888,2.18202 1.030681,3.87798 0.06689,0.20783 -0.03924,0.14374 -0.232774,-0.14059 -0.19951,-0.29312 -0.455105,-0.95003 -0.633313,-1.62769 -0.17514,-0.666 -0.758233,-3.92686 -0.964935,-5.39624 -0.10108,-0.71856 -0.203443,-1.30647 -0.227474,-1.30647 -0.07181,0 -0.04952,1.06769 0.03656,1.75104 0.04414,0.35043 0.108867,1.09228 0.143836,1.64859 0.12797,2.03584 0.223644,2.52737 0.56836,2.91998 0.192754,0.21952 0.19975,0.25488 0.05043,0.25488 -0.07612,0 -0.112383,0.0375 -0.112383,0.11609 0,0.19294 0.10389,0.32679 0.353079,0.45488 l 0.236938,0.12179 -0.154374,0.0421 c -0.177479,0.0484 -0.794135,-0.0667 -1.040723,-0.19426 -0.282452,-0.14606 -1.243683,-1.261 -1.463941,-1.69803 -0.06384,-0.12666 -0.155811,-0.45538 -0.204393,-0.7305 -0.04858,-0.27511 -0.150836,-0.71269 -0.227231,-0.97239 -0.123321,-0.41922 -0.174057,-0.79058 -0.345516,-2.52906 -0.04176,-0.42342 -0.130181,-0.25585 -0.130774,0.24782 -9.56e-4,0.78348 0.219394,3.24609 0.336825,3.76488 0.04384,0.19366 0.228152,0.75796 0.367083,1.12385 0.03383,0.0891 0.0063,0.0785 -0.133072,-0.0512 -0.193737,-0.18036 -0.261095,-0.35815 -0.512817,-1.35359 -0.16302,-0.64466 -0.293849,-1.60715 -0.366632,-2.69723 -0.01857,-0.27815 -0.04794,-0.65067 -0.06527,-0.82782 l -0.03151,-0.32209 -0.233417,0.16089 c -0.324643,0.22378 -0.81255,0.75257 -0.910344,0.98662 -0.102897,0.24626 -0.103318,0.48569 -0.0015,0.87645 0.170993,0.65649 0.323232,0.96581 0.646252,1.31303 0.237681,0.25549 0.411149,0.53274 0.688351,1.10017 0.320966,0.657 0.419715,0.80563 0.737394,1.1098 0.386634,0.37019 0.512724,0.41391 0.769869,0.26691 0.207534,-0.11863 0.23771,-0.10346 0.195494,0.0983 -0.05108,0.24418 -0.145767,0.33253 -0.402399,0.37544 l -0.214536,0.0359 0.320088,0.20613 c 0.176048,0.11337 0.356893,0.26421 0.401879,0.3352 0.101489,0.16014 0.175167,0.49431 0.108985,0.49431 -0.02693,0 -0.16169,-0.11581 -0.299473,-0.25735 -0.250465,-0.2573 -0.588341,-0.48435 -0.826489,-0.55539 -0.198464,-0.0592 -0.161944,0.15499 0.07024,0.41199 0.234202,0.25924 0.239877,0.28836 0.05619,0.28836 -0.188624,0 -0.179949,0.093 0.05154,0.5527 0.658036,1.30668 2.588477,3.5663 3.391234,3.96951 0.186453,0.0937 0.375328,0.14174 0.556566,0.14174 0.234484,0 0.295825,-0.0245 0.422261,-0.16857 0.129422,-0.14749 0.185451,-0.16868 0.448002,-0.16943 0.165044,-4.8e-4 0.331531,-0.0209 0.369972,-0.0453 0.03844,-0.0244 0.09193,-0.16233 0.118861,-0.30651 0.106803,-0.57168 0.356572,-0.68967 0.748947,-0.35381 0.127895,0.10947 0.315742,0.20797 0.435084,0.22813 0.330917,0.0559 0.547936,0.22213 0.71356,0.54651 0.201781,0.39522 0.222137,0.96482 0.04308,1.20563 -0.120454,0.16202 -0.455715,0.39051 -0.50324,0.34299 -0.0144,-0.0144 0.01207,-0.11777 0.05884,-0.22969 0.09739,-0.23308 0.111639,-0.52118 0.02833,-0.57266 -0.0894,-0.0552 -0.271582,0.0243 -0.306323,0.13375 -0.05326,0.16781 -0.252468,0.34419 -0.388739,0.34419 -0.07715,0 -0.204375,-0.0826 -0.315562,-0.20473 l -0.1863,-0.20473 -0.103958,0.20264 c -0.0816,0.15904 -0.155183,0.21643 -0.342088,0.26675 l -0.238131,0.0641 0.196255,0.0995 c 0.228065,0.1156 0.799682,0.18709 1.415359,0.17701 0.344336,-0.006 0.486251,-0.0357 0.696724,-0.14761 0.380781,-0.20246 0.502728,-0.18664 0.640328,0.083 0.06274,0.12299 0.186962,0.2613 0.276041,0.30737 0.208493,0.1078 0.477615,0.44891 0.624441,0.79143 0.156442,0.36497 0.107386,0.666 -0.178224,1.09371 -0.364057,0.54519 -0.903403,0.93752 -0.676111,0.49183 0.136657,-0.26797 0.12991,-0.87858 -0.01064,-0.96249 -0.08316,-0.0496 -0.11194,-0.0453 -0.135617,0.0208 -0.01653,0.0461 -0.102893,0.15659 -0.191912,0.24561 -0.143914,0.14392 -0.18775,0.15771 -0.395423,0.12451 -0.292387,-0.0467 -0.379619,-0.11788 -0.379619,-0.30952 0,-0.083 -0.03399,-0.19744 -0.07553,-0.25425 -0.07181,-0.0982 -0.08889,-0.0987 -0.347163,-0.0107 -0.514426,0.17528 -0.757344,0.0865 -0.757344,-0.27671 0,-0.23217 -0.09758,-0.251 -0.270456,-0.0521 -0.119237,0.13714 -0.313236,0.18032 -0.437853,0.0975 -0.03415,-0.0227 -0.09307,-0.13629 -0.130932,-0.25243 -0.03786,-0.11614 -0.115721,-0.23625 -0.173026,-0.26691 -0.117857,-0.0631 -0.336348,-0.075 -0.336348,-0.0184 0,0.0528 0.424254,0.81948 0.582699,1.05297 0.07276,0.10721 0.147856,0.29228 0.166882,0.41125 0.03077,0.19245 0.06282,0.22796 0.290488,0.32184 0.140744,0.058 0.343143,0.2021 0.449776,0.32014 0.157555,0.17439 0.184822,0.23846 0.14553,0.342 -0.02659,0.0701 -0.03624,0.25383 -0.02145,0.40836 0.03647,0.3809 -0.143038,0.88155 -0.419606,1.1703 -0.282822,0.29528 -0.611378,0.43644 -1.029647,0.44237 -0.298414,0.004 -0.358162,-0.014 -0.504455,-0.15419 -0.09127,-0.0875 -0.165948,-0.17667 -0.165948,-0.19828 0,-0.0216 0.108292,-0.0555 0.240649,-0.0754 0.342724,-0.0514 0.587999,-0.2171 0.648457,-0.43812 0.064,-0.23393 9.56e-4,-0.3086 -0.187823,-0.22256 -0.193589,0.0881 -0.282753,0.083 -0.388211,-0.0224 -0.129187,-0.12917 -0.107995,-0.40204 0.05249,-0.67588 0.07744,-0.13214 0.119276,-0.25355 0.09298,-0.26981 -0.02629,-0.0162 -0.15368,-0.0464 -0.283071,-0.0672 -0.421681,-0.0674 -0.608503,-0.4859 -0.427966,-0.95863 0.107147,-0.28056 0.07067,-0.35384 -0.17698,-0.35561 -0.158044,-9.6e-4 -0.188637,-0.0965 -0.188637,-0.5879 0,-0.52602 -0.101734,-0.6769 -0.485616,-0.72017 -0.224327,-0.0253 -0.293643,-0.0649 -0.456294,-0.2607 l -0.191786,-0.23088 -0.17255,0.12287 c -0.106984,0.0762 -0.286611,0.13233 -0.472722,0.14776 -0.298725,0.0248 -0.300343,0.024 -0.335588,-0.15219 l -0.03542,-0.17708 -0.193719,0.2263 c -0.226719,0.26488 -0.426007,0.29489 -0.726203,0.10936 -0.168677,-0.10425 -0.189256,-0.14397 -0.189256,-0.36525 0,-0.28292 -0.07341,-0.31958 -0.187721,-0.0938 -0.149947,0.29624 -0.16574,0.56715 -0.04499,0.77181 0.06104,0.10347 0.09746,0.20165 0.08093,0.21818 -0.03769,0.0377 -0.331632,-0.0111 -0.539223,-0.0895 -0.327173,-0.12358 -0.413502,-0.64604 -0.207342,-1.25481 0.129554,-0.38257 0.770219,-1.28702 0.979056,-1.38217 0.289612,-0.13196 0.616279,0.079 0.682858,0.44095 0.04716,0.25641 0.09882,0.29703 0.330035,0.25951 0.09924,-0.0161 0.270617,0.0109 0.392746,0.062 0.119173,0.0498 0.227969,0.0793 0.241772,0.0655 0.04738,-0.0474 -0.04266,-0.13424 -0.352174,-0.33968 -0.217163,-0.14414 -0.35018,-0.28467 -0.444079,-0.46912 -0.07372,-0.14483 -0.195327,-0.32046 -0.270219,-0.39029 -0.118977,-0.11092 -0.15849,-0.11917 -0.312941,-0.0654 -0.257732,0.0899 -0.500288,-0.0105 -0.826952,-0.34217 -0.29726,-0.30179 -0.420831,-0.34945 -0.420831,-0.16233 0,0.15414 -0.347912,0.50012 -0.502902,0.50012 -0.155007,0 -0.394878,-0.1243 -0.531762,-0.27556 -0.149921,-0.16566 -0.09877,-0.18371 0.208022,-0.0734 0.392129,0.14101 0.457316,0.0786 0.477803,-0.4577 0.0091,-0.23627 -0.0058,-0.42958 -0.03286,-0.42958 -0.02709,0 -0.11686,0.0759 -0.199471,0.16857 -0.113934,0.12788 -0.198718,0.16858 -0.351124,0.16858 -0.110507,0 -0.191202,-0.0189 -0.179323,-0.0421 0.306135,-0.59734 0.331111,-0.84294 0.129027,-1.26881 -0.108297,-0.22821 -0.568093,-0.76817 -0.654134,-0.76817 -0.03075,0 -0.03786,0.1135 -0.01698,0.27095 0.03114,0.23472 0.01824,0.2903 -0.0964,0.4155 -0.124553,0.13603 -0.485957,0.29919 -0.540933,0.24422 -0.01382,-0.0138 0.02759,-0.0991 0.092,-0.1896 0.175599,-0.2466 0.243612,-0.46647 0.206118,-0.66633 -0.04707,-0.25091 -1.417793,-2.30241 -1.719968,-2.57419 l -0.248678,-0.22368 -0.0281,0.22288 -0.0281,0.22287 -0.126433,-0.16131 c -0.06954,-0.0887 -0.126433,-0.19142 -0.126433,-0.22823 0,-0.0796 -0.213456,-0.28065 -0.348455,-0.32817 -0.153118,-0.0539 -0.316831,0.12695 -0.523953,0.57882 -0.13973,0.30485 -0.193459,0.50175 -0.194209,0.71171 -9.55e-4,0.26656 0.01744,0.30779 0.225069,0.50454 0.195092,0.18486 0.212433,0.21965 0.126433,0.25365 -0.171581,0.0678 -0.407536,0.0508 -0.587767,-0.0424 l -0.173455,-0.0897 0.02849,0.29654 c 0.02528,0.26312 0.05744,0.3239 0.285359,0.53923 0.141276,0.13349 0.307926,0.2427 0.370333,0.2427 0.149868,0 0.32779,-0.19706 0.37468,-0.41499 0.100063,-0.46505 0.39819,-0.69428 0.812018,-0.62436 0.30872,0.0521 0.84145,0.32316 1.05646,0.53743 0.279518,0.27856 0.363755,0.47788 0.333782,0.78982 -0.04873,0.50719 -0.501482,0.88823 -1.058542,0.8909 -0.287385,9.7e-4 -0.458263,-0.13125 -0.52327,-0.40615 -0.04354,-0.18413 -0.0144,-0.19115 0.175037,-0.0421 0.181553,0.14281 0.441987,0.14305 0.675592,6.3e-4 0.199591,-0.12169 0.245522,-0.32799 0.09992,-0.44883 -0.0665,-0.0551 -0.120088,-0.0455 -0.273547,0.0493 -0.121933,0.0754 -0.284826,0.11795 -0.451124,0.11795 -0.290398,0 -0.330183,-0.056 -0.1198,-0.16858 0.159569,-0.0854 0.18391,-0.21163 0.05066,-0.26276 -0.06149,-0.0236 -0.181092,0.0633 -0.379298,0.27553 -0.356771,0.38204 -0.543948,0.43197 -1.013613,0.27038 l -0.32365,-0.11135 0.03732,0.18102 c 0.056,0.27157 0.270756,0.72008 0.441387,0.9218 0.08322,0.0984 0.241577,0.20867 0.351913,0.24509 0.170935,0.0564 0.214303,0.0523 0.29317,-0.0278 0.08601,-0.0873 0.08483,-0.0997 -0.01652,-0.17484 -0.05999,-0.0445 -0.167461,-0.0808 -0.238817,-0.0808 -0.16935,0 -0.161583,-0.0584 0.02595,-0.1954 0.217049,-0.15848 0.556474,-0.14855 0.693183,0.0203 0.236817,0.29245 0.05721,0.83684 -0.330335,1.00126 -0.187009,0.0794 -0.243747,0.08 -0.528711,0.007 l -0.31922,-0.082 0.07833,0.15146 c 0.04307,0.0833 0.123511,0.17221 0.178739,0.19757 0.05523,0.0254 0.418421,0.0601 0.807094,0.0771 0.647298,0.0284 0.726005,0.0437 0.936673,0.18326 0.305937,0.20261 0.481211,0.24316 0.573012,0.13254 0.06006,-0.0723 0.05688,-0.11178 -0.01822,-0.2264 -0.1199,-0.18299 -0.11593,-0.19893 0.04954,-0.19893 0.164487,0 0.36525,0.18017 0.36525,0.32779 0,0.16102 0.04739,0.17411 0.30839,0.0852 0.192032,-0.0655 0.291565,-0.0699 0.472239,-0.0212 0.274861,0.074 0.36641,0.22 0.326158,0.52011 -0.03162,0.23574 -0.09466,0.34123 -0.135546,0.22682 -0.01366,-0.0382 -0.06978,-0.125 -0.124731,-0.19285 -0.09542,-0.11784 -0.108436,-0.11943 -0.290576,-0.0354 -0.104876,0.0483 -0.285509,0.11811 -0.401405,0.15506 -0.115897,0.037 -0.210721,0.0897 -0.210721,0.11725 0,0.0275 0.134909,0.14972 0.299798,0.27153 0.389736,0.28792 0.582199,0.52142 0.656159,0.79609 0.155793,0.57857 -0.334101,1.12129 -1.01215,1.12129 -0.344437,0 -0.571866,-0.10666 -0.665472,-0.31211 -0.09585,-0.21036 -0.05591,-0.22217 0.189092,-0.0559 0.221393,0.15024 0.521589,0.18796 0.630351,0.0792 0.04795,-0.048 0.02008,-0.0938 -0.110863,-0.18263 -0.243609,-0.16512 -0.260937,-0.25904 -0.04779,-0.25904 0.200414,0 0.219804,-0.0816 0.08627,-0.36301 -0.115299,-0.24299 -0.285457,-0.31129 -0.775389,-0.31129 -0.551154,0 -0.686525,0.14196 -0.404396,0.42409 l 0.138025,0.13803 -0.120524,0.11228 c -0.07018,0.0654 -0.198251,0.11229 -0.306602,0.11229 -0.118411,0 -0.186077,0.0275 -0.186077,0.0756 0,0.0836 0.1524,0.23329 0.276288,0.27142 0.132313,0.0408 -0.1614,0.27112 -0.345631,0.27112 -0.28202,0 -0.547379,-0.39974 -0.548459,-0.82619 -6.22e-4,-0.2461 -0.148731,-0.43627 -0.698368,-0.8967 -0.307675,-0.25774 -0.583354,-0.46861 -0.612621,-0.46861 -0.03092,0 -0.03835,0.1084 -0.01775,0.25878 0.02961,0.21602 0.02158,0.25316 -0.04855,0.22477 -0.04621,-0.0187 -0.121954,-0.0493 -0.168313,-0.0681 -0.04636,-0.0187 -0.08429,-0.008 -0.08429,0.0254 0,0.11478 0.12841,0.33994 0.212203,0.37209 0.09672,0.0371 0.340501,-0.10544 0.386848,-0.22623 0.05106,-0.13307 0.108894,-0.0931 0.174508,0.12073 0.06588,0.21465 0.04551,0.33057 -0.08484,0.48268 -0.07285,0.085 -0.04671,0.12095 0.263308,0.36169 0.442446,0.3436 0.576851,0.561 0.586083,0.94802 0.0096,0.40212 -0.137383,0.61117 -0.447941,0.63715 -0.218746,0.0183 -0.640628,-0.0863 -0.640628,-0.15892 0,-0.0211 0.101146,-0.0686 0.224768,-0.10564 0.253069,-0.0758 0.277354,-0.13202 0.108249,-0.25046 -0.09897,-0.0693 -0.106099,-0.0983 -0.04732,-0.19241 0.103704,-0.16607 0.0274,-0.29427 -0.175127,-0.29427 -0.154676,0 -0.187514,0.0309 -0.296771,0.27964 -0.06757,0.1538 -0.137759,0.28022 -0.155977,0.28096 -0.01822,7.9e-4 -0.06342,-0.0652 -0.10044,-0.14643 -0.03702,-0.0812 -0.08209,-0.13297 -0.100136,-0.11491 -0.06564,0.0657 0.264595,0.53409 0.585254,0.8302 0.180735,0.16689 0.461911,0.37558 0.624834,0.46373 0.268285,0.14517 0.338076,0.15839 0.739954,0.14014 0.329721,-0.015 0.469228,-0.0457 0.542974,-0.11939 0.09486,-0.0948 0.09369,-0.10973 -0.02658,-0.33681 -0.0692,-0.13067 -0.12576,-0.30812 -0.125674,-0.39434 2.23e-4,-0.20857 0.185886,-0.56296 0.371416,-0.7089 0.429462,-0.33782 1.405918,0.11623 1.516393,0.7051 0.02282,0.12161 -0.0013,0.38722 -0.06066,0.67045 -0.106188,0.506 -0.09918,0.60572 0.07872,1.11969 0.06418,0.18544 0.13128,0.43561 0.149106,0.55593 l 0.03242,0.21877 0.515721,-0.046 c 0.932685,-0.0832 1.117131,-0.067 1.495918,0.13159 0.18808,0.0986 0.404812,0.17925 0.481624,0.17925 0.207484,0 0.169344,0.0912 -0.08511,0.20343 -0.170918,0.0754 -0.224768,0.13101 -0.224768,0.23207 0,0.12159 0.02031,0.13142 0.238816,0.11562 0.224161,-0.0162 0.239898,-0.0285 0.256427,-0.19991 0.02001,-0.20751 0.04668,-0.21848 0.225911,-0.0929 0.178591,0.12509 0.146821,0.39354 -0.06521,0.55097 -0.134818,0.1001 -0.238481,0.11794 -0.685502,0.11794 -0.479142,0 -0.529388,0.0101 -0.556848,0.11238 -0.08195,0.30513 0.04478,0.53383 0.295813,0.53383 0.127928,0 0.176017,-0.18476 0.06582,-0.25287 -0.12192,-0.0753 -0.04522,-0.14047 0.165443,-0.14047 0.326828,0 0.534406,0.19625 0.534406,0.50525 0,0.20075 -0.03132,0.26492 -0.208618,0.4274 -0.343626,0.31491 -0.732058,0.23841 -1.304327,-0.25688 -0.286938,-0.24834 -0.300137,-0.25197 -0.607689,-0.16656 -0.116959,0.0324 -0.262633,0.0432 -0.323723,0.0238 -0.100852,-0.0321 -0.314179,-0.34741 -0.266932,-0.39466 0.01087,-0.0109 0.119495,0.003 0.241383,0.0302 0.121887,0.0275 0.231793,0.0398 0.244232,0.0273 0.01244,-0.0125 -0.04014,-0.0972 -0.11684,-0.18835 -0.0767,-0.0911 -0.156182,-0.27032 -0.176623,-0.39816 l -0.03717,-0.23243 -0.406102,0.0165 c -0.404654,0.0164 -0.406436,0.0172 -0.500084,0.21651 -0.119728,0.25483 -0.194457,0.31455 -0.454368,0.36312 -0.226605,0.0424 -0.254461,0.005 -0.124645,-0.1665 0.221089,-0.2923 0.05936,-0.43 -1.127955,-0.96035 -1.511652,-0.67522 -1.60475,-0.74338 -2.178088,-1.59469 -0.44714,-0.66394 -0.500955,-0.65761 -0.34698,0.0408 0.120798,0.54792 0.218977,0.78438 0.409113,0.98535 0.217015,0.22939 0.376528,0.27856 0.573357,0.17678 0.08944,-0.0463 0.177911,-0.0841 0.196594,-0.0841 0.01868,0 0.02625,0.12011 0.01684,0.26691 -0.01371,0.21383 -0.04227,0.27794 -0.143559,0.32238 -0.06954,0.0305 -0.126432,0.0829 -0.126432,0.11663 0,0.0831 0.214069,0.27278 0.432698,0.38325 0.09891,0.05 0.313845,0.0919 0.477635,0.0932 0.179611,9.6e-4 0.375854,0.0441 0.494473,0.10763 0.193325,0.1035 0.199781,0.10338 0.379298,-0.007 l 0.182625,-0.11222 v 0.19926 0.19926 l 0.260818,-0.11179 c 0.143451,-0.0615 0.270742,-0.10188 0.282871,-0.0897 0.05976,0.0598 -0.118566,0.59885 -0.267266,0.80796 l -0.168653,0.23717 0.12874,0.0262 c 0.07081,0.0144 0.238527,0.0411 0.372714,0.0593 0.471485,0.064 0.925041,0.40531 1.101792,0.82908 0.11029,0.26443 0.110325,0.45423 1.13e-4,0.66734 -0.259248,0.50134 -1.205399,0.52293 -1.205399,0.0275 0,-0.15261 0.07909,-0.22739 0.29501,-0.27897 0.179175,-0.0428 0.183851,-0.0297 0.0688,0.19278 -0.08532,0.165 -0.08496,0.16579 0.07558,0.16579 0.08872,0 0.205419,-0.0488 0.259329,-0.10831 0.08572,-0.0947 0.08857,-0.12785 0.02276,-0.26408 -0.116008,-0.24011 -0.356951,-0.34395 -0.899381,-0.38761 l -0.486968,-0.0392 0.09027,0.25104 c 0.08059,0.2241 0.08137,0.27442 0.0073,0.46894 -0.04628,0.12159 -0.162118,0.27127 -0.262077,0.33864 -0.166785,0.11239 -0.665516,0.23118 -0.724207,0.17249 -0.01433,-0.0143 0.03856,-0.0958 0.117534,-0.181 0.1699,-0.18333 0.178362,-0.25822 0.04301,-0.38071 -0.09066,-0.0821 -0.130857,-0.0829 -0.407394,-0.01 -0.168747,0.0449 -0.313616,0.082 -0.321931,0.0823 -0.0083,3.2e-4 3.19e-4,-0.0607 0.01912,-0.13576 0.05693,-0.22682 -0.02279,-0.35332 -0.332994,-0.5284 -0.162699,-0.0918 -0.373899,-0.25588 -0.469335,-0.36457 -0.166356,-0.18947 -0.382568,-0.6747 -0.449291,-1.00832 -0.04833,-0.24165 -0.157669,-0.14742 -0.153484,0.13228 0.0062,0.41496 0.136944,1.23703 0.223277,1.40398 0.114452,0.22133 0.296787,0.33287 0.544116,0.33287 0.116747,0 0.212265,0.0131 0.212265,0.0293 0,0.016 -0.06322,0.12935 -0.14048,0.25175 -0.07727,0.12239 -0.140482,0.23567 -0.140482,0.25174 0,0.0928 0.297278,0.004 0.483957,-0.14467 0.176438,-0.14043 0.221958,-0.15656 0.236704,-0.0838 0.03571,0.17611 -0.112057,0.478 -0.330611,0.67545 -0.188858,0.17062 -0.261409,0.20032 -0.488547,0.20001 -0.171627,-1.6e-4 -0.326867,-0.0402 -0.435329,-0.11201 -0.168601,-0.11166 -0.365788,-0.14965 -0.364641,-0.0702 0.0012,0.0761 0.159504,0.56754 0.218412,0.6776 0.05653,0.10562 0.260446,0.21039 0.483383,0.24835 0.101394,0.0173 0.09679,0.0295 -0.04713,0.12527 -0.100098,0.0666 -0.274608,0.11015 -0.468496,0.11692 -0.375916,0.0131 -0.502016,0.11916 -0.600418,0.50489 -0.06864,0.26911 -0.18069,0.3872 -0.229765,0.24218 z m -4.312949,-8.48916 c 0.05265,-0.10015 0.176466,-0.26146 0.275149,-0.35846 l 0.179426,-0.17639 -0.134331,-0.12619 c -0.192683,-0.18102 -0.410261,-0.1628 -0.600657,0.0503 -0.193146,0.21616 -0.2129,0.51284 -0.04531,0.68044 0.154604,0.1546 0.214544,0.14178 0.325719,-0.0697 z m 9.114584,0.0697 c 0.167595,-0.1676 0.147841,-0.46428 -0.04531,-0.68044 -0.190395,-0.21309 -0.407971,-0.23131 -0.600655,-0.0503 l -0.134333,0.12619 0.179427,0.17639 c 0.09868,0.097 0.222501,0.25831 0.275149,0.35846 0.111176,0.21147 0.171116,0.22429 0.325719,0.0697 z m -13.19041,-5.10615 c 0.182075,-0.20154 0.367576,-0.59899 0.307568,-0.65901 -0.02329,-0.0233 -0.575782,0.63144 -0.680309,0.80619 -0.02782,0.0465 -0.0051,0.0702 0.06715,0.0702 0.06004,0 0.197557,-0.0978 0.305592,-0.21743 z m 17.313259,0.14718 c -0.104526,-0.17475 -0.65702,-0.82948 -0.68031,-0.80619 -0.0143,0.0143 0.0048,0.11953 0.04256,0.2338 0.08584,0.26012 0.425487,0.64264 0.570596,0.64264 0.07227,0 0.09497,-0.0238 0.06715,-0.0702 z M 20.849962,251.98397 c 0.194154,-0.22608 0.181762,-0.23882 -0.232292,-0.23882 -0.218164,0 -0.396663,0.0206 -0.396663,0.0456 0,0.0251 0.05156,0.10093 0.114574,0.16858 0.138442,0.1486 0.397281,0.16099 0.514381,0.0246 z m 11.731158,-0.0246 c 0.06302,-0.0677 0.114574,-0.14351 0.114574,-0.16858 0,-0.0251 -0.178498,-0.0456 -0.396663,-0.0456 -0.414054,0 -0.426445,0.0127 -0.232293,0.23882 0.117102,0.13635 0.375942,0.12395 0.514382,-0.0246 z"
       id="path1663"
       inkscape:connector-curvature="0" />
  </g>
  <style
     type="text/css"
     id="style851">
	.st0{fill:#3A3A3A;}
</style>
</svg>
