<?xml version="1.0" encoding="UTF-8" standalone="no"?>
<!-- Created with Inkscape (http://www.inkscape.org/) -->

<svg
   xmlns:dc="http://purl.org/dc/elements/1.1/"
   xmlns:cc="http://creativecommons.org/ns#"
   xmlns:rdf="http://www.w3.org/1999/02/22-rdf-syntax-ns#"
   xmlns:svg="http://www.w3.org/2000/svg"
   xmlns="http://www.w3.org/2000/svg"
   xmlns:sodipodi="http://sodipodi.sourceforge.net/DTD/sodipodi-0.dtd"
   xmlns:inkscape="http://www.inkscape.org/namespaces/inkscape"
   width="200"
   height="200"
   viewBox="0 0 52.916665 52.916668"
   version="1.1"
   id="svg8"
   inkscape:version="0.92.4 (5da689c313, 2019-01-14)"
   sodipodi:docname="logo-69.svg">
  <defs
     id="defs2" />
  <sodipodi:namedview
     id="base"
     pagecolor="#ffffff"
     bordercolor="#666666"
     borderopacity="1.0"
     inkscape:pageopacity="0.0"
     inkscape:pageshadow="2"
     inkscape:zoom="2.4723636"
     inkscape:cx="88.005013"
     inkscape:cy="101.97373"
     inkscape:document-units="px"
     inkscape:current-layer="layer1"
     showgrid="true"
     units="px"
     inkscape:window-width="1780"
     inkscape:window-height="1082"
     inkscape:window-x="2127"
     inkscape:window-y="236"
     inkscape:window-maximized="0"
     showguides="false"
     inkscape:snap-global="false">
    <inkscape:grid
       type="xygrid"
       id="grid912" />
  </sodipodi:namedview>
  <metadata
     id="metadata5">
    <rdf:RDF>
      <cc:Work
         rdf:about="">
        <dc:format>image/svg+xml</dc:format>
        <dc:type
           rdf:resource="http://purl.org/dc/dcmitype/StillImage" />
        <dc:title></dc:title>
      </cc:Work>
    </rdf:RDF>
  </metadata>
  <g
     inkscape:label="Layer 1"
     inkscape:groupmode="layer"
     id="layer1"
     transform="translate(0,-244.08332)">
    <g
       style="fill:#ff00ff;stroke:none"
       id="g838"
       transform="matrix(0.01550293,0,0,0.01550293,75.671074,250.18703)" />
    <g
       style="fill:#ff00ff;stroke:none"
       id="g840"
       transform="matrix(0.01550293,0,0,0.01550293,75.671074,250.18703)" />
    <g
       style="fill:#ff00ff;stroke:none"
       id="g842"
       transform="matrix(0.01550293,0,0,0.01550293,75.671074,250.18703)" />
    <g
       style="fill:#ff00ff;stroke:none"
       id="g844"
       transform="matrix(0.01550293,0,0,0.01550293,75.671074,250.18703)" />
    <g
       style="fill:#ff00ff;stroke:none"
       id="g846"
       transform="matrix(0.01550293,0,0,0.01550293,75.671074,250.18703)" />
    <g
       style="fill:#ff00ff;stroke:none"
       id="g848"
       transform="matrix(0.01550293,0,0,0.01550293,75.671074,250.18703)" />
    <g
       style="fill:#ff00ff;stroke:none"
       id="g850"
       transform="matrix(0.01550293,0,0,0.01550293,75.671074,250.18703)" />
    <g
       style="fill:#ff00ff;stroke:none"
       id="g852"
       transform="matrix(0.01550293,0,0,0.01550293,75.671074,250.18703)" />
    <g
       style="fill:#ff00ff;stroke:none"
       id="g854"
       transform="matrix(0.01550293,0,0,0.01550293,75.671074,250.18703)" />
    <g
       style="fill:#ff00ff;stroke:none"
       id="g856"
       transform="matrix(0.01550293,0,0,0.01550293,75.671074,250.18703)" />
    <g
       style="fill:#ff00ff;stroke:none"
       id="g858"
       transform="matrix(0.01550293,0,0,0.01550293,75.671074,250.18703)" />
    <g
       style="fill:#ff00ff;stroke:none"
       id="g860"
       transform="matrix(0.01550293,0,0,0.01550293,75.671074,250.18703)" />
    <g
       style="fill:#ff00ff;stroke:none"
       id="g862"
       transform="matrix(0.01550293,0,0,0.01550293,75.671074,250.18703)" />
    <g
       style="fill:#ff00ff;stroke:none"
       id="g864"
       transform="matrix(0.01550293,0,0,0.01550293,75.671074,250.18703)" />
    <g
       style="fill:#ff00ff;stroke:none"
       id="g866"
       transform="matrix(0.01550293,0,0,0.01550293,75.671074,250.18703)" />
    <path
       inkscape:connector-curvature="0"
       id="path1588"
       style="font-style:normal;font-variant:normal;font-weight:100;font-stretch:normal;font-size:55.84382248px;line-height:1.25;font-family:'Apple Chancery';-inkscape-font-specification:'Apple Chancery, Thin';font-variant-ligatures:normal;font-variant-caps:normal;font-variant-numeric:normal;font-feature-settings:normal;text-align:start;letter-spacing:0px;word-spacing:0px;writing-mode:lr-tb;text-anchor:start;fill:#ff00ff;fill-opacity:1;stroke:none;stroke-width:5.23534918"
       d="m 9.6615588,267.41953 -4.4446011,4.25373 q -0.6271523,-2.12687 -0.6271523,-4.22646 0,-7.03502 5.2353583,-11.28875 5.2353583,-4.25372 13.9064203,-4.25372 h 2.154132 q -1.227037,6.24425 -1.472444,8.39838 l -0.899828,8.15298 q 12.733919,-16.44229 20.941434,-16.44229 2.045062,0 3.871984,0.54535 l -3.517507,3.81744 q -1.526979,-0.89982 -3.408436,-0.89982 -3.517507,0 -7.334955,3.32663 -3.817449,3.32663 -6.216988,8.48019 2.563144,4.96268 5.97158,9.59816 l 2.944889,3.98105 q 2.944889,4.00832 4.580939,4.00832 2.208667,0 4.035589,-3.19029 0.736222,0.62715 0.736222,1.03616 0,1.60878 -2.399539,3.89925 -2.372272,2.29047 -4.035589,2.29047 -2.999424,0 -8.452923,-7.74397 -4.908148,-7.00774 -7.7167,-12.67938 l -0.572617,5.15356 -0.354477,3.02669 q -0.463548,3.87198 -1.690585,5.58983 -1.199769,1.71786 -4.635473,3.3539 l 6.435128,0.40902 -3.272099,3.16303 -11.8068241,-0.59989 3.4902391,-3.38117 2.972156,0.32721 q 3.326634,-2.09959 4.090124,-8.58926 l 0.299943,-2.64494 2.099596,-19.08725 h -0.845292 q -11.3432763,0 -11.3432763,7.49856 0,2.34501 1.2815721,4.71728 z" />
  </g>
  <style
     type="text/css"
     id="style851">
	.st0{fill:#3A3A3A;}
</style>
</svg>
