<?xml version="1.0" encoding="UTF-8" standalone="no"?>
<!-- Created with Inkscape (http://www.inkscape.org/) -->

<svg
   xmlns:dc="http://purl.org/dc/elements/1.1/"
   xmlns:cc="http://creativecommons.org/ns#"
   xmlns:rdf="http://www.w3.org/1999/02/22-rdf-syntax-ns#"
   xmlns:svg="http://www.w3.org/2000/svg"
   xmlns="http://www.w3.org/2000/svg"
   xmlns:sodipodi="http://sodipodi.sourceforge.net/DTD/sodipodi-0.dtd"
   xmlns:inkscape="http://www.inkscape.org/namespaces/inkscape"
   width="200"
   height="200"
   viewBox="0 0 52.916665 52.916668"
   version="1.1"
   id="svg8"
   inkscape:version="0.92.4 (5da689c313, 2019-01-14)"
   sodipodi:docname="logo-72.svg">
  <defs
     id="defs2" />
  <sodipodi:namedview
     id="base"
     pagecolor="#ffffff"
     bordercolor="#666666"
     borderopacity="1.0"
     inkscape:pageopacity="0.0"
     inkscape:pageshadow="2"
     inkscape:zoom="2.4723636"
     inkscape:cx="88.005013"
     inkscape:cy="101.97373"
     inkscape:document-units="px"
     inkscape:current-layer="layer1"
     showgrid="true"
     units="px"
     inkscape:window-width="1780"
     inkscape:window-height="1082"
     inkscape:window-x="2127"
     inkscape:window-y="236"
     inkscape:window-maximized="0"
     showguides="false"
     inkscape:snap-global="false">
    <inkscape:grid
       type="xygrid"
       id="grid912" />
  </sodipodi:namedview>
  <metadata
     id="metadata5">
    <rdf:RDF>
      <cc:Work
         rdf:about="">
        <dc:format>image/svg+xml</dc:format>
        <dc:type
           rdf:resource="http://purl.org/dc/dcmitype/StillImage" />
        <dc:title></dc:title>
      </cc:Work>
    </rdf:RDF>
  </metadata>
  <g
     inkscape:label="Layer 1"
     inkscape:groupmode="layer"
     id="layer1"
     transform="translate(0,-244.08332)">
    <g
       style="fill:#ff00ff;stroke:none"
       id="g838"
       transform="matrix(0.01550293,0,0,0.01550293,75.671074,250.18703)" />
    <g
       style="fill:#ff00ff;stroke:none"
       id="g840"
       transform="matrix(0.01550293,0,0,0.01550293,75.671074,250.18703)" />
    <g
       style="fill:#ff00ff;stroke:none"
       id="g842"
       transform="matrix(0.01550293,0,0,0.01550293,75.671074,250.18703)" />
    <g
       style="fill:#ff00ff;stroke:none"
       id="g844"
       transform="matrix(0.01550293,0,0,0.01550293,75.671074,250.18703)" />
    <g
       style="fill:#ff00ff;stroke:none"
       id="g846"
       transform="matrix(0.01550293,0,0,0.01550293,75.671074,250.18703)" />
    <g
       style="fill:#ff00ff;stroke:none"
       id="g848"
       transform="matrix(0.01550293,0,0,0.01550293,75.671074,250.18703)" />
    <g
       style="fill:#ff00ff;stroke:none"
       id="g850"
       transform="matrix(0.01550293,0,0,0.01550293,75.671074,250.18703)" />
    <g
       style="fill:#ff00ff;stroke:none"
       id="g852"
       transform="matrix(0.01550293,0,0,0.01550293,75.671074,250.18703)" />
    <g
       style="fill:#ff00ff;stroke:none"
       id="g854"
       transform="matrix(0.01550293,0,0,0.01550293,75.671074,250.18703)" />
    <g
       style="fill:#ff00ff;stroke:none"
       id="g856"
       transform="matrix(0.01550293,0,0,0.01550293,75.671074,250.18703)" />
    <g
       style="fill:#ff00ff;stroke:none"
       id="g858"
       transform="matrix(0.01550293,0,0,0.01550293,75.671074,250.18703)" />
    <g
       style="fill:#ff00ff;stroke:none"
       id="g860"
       transform="matrix(0.01550293,0,0,0.01550293,75.671074,250.18703)" />
    <g
       style="fill:#ff00ff;stroke:none"
       id="g862"
       transform="matrix(0.01550293,0,0,0.01550293,75.671074,250.18703)" />
    <g
       style="fill:#ff00ff;stroke:none"
       id="g864"
       transform="matrix(0.01550293,0,0,0.01550293,75.671074,250.18703)" />
    <g
       style="fill:#ff00ff;stroke:none"
       id="g866"
       transform="matrix(0.01550293,0,0,0.01550293,75.671074,250.18703)" />
    <path
       inkscape:connector-curvature="0"
       id="path1600"
       style="font-style:normal;font-variant:normal;font-weight:100;font-stretch:normal;font-size:42.70068359px;line-height:1.25;font-family:'Apple Chancery';-inkscape-font-specification:'Apple Chancery, Thin';font-variant-ligatures:normal;font-variant-caps:normal;font-variant-numeric:normal;font-feature-settings:normal;text-align:start;letter-spacing:0px;word-spacing:0px;writing-mode:lr-tb;text-anchor:start;fill:#ff00ff;fill-opacity:1;stroke:none;stroke-width:4.00318241"
       d="m 6.8906606,273.25215 -3.3776908,3.25259 q -0.5003987,-1.6263 -0.5003987,-3.25259 0,-5.12909 3.8780895,-8.54848 3.8989394,-3.44024 9.7369234,-3.44024 0.813148,0 1.522046,0.0625 0.792298,0.0625 1.000797,0.0625 h 0.22935 q -0.0834,0.72975 -0.0834,1.0425 0,4.29508 5.566935,10.92537 l 1.563745,1.83479 1.376097,1.64715 q 2.189244,2.60624 3.46109,4.79548 L 32.66119,270.3123 q 1.313547,-10.36242 4.816337,-14.53241 4.003189,-4.75378 8.840376,-4.75378 1.813945,0 3.58619,0.66719 l -3.085791,3.06495 q -1.897345,-1.10505 -3.356841,-1.10505 -3.231741,0 -4.920587,2.98154 -1.667995,2.96069 -2.606243,10.34157 l -2.210094,17.6599 -2.627092,5.42099 q -0.959098,-3.83639 -2.043295,-5.83798 -1.084197,-2.0016 -4.315938,-5.87969 l -1.605446,-1.93904 q -3.71129,-4.48274 -5.254185,-8.02723 l -1.042498,9.38247 -0.250199,2.2518 q -0.333599,2.79389 -1.084197,4.10744 -0.729748,1.29269 -2.939842,2.93984 l 4.607838,0.417 -2.481144,2.41859 -9.069725,-0.4587 2.6896427,-2.58539 2.3143433,0.2085 q 1.584596,-1.14675 2.189244,-2.48115 0.604649,-1.33439 0.959098,-4.42018 l 0.187649,-1.81395 1.605446,-14.42816 H 14.58429 q -8.6735768,0 -8.6735768,5.73374 0,1.79309 0.9799474,3.60704 z" />
  </g>
  <style
     type="text/css"
     id="style851">
	.st0{fill:#3A3A3A;}
</style>
</svg>
