<?xml version="1.0" encoding="UTF-8" standalone="no"?>
<!-- Created with Inkscape (http://www.inkscape.org/) -->

<svg
   xmlns:dc="http://purl.org/dc/elements/1.1/"
   xmlns:cc="http://creativecommons.org/ns#"
   xmlns:rdf="http://www.w3.org/1999/02/22-rdf-syntax-ns#"
   xmlns:svg="http://www.w3.org/2000/svg"
   xmlns="http://www.w3.org/2000/svg"
   xmlns:sodipodi="http://sodipodi.sourceforge.net/DTD/sodipodi-0.dtd"
   xmlns:inkscape="http://www.inkscape.org/namespaces/inkscape"
   width="200"
   height="200"
   viewBox="0 0 52.916665 52.916668"
   version="1.1"
   id="svg8"
   inkscape:version="0.92.4 (5da689c313, 2019-01-14)"
   sodipodi:docname="logo-87.svg">
  <defs
     id="defs2" />
  <sodipodi:namedview
     id="base"
     pagecolor="#ffffff"
     bordercolor="#666666"
     borderopacity="1.0"
     inkscape:pageopacity="0.0"
     inkscape:pageshadow="2"
     inkscape:zoom="0.76201582"
     inkscape:cx="88.005013"
     inkscape:cy="101.97373"
     inkscape:document-units="px"
     inkscape:current-layer="layer1"
     showgrid="true"
     units="px"
     inkscape:window-width="1780"
     inkscape:window-height="1082"
     inkscape:window-x="2127"
     inkscape:window-y="236"
     inkscape:window-maximized="0"
     showguides="false"
     inkscape:snap-global="false">
    <inkscape:grid
       type="xygrid"
       id="grid912" />
  </sodipodi:namedview>
  <metadata
     id="metadata5">
    <rdf:RDF>
      <cc:Work
         rdf:about="">
        <dc:format>image/svg+xml</dc:format>
        <dc:type
           rdf:resource="http://purl.org/dc/dcmitype/StillImage" />
        <dc:title></dc:title>
      </cc:Work>
    </rdf:RDF>
  </metadata>
  <g
     inkscape:label="Layer 1"
     inkscape:groupmode="layer"
     id="layer1"
     transform="translate(0,-244.08332)">
    <path
       style="fill:#ff00ff;stroke-width:0.07039182"
       d="m 21.99542,288.66098 0.246957,-0.53451 -0.163547,-0.23746 c -0.08995,-0.1306 -1.383086,-1.8909 -2.873633,-3.91176 -1.490547,-2.02087 -3.004044,-4.07296 -3.363328,-4.56021 -0.359283,-0.48726 -0.825071,-1.12349 -1.035083,-1.41386 -0.210012,-0.29036 -0.984218,-1.3436 -1.720457,-2.34052 l -1.338617,-1.81259 h 1.577445 1.577445 l 1.095059,1.49582 c 0.602282,0.82271 1.760214,2.3986 2.57318,3.50199 0.812967,1.1034 2.070837,2.81392 2.795266,3.80116 1.160764,1.58188 2.608575,3.54853 3.090721,4.19832 l 0.164115,0.22117 0.582945,-0.17441 c 2.241498,-0.67067 4.198203,-1.66565 5.866701,-2.98322 0.717946,-0.56694 2.133575,-1.98257 2.700519,-2.70052 1.686471,-2.13565 2.807966,-4.58245 3.353448,-7.31631 l 0.191366,-0.9591 h 2.217021 2.217021 l -0.0468,0.40476 c -0.07508,0.64942 -0.368393,1.95818 -0.636559,2.84038 -0.947535,3.11712 -2.954415,6.1956 -5.350403,8.20731 -2.423471,2.03478 -5.372917,3.34465 -8.306323,3.68888 -0.696461,0.0817 -3.270623,0.0555 -3.489738,-0.0356 -0.06564,-0.0273 -0.494202,0.18696 -1.110549,0.55518 -0.552012,0.32979 -1.01659,0.59961 -1.032395,0.59961 -0.01581,0 0.08239,-0.24052 0.218219,-0.5345 z m 21.47902,-16.02517 -0.01926,-1.21426 -15.415809,-0.0164 c -8.478696,-0.009 -15.447654,0.007 -15.486573,0.0352 -0.03892,0.0284 -0.25349,0.29711 -0.47682,0.59716 l -0.406056,0.54553 H 8.3631822 c -1.8187081,0 -3.3042386,-0.0238 -3.3011809,-0.0528 0.00306,-0.029 0.4782034,-0.47397 1.0558773,-0.98875 0.5776747,-0.51477 1.0503172,-0.96469 1.0503172,-0.99982 0,-0.0351 -0.4726425,-0.48505 -1.0503172,-0.99983 -0.5776739,-0.51477 -1.0528189,-0.9597 -1.0558773,-0.98874 -0.00305,-0.029 1.4824728,-0.0528 3.3011809,-0.0528 h 3.3067408 l 0.406056,0.54554 c 0.22333,0.30005 0.437899,0.56877 0.47682,0.59716 0.03892,0.0284 7.007877,0.0442 15.486573,0.0352 l 15.415809,-0.0164 0.01926,-1.21426 c 0.01059,-0.66784 0.03598,-1.21426 0.05642,-1.21426 0.06403,0 4.323809,3.25942 4.323809,3.30842 0,0.049 -4.259778,3.30841 -4.323809,3.30841 -0.02044,0 -0.04583,-0.54641 -0.05642,-1.21426 z m -6.349884,-5.44658 c -0.545482,-2.73386 -1.666977,-5.18066 -3.353448,-7.31631 -0.566944,-0.71795 -1.982573,-2.13358 -2.700519,-2.70052 -1.668498,-1.31757 -3.625203,-2.31255 -5.866701,-2.98322 l -0.582945,-0.17441 -0.164115,0.22117 c -0.482146,0.64979 -1.929957,2.61644 -3.090721,4.19832 -0.724429,0.98724 -1.982299,2.69776 -2.795266,3.80116 -0.812966,1.10339 -1.970898,2.67928 -2.57318,3.50199 l -1.095059,1.49582 h -1.577445 -1.577445 l 1.338617,-1.81259 c 0.736239,-0.99692 1.510445,-2.05016 1.720457,-2.34052 0.210012,-0.29037 0.6758,-0.9266 1.035083,-1.41386 0.359284,-0.48725 1.872781,-2.53934 3.363328,-4.56021 1.490547,-2.02086 2.783681,-3.78116 2.873633,-3.91176 l 0.163547,-0.23746 -0.246957,-0.53451 c -0.135826,-0.29398 -0.234025,-0.5345 -0.218219,-0.5345 0.01581,0 0.480383,0.26982 1.032395,0.59961 0.616347,0.36822 1.044906,0.58246 1.110549,0.55518 0.219115,-0.0911 2.793277,-0.11734 3.489738,-0.0356 2.933406,0.34423 5.882852,1.6541 8.306323,3.68888 2.395988,2.01171 4.402868,5.09019 5.350403,8.20731 0.268166,0.8822 0.561476,2.19096 0.636559,2.84038 l 0.0468,0.40476 h -2.217021 -2.217021 z"
       id="path1700"
       inkscape:connector-curvature="0" />
  </g>
  <style
     type="text/css"
     id="style851">
	.st0{fill:#3A3A3A;}
</style>
</svg>
