<?xml version="1.0" encoding="UTF-8" standalone="no"?>
<!-- Created with Inkscape (http://www.inkscape.org/) -->

<svg
   xmlns:dc="http://purl.org/dc/elements/1.1/"
   xmlns:cc="http://creativecommons.org/ns#"
   xmlns:rdf="http://www.w3.org/1999/02/22-rdf-syntax-ns#"
   xmlns:svg="http://www.w3.org/2000/svg"
   xmlns="http://www.w3.org/2000/svg"
   xmlns:sodipodi="http://sodipodi.sourceforge.net/DTD/sodipodi-0.dtd"
   xmlns:inkscape="http://www.inkscape.org/namespaces/inkscape"
   width="128"
   height="128"
   viewBox="0 0 128 128"
   id="svg2"
   version="1.1"
   inkscape:version="0.92.4 (5da689c313, 2019-01-14)"
   sodipodi:docname="reeducation.svg"
   inkscape:export-filename="D:\Development\Games\My Colony\Web\1.3.0\html5\images\reeducation.png"
   inkscape:export-xdpi="96"
   inkscape:export-ydpi="96">
  <defs
     id="defs4">
    <filter
       inkscape:collect="always"
       style="color-interpolation-filters:sRGB"
       id="filter1314"
       x="-0.078618684"
       width="1.1572374"
       y="-0.12324817"
       height="1.2464963">
      <feGaussianBlur
         inkscape:collect="always"
         stdDeviation="3.1187205"
         id="feGaussianBlur1316" />
    </filter>
    <filter
       inkscape:collect="always"
       style="color-interpolation-filters:sRGB"
       id="filter1475"
       x="-0.14025683"
       width="1.2805137"
       y="-0.14794845"
       height="1.2958969">
      <feGaussianBlur
         inkscape:collect="always"
         stdDeviation="2.886706"
         id="feGaussianBlur1477" />
    </filter>
  </defs>
  <sodipodi:namedview
     id="base"
     pagecolor="#ffffff"
     bordercolor="#666666"
     borderopacity="1.0"
     inkscape:pageopacity="0.0"
     inkscape:pageshadow="2"
     inkscape:zoom="2.8798615"
     inkscape:cx="73.699714"
     inkscape:cy="81.401548"
     inkscape:document-units="px"
     inkscape:current-layer="layer1"
     showgrid="false"
     units="px"
     inkscape:window-width="1649"
     inkscape:window-height="1059"
     inkscape:window-x="2561"
     inkscape:window-y="102"
     inkscape:window-maximized="0"
     inkscape:snap-bbox="true"
     inkscape:bbox-paths="true"
     inkscape:bbox-nodes="true"
     inkscape:snap-global="false">
    <inkscape:grid
       type="xygrid"
       id="grid4136"
       empspacing="16" />
  </sodipodi:namedview>
  <metadata
     id="metadata7">
    <rdf:RDF>
      <cc:Work
         rdf:about="">
        <dc:format>image/svg+xml</dc:format>
        <dc:type
           rdf:resource="http://purl.org/dc/dcmitype/StillImage" />
        <dc:title></dc:title>
      </cc:Work>
    </rdf:RDF>
  </metadata>
  <g
     inkscape:label="Layer 1"
     inkscape:groupmode="layer"
     id="layer1"
     transform="translate(0,-924.3622)">
    <path
       style="fill:#000000;stroke:none;stroke-width:1px;stroke-linecap:butt;stroke-linejoin:miter;stroke-opacity:1;filter:url(#filter1314);opacity:0.609"
       d="m 18.949772,1027.933 32.876712,16.6666 31.96347,-3.6529 27.397256,-13.927 -49.999995,-43.15065 -45.20548,22.60275 z"
       id="path1256"
       inkscape:connector-curvature="0" />
    <path
       inkscape:connector-curvature="0"
       id="path897"
       d="m 64.000001,925.59716 -16.765034,8.38252 -16.765035,8.38251 16.765035,8.38251 16.765034,8.3825 16.765034,-8.3825 16.765037,-8.38251 -16.765037,-8.38251 z"
       style="opacity:1;fill:#5b2ca0;fill-opacity:1;fill-rule:evenodd;stroke:#4c208d;stroke-width:1;stroke-linecap:round;stroke-linejoin:round;stroke-miterlimit:4;stroke-dasharray:none;stroke-opacity:1" />
    <path
       style="fill:#533283;stroke:#4c208d;stroke-width:1px;stroke-linecap:round;stroke-linejoin:round;stroke-opacity:1;fill-opacity:1"
       d="M 97.530072,942.36219 126.36248,968.3622 64,999.5434 l 10e-7,-40.4162 z"
       id="path903"
       inkscape:connector-curvature="0" />
    <path
       style="fill:#4f2d80;stroke:#4c208d;stroke-width:1px;stroke-linecap:round;stroke-linejoin:round;stroke-opacity:1;fill-opacity:1"
       d="M 30.469932,942.36219 1.637524,968.3622 64,999.5434 l 10e-7,-40.4162 z"
       id="path905"
       inkscape:connector-curvature="0" />
    <path
       style="fill:#4f2d80;stroke:#4c208d;stroke-width:1px;stroke-linecap:round;stroke-linejoin:round;stroke-opacity:1;fill-opacity:1"
       d="m 22.807553,1030.9472 v -14 l 21.170031,-10.585 v 14 z"
       id="path907"
       inkscape:connector-curvature="0" />
    <path
       style="fill:#403253;stroke:#4c208d;stroke-width:1px;stroke-linecap:round;stroke-linejoin:round;stroke-opacity:1;fill-opacity:1"
       d="m 105.19245,1030.9472 v -14 l -21.17003,-10.585 v 14 z"
       id="path909"
       inkscape:connector-curvature="0" />
    <g
       id="g1325"
       transform="translate(-1.4909478,-1.9169329)">
      <path
         sodipodi:nodetypes="ccccc"
         style="fill:#333333;fill-opacity:1;stroke:#000000;stroke-width:1;stroke-linecap:round;stroke-linejoin:round;stroke-miterlimit:4;stroke-dasharray:none;stroke-opacity:1"
         d="m 26.617804,1016.7355 v 16.9818 l 1.523261,0.8508 v -16.9288 z"
         id="path1416"
         inkscape:connector-curvature="0" />
      <path
         sodipodi:nodetypes="ccccc"
         style="fill:#4d4d4d;fill-opacity:1;stroke:#000000;stroke-width:1;stroke-linecap:round;stroke-linejoin:round;stroke-miterlimit:4;stroke-dasharray:none;stroke-opacity:1"
         d="m 29.870173,1016.2733 v 17.4577 l -1.729108,0.8371 v -17.5634 z"
         id="path1418"
         inkscape:connector-curvature="0" />
    </g>
    <g
       transform="translate(2.8753993,0.63897763)"
       id="g1331">
      <path
         inkscape:connector-curvature="0"
         id="path1327"
         d="m 26.617804,1016.7355 v 16.9818 l 1.523261,0.8508 v -16.9288 z"
         style="fill:#333333;fill-opacity:1;stroke:#000000;stroke-width:1;stroke-linecap:round;stroke-linejoin:round;stroke-miterlimit:4;stroke-dasharray:none;stroke-opacity:1"
         sodipodi:nodetypes="ccccc" />
      <path
         inkscape:connector-curvature="0"
         id="path1329"
         d="m 29.870173,1016.2733 v 17.4577 l -1.729108,0.8371 v -17.5634 z"
         style="fill:#4d4d4d;fill-opacity:1;stroke:#000000;stroke-width:1;stroke-linecap:round;stroke-linejoin:round;stroke-miterlimit:4;stroke-dasharray:none;stroke-opacity:1"
         sodipodi:nodetypes="ccccc" />
    </g>
    <g
       id="g1337"
       transform="translate(7.2417465,3.0883919)">
      <path
         sodipodi:nodetypes="ccccc"
         style="fill:#333333;fill-opacity:1;stroke:#000000;stroke-width:1;stroke-linecap:round;stroke-linejoin:round;stroke-miterlimit:4;stroke-dasharray:none;stroke-opacity:1"
         d="m 26.617804,1016.7355 v 16.9818 l 1.523261,0.8508 v -16.9288 z"
         id="path1333"
         inkscape:connector-curvature="0" />
      <path
         sodipodi:nodetypes="ccccc"
         style="fill:#4d4d4d;fill-opacity:1;stroke:#000000;stroke-width:1;stroke-linecap:round;stroke-linejoin:round;stroke-miterlimit:4;stroke-dasharray:none;stroke-opacity:1"
         d="m 29.870173,1016.2733 v 17.4577 l -1.729108,0.8371 v -17.5634 z"
         id="path1335"
         inkscape:connector-curvature="0" />
    </g>
    <g
       transform="translate(11.608094,5.5378062)"
       id="g1343">
      <path
         inkscape:connector-curvature="0"
         id="path1339"
         d="m 26.617804,1016.7355 v 16.9818 l 1.523261,0.8508 v -16.9288 z"
         style="fill:#333333;fill-opacity:1;stroke:#000000;stroke-width:1;stroke-linecap:round;stroke-linejoin:round;stroke-miterlimit:4;stroke-dasharray:none;stroke-opacity:1"
         sodipodi:nodetypes="ccccc" />
      <path
         inkscape:connector-curvature="0"
         id="path1341"
         d="m 29.870173,1016.2733 v 17.4577 l -1.729108,0.8371 v -17.5634 z"
         style="fill:#4d4d4d;fill-opacity:1;stroke:#000000;stroke-width:1;stroke-linecap:round;stroke-linejoin:round;stroke-miterlimit:4;stroke-dasharray:none;stroke-opacity:1"
         sodipodi:nodetypes="ccccc" />
    </g>
    <path
       style="fill:#403253;stroke:#4c208d;stroke-width:1px;stroke-linecap:round;stroke-linejoin:round;stroke-opacity:1;fill-opacity:1"
       d="m 1.637524,968.3622 v 52 c 0,0 21.170029,10.585 21.170029,10.585 v -14 l 20.022417,10.0112 v 14 L 64,1051.5434 v -52 z"
       id="path899"
       inkscape:connector-curvature="0" />
    <g
       transform="matrix(-1,0,0,1,129.5124,-1.9169329)"
       id="g1349">
      <path
         inkscape:connector-curvature="0"
         id="path1345"
         d="m 26.617804,1016.7355 v 16.9818 l 1.523261,0.8508 v -16.9288 z"
         style="fill:#333333;fill-opacity:1;stroke:#000000;stroke-width:1;stroke-linecap:round;stroke-linejoin:round;stroke-miterlimit:4;stroke-dasharray:none;stroke-opacity:1"
         sodipodi:nodetypes="ccccc" />
      <path
         inkscape:connector-curvature="0"
         id="path1347"
         d="m 29.870173,1016.2733 v 17.4577 l -1.729108,0.8371 v -17.5634 z"
         style="fill:#4d4d4d;fill-opacity:1;stroke:#000000;stroke-width:1;stroke-linecap:round;stroke-linejoin:round;stroke-miterlimit:4;stroke-dasharray:none;stroke-opacity:1"
         sodipodi:nodetypes="ccccc" />
    </g>
    <g
       id="g1355"
       transform="matrix(-1,0,0,1,125.14605,0.63897763)">
      <path
         sodipodi:nodetypes="ccccc"
         style="fill:#333333;fill-opacity:1;stroke:#000000;stroke-width:1;stroke-linecap:round;stroke-linejoin:round;stroke-miterlimit:4;stroke-dasharray:none;stroke-opacity:1"
         d="m 26.617804,1016.7355 v 16.9818 l 1.523261,0.8508 v -16.9288 z"
         id="path1351"
         inkscape:connector-curvature="0" />
      <path
         sodipodi:nodetypes="ccccc"
         style="fill:#4d4d4d;fill-opacity:1;stroke:#000000;stroke-width:1;stroke-linecap:round;stroke-linejoin:round;stroke-miterlimit:4;stroke-dasharray:none;stroke-opacity:1"
         d="m 29.870173,1016.2733 v 17.4577 l -1.729108,0.8371 v -17.5634 z"
         id="path1353"
         inkscape:connector-curvature="0" />
    </g>
    <g
       transform="matrix(-1,0,0,1,120.7797,3.0883919)"
       id="g1361">
      <path
         inkscape:connector-curvature="0"
         id="path1357"
         d="m 26.617804,1016.7355 v 16.9818 l 1.523261,0.8508 v -16.9288 z"
         style="fill:#333333;fill-opacity:1;stroke:#000000;stroke-width:1;stroke-linecap:round;stroke-linejoin:round;stroke-miterlimit:4;stroke-dasharray:none;stroke-opacity:1"
         sodipodi:nodetypes="ccccc" />
      <path
         inkscape:connector-curvature="0"
         id="path1359"
         d="m 29.870173,1016.2733 v 17.4577 l -1.729108,0.8371 v -17.5634 z"
         style="fill:#4d4d4d;fill-opacity:1;stroke:#000000;stroke-width:1;stroke-linecap:round;stroke-linejoin:round;stroke-miterlimit:4;stroke-dasharray:none;stroke-opacity:1"
         sodipodi:nodetypes="ccccc" />
    </g>
    <g
       id="g1367"
       transform="matrix(-1,0,0,1,116.41335,5.5378062)">
      <path
         sodipodi:nodetypes="ccccc"
         style="fill:#333333;fill-opacity:1;stroke:#000000;stroke-width:1;stroke-linecap:round;stroke-linejoin:round;stroke-miterlimit:4;stroke-dasharray:none;stroke-opacity:1"
         d="m 26.617804,1016.7355 v 16.9818 l 1.523261,0.8508 v -16.9288 z"
         id="path1363"
         inkscape:connector-curvature="0" />
      <path
         sodipodi:nodetypes="ccccc"
         style="fill:#4d4d4d;fill-opacity:1;stroke:#000000;stroke-width:1;stroke-linecap:round;stroke-linejoin:round;stroke-miterlimit:4;stroke-dasharray:none;stroke-opacity:1"
         d="m 29.870173,1016.2733 v 17.4577 l -1.729108,0.8371 v -17.5634 z"
         id="path1365"
         inkscape:connector-curvature="0" />
    </g>
    <path
       style="fill:#4f2d80;stroke:#4c208d;stroke-width:1px;stroke-linecap:round;stroke-linejoin:round;stroke-opacity:1;fill-opacity:1"
       d="m 64,1051.5434 21.17003,-10.585 v -14 l 20.02242,-10.0112 v 14 l 21.17003,-10.585 v -52 L 64,999.5434 Z"
       id="path901"
       inkscape:connector-curvature="0" />
    <path
       style="opacity:1;fill:#d4aa00;fill-opacity:1;fill-rule:evenodd;stroke:#4c208d;stroke-width:1;stroke-linecap:round;stroke-linejoin:round;stroke-miterlimit:4;stroke-dasharray:none;stroke-opacity:1"
       d="m 64.000001,931.48323 -10.878963,5.43948 -10.878964,5.43948 10.878964,5.43947 10.878963,5.43947 10.878964,-5.43947 10.878965,-5.43947 -10.878965,-5.43948 z"
       id="path1252"
       inkscape:connector-curvature="0" />
    <path
       style="opacity:1;fill:#5b2ca0;fill-opacity:1;fill-rule:evenodd;stroke:#4c208d;stroke-width:1;stroke-linecap:round;stroke-linejoin:round;stroke-miterlimit:4;stroke-dasharray:none;stroke-opacity:1"
       d="m 64.000002,936.52842 -5.83376,2.91689 -5.833761,2.91687 5.833761,2.91688 5.83376,2.91688 5.83376,-2.91688 5.833761,-2.91688 -5.833761,-2.91687 z"
       id="path1254"
       inkscape:connector-curvature="0" />
    <g
       id="g1380"
       transform="matrix(0.69082826,-0.02936292,0.02936292,0.69082826,114.64856,359.89899)">
      <path
         sodipodi:nodetypes="cccccccc"
         inkscape:connector-curvature="0"
         id="path888"
         d="m -174.83532,885.96325 -16.93624,-8.1602 -8.77605,50.5008 8.00622,-15.5505 1.84759,26.944 9.54588,-24.3266 5.85071,15.0886 z"
         style="fill:#ff00ff;fill-opacity:1;stroke:#c9a22b;stroke-width:1px;stroke-linecap:round;stroke-linejoin:round;stroke-opacity:1" />
      <path
         style="opacity:0.047;fill:#000000;fill-opacity:1;stroke:none;stroke-width:1px;stroke-linecap:round;stroke-linejoin:round;stroke-opacity:1"
         d="m -174.83532,885.96325 -16.93624,-8.1602 -8.77605,50.5008 8.00622,-15.5505 1.84759,26.944 9.54588,-24.3266 5.85071,15.0886 z"
         id="path890"
         inkscape:connector-curvature="0"
         sodipodi:nodetypes="cccccccc" />
      <g
         style="fill:#7a5f0e;fill-opacity:0.39779005;stroke:#c9a22b;stroke-opacity:1"
         inkscape:label="Layer 1"
         id="layer1-0"
         transform="matrix(-0.32033957,0,0,0.32033957,-178.07874,569.16336)">
        <g
           style="fill:#7a5f0e;fill-opacity:0.39779005;stroke:#c9a22b;stroke-opacity:1"
           id="g841"
           transform="matrix(3.0105747,0,0,3.0105747,-52.319836,-2050.8073)">
          <path
             inkscape:connector-curvature="0"
             id="path842"
             d="m 20.99364,1019.9283 c 0.524221,-1.9344 2.491495,-2.8881 4.364693,-2.8767 1.670493,-0.3808 3.735972,-0.076 4.573455,1.6146 0.583613,1.4862 0.682713,3.1368 0.963677,4.7103 -0.542367,1.3979 -0.323067,2.7621 -0.325902,4.1834 -1.211028,0.374 -2.952752,1.9255 -4.047415,0.5388 -1.29425,-0.9786 -2.928935,-1.1847 -4.336609,-1.8592 -1.838194,-1.1711 -3.090072,-3.7543 -1.983479,-5.8016 0.193543,-0.2566 0.48302,-0.4294 0.79158,-0.5096 z"
             style="fill:#7a5f0e;fill-opacity:0.39779005;stroke:#c9a22b;stroke-width:1.06419671px;stroke-linecap:butt;stroke-linejoin:miter;stroke-opacity:1" />
          <path
             inkscape:connector-curvature="0"
             id="path849"
             d="m 22.927265,1021.2271 c 0.322874,-0.099 0.671998,-0.073 0.987909,0.034 0.259981,0.036 0.535502,0 0.772175,0.1441 0.20652,0.1313 0.379635,0.3125 0.568424,0.47 0.126516,0.2287 0.147116,0.5885 -0.09852,0.7553 -0.416649,0.2681 -0.936191,0.1632 -1.403909,0.1879 -0.330266,0.091 -0.592042,-0.114 -0.728532,-0.3979 -0.174984,-0.1767 -0.168725,-0.4446 -0.266738,-0.6551 8.6e-4,-0.1998 0.260859,-0.3244 0.169187,-0.5382 z"
             style="fill:#7a5f0e;fill-opacity:0.39779005;stroke:#c9a22b;stroke-width:0.5;stroke-linecap:butt;stroke-linejoin:miter;stroke-miterlimit:4;stroke-dasharray:none;stroke-opacity:1" />
          <path
             style="fill:#7a5f0e;fill-opacity:0.39779005;stroke:#c9a22b;stroke-width:0.5;stroke-linecap:butt;stroke-linejoin:miter;stroke-miterlimit:4;stroke-dasharray:none;stroke-opacity:1"
             d="m 28.156616,1019.514 c -0.301261,0.1526 -0.534738,0.4135 -0.68811,0.7097 -0.162323,0.2062 -0.385776,0.3714 -0.456334,0.6393 -0.05771,0.2378 -0.05675,0.4884 -0.08352,0.7328 0.06747,0.2526 0.302176,0.526 0.594818,0.4758 0.486097,-0.096 0.787622,-0.5317 1.141697,-0.8383 0.301038,-0.1635 0.347443,-0.4927 0.248869,-0.7919 0.0035,-0.2487 -0.186805,-0.4373 -0.262191,-0.6569 -0.139192,-0.1434 -0.412913,-0.053 -0.495155,-0.2704 z"
             id="path854"
             inkscape:connector-curvature="0" />
          <path
             inkscape:connector-curvature="0"
             id="path856"
             d="m 27.031191,1019.2025 c -1.123576,1.0387 -1.032383,3.0309 -0.110191,4.1624 0.51778,0.5414 1.200976,0.8755 1.861221,1.2074"
             style="fill:none;fill-opacity:0.39779005;stroke:#c9a22b;stroke-width:0.40000001;stroke-linecap:round;stroke-linejoin:round;stroke-miterlimit:4;stroke-dasharray:none;stroke-opacity:1" />
          <path
             inkscape:connector-curvature="0"
             id="path858"
             d="m 24.240521,1020.2422 c 1.055404,0.6239 2.129433,1.5663 1.979455,2.9182 0.04648,0.6494 -0.03961,1.3886 -0.556777,1.8456"
             style="fill:none;fill-opacity:0.39779005;stroke:#c9a22b;stroke-width:0.40000001;stroke-linecap:round;stroke-linejoin:round;stroke-miterlimit:4;stroke-dasharray:none;stroke-opacity:1" />
          <path
             inkscape:connector-curvature="0"
             id="path876-6"
             d="m 27.08591,1025.5499 c -0.211214,0.05 -0.58771,0.09 -0.557769,0.3721 0.201115,0.1255 0.542814,0.3667 0.748217,0.1336 0.19862,-0.2528 0.102734,-0.425 -0.190448,-0.5057 z"
             style="fill:#7a5f0e;fill-opacity:0.39779005;stroke:#c9a22b;stroke-width:1px;stroke-linecap:butt;stroke-linejoin:miter;stroke-opacity:1" />
          <path
             inkscape:connector-curvature="0"
             id="path881"
             d="m 28.12286,1025.0027 c 0.211214,0.05 0.58771,0.09 0.557769,0.3721 -0.201115,0.1255 -0.542815,0.3667 -0.748219,0.1336 -0.198628,-0.2528 -0.102745,-0.425 0.19045,-0.5057 z"
             style="fill:#7a5f0e;fill-opacity:0.39779005;stroke:#c9a22b;stroke-width:1px;stroke-linecap:butt;stroke-linejoin:miter;stroke-opacity:1" />
        </g>
      </g>
    </g>
    <g
       transform="matrix(0.69082826,-0.02936292,0.02936292,0.69082826,155.51859,380.23432)"
       id="g1404">
      <path
         style="fill:#ff00ff;fill-opacity:1;stroke:#c9a22b;stroke-width:1px;stroke-linecap:round;stroke-linejoin:round;stroke-opacity:1"
         d="m -174.83532,885.96325 -16.93624,-8.1602 -8.77605,50.5008 8.00622,-15.5505 1.84759,26.944 9.54588,-24.3266 5.85071,15.0886 z"
         id="path1382"
         inkscape:connector-curvature="0"
         sodipodi:nodetypes="cccccccc" />
      <path
         sodipodi:nodetypes="cccccccc"
         inkscape:connector-curvature="0"
         id="path1384"
         d="m -174.83532,885.96325 -16.93624,-8.1602 -8.77605,50.5008 8.00622,-15.5505 1.84759,26.944 9.54588,-24.3266 5.85071,15.0886 z"
         style="opacity:0.047;fill:#000000;fill-opacity:1;stroke:none;stroke-width:1px;stroke-linecap:round;stroke-linejoin:round;stroke-opacity:1" />
      <g
         transform="matrix(-0.32033957,0,0,0.32033957,-178.07874,569.16336)"
         id="g1402"
         inkscape:label="Layer 1"
         style="fill:#7a5f0e;fill-opacity:0.39779005;stroke:#c9a22b;stroke-opacity:1">
        <g
           transform="matrix(3.0105747,0,0,3.0105747,-52.319836,-2050.8073)"
           id="g1400"
           style="fill:#7a5f0e;fill-opacity:0.39779005;stroke:#c9a22b;stroke-opacity:1">
          <path
             style="fill:#7a5f0e;fill-opacity:0.39779005;stroke:#c9a22b;stroke-width:1.06419671px;stroke-linecap:butt;stroke-linejoin:miter;stroke-opacity:1"
             d="m 20.99364,1019.9283 c 0.524221,-1.9344 2.491495,-2.8881 4.364693,-2.8767 1.670493,-0.3808 3.735972,-0.076 4.573455,1.6146 0.583613,1.4862 0.682713,3.1368 0.963677,4.7103 -0.542367,1.3979 -0.323067,2.7621 -0.325902,4.1834 -1.211028,0.374 -2.952752,1.9255 -4.047415,0.5388 -1.29425,-0.9786 -2.928935,-1.1847 -4.336609,-1.8592 -1.838194,-1.1711 -3.090072,-3.7543 -1.983479,-5.8016 0.193543,-0.2566 0.48302,-0.4294 0.79158,-0.5096 z"
             id="path1386"
             inkscape:connector-curvature="0" />
          <path
             style="fill:#7a5f0e;fill-opacity:0.39779005;stroke:#c9a22b;stroke-width:0.5;stroke-linecap:butt;stroke-linejoin:miter;stroke-miterlimit:4;stroke-dasharray:none;stroke-opacity:1"
             d="m 22.927265,1021.2271 c 0.322874,-0.099 0.671998,-0.073 0.987909,0.034 0.259981,0.036 0.535502,0 0.772175,0.1441 0.20652,0.1313 0.379635,0.3125 0.568424,0.47 0.126516,0.2287 0.147116,0.5885 -0.09852,0.7553 -0.416649,0.2681 -0.936191,0.1632 -1.403909,0.1879 -0.330266,0.091 -0.592042,-0.114 -0.728532,-0.3979 -0.174984,-0.1767 -0.168725,-0.4446 -0.266738,-0.6551 8.6e-4,-0.1998 0.260859,-0.3244 0.169187,-0.5382 z"
             id="path1388"
             inkscape:connector-curvature="0" />
          <path
             inkscape:connector-curvature="0"
             id="path1390"
             d="m 28.156616,1019.514 c -0.301261,0.1526 -0.534738,0.4135 -0.68811,0.7097 -0.162323,0.2062 -0.385776,0.3714 -0.456334,0.6393 -0.05771,0.2378 -0.05675,0.4884 -0.08352,0.7328 0.06747,0.2526 0.302176,0.526 0.594818,0.4758 0.486097,-0.096 0.787622,-0.5317 1.141697,-0.8383 0.301038,-0.1635 0.347443,-0.4927 0.248869,-0.7919 0.0035,-0.2487 -0.186805,-0.4373 -0.262191,-0.6569 -0.139192,-0.1434 -0.412913,-0.053 -0.495155,-0.2704 z"
             style="fill:#7a5f0e;fill-opacity:0.39779005;stroke:#c9a22b;stroke-width:0.5;stroke-linecap:butt;stroke-linejoin:miter;stroke-miterlimit:4;stroke-dasharray:none;stroke-opacity:1" />
          <path
             style="fill:none;fill-opacity:0.39779005;stroke:#c9a22b;stroke-width:0.40000001;stroke-linecap:round;stroke-linejoin:round;stroke-miterlimit:4;stroke-dasharray:none;stroke-opacity:1"
             d="m 27.031191,1019.2025 c -1.123576,1.0387 -1.032383,3.0309 -0.110191,4.1624 0.51778,0.5414 1.200976,0.8755 1.861221,1.2074"
             id="path1392"
             inkscape:connector-curvature="0" />
          <path
             style="fill:none;fill-opacity:0.39779005;stroke:#c9a22b;stroke-width:0.40000001;stroke-linecap:round;stroke-linejoin:round;stroke-miterlimit:4;stroke-dasharray:none;stroke-opacity:1"
             d="m 24.240521,1020.2422 c 1.055404,0.6239 2.129433,1.5663 1.979455,2.9182 0.04648,0.6494 -0.03961,1.3886 -0.556777,1.8456"
             id="path1394"
             inkscape:connector-curvature="0" />
          <path
             style="fill:#7a5f0e;fill-opacity:0.39779005;stroke:#c9a22b;stroke-width:1px;stroke-linecap:butt;stroke-linejoin:miter;stroke-opacity:1"
             d="m 27.08591,1025.5499 c -0.211214,0.05 -0.58771,0.09 -0.557769,0.3721 0.201115,0.1255 0.542814,0.3667 0.748217,0.1336 0.19862,-0.2528 0.102734,-0.425 -0.190448,-0.5057 z"
             id="path1396"
             inkscape:connector-curvature="0" />
          <path
             style="fill:#7a5f0e;fill-opacity:0.39779005;stroke:#c9a22b;stroke-width:1px;stroke-linecap:butt;stroke-linejoin:miter;stroke-opacity:1"
             d="m 28.12286,1025.0027 c 0.211214,0.05 0.58771,0.09 0.557769,0.3721 -0.201115,0.1255 -0.542815,0.3667 -0.748219,0.1336 -0.198628,-0.2528 -0.102745,-0.425 0.19045,-0.5057 z"
             id="path1398"
             inkscape:connector-curvature="0" />
        </g>
      </g>
    </g>
    <path
       style="fill:#00ccff;stroke:#4c208d;stroke-width:1px;stroke-linecap:round;stroke-linejoin:round;stroke-opacity:1;fill-opacity:1"
       d="m 71.148036,1005.6855 v 21.7522 l 49.395774,-24.9244 v -21.90336 z"
       id="path1411"
       inkscape:connector-curvature="0" />
    <path
       inkscape:connector-curvature="0"
       id="path1413"
       d="m 71.148036,1005.6855 v 21.7522 l 49.395774,-24.9244 v -21.90336 z"
       style="fill:#00ccff;stroke:none;stroke-width:1px;stroke-linecap:round;stroke-linejoin:round;stroke-opacity:1;fill-opacity:1;filter:url(#filter1475)" />
  </g>
</svg>
