<?xml version="1.0" encoding="UTF-8" standalone="no"?>
<svg
   xmlns:dc="http://purl.org/dc/elements/1.1/"
   xmlns:cc="http://creativecommons.org/ns#"
   xmlns:rdf="http://www.w3.org/1999/02/22-rdf-syntax-ns#"
   xmlns:svg="http://www.w3.org/2000/svg"
   xmlns="http://www.w3.org/2000/svg"
   xmlns:sodipodi="http://sodipodi.sourceforge.net/DTD/sodipodi-0.dtd"
   xmlns:inkscape="http://www.inkscape.org/namespaces/inkscape"
   inkscape:export-ydpi="90"
   inkscape:export-xdpi="90"
   inkscape:export-filename="D:\Development\Games\My Colony\Web\0.20.0\html5\images\sweatshop.png"
   sodipodi:docname="warfactory.svg"
   inkscape:version="1.0 (4035a4fb49, 2020-05-01)"
   version="1.1"
   id="svg2"
   viewBox="0 0 256 192"
   height="192"
   width="256">
  <defs
     id="defs4" />
  <sodipodi:namedview
     inkscape:document-rotation="0"
     inkscape:snap-global="false"
     inkscape:bbox-nodes="true"
     inkscape:bbox-paths="true"
     inkscape:snap-bbox="true"
     inkscape:window-maximized="0"
     inkscape:window-y="141"
     inkscape:window-x="2181"
     inkscape:window-height="1133"
     inkscape:window-width="2130"
     units="px"
     showgrid="false"
     inkscape:current-layer="layer1"
     inkscape:document-units="px"
     inkscape:cy="132.39293"
     inkscape:cx="61.449926"
     inkscape:zoom="2.3619192"
     inkscape:pageshadow="2"
     inkscape:pageopacity="0.0"
     borderopacity="1.0"
     bordercolor="#666666"
     pagecolor="#ffffff"
     id="base">
    <inkscape:grid
       empspacing="16"
       id="grid4136"
       type="xygrid" />
  </sodipodi:namedview>
  <metadata
     id="metadata7">
    <rdf:RDF>
      <cc:Work
         rdf:about="">
        <dc:format>image/svg+xml</dc:format>
        <dc:type
           rdf:resource="http://purl.org/dc/dcmitype/StillImage" />
        <dc:title></dc:title>
      </cc:Work>
    </rdf:RDF>
  </metadata>
  <g
     transform="translate(0,-860.3622)"
     id="layer1"
     inkscape:groupmode="layer"
     inkscape:label="Layer 1">
    <path
       style="fill:#5b2ca0;fill-rule:evenodd;stroke:#4c208d;stroke-width:1px;stroke-linecap:round;stroke-linejoin:round;stroke-opacity:1;fill-opacity:1"
       d="M 159.6878,873.29634 253.21922,920.06205 96.497055,998.9935 2.7375051,952.4559 Z"
       id="path8115"
       inkscape:connector-curvature="0" />
    <path
       inkscape:connector-curvature="0"
       id="path8117"
       d="m 2.5093797,952.21514 -0.2281254,52.46886 94.2158007,46.0813 0.228126,-51.3282 z"
       style="fill:#463164;fill-rule:evenodd;stroke:#4c208d;stroke-width:1px;stroke-linecap:round;stroke-linejoin:round;stroke-opacity:1;fill-opacity:1" />
    <path
       inkscape:connector-curvature="0"
       id="path8119"
       d="m 96.497055,998.98085 156.722165,-78.70327 0,51.78447 -156.722165,78.47515 z"
       style="fill:#4f2d80;fill-rule:evenodd;stroke:#4c208d;stroke-width:1px;stroke-linecap:round;stroke-linejoin:round;stroke-opacity:1;fill-opacity:1" />
    <path
       style="fill:#4f2d80;fill-opacity:1;stroke:none;stroke-width:1;stroke-linecap:butt;stroke-linejoin:miter;stroke-miterlimit:4;stroke-dasharray:none;stroke-opacity:1"
       d="m 130.21285,863.11525 21.49494,-10.81595 9.72063,24.45563 -43.53751,21.63187 z"
       id="path3688"
       inkscape:connector-curvature="0" />
    <path
       sodipodi:nodetypes="ccccc"
       inkscape:connector-curvature="0"
       id="path877"
       d="m 130.06544,863.14238 -12.32162,35.40806 43.67393,21.76796 12.32162,-35.27137 z"
       style="fill:#463164;fill-opacity:1;stroke:#4c208d;stroke-width:1;stroke-linecap:round;stroke-linejoin:round;stroke-miterlimit:4;stroke-dasharray:none;stroke-opacity:1" />
    <path
       inkscape:connector-curvature="0"
       id="path879"
       d="m 173.73993,885.0475 21.49494,-10.81595 9.72064,24.45564 -43.53752,21.63184 z"
       style="fill:#4f2d80;fill-opacity:1;stroke:#4c208d;stroke-width:1;stroke-linecap:round;stroke-linejoin:round;stroke-miterlimit:4;stroke-dasharray:none;stroke-opacity:1" />
    <path
       inkscape:connector-curvature="0"
       id="path875"
       d="m 151.56044,852.46279 -21.49493,10.67903 43.67442,21.90568 21.49494,-10.81595 z"
       style="fill:#5b2ca0;fill-opacity:1;stroke:#4c208d;stroke-width:1;stroke-linecap:round;stroke-linejoin:round;stroke-miterlimit:4;stroke-dasharray:none;stroke-opacity:1" />
    <path
       style="fill:#d4aa00;fill-opacity:1;stroke:#4c208d;stroke-width:1;stroke-linecap:round;stroke-linejoin:round;stroke-miterlimit:4;stroke-dasharray:none;stroke-opacity:1"
       d="m 154.24548,856.40792 -16.29015,8.0932 33.09908,16.60143 16.29015,-8.19697 z"
       id="path881"
       inkscape:connector-curvature="0" />
    <path
       inkscape:connector-curvature="0"
       id="path883"
       d="m 157.8862,861.75725 -9.23279,4.58699 18.75962,9.40922 9.23279,-4.64581 z"
       style="fill:#5b2ca0;fill-opacity:1;stroke:#4c208d;stroke-width:1;stroke-linecap:round;stroke-linejoin:round;stroke-miterlimit:4;stroke-dasharray:none;stroke-opacity:1" />
    <path
       inkscape:connector-curvature="0"
       id="path2446"
       d="m 174.66822,884.70786 21.49494,-10.81595 9.72063,24.45563 -43.53751,21.63187 z"
       style="fill:#4f2d80;fill-opacity:1;stroke:none;stroke-width:1;stroke-linecap:butt;stroke-linejoin:miter;stroke-miterlimit:4;stroke-dasharray:none;stroke-opacity:1" />
    <path
       style="fill:#463164;fill-opacity:1;stroke:#4c208d;stroke-width:1;stroke-linecap:round;stroke-linejoin:round;stroke-miterlimit:4;stroke-dasharray:none;stroke-opacity:1"
       d="m 174.52081,884.73499 -12.32162,35.40806 43.67393,21.76796 12.32162,-35.27137 z"
       id="path2448"
       inkscape:connector-curvature="0"
       sodipodi:nodetypes="ccccc" />
    <path
       style="fill:#4f2d80;fill-opacity:1;stroke:#4c208d;stroke-width:1;stroke-linecap:round;stroke-linejoin:round;stroke-miterlimit:4;stroke-dasharray:none;stroke-opacity:1"
       d="m 218.1953,906.64011 21.49494,-10.81595 9.72064,24.45564 -43.53752,21.63184 z"
       id="path2450"
       inkscape:connector-curvature="0" />
    <path
       style="fill:#5b2ca0;fill-opacity:1;stroke:#4c208d;stroke-width:1;stroke-linecap:round;stroke-linejoin:round;stroke-miterlimit:4;stroke-dasharray:none;stroke-opacity:1"
       d="m 196.01581,874.0554 -21.49493,10.67903 43.67442,21.90568 21.49494,-10.81595 z"
       id="path2452"
       inkscape:connector-curvature="0" />
    <path
       inkscape:connector-curvature="0"
       id="path2454"
       d="m 198.70085,878.00053 -16.29015,8.0932 33.09908,16.60143 16.29015,-8.19697 z"
       style="fill:#d4aa00;fill-opacity:1;stroke:#4c208d;stroke-width:1;stroke-linecap:round;stroke-linejoin:round;stroke-miterlimit:4;stroke-dasharray:none;stroke-opacity:1" />
    <path
       style="fill:#5b2ca0;fill-opacity:1;stroke:#4c208d;stroke-width:1;stroke-linecap:round;stroke-linejoin:round;stroke-miterlimit:4;stroke-dasharray:none;stroke-opacity:1"
       d="m 202.34157,883.34986 -9.23279,4.58699 18.75962,9.40922 9.23279,-4.64581 z"
       id="path2456"
       inkscape:connector-curvature="0" />
    <g
       transform="translate(55.886756,-26.24984)"
       id="g2520">
      <path
         style="fill:#4f2d80;fill-opacity:1;stroke:none;stroke-width:1;stroke-linecap:butt;stroke-linejoin:miter;stroke-miterlimit:4;stroke-dasharray:none;stroke-opacity:1"
         d="m 20.132876,917.73185 21.49494,-10.81595 9.72063,24.45563 -43.5375101,21.63187 z"
         id="path2458"
         inkscape:connector-curvature="0" />
      <path
         sodipodi:nodetypes="ccccc"
         inkscape:connector-curvature="0"
         id="path2460"
         d="M 19.985466,917.75898 7.6638459,953.16704 51.337776,974.935 63.659396,939.66363 Z"
         style="fill:#463164;fill-opacity:1;stroke:#4c208d;stroke-width:1;stroke-linecap:round;stroke-linejoin:round;stroke-miterlimit:4;stroke-dasharray:none;stroke-opacity:1" />
      <path
         inkscape:connector-curvature="0"
         id="path2462"
         d="m 63.659956,939.6641 21.49494,-10.81595 9.72064,24.45564 -43.53752,21.63184 z"
         style="fill:#4f2d80;fill-opacity:1;stroke:#4c208d;stroke-width:1;stroke-linecap:round;stroke-linejoin:round;stroke-miterlimit:4;stroke-dasharray:none;stroke-opacity:1" />
      <path
         inkscape:connector-curvature="0"
         id="path2464"
         d="m 41.480466,907.07939 -21.49493,10.67903 43.67442,21.90568 21.49494,-10.81595 z"
         style="fill:#5b2ca0;fill-opacity:1;stroke:#4c208d;stroke-width:1;stroke-linecap:round;stroke-linejoin:round;stroke-miterlimit:4;stroke-dasharray:none;stroke-opacity:1" />
      <path
         style="fill:#d4aa00;fill-opacity:1;stroke:#4c208d;stroke-width:1;stroke-linecap:round;stroke-linejoin:round;stroke-miterlimit:4;stroke-dasharray:none;stroke-opacity:1"
         d="m 44.165506,911.02452 -16.29015,8.0932 33.09908,16.60143 16.29015,-8.19697 z"
         id="path2466"
         inkscape:connector-curvature="0" />
      <path
         inkscape:connector-curvature="0"
         id="path2468"
         d="m 47.806226,916.37385 -9.23279,4.58699 18.75962,9.40922 9.23279,-4.64581 z"
         style="fill:#5b2ca0;fill-opacity:1;stroke:#4c208d;stroke-width:1;stroke-linecap:round;stroke-linejoin:round;stroke-miterlimit:4;stroke-dasharray:none;stroke-opacity:1" />
      <path
         inkscape:connector-curvature="0"
         id="path2470"
         d="m 64.588246,939.32446 21.49494,-10.81595 9.72063,24.45563 -43.53751,21.63187 z"
         style="fill:#4f2d80;fill-opacity:1;stroke:none;stroke-width:1;stroke-linecap:butt;stroke-linejoin:miter;stroke-miterlimit:4;stroke-dasharray:none;stroke-opacity:1" />
      <path
         style="fill:#463164;fill-opacity:1;stroke:#4c208d;stroke-width:1;stroke-linecap:round;stroke-linejoin:round;stroke-miterlimit:4;stroke-dasharray:none;stroke-opacity:1"
         d="m 64.440836,939.35159 -12.32162,35.40806 43.67393,21.76796 12.321624,-35.27137 z"
         id="path2472"
         inkscape:connector-curvature="0"
         sodipodi:nodetypes="ccccc" />
      <path
         style="fill:#4f2d80;fill-opacity:1;stroke:#4c208d;stroke-width:1;stroke-linecap:round;stroke-linejoin:round;stroke-miterlimit:4;stroke-dasharray:none;stroke-opacity:1"
         d="m 108.11533,961.25671 21.49494,-10.81595 9.72064,24.45564 -43.537524,21.63184 z"
         id="path2474"
         inkscape:connector-curvature="0" />
      <path
         style="fill:#5b2ca0;fill-opacity:1;stroke:#4c208d;stroke-width:1;stroke-linecap:round;stroke-linejoin:round;stroke-miterlimit:4;stroke-dasharray:none;stroke-opacity:1"
         d="m 85.935836,928.672 -21.49493,10.67903 43.674424,21.90568 21.49494,-10.81595 z"
         id="path2476"
         inkscape:connector-curvature="0" />
      <path
         inkscape:connector-curvature="0"
         id="path2478"
         d="m 88.620876,932.61713 -16.29015,8.0932 33.099084,16.60143 16.29015,-8.19697 z"
         style="fill:#d4aa00;fill-opacity:1;stroke:#4c208d;stroke-width:1;stroke-linecap:round;stroke-linejoin:round;stroke-miterlimit:4;stroke-dasharray:none;stroke-opacity:1" />
      <path
         style="fill:#5b2ca0;fill-opacity:1;stroke:#4c208d;stroke-width:1;stroke-linecap:round;stroke-linejoin:round;stroke-miterlimit:4;stroke-dasharray:none;stroke-opacity:1"
         d="m 92.261596,937.96646 -9.23279,4.58699 18.759624,9.40922 9.23279,-4.64581 z"
         id="path2480"
         inkscape:connector-curvature="0" />
    </g>
    <g
       id="g2546"
       transform="translate(3.8992719e-7,0.84676879)">
      <path
         inkscape:connector-curvature="0"
         id="path2522"
         d="m 20.132876,917.73185 21.49494,-10.81595 9.72063,24.45563 -43.5375101,21.63187 z"
         style="fill:#4f2d80;fill-opacity:1;stroke:none;stroke-width:1;stroke-linecap:butt;stroke-linejoin:miter;stroke-miterlimit:4;stroke-dasharray:none;stroke-opacity:1" />
      <path
         style="fill:#463164;fill-opacity:1;stroke:#4c208d;stroke-width:1;stroke-linecap:round;stroke-linejoin:round;stroke-miterlimit:4;stroke-dasharray:none;stroke-opacity:1"
         d="M 19.985466,917.75898 7.6638459,953.16704 51.337776,974.935 63.659396,939.66363 Z"
         id="path2524"
         inkscape:connector-curvature="0"
         sodipodi:nodetypes="ccccc" />
      <path
         style="fill:#4f2d80;fill-opacity:1;stroke:#4c208d;stroke-width:1;stroke-linecap:round;stroke-linejoin:round;stroke-miterlimit:4;stroke-dasharray:none;stroke-opacity:1"
         d="m 63.659956,939.6641 21.49494,-10.81595 9.72064,24.45564 -43.53752,21.63184 z"
         id="path2526"
         inkscape:connector-curvature="0" />
      <path
         style="fill:#5b2ca0;fill-opacity:1;stroke:#4c208d;stroke-width:1;stroke-linecap:round;stroke-linejoin:round;stroke-miterlimit:4;stroke-dasharray:none;stroke-opacity:1"
         d="m 41.480466,907.07939 -21.49493,10.67903 43.67442,21.90568 21.49494,-10.81595 z"
         id="path2528"
         inkscape:connector-curvature="0" />
      <path
         inkscape:connector-curvature="0"
         id="path2530"
         d="m 44.165506,911.02452 -16.29015,8.0932 33.09908,16.60143 16.29015,-8.19697 z"
         style="fill:#d4aa00;fill-opacity:1;stroke:#4c208d;stroke-width:1;stroke-linecap:round;stroke-linejoin:round;stroke-miterlimit:4;stroke-dasharray:none;stroke-opacity:1" />
      <path
         style="fill:#5b2ca0;fill-opacity:1;stroke:#4c208d;stroke-width:1;stroke-linecap:round;stroke-linejoin:round;stroke-miterlimit:4;stroke-dasharray:none;stroke-opacity:1"
         d="m 47.806226,916.37385 -9.23279,4.58699 18.75962,9.40922 9.23279,-4.64581 z"
         id="path2532"
         inkscape:connector-curvature="0" />
      <path
         style="fill:#4f2d80;fill-opacity:1;stroke:none;stroke-width:1;stroke-linecap:butt;stroke-linejoin:miter;stroke-miterlimit:4;stroke-dasharray:none;stroke-opacity:1"
         d="m 64.588246,939.32446 21.49494,-10.81595 9.72063,24.45563 -43.53751,21.63187 z"
         id="path2534"
         inkscape:connector-curvature="0" />
      <path
         sodipodi:nodetypes="ccccc"
         inkscape:connector-curvature="0"
         id="path2536"
         d="m 64.440836,939.35159 -12.32162,35.40806 43.67393,21.76796 12.321624,-35.27137 z"
         style="fill:#463164;fill-opacity:1;stroke:#4c208d;stroke-width:1;stroke-linecap:round;stroke-linejoin:round;stroke-miterlimit:4;stroke-dasharray:none;stroke-opacity:1" />
      <path
         inkscape:connector-curvature="0"
         id="path2538"
         d="m 108.11533,961.25671 21.49494,-10.81595 9.72064,24.45564 -43.537524,21.63184 z"
         style="fill:#4f2d80;fill-opacity:1;stroke:#4c208d;stroke-width:1;stroke-linecap:round;stroke-linejoin:round;stroke-miterlimit:4;stroke-dasharray:none;stroke-opacity:1" />
      <path
         inkscape:connector-curvature="0"
         id="path2540"
         d="m 85.935836,928.672 -21.49493,10.67903 43.674424,21.90568 21.49494,-10.81595 z"
         style="fill:#5b2ca0;fill-opacity:1;stroke:#4c208d;stroke-width:1;stroke-linecap:round;stroke-linejoin:round;stroke-miterlimit:4;stroke-dasharray:none;stroke-opacity:1" />
      <path
         style="fill:#d4aa00;fill-opacity:1;stroke:#4c208d;stroke-width:1;stroke-linecap:round;stroke-linejoin:round;stroke-miterlimit:4;stroke-dasharray:none;stroke-opacity:1"
         d="m 88.620876,932.61713 -16.29015,8.0932 33.099084,16.60143 16.29015,-8.19697 z"
         id="path2542"
         inkscape:connector-curvature="0" />
      <path
         inkscape:connector-curvature="0"
         id="path2544"
         d="m 92.261596,937.96646 -9.23279,4.58699 18.759624,9.40922 9.23279,-4.64581 z"
         style="fill:#5b2ca0;fill-opacity:1;stroke:#4c208d;stroke-width:1;stroke-linecap:round;stroke-linejoin:round;stroke-miterlimit:4;stroke-dasharray:none;stroke-opacity:1" />
    </g>
    <path
       sodipodi:nodetypes="ccccc"
       inkscape:connector-curvature="0"
       id="path2053"
       d="m 236.33122,980.88489 v -20.9925 c 0.0757,-6.3723 12.21399,-9.4933 13.25331,-6.7724 v 21.1913 z"
       style="fill:#150925;fill-opacity:1;stroke:#4c208d;stroke-width:1px;stroke-linecap:round;stroke-linejoin:round;stroke-opacity:1" />
    <g
       transform="matrix(-0.69877019,0,0,0.69877019,118.829,264.05258)"
       id="g2904">
      <path
         style="fill:#ff00ff;fill-opacity:1;stroke:#c9a22b;stroke-width:1px;stroke-linecap:round;stroke-linejoin:round;stroke-opacity:1"
         d="m 11.65161,1041.2052 -16.9362395,-8.1602 -8.7760505,50.5008 8.0062205,-15.5505 1.84759,26.944 9.54588,-24.3266 5.8507095,15.0886 z"
         id="path888"
         inkscape:connector-curvature="0"
         sodipodi:nodetypes="cccccccc" />
      <path
         sodipodi:nodetypes="cccccccc"
         inkscape:connector-curvature="0"
         id="path890"
         d="m 11.65161,1041.2052 -16.9362395,-8.1602 -8.7760505,50.5008 8.0062205,-15.5505 1.84759,26.944 9.54588,-24.3266 5.8507095,15.0886 z"
         style="opacity:0.047;fill:#000000;fill-opacity:1;stroke:none;stroke-width:1px;stroke-linecap:round;stroke-linejoin:round;stroke-opacity:1" />
      <g
         transform="matrix(-0.32033957,0,0,0.32033957,8.4081905,724.40528)"
         id="layer1-0"
         inkscape:label="Layer 1"
         style="fill:#7a5f0e;fill-opacity:0.39779;stroke:#c9a22b;stroke-opacity:1">
        <g
           transform="matrix(3.0105747,0,0,3.0105747,-52.319836,-2050.8073)"
           id="g841"
           style="fill:#7a5f0e;fill-opacity:0.39779;stroke:#c9a22b;stroke-opacity:1">
          <path
             style="fill:#7a5f0e;fill-opacity:0.39779;stroke:#c9a22b;stroke-width:1.0642px;stroke-linecap:butt;stroke-linejoin:miter;stroke-opacity:1"
             d="m 20.99364,1019.9283 c 0.524221,-1.9344 2.491495,-2.8881 4.364693,-2.8767 1.670493,-0.3808 3.735972,-0.076 4.573455,1.6146 0.583613,1.4862 0.682713,3.1368 0.963677,4.7103 -0.542367,1.3979 -0.323067,2.7621 -0.325902,4.1834 -1.211028,0.374 -2.952752,1.9255 -4.047415,0.5388 -1.29425,-0.9786 -2.928935,-1.1847 -4.336609,-1.8592 -1.838194,-1.1711 -3.090072,-3.7543 -1.983479,-5.8016 0.193543,-0.2566 0.48302,-0.4294 0.79158,-0.5096 z"
             id="path842"
             inkscape:connector-curvature="0" />
          <path
             style="fill:#7a5f0e;fill-opacity:0.39779;stroke:#c9a22b;stroke-width:0.5;stroke-linecap:butt;stroke-linejoin:miter;stroke-miterlimit:4;stroke-dasharray:none;stroke-opacity:1"
             d="m 22.927265,1021.2271 c 0.322874,-0.099 0.671998,-0.073 0.987909,0.034 0.259981,0.036 0.535502,0 0.772175,0.1441 0.20652,0.1313 0.379635,0.3125 0.568424,0.47 0.126516,0.2287 0.147116,0.5885 -0.09852,0.7553 -0.416649,0.2681 -0.936191,0.1632 -1.403909,0.1879 -0.330266,0.091 -0.592042,-0.114 -0.728532,-0.3979 -0.174984,-0.1767 -0.168725,-0.4446 -0.266738,-0.6551 8.6e-4,-0.1998 0.260859,-0.3244 0.169187,-0.5382 z"
             id="path849"
             inkscape:connector-curvature="0" />
          <path
             inkscape:connector-curvature="0"
             id="path854"
             d="m 28.156616,1019.514 c -0.301261,0.1526 -0.534738,0.4135 -0.68811,0.7097 -0.162323,0.2062 -0.385776,0.3714 -0.456334,0.6393 -0.05771,0.2378 -0.05675,0.4884 -0.08352,0.7328 0.06747,0.2526 0.302176,0.526 0.594818,0.4758 0.486097,-0.096 0.787622,-0.5317 1.141697,-0.8383 0.301038,-0.1635 0.347443,-0.4927 0.248869,-0.7919 0.0035,-0.2487 -0.186805,-0.4373 -0.262191,-0.6569 -0.139192,-0.1434 -0.412913,-0.053 -0.495155,-0.2704 z"
             style="fill:#7a5f0e;fill-opacity:0.39779;stroke:#c9a22b;stroke-width:0.5;stroke-linecap:butt;stroke-linejoin:miter;stroke-miterlimit:4;stroke-dasharray:none;stroke-opacity:1" />
          <path
             style="fill:none;fill-opacity:0.39779;stroke:#c9a22b;stroke-width:0.4;stroke-linecap:round;stroke-linejoin:round;stroke-miterlimit:4;stroke-dasharray:none;stroke-opacity:1"
             d="m 27.031191,1019.2025 c -1.123576,1.0387 -1.032383,3.0309 -0.110191,4.1624 0.51778,0.5414 1.200976,0.8755 1.861221,1.2074"
             id="path856"
             inkscape:connector-curvature="0" />
          <path
             style="fill:none;fill-opacity:0.39779;stroke:#c9a22b;stroke-width:0.4;stroke-linecap:round;stroke-linejoin:round;stroke-miterlimit:4;stroke-dasharray:none;stroke-opacity:1"
             d="m 24.240521,1020.2422 c 1.055404,0.6239 2.129433,1.5663 1.979455,2.9182 0.04648,0.6494 -0.03961,1.3886 -0.556777,1.8456"
             id="path858"
             inkscape:connector-curvature="0" />
          <path
             style="fill:#7a5f0e;fill-opacity:0.39779;stroke:#c9a22b;stroke-width:1px;stroke-linecap:butt;stroke-linejoin:miter;stroke-opacity:1"
             d="m 27.08591,1025.5499 c -0.211214,0.05 -0.58771,0.09 -0.557769,0.3721 0.201115,0.1255 0.542814,0.3667 0.748217,0.1336 0.19862,-0.2528 0.102734,-0.425 -0.190448,-0.5057 z"
             id="path876-6"
             inkscape:connector-curvature="0" />
          <path
             style="fill:#7a5f0e;fill-opacity:0.39779;stroke:#c9a22b;stroke-width:1px;stroke-linecap:butt;stroke-linejoin:miter;stroke-opacity:1"
             d="m 28.12286,1025.0027 c 0.211214,0.05 0.58771,0.09 0.557769,0.3721 -0.201115,0.1255 -0.542815,0.3667 -0.748219,0.1336 -0.198628,-0.2528 -0.102745,-0.425 0.19045,-0.5057 z"
             id="path881-8"
             inkscape:connector-curvature="0" />
        </g>
      </g>
    </g>
    <path
       sodipodi:nodetypes="ccccc"
       inkscape:connector-curvature="0"
       id="path1687"
       d="M 92.288629,1004.3878 91.865244,1040.8614 6.6749435,998.49211 V 962.09104 Z"
       style="fill:#00ccff;stroke:#4c208d;stroke-width:1px;stroke-linecap:round;stroke-linejoin:round;stroke-opacity:1" />
    <path
       style="fill:#150925;fill-opacity:1;stroke:#4c208d;stroke-width:1px;stroke-linecap:round;stroke-linejoin:round;stroke-opacity:1"
       d="m 219.39584,988.9292 v -20.9925 c 0.0757,-6.3723 12.21399,-9.4933 13.25331,-6.7724 v 21.1913 z"
       id="path2889"
       inkscape:connector-curvature="0"
       sodipodi:nodetypes="ccccc" />
    <g
       id="g2928"
       transform="matrix(-0.69877019,0,0,0.69877019,142.53853,252.6212)">
      <path
         sodipodi:nodetypes="cccccccc"
         inkscape:connector-curvature="0"
         id="path2906"
         d="m 11.65161,1041.2052 -16.9362395,-8.1602 -8.7760505,50.5008 8.0062205,-15.5505 1.84759,26.944 9.54588,-24.3266 5.8507095,15.0886 z"
         style="fill:#ff00ff;fill-opacity:1;stroke:#c9a22b;stroke-width:1px;stroke-linecap:round;stroke-linejoin:round;stroke-opacity:1" />
      <path
         style="opacity:0.047;fill:#000000;fill-opacity:1;stroke:none;stroke-width:1px;stroke-linecap:round;stroke-linejoin:round;stroke-opacity:1"
         d="m 11.65161,1041.2052 -16.9362395,-8.1602 -8.7760505,50.5008 8.0062205,-15.5505 1.84759,26.944 9.54588,-24.3266 5.8507095,15.0886 z"
         id="path2908"
         inkscape:connector-curvature="0"
         sodipodi:nodetypes="cccccccc" />
      <g
         style="fill:#7a5f0e;fill-opacity:0.39779;stroke:#c9a22b;stroke-opacity:1"
         inkscape:label="Layer 1"
         id="g2926"
         transform="matrix(-0.32033957,0,0,0.32033957,8.4081905,724.40528)">
        <g
           style="fill:#7a5f0e;fill-opacity:0.39779;stroke:#c9a22b;stroke-opacity:1"
           id="g2924"
           transform="matrix(3.0105747,0,0,3.0105747,-52.319836,-2050.8073)">
          <path
             inkscape:connector-curvature="0"
             id="path2910"
             d="m 20.99364,1019.9283 c 0.524221,-1.9344 2.491495,-2.8881 4.364693,-2.8767 1.670493,-0.3808 3.735972,-0.076 4.573455,1.6146 0.583613,1.4862 0.682713,3.1368 0.963677,4.7103 -0.542367,1.3979 -0.323067,2.7621 -0.325902,4.1834 -1.211028,0.374 -2.952752,1.9255 -4.047415,0.5388 -1.29425,-0.9786 -2.928935,-1.1847 -4.336609,-1.8592 -1.838194,-1.1711 -3.090072,-3.7543 -1.983479,-5.8016 0.193543,-0.2566 0.48302,-0.4294 0.79158,-0.5096 z"
             style="fill:#7a5f0e;fill-opacity:0.39779;stroke:#c9a22b;stroke-width:1.0642px;stroke-linecap:butt;stroke-linejoin:miter;stroke-opacity:1" />
          <path
             inkscape:connector-curvature="0"
             id="path2912"
             d="m 22.927265,1021.2271 c 0.322874,-0.099 0.671998,-0.073 0.987909,0.034 0.259981,0.036 0.535502,0 0.772175,0.1441 0.20652,0.1313 0.379635,0.3125 0.568424,0.47 0.126516,0.2287 0.147116,0.5885 -0.09852,0.7553 -0.416649,0.2681 -0.936191,0.1632 -1.403909,0.1879 -0.330266,0.091 -0.592042,-0.114 -0.728532,-0.3979 -0.174984,-0.1767 -0.168725,-0.4446 -0.266738,-0.6551 8.6e-4,-0.1998 0.260859,-0.3244 0.169187,-0.5382 z"
             style="fill:#7a5f0e;fill-opacity:0.39779;stroke:#c9a22b;stroke-width:0.5;stroke-linecap:butt;stroke-linejoin:miter;stroke-miterlimit:4;stroke-dasharray:none;stroke-opacity:1" />
          <path
             style="fill:#7a5f0e;fill-opacity:0.39779;stroke:#c9a22b;stroke-width:0.5;stroke-linecap:butt;stroke-linejoin:miter;stroke-miterlimit:4;stroke-dasharray:none;stroke-opacity:1"
             d="m 28.156616,1019.514 c -0.301261,0.1526 -0.534738,0.4135 -0.68811,0.7097 -0.162323,0.2062 -0.385776,0.3714 -0.456334,0.6393 -0.05771,0.2378 -0.05675,0.4884 -0.08352,0.7328 0.06747,0.2526 0.302176,0.526 0.594818,0.4758 0.486097,-0.096 0.787622,-0.5317 1.141697,-0.8383 0.301038,-0.1635 0.347443,-0.4927 0.248869,-0.7919 0.0035,-0.2487 -0.186805,-0.4373 -0.262191,-0.6569 -0.139192,-0.1434 -0.412913,-0.053 -0.495155,-0.2704 z"
             id="path2914"
             inkscape:connector-curvature="0" />
          <path
             inkscape:connector-curvature="0"
             id="path2916"
             d="m 27.031191,1019.2025 c -1.123576,1.0387 -1.032383,3.0309 -0.110191,4.1624 0.51778,0.5414 1.200976,0.8755 1.861221,1.2074"
             style="fill:none;fill-opacity:0.39779;stroke:#c9a22b;stroke-width:0.4;stroke-linecap:round;stroke-linejoin:round;stroke-miterlimit:4;stroke-dasharray:none;stroke-opacity:1" />
          <path
             inkscape:connector-curvature="0"
             id="path2918"
             d="m 24.240521,1020.2422 c 1.055404,0.6239 2.129433,1.5663 1.979455,2.9182 0.04648,0.6494 -0.03961,1.3886 -0.556777,1.8456"
             style="fill:none;fill-opacity:0.39779;stroke:#c9a22b;stroke-width:0.4;stroke-linecap:round;stroke-linejoin:round;stroke-miterlimit:4;stroke-dasharray:none;stroke-opacity:1" />
          <path
             inkscape:connector-curvature="0"
             id="path2920"
             d="m 27.08591,1025.5499 c -0.211214,0.05 -0.58771,0.09 -0.557769,0.3721 0.201115,0.1255 0.542814,0.3667 0.748217,0.1336 0.19862,-0.2528 0.102734,-0.425 -0.190448,-0.5057 z"
             style="fill:#7a5f0e;fill-opacity:0.39779;stroke:#c9a22b;stroke-width:1px;stroke-linecap:butt;stroke-linejoin:miter;stroke-opacity:1" />
          <path
             inkscape:connector-curvature="0"
             id="path2922"
             d="m 28.12286,1025.0027 c 0.211214,0.05 0.58771,0.09 0.557769,0.3721 -0.201115,0.1255 -0.542815,0.3667 -0.748219,0.1336 -0.198628,-0.2528 -0.102745,-0.425 0.19045,-0.5057 z"
             style="fill:#7a5f0e;fill-opacity:0.39779;stroke:#c9a22b;stroke-width:1px;stroke-linecap:butt;stroke-linejoin:miter;stroke-opacity:1" />
        </g>
      </g>
    </g>
    <g
       transform="matrix(-0.69877019,0,0,0.69877019,166.24806,240.76643)"
       id="g2952">
      <path
         style="fill:#ff00ff;fill-opacity:1;stroke:#c9a22b;stroke-width:1px;stroke-linecap:round;stroke-linejoin:round;stroke-opacity:1"
         d="m 11.65161,1041.2052 -16.9362395,-8.1602 -8.7760505,50.5008 8.0062205,-15.5505 1.84759,26.944 9.54588,-24.3266 5.8507095,15.0886 z"
         id="path2930"
         inkscape:connector-curvature="0"
         sodipodi:nodetypes="cccccccc" />
      <path
         sodipodi:nodetypes="cccccccc"
         inkscape:connector-curvature="0"
         id="path2932"
         d="m 11.65161,1041.2052 -16.9362395,-8.1602 -8.7760505,50.5008 8.0062205,-15.5505 1.84759,26.944 9.54588,-24.3266 5.8507095,15.0886 z"
         style="opacity:0.047;fill:#000000;fill-opacity:1;stroke:none;stroke-width:1px;stroke-linecap:round;stroke-linejoin:round;stroke-opacity:1" />
      <g
         transform="matrix(-0.32033957,0,0,0.32033957,8.4081905,724.40528)"
         id="g2950"
         inkscape:label="Layer 1"
         style="fill:#7a5f0e;fill-opacity:0.39779;stroke:#c9a22b;stroke-opacity:1">
        <g
           transform="matrix(3.0105747,0,0,3.0105747,-52.319836,-2050.8073)"
           id="g2948"
           style="fill:#7a5f0e;fill-opacity:0.39779;stroke:#c9a22b;stroke-opacity:1">
          <path
             style="fill:#7a5f0e;fill-opacity:0.39779;stroke:#c9a22b;stroke-width:1.0642px;stroke-linecap:butt;stroke-linejoin:miter;stroke-opacity:1"
             d="m 20.99364,1019.9283 c 0.524221,-1.9344 2.491495,-2.8881 4.364693,-2.8767 1.670493,-0.3808 3.735972,-0.076 4.573455,1.6146 0.583613,1.4862 0.682713,3.1368 0.963677,4.7103 -0.542367,1.3979 -0.323067,2.7621 -0.325902,4.1834 -1.211028,0.374 -2.952752,1.9255 -4.047415,0.5388 -1.29425,-0.9786 -2.928935,-1.1847 -4.336609,-1.8592 -1.838194,-1.1711 -3.090072,-3.7543 -1.983479,-5.8016 0.193543,-0.2566 0.48302,-0.4294 0.79158,-0.5096 z"
             id="path2934"
             inkscape:connector-curvature="0" />
          <path
             style="fill:#7a5f0e;fill-opacity:0.39779;stroke:#c9a22b;stroke-width:0.5;stroke-linecap:butt;stroke-linejoin:miter;stroke-miterlimit:4;stroke-dasharray:none;stroke-opacity:1"
             d="m 22.927265,1021.2271 c 0.322874,-0.099 0.671998,-0.073 0.987909,0.034 0.259981,0.036 0.535502,0 0.772175,0.1441 0.20652,0.1313 0.379635,0.3125 0.568424,0.47 0.126516,0.2287 0.147116,0.5885 -0.09852,0.7553 -0.416649,0.2681 -0.936191,0.1632 -1.403909,0.1879 -0.330266,0.091 -0.592042,-0.114 -0.728532,-0.3979 -0.174984,-0.1767 -0.168725,-0.4446 -0.266738,-0.6551 8.6e-4,-0.1998 0.260859,-0.3244 0.169187,-0.5382 z"
             id="path2936"
             inkscape:connector-curvature="0" />
          <path
             inkscape:connector-curvature="0"
             id="path2938"
             d="m 28.156616,1019.514 c -0.301261,0.1526 -0.534738,0.4135 -0.68811,0.7097 -0.162323,0.2062 -0.385776,0.3714 -0.456334,0.6393 -0.05771,0.2378 -0.05675,0.4884 -0.08352,0.7328 0.06747,0.2526 0.302176,0.526 0.594818,0.4758 0.486097,-0.096 0.787622,-0.5317 1.141697,-0.8383 0.301038,-0.1635 0.347443,-0.4927 0.248869,-0.7919 0.0035,-0.2487 -0.186805,-0.4373 -0.262191,-0.6569 -0.139192,-0.1434 -0.412913,-0.053 -0.495155,-0.2704 z"
             style="fill:#7a5f0e;fill-opacity:0.39779;stroke:#c9a22b;stroke-width:0.5;stroke-linecap:butt;stroke-linejoin:miter;stroke-miterlimit:4;stroke-dasharray:none;stroke-opacity:1" />
          <path
             style="fill:none;fill-opacity:0.39779;stroke:#c9a22b;stroke-width:0.4;stroke-linecap:round;stroke-linejoin:round;stroke-miterlimit:4;stroke-dasharray:none;stroke-opacity:1"
             d="m 27.031191,1019.2025 c -1.123576,1.0387 -1.032383,3.0309 -0.110191,4.1624 0.51778,0.5414 1.200976,0.8755 1.861221,1.2074"
             id="path2940"
             inkscape:connector-curvature="0" />
          <path
             style="fill:none;fill-opacity:0.39779;stroke:#c9a22b;stroke-width:0.4;stroke-linecap:round;stroke-linejoin:round;stroke-miterlimit:4;stroke-dasharray:none;stroke-opacity:1"
             d="m 24.240521,1020.2422 c 1.055404,0.6239 2.129433,1.5663 1.979455,2.9182 0.04648,0.6494 -0.03961,1.3886 -0.556777,1.8456"
             id="path2942"
             inkscape:connector-curvature="0" />
          <path
             style="fill:#7a5f0e;fill-opacity:0.39779;stroke:#c9a22b;stroke-width:1px;stroke-linecap:butt;stroke-linejoin:miter;stroke-opacity:1"
             d="m 27.08591,1025.5499 c -0.211214,0.05 -0.58771,0.09 -0.557769,0.3721 0.201115,0.1255 0.542814,0.3667 0.748217,0.1336 0.19862,-0.2528 0.102734,-0.425 -0.190448,-0.5057 z"
             id="path2944"
             inkscape:connector-curvature="0" />
          <path
             style="fill:#7a5f0e;fill-opacity:0.39779;stroke:#c9a22b;stroke-width:1px;stroke-linecap:butt;stroke-linejoin:miter;stroke-opacity:1"
             d="m 28.12286,1025.0027 c 0.211214,0.05 0.58771,0.09 0.557769,0.3721 -0.201115,0.1255 -0.542815,0.3667 -0.748219,0.1336 -0.198628,-0.2528 -0.102745,-0.425 0.19045,-0.5057 z"
             id="path2946"
             inkscape:connector-curvature="0" />
        </g>
      </g>
    </g>
    <g
       id="g2976"
       transform="matrix(-0.69877019,0,0,0.69877019,189.95759,228.06489)">
      <path
         sodipodi:nodetypes="cccccccc"
         inkscape:connector-curvature="0"
         id="path2954"
         d="m 11.65161,1041.2052 -16.9362395,-8.1602 -8.7760505,50.5008 8.0062205,-15.5505 1.84759,26.944 9.54588,-24.3266 5.8507095,15.0886 z"
         style="fill:#ff00ff;fill-opacity:1;stroke:#c9a22b;stroke-width:1px;stroke-linecap:round;stroke-linejoin:round;stroke-opacity:1" />
      <path
         style="opacity:0.047;fill:#000000;fill-opacity:1;stroke:none;stroke-width:1px;stroke-linecap:round;stroke-linejoin:round;stroke-opacity:1"
         d="m 11.65161,1041.2052 -16.9362395,-8.1602 -8.7760505,50.5008 8.0062205,-15.5505 1.84759,26.944 9.54588,-24.3266 5.8507095,15.0886 z"
         id="path2956"
         inkscape:connector-curvature="0"
         sodipodi:nodetypes="cccccccc" />
      <g
         style="fill:#7a5f0e;fill-opacity:0.39779;stroke:#c9a22b;stroke-opacity:1"
         inkscape:label="Layer 1"
         id="g2974"
         transform="matrix(-0.32033957,0,0,0.32033957,8.4081905,724.40528)">
        <g
           style="fill:#7a5f0e;fill-opacity:0.39779;stroke:#c9a22b;stroke-opacity:1"
           id="g2972"
           transform="matrix(3.0105747,0,0,3.0105747,-52.319836,-2050.8073)">
          <path
             inkscape:connector-curvature="0"
             id="path2958"
             d="m 20.99364,1019.9283 c 0.524221,-1.9344 2.491495,-2.8881 4.364693,-2.8767 1.670493,-0.3808 3.735972,-0.076 4.573455,1.6146 0.583613,1.4862 0.682713,3.1368 0.963677,4.7103 -0.542367,1.3979 -0.323067,2.7621 -0.325902,4.1834 -1.211028,0.374 -2.952752,1.9255 -4.047415,0.5388 -1.29425,-0.9786 -2.928935,-1.1847 -4.336609,-1.8592 -1.838194,-1.1711 -3.090072,-3.7543 -1.983479,-5.8016 0.193543,-0.2566 0.48302,-0.4294 0.79158,-0.5096 z"
             style="fill:#7a5f0e;fill-opacity:0.39779;stroke:#c9a22b;stroke-width:1.0642px;stroke-linecap:butt;stroke-linejoin:miter;stroke-opacity:1" />
          <path
             inkscape:connector-curvature="0"
             id="path2960"
             d="m 22.927265,1021.2271 c 0.322874,-0.099 0.671998,-0.073 0.987909,0.034 0.259981,0.036 0.535502,0 0.772175,0.1441 0.20652,0.1313 0.379635,0.3125 0.568424,0.47 0.126516,0.2287 0.147116,0.5885 -0.09852,0.7553 -0.416649,0.2681 -0.936191,0.1632 -1.403909,0.1879 -0.330266,0.091 -0.592042,-0.114 -0.728532,-0.3979 -0.174984,-0.1767 -0.168725,-0.4446 -0.266738,-0.6551 8.6e-4,-0.1998 0.260859,-0.3244 0.169187,-0.5382 z"
             style="fill:#7a5f0e;fill-opacity:0.39779;stroke:#c9a22b;stroke-width:0.5;stroke-linecap:butt;stroke-linejoin:miter;stroke-miterlimit:4;stroke-dasharray:none;stroke-opacity:1" />
          <path
             style="fill:#7a5f0e;fill-opacity:0.39779;stroke:#c9a22b;stroke-width:0.5;stroke-linecap:butt;stroke-linejoin:miter;stroke-miterlimit:4;stroke-dasharray:none;stroke-opacity:1"
             d="m 28.156616,1019.514 c -0.301261,0.1526 -0.534738,0.4135 -0.68811,0.7097 -0.162323,0.2062 -0.385776,0.3714 -0.456334,0.6393 -0.05771,0.2378 -0.05675,0.4884 -0.08352,0.7328 0.06747,0.2526 0.302176,0.526 0.594818,0.4758 0.486097,-0.096 0.787622,-0.5317 1.141697,-0.8383 0.301038,-0.1635 0.347443,-0.4927 0.248869,-0.7919 0.0035,-0.2487 -0.186805,-0.4373 -0.262191,-0.6569 -0.139192,-0.1434 -0.412913,-0.053 -0.495155,-0.2704 z"
             id="path2962"
             inkscape:connector-curvature="0" />
          <path
             inkscape:connector-curvature="0"
             id="path2964"
             d="m 27.031191,1019.2025 c -1.123576,1.0387 -1.032383,3.0309 -0.110191,4.1624 0.51778,0.5414 1.200976,0.8755 1.861221,1.2074"
             style="fill:none;fill-opacity:0.39779;stroke:#c9a22b;stroke-width:0.4;stroke-linecap:round;stroke-linejoin:round;stroke-miterlimit:4;stroke-dasharray:none;stroke-opacity:1" />
          <path
             inkscape:connector-curvature="0"
             id="path2966"
             d="m 24.240521,1020.2422 c 1.055404,0.6239 2.129433,1.5663 1.979455,2.9182 0.04648,0.6494 -0.03961,1.3886 -0.556777,1.8456"
             style="fill:none;fill-opacity:0.39779;stroke:#c9a22b;stroke-width:0.4;stroke-linecap:round;stroke-linejoin:round;stroke-miterlimit:4;stroke-dasharray:none;stroke-opacity:1" />
          <path
             inkscape:connector-curvature="0"
             id="path2968"
             d="m 27.08591,1025.5499 c -0.211214,0.05 -0.58771,0.09 -0.557769,0.3721 0.201115,0.1255 0.542814,0.3667 0.748217,0.1336 0.19862,-0.2528 0.102734,-0.425 -0.190448,-0.5057 z"
             style="fill:#7a5f0e;fill-opacity:0.39779;stroke:#c9a22b;stroke-width:1px;stroke-linecap:butt;stroke-linejoin:miter;stroke-opacity:1" />
          <path
             inkscape:connector-curvature="0"
             id="path2970"
             d="m 28.12286,1025.0027 c 0.211214,0.05 0.58771,0.09 0.557769,0.3721 -0.201115,0.1255 -0.542815,0.3667 -0.748219,0.1336 -0.198628,-0.2528 -0.102745,-0.425 0.19045,-0.5057 z"
             style="fill:#7a5f0e;fill-opacity:0.39779;stroke:#c9a22b;stroke-width:1px;stroke-linecap:butt;stroke-linejoin:miter;stroke-opacity:1" />
        </g>
      </g>
    </g>
  </g>
</svg>
